<?xml version="1.0" encoding="UTF-8" standalone="no"?>
<!DOCTYPE svg PUBLIC "-//W3C//DTD SVG 1.1//EN"
 "http://www.w3.org/Graphics/SVG/1.1/DTD/svg11.dtd">
<!-- Generated by graphviz version 2.43.0 (0)
 -->
<!-- Title: /home/kubo/IFJ_Compiler/IFJ&#45;project01/src/ADT.c Pages: 1 -->
<svg width="264pt" height="95pt"
 viewBox="0.00 0.00 263.50 95.00" xmlns="http://www.w3.org/2000/svg" xmlns:xlink="http://www.w3.org/1999/xlink">
<g id="graph0" class="graph" transform="scale(1 1) rotate(0) translate(4 91)">
<title>/home/kubo/IFJ_Compiler/IFJ&#45;project01/src/ADT.c</title>
<polygon fill="white" stroke="transparent" points="-4,4 -4,-91 259.5,-91 259.5,4 -4,4"/>
<!-- Node1 -->
<g id="node1" class="node">
<title>Node1</title>
<g id="a_node1"><a xlink:title=" ">
<polygon fill="#bfbfbf" stroke="black" points="61,-56.5 61,-86.5 199,-86.5 199,-56.5 61,-56.5"/>
<text text-anchor="start" x="69" y="-74.5" font-family="Helvetica,sans-Serif" font-size="10.00">/home/kubo/IFJ_Compiler</text>
<text text-anchor="middle" x="130" y="-63.5" font-family="Helvetica,sans-Serif" font-size="10.00">/IFJ&#45;project01/src/ADT.c</text>
</a>
</g>
</g>
<!-- Node2 -->
<g id="node2" class="node">
<title>Node2</title>
<g id="a_node2"><a xlink:title=" ">
<polygon fill="white" stroke="#bfbfbf" points="0,-0.5 0,-19.5 50,-19.5 50,-0.5 0,-0.5"/>
<text text-anchor="middle" x="25" y="-7.5" font-family="Helvetica,sans-Serif" font-size="10.00">stdio.h</text>
</a>
</g>
</g>
<!-- Node1&#45;&gt;Node2 -->
<g id="edge1" class="edge">
<title>Node1&#45;&gt;Node2</title>
<path fill="none" stroke="midnightblue" d="M105.12,-56.4C88.29,-46.86 66.16,-34.32 49.43,-24.84"/>
<polygon fill="midnightblue" stroke="midnightblue" points="50.7,-21.54 40.28,-19.66 47.25,-27.63 50.7,-21.54"/>
</g>
<!-- Node3 -->
<g id="node3" class="node">
<title>Node3</title>
<g id="a_node3"><a xlink:title=" ">
<polygon fill="white" stroke="#bfbfbf" points="68.5,-0.5 68.5,-19.5 121.5,-19.5 121.5,-0.5 68.5,-0.5"/>
<text text-anchor="middle" x="95" y="-7.5" font-family="Helvetica,sans-Serif" font-size="10.00">stdlib.h</text>
</a>
</g>
</g>
<!-- Node1&#45;&gt;Node3 -->
<g id="edge2" class="edge">
<title>Node1&#45;&gt;Node3</title>
<path fill="none" stroke="midnightblue" d="M121.71,-56.4C116.78,-48.02 110.49,-37.33 105.25,-28.42"/>
<polygon fill="midnightblue" stroke="midnightblue" points="108.18,-26.5 100.09,-19.66 102.15,-30.05 108.18,-26.5"/>
</g>
<!-- Node4 -->
<g id="node4" class="node">
<title>Node4</title>
<g id="a_node4"><a xlink:title=" ">
<polygon fill="white" stroke="#bfbfbf" points="139.5,-0.5 139.5,-19.5 192.5,-19.5 192.5,-0.5 139.5,-0.5"/>
<text text-anchor="middle" x="166" y="-7.5" font-family="Helvetica,sans-Serif" font-size="10.00">string.h</text>
</a>
</g>
</g>
<!-- Node1&#45;&gt;Node4 -->
<g id="edge3" class="edge">
<title>Node1&#45;&gt;Node4</title>
<path fill="none" stroke="midnightblue" d="M138.53,-56.4C143.6,-48.02 150.07,-37.33 155.46,-28.42"/>
<polygon fill="midnightblue" stroke="midnightblue" points="158.58,-30.03 160.76,-19.66 152.59,-26.4 158.58,-30.03"/>
</g>
<!-- Node5 -->
<g id="node5" class="node">
<title>Node5</title>
<g id="a_node5"><a xlink:href="ADT_8h.html" target="_top" xlink:title=" ">
<polygon fill="white" stroke="black" points="210.5,-0.5 210.5,-19.5 255.5,-19.5 255.5,-0.5 210.5,-0.5"/>
<text text-anchor="middle" x="233" y="-7.5" font-family="Helvetica,sans-Serif" font-size="10.00">ADT.h</text>
</a>
</g>
</g>
<!-- Node1&#45;&gt;Node5 -->
<g id="edge4" class="edge">
<title>Node1&#45;&gt;Node5</title>
<path fill="none" stroke="midnightblue" d="M154.41,-56.4C170.92,-46.86 192.62,-34.32 209.04,-24.84"/>
<polygon fill="midnightblue" stroke="midnightblue" points="211.1,-27.69 218.01,-19.66 207.6,-21.63 211.1,-27.69"/>
</g>
</g>
</svg>
