<?xml version="1.0" encoding="UTF-8" standalone="no"?>
<!DOCTYPE svg PUBLIC "-//W3C//DTD SVG 1.1//EN"
 "http://www.w3.org/Graphics/SVG/1.1/DTD/svg11.dtd">
<!-- Generated by graphviz version 2.43.0 (0)
 -->
<!-- Title: /home/kubo/IFJ_Compiler/IFJ&#45;project01/src/error.h Pages: 1 -->
<svg width="393pt" height="273pt"
 viewBox="0.00 0.00 392.64 273.00" xmlns="http://www.w3.org/2000/svg" xmlns:xlink="http://www.w3.org/1999/xlink">
<g id="graph0" class="graph" transform="scale(1 1) rotate(0) translate(4 269)">
<title>/home/kubo/IFJ_Compiler/IFJ&#45;project01/src/error.h</title>
<polygon fill="white" stroke="transparent" points="-4,4 -4,-269 388.64,-269 388.64,4 -4,4"/>
<!-- Node1 -->
<g id="node1" class="node">
<title>Node1</title>
<g id="a_node1"><a xlink:title=" ">
<polygon fill="#bfbfbf" stroke="black" points="113.14,-234.5 113.14,-264.5 251.14,-264.5 251.14,-234.5 113.14,-234.5"/>
<text text-anchor="start" x="121.14" y="-252.5" font-family="Helvetica,sans-Serif" font-size="10.00">/home/kubo/IFJ_Compiler</text>
<text text-anchor="middle" x="182.14" y="-241.5" font-family="Helvetica,sans-Serif" font-size="10.00">/IFJ&#45;project01/src/error.h</text>
</a>
</g>
</g>
<!-- Node2 -->
<g id="node2" class="node">
<title>Node2</title>
<g id="a_node2"><a xlink:href="lexical__analyser_8h.html" target="_top" xlink:title=" ">
<polygon fill="white" stroke="black" points="113.14,-156.5 113.14,-197.5 251.14,-197.5 251.14,-156.5 113.14,-156.5"/>
<text text-anchor="start" x="121.14" y="-185.5" font-family="Helvetica,sans-Serif" font-size="10.00">/home/kubo/IFJ_Compiler</text>
<text text-anchor="start" x="121.14" y="-174.5" font-family="Helvetica,sans-Serif" font-size="10.00">/IFJ&#45;project01/src/lexical</text>
<text text-anchor="middle" x="182.14" y="-163.5" font-family="Helvetica,sans-Serif" font-size="10.00">_analyser.h</text>
</a>
</g>
</g>
<!-- Node1&#45;&gt;Node2 -->
<g id="edge1" class="edge">
<title>Node1&#45;&gt;Node2</title>
<path fill="none" stroke="midnightblue" d="M182.14,-223.98C182.14,-215.35 182.14,-205.76 182.14,-197.59"/>
<polygon fill="midnightblue" stroke="midnightblue" points="178.64,-224.23 182.14,-234.23 185.64,-224.23 178.64,-224.23"/>
</g>
<!-- Node4 -->
<g id="node4" class="node">
<title>Node4</title>
<g id="a_node4"><a xlink:href="main_8c.html" target="_top" xlink:title=" ">
<polygon fill="white" stroke="black" points="83.14,-6 83.14,-36 221.14,-36 221.14,-6 83.14,-6"/>
<text text-anchor="start" x="91.14" y="-24" font-family="Helvetica,sans-Serif" font-size="10.00">/home/kubo/IFJ_Compiler</text>
<text text-anchor="middle" x="152.14" y="-13" font-family="Helvetica,sans-Serif" font-size="10.00">/IFJ&#45;project01/src/main.c</text>
</a>
</g>
</g>
<!-- Node1&#45;&gt;Node4 -->
<g id="edge7" class="edge">
<title>Node1&#45;&gt;Node4</title>
<path fill="none" stroke="midnightblue" d="M136.56,-230.23C93.89,-210.3 32.95,-173.88 7.14,-120 -0.93,-103.17 -3.42,-93.39 7.14,-78 24.39,-52.85 54.66,-38.99 83.1,-31.36"/>
<polygon fill="midnightblue" stroke="midnightblue" points="135.36,-233.53 145.91,-234.47 138.25,-227.15 135.36,-233.53"/>
</g>
<!-- Node5 -->
<g id="node5" class="node">
<title>Node5</title>
<g id="a_node5"><a xlink:href="syntactic__analysis_8h.html" target="_top" xlink:title=" ">
<polygon fill="white" stroke="black" points="210.64,-78.5 210.64,-119.5 355.64,-119.5 355.64,-78.5 210.64,-78.5"/>
<text text-anchor="start" x="218.64" y="-107.5" font-family="Helvetica,sans-Serif" font-size="10.00">/home/kubo/IFJ_Compiler</text>
<text text-anchor="start" x="218.64" y="-96.5" font-family="Helvetica,sans-Serif" font-size="10.00">/IFJ&#45;project01/src/syntactic</text>
<text text-anchor="middle" x="283.14" y="-85.5" font-family="Helvetica,sans-Serif" font-size="10.00">_analysis.h</text>
</a>
</g>
</g>
<!-- Node1&#45;&gt;Node5 -->
<g id="edge8" class="edge">
<title>Node1&#45;&gt;Node5</title>
<path fill="none" stroke="midnightblue" d="M223.69,-229.61C237.13,-221.63 250.92,-211.09 260.14,-198 276.64,-174.56 281.44,-140.94 282.75,-119.79"/>
<polygon fill="midnightblue" stroke="midnightblue" points="221.98,-226.56 214.96,-234.5 225.4,-232.67 221.98,-226.56"/>
</g>
<!-- Node3 -->
<g id="node3" class="node">
<title>Node3</title>
<g id="a_node3"><a xlink:href="lexical__analyser_8c.html" target="_top" xlink:title=" ">
<polygon fill="white" stroke="black" points="16.14,-78.5 16.14,-119.5 154.14,-119.5 154.14,-78.5 16.14,-78.5"/>
<text text-anchor="start" x="24.14" y="-107.5" font-family="Helvetica,sans-Serif" font-size="10.00">/home/kubo/IFJ_Compiler</text>
<text text-anchor="start" x="24.14" y="-96.5" font-family="Helvetica,sans-Serif" font-size="10.00">/IFJ&#45;project01/src/lexical</text>
<text text-anchor="middle" x="85.14" y="-85.5" font-family="Helvetica,sans-Serif" font-size="10.00">_analyser.c</text>
</a>
</g>
</g>
<!-- Node2&#45;&gt;Node3 -->
<g id="edge2" class="edge">
<title>Node2&#45;&gt;Node3</title>
<path fill="none" stroke="midnightblue" d="M149.04,-150.06C136.27,-140.06 121.9,-128.8 110.03,-119.51"/>
<polygon fill="midnightblue" stroke="midnightblue" points="147.13,-153.02 157.16,-156.43 151.45,-147.51 147.13,-153.02"/>
</g>
<!-- Node2&#45;&gt;Node4 -->
<g id="edge3" class="edge">
<title>Node2&#45;&gt;Node4</title>
<path fill="none" stroke="midnightblue" d="M176.42,-146.41C172.66,-126.96 167.62,-100.96 163.14,-78 160.37,-63.8 157.18,-47.58 154.95,-36.27"/>
<polygon fill="midnightblue" stroke="midnightblue" points="173.03,-147.32 178.37,-156.47 179.91,-145.99 173.03,-147.32"/>
</g>
<!-- Node2&#45;&gt;Node5 -->
<g id="edge4" class="edge">
<title>Node2&#45;&gt;Node5</title>
<path fill="none" stroke="midnightblue" d="M216.23,-150.35C229.62,-140.27 244.74,-128.89 257.22,-119.51"/>
<polygon fill="midnightblue" stroke="midnightblue" points="214.04,-147.62 208.15,-156.43 218.24,-153.21 214.04,-147.62"/>
</g>
<!-- Node5&#45;&gt;Node4 -->
<g id="edge5" class="edge">
<title>Node5&#45;&gt;Node4</title>
<path fill="none" stroke="midnightblue" d="M240.59,-73.31C219.43,-61.04 194.61,-46.64 176.66,-36.23"/>
<polygon fill="midnightblue" stroke="midnightblue" points="239,-76.44 249.4,-78.43 242.51,-70.38 239,-76.44"/>
</g>
<!-- Node6 -->
<g id="node6" class="node">
<title>Node6</title>
<g id="a_node6"><a xlink:href="syntactic__analysis_8c.html" target="_top" xlink:title=" ">
<polygon fill="white" stroke="black" points="239.64,-0.5 239.64,-41.5 384.64,-41.5 384.64,-0.5 239.64,-0.5"/>
<text text-anchor="start" x="247.64" y="-29.5" font-family="Helvetica,sans-Serif" font-size="10.00">/home/kubo/IFJ_Compiler</text>
<text text-anchor="start" x="247.64" y="-18.5" font-family="Helvetica,sans-Serif" font-size="10.00">/IFJ&#45;project01/src/syntactic</text>
<text text-anchor="middle" x="312.14" y="-7.5" font-family="Helvetica,sans-Serif" font-size="10.00">_analysis.c</text>
</a>
</g>
</g>
<!-- Node5&#45;&gt;Node6 -->
<g id="edge6" class="edge">
<title>Node5&#45;&gt;Node6</title>
<path fill="none" stroke="midnightblue" d="M294.25,-68.88C297.75,-59.72 301.52,-49.83 304.7,-41.51"/>
<polygon fill="midnightblue" stroke="midnightblue" points="290.9,-67.84 290.61,-78.43 297.44,-70.33 290.9,-67.84"/>
</g>
</g>
</svg>
