<?xml version="1.0" encoding="UTF-8" standalone="no"?>
<!DOCTYPE svg PUBLIC "-//W3C//DTD SVG 1.1//EN"
 "http://www.w3.org/Graphics/SVG/1.1/DTD/svg11.dtd">
<!-- Generated by graphviz version 2.43.0 (0)
 -->
<!-- Title: /home/kubo/IFJ_Compiler/IFJ&#45;project01/src/lexical_analyser.h Pages: 1 -->
<svg width="407pt" height="206pt"
 viewBox="0.00 0.00 406.50 206.00" xmlns="http://www.w3.org/2000/svg" xmlns:xlink="http://www.w3.org/1999/xlink">
<g id="graph0" class="graph" transform="scale(1 1) rotate(0) translate(4 202)">
<title>/home/kubo/IFJ_Compiler/IFJ&#45;project01/src/lexical_analyser.h</title>
<polygon fill="white" stroke="transparent" points="-4,4 -4,-202 402.5,-202 402.5,4 -4,4"/>
<!-- Node1 -->
<g id="node1" class="node">
<title>Node1</title>
<g id="a_node1"><a xlink:title=" ">
<polygon fill="#bfbfbf" stroke="black" points="97,-156.5 97,-197.5 235,-197.5 235,-156.5 97,-156.5"/>
<text text-anchor="start" x="105" y="-185.5" font-family="Helvetica,sans-Serif" font-size="10.00">/home/kubo/IFJ_Compiler</text>
<text text-anchor="start" x="105" y="-174.5" font-family="Helvetica,sans-Serif" font-size="10.00">/IFJ&#45;project01/src/lexical</text>
<text text-anchor="middle" x="166" y="-163.5" font-family="Helvetica,sans-Serif" font-size="10.00">_analyser.h</text>
</a>
</g>
</g>
<!-- Node2 -->
<g id="node2" class="node">
<title>Node2</title>
<g id="a_node2"><a xlink:href="lexical__analyser_8c.html" target="_top" xlink:title=" ">
<polygon fill="white" stroke="black" points="0,-78.5 0,-119.5 138,-119.5 138,-78.5 0,-78.5"/>
<text text-anchor="start" x="8" y="-107.5" font-family="Helvetica,sans-Serif" font-size="10.00">/home/kubo/IFJ_Compiler</text>
<text text-anchor="start" x="8" y="-96.5" font-family="Helvetica,sans-Serif" font-size="10.00">/IFJ&#45;project01/src/lexical</text>
<text text-anchor="middle" x="69" y="-85.5" font-family="Helvetica,sans-Serif" font-size="10.00">_analyser.c</text>
</a>
</g>
</g>
<!-- Node1&#45;&gt;Node2 -->
<g id="edge1" class="edge">
<title>Node1&#45;&gt;Node2</title>
<path fill="none" stroke="midnightblue" d="M132.9,-150.06C120.13,-140.06 105.76,-128.8 93.9,-119.51"/>
<polygon fill="midnightblue" stroke="midnightblue" points="130.99,-153.02 141.02,-156.43 135.31,-147.51 130.99,-153.02"/>
</g>
<!-- Node3 -->
<g id="node3" class="node">
<title>Node3</title>
<g id="a_node3"><a xlink:href="main_8c.html" target="_top" xlink:title=" ">
<polygon fill="white" stroke="black" points="97,-6 97,-36 235,-36 235,-6 97,-6"/>
<text text-anchor="start" x="105" y="-24" font-family="Helvetica,sans-Serif" font-size="10.00">/home/kubo/IFJ_Compiler</text>
<text text-anchor="middle" x="166" y="-13" font-family="Helvetica,sans-Serif" font-size="10.00">/IFJ&#45;project01/src/main.c</text>
</a>
</g>
</g>
<!-- Node1&#45;&gt;Node3 -->
<g id="edge2" class="edge">
<title>Node1&#45;&gt;Node3</title>
<path fill="none" stroke="midnightblue" d="M166,-146.08C166,-113.04 166,-61.23 166,-36.32"/>
<polygon fill="midnightblue" stroke="midnightblue" points="162.5,-146.5 166,-156.5 169.5,-146.5 162.5,-146.5"/>
</g>
<!-- Node4 -->
<g id="node4" class="node">
<title>Node4</title>
<g id="a_node4"><a xlink:href="syntactic__analysis_8h.html" target="_top" xlink:title=" ">
<polygon fill="white" stroke="black" points="194.5,-78.5 194.5,-119.5 339.5,-119.5 339.5,-78.5 194.5,-78.5"/>
<text text-anchor="start" x="202.5" y="-107.5" font-family="Helvetica,sans-Serif" font-size="10.00">/home/kubo/IFJ_Compiler</text>
<text text-anchor="start" x="202.5" y="-96.5" font-family="Helvetica,sans-Serif" font-size="10.00">/IFJ&#45;project01/src/syntactic</text>
<text text-anchor="middle" x="267" y="-85.5" font-family="Helvetica,sans-Serif" font-size="10.00">_analysis.h</text>
</a>
</g>
</g>
<!-- Node1&#45;&gt;Node4 -->
<g id="edge3" class="edge">
<title>Node1&#45;&gt;Node4</title>
<path fill="none" stroke="midnightblue" d="M200.09,-150.35C213.48,-140.27 228.6,-128.89 241.08,-119.51"/>
<polygon fill="midnightblue" stroke="midnightblue" points="197.9,-147.62 192.01,-156.43 202.1,-153.21 197.9,-147.62"/>
</g>
<!-- Node4&#45;&gt;Node3 -->
<g id="edge4" class="edge">
<title>Node4&#45;&gt;Node3</title>
<path fill="none" stroke="midnightblue" d="M232.88,-72.32C216.86,-60.27 198.38,-46.36 184.9,-36.23"/>
<polygon fill="midnightblue" stroke="midnightblue" points="230.9,-75.21 240.99,-78.43 235.1,-69.62 230.9,-75.21"/>
</g>
<!-- Node5 -->
<g id="node5" class="node">
<title>Node5</title>
<g id="a_node5"><a xlink:href="syntactic__analysis_8c.html" target="_top" xlink:title=" ">
<polygon fill="white" stroke="black" points="253.5,-0.5 253.5,-41.5 398.5,-41.5 398.5,-0.5 253.5,-0.5"/>
<text text-anchor="start" x="261.5" y="-29.5" font-family="Helvetica,sans-Serif" font-size="10.00">/home/kubo/IFJ_Compiler</text>
<text text-anchor="start" x="261.5" y="-18.5" font-family="Helvetica,sans-Serif" font-size="10.00">/IFJ&#45;project01/src/syntactic</text>
<text text-anchor="middle" x="326" y="-7.5" font-family="Helvetica,sans-Serif" font-size="10.00">_analysis.c</text>
</a>
</g>
</g>
<!-- Node4&#45;&gt;Node5 -->
<g id="edge5" class="edge">
<title>Node4&#45;&gt;Node5</title>
<path fill="none" stroke="midnightblue" d="M288.47,-70.34C295.9,-60.78 304.05,-50.27 310.86,-41.51"/>
<polygon fill="midnightblue" stroke="midnightblue" points="285.56,-68.38 282.19,-78.43 291.09,-72.68 285.56,-68.38"/>
</g>
</g>
</svg>
