<?xml version="1.0" encoding="UTF-8" standalone="no"?>
<!DOCTYPE svg PUBLIC "-//W3C//DTD SVG 1.1//EN"
 "http://www.w3.org/Graphics/SVG/1.1/DTD/svg11.dtd">
<!-- Generated by graphviz version 2.43.0 (0)
 -->
<!-- Title: /home/kubo/IFJ_Compiler/IFJ&#45;project01/src/lexical_analyser.h Pages: 1 -->
<svg width="480pt" height="162pt"
 viewBox="0.00 0.00 479.50 162.00" xmlns="http://www.w3.org/2000/svg" xmlns:xlink="http://www.w3.org/1999/xlink">
<g id="graph0" class="graph" transform="scale(1 1) rotate(0) translate(4 158)">
<title>/home/kubo/IFJ_Compiler/IFJ&#45;project01/src/lexical_analyser.h</title>
<polygon fill="white" stroke="transparent" points="-4,4 -4,-158 475.5,-158 475.5,4 -4,4"/>
<!-- Node1 -->
<g id="node1" class="node">
<title>Node1</title>
<g id="a_node1"><a xlink:title=" ">
<polygon fill="#bfbfbf" stroke="black" points="141,-112.5 141,-153.5 279,-153.5 279,-112.5 141,-112.5"/>
<text text-anchor="start" x="149" y="-141.5" font-family="Helvetica,sans-Serif" font-size="10.00">/home/kubo/IFJ_Compiler</text>
<text text-anchor="start" x="149" y="-130.5" font-family="Helvetica,sans-Serif" font-size="10.00">/IFJ&#45;project01/src/lexical</text>
<text text-anchor="middle" x="210" y="-119.5" font-family="Helvetica,sans-Serif" font-size="10.00">_analyser.h</text>
</a>
</g>
</g>
<!-- Node2 -->
<g id="node2" class="node">
<title>Node2</title>
<g id="a_node2"><a xlink:title=" ">
<polygon fill="white" stroke="#bfbfbf" points="0,-0.5 0,-19.5 50,-19.5 50,-0.5 0,-0.5"/>
<text text-anchor="middle" x="25" y="-7.5" font-family="Helvetica,sans-Serif" font-size="10.00">stdio.h</text>
</a>
</g>
</g>
<!-- Node1&#45;&gt;Node2 -->
<g id="edge1" class="edge">
<title>Node1&#45;&gt;Node2</title>
<path fill="none" stroke="midnightblue" d="M140.64,-126.99C103.91,-120.61 61.1,-106.56 35,-76 24.23,-63.4 22.46,-44.18 22.95,-29.91"/>
<polygon fill="midnightblue" stroke="midnightblue" points="26.45,-29.97 23.69,-19.74 19.47,-29.46 26.45,-29.97"/>
</g>
<!-- Node3 -->
<g id="node3" class="node">
<title>Node3</title>
<g id="a_node3"><a xlink:href="error_8h.html" target="_top" xlink:title=" ">
<polygon fill="white" stroke="black" points="212,-56.5 212,-75.5 260,-75.5 260,-56.5 212,-56.5"/>
<text text-anchor="middle" x="236" y="-63.5" font-family="Helvetica,sans-Serif" font-size="10.00">error.h</text>
</a>
</g>
</g>
<!-- Node1&#45;&gt;Node3 -->
<g id="edge2" class="edge">
<title>Node1&#45;&gt;Node3</title>
<path fill="none" stroke="midnightblue" d="M217.8,-112.5C221.29,-103.78 225.37,-93.56 228.79,-85.02"/>
<polygon fill="midnightblue" stroke="midnightblue" points="232.07,-86.24 232.54,-75.65 225.58,-83.64 232.07,-86.24"/>
</g>
<!-- Node4 -->
<g id="node4" class="node">
<title>Node4</title>
<g id="a_node4"><a xlink:title=" ">
<polygon fill="white" stroke="#bfbfbf" points="278.5,-56.5 278.5,-75.5 331.5,-75.5 331.5,-56.5 278.5,-56.5"/>
<text text-anchor="middle" x="305" y="-63.5" font-family="Helvetica,sans-Serif" font-size="10.00">ctype.h</text>
</a>
</g>
</g>
<!-- Node1&#45;&gt;Node4 -->
<g id="edge3" class="edge">
<title>Node1&#45;&gt;Node4</title>
<path fill="none" stroke="midnightblue" d="M238.5,-112.5C253.07,-102.53 270.49,-90.61 283.84,-81.48"/>
<polygon fill="midnightblue" stroke="midnightblue" points="286.08,-84.19 292.35,-75.65 282.12,-78.41 286.08,-84.19"/>
</g>
<!-- Node5 -->
<g id="node5" class="node">
<title>Node5</title>
<g id="a_node5"><a xlink:title=" ">
<polygon fill="white" stroke="#bfbfbf" points="72,-0.5 72,-19.5 134,-19.5 134,-0.5 72,-0.5"/>
<text text-anchor="middle" x="103" y="-7.5" font-family="Helvetica,sans-Serif" font-size="10.00">stdbool.h</text>
</a>
</g>
</g>
<!-- Node1&#45;&gt;Node5 -->
<g id="edge4" class="edge">
<title>Node1&#45;&gt;Node5</title>
<path fill="none" stroke="midnightblue" d="M192.57,-112.29C171.57,-88.54 136.68,-49.09 117.22,-27.08"/>
<polygon fill="midnightblue" stroke="midnightblue" points="119.83,-24.75 110.58,-19.57 114.59,-29.38 119.83,-24.75"/>
</g>
<!-- Node6 -->
<g id="node6" class="node">
<title>Node6</title>
<g id="a_node6"><a xlink:title=" ">
<polygon fill="white" stroke="#bfbfbf" points="154.5,-0.5 154.5,-19.5 207.5,-19.5 207.5,-0.5 154.5,-0.5"/>
<text text-anchor="middle" x="181" y="-7.5" font-family="Helvetica,sans-Serif" font-size="10.00">stdlib.h</text>
</a>
</g>
</g>
<!-- Node1&#45;&gt;Node6 -->
<g id="edge5" class="edge">
<title>Node1&#45;&gt;Node6</title>
<path fill="none" stroke="midnightblue" d="M205.28,-112.29C199.78,-89.37 190.79,-51.85 185.43,-29.47"/>
<polygon fill="midnightblue" stroke="midnightblue" points="188.79,-28.48 183.06,-19.57 181.98,-30.12 188.79,-28.48"/>
</g>
<!-- Node7 -->
<g id="node7" class="node">
<title>Node7</title>
<g id="a_node7"><a xlink:title=" ">
<polygon fill="white" stroke="#bfbfbf" points="349.5,-56.5 349.5,-75.5 400.5,-75.5 400.5,-56.5 349.5,-56.5"/>
<text text-anchor="middle" x="375" y="-63.5" font-family="Helvetica,sans-Serif" font-size="10.00">math.h</text>
</a>
</g>
</g>
<!-- Node1&#45;&gt;Node7 -->
<g id="edge6" class="edge">
<title>Node1&#45;&gt;Node7</title>
<path fill="none" stroke="midnightblue" d="M259.51,-112.5C286.75,-101.77 319.74,-88.77 343.47,-79.42"/>
<polygon fill="midnightblue" stroke="midnightblue" points="345.01,-82.57 353.04,-75.65 342.45,-76.06 345.01,-82.57"/>
</g>
<!-- Node8 -->
<g id="node8" class="node">
<title>Node8</title>
<g id="a_node8"><a xlink:title=" ">
<polygon fill="white" stroke="#bfbfbf" points="418.5,-56.5 418.5,-75.5 471.5,-75.5 471.5,-56.5 418.5,-56.5"/>
<text text-anchor="middle" x="445" y="-63.5" font-family="Helvetica,sans-Serif" font-size="10.00">string.h</text>
</a>
</g>
</g>
<!-- Node1&#45;&gt;Node8 -->
<g id="edge7" class="edge">
<title>Node1&#45;&gt;Node8</title>
<path fill="none" stroke="midnightblue" d="M279.24,-112.85C321.44,-101.17 373.71,-86.72 408.13,-77.2"/>
<polygon fill="midnightblue" stroke="midnightblue" points="409.51,-80.45 418.21,-74.41 407.64,-73.7 409.51,-80.45"/>
</g>
<!-- Node9 -->
<g id="node9" class="node">
<title>Node9</title>
<g id="a_node9"><a xlink:href="newstring_8h.html" target="_top" xlink:title=" ">
<polygon fill="white" stroke="black" points="44,-56.5 44,-75.5 118,-75.5 118,-56.5 44,-56.5"/>
<text text-anchor="middle" x="81" y="-63.5" font-family="Helvetica,sans-Serif" font-size="10.00">newstring.h</text>
</a>
</g>
</g>
<!-- Node1&#45;&gt;Node9 -->
<g id="edge8" class="edge">
<title>Node1&#45;&gt;Node9</title>
<path fill="none" stroke="midnightblue" d="M171.3,-112.5C150.57,-102.05 125.58,-89.46 107.15,-80.18"/>
<polygon fill="midnightblue" stroke="midnightblue" points="108.68,-77.03 98.17,-75.65 105.53,-83.28 108.68,-77.03"/>
</g>
<!-- Node9&#45;&gt;Node2 -->
<g id="edge11" class="edge">
<title>Node9&#45;&gt;Node2</title>
<path fill="none" stroke="midnightblue" d="M72,-56.32C63.81,-48.42 51.49,-36.55 41.53,-26.94"/>
<polygon fill="midnightblue" stroke="midnightblue" points="43.79,-24.26 34.16,-19.83 38.93,-29.29 43.79,-24.26"/>
</g>
<!-- Node9&#45;&gt;Node5 -->
<g id="edge9" class="edge">
<title>Node9&#45;&gt;Node5</title>
<path fill="none" stroke="midnightblue" d="M84.63,-56.08C87.61,-48.77 91.93,-38.18 95.62,-29.1"/>
<polygon fill="midnightblue" stroke="midnightblue" points="98.9,-30.33 99.43,-19.75 92.42,-27.69 98.9,-30.33"/>
</g>
<!-- Node9&#45;&gt;Node6 -->
<g id="edge10" class="edge">
<title>Node9&#45;&gt;Node6</title>
<path fill="none" stroke="midnightblue" d="M97.07,-56.32C112.96,-47.74 137.51,-34.49 155.96,-24.52"/>
<polygon fill="midnightblue" stroke="midnightblue" points="157.84,-27.49 164.97,-19.65 154.51,-21.33 157.84,-27.49"/>
</g>
</g>
</svg>
