<?xml version="1.0" encoding="UTF-8" standalone="no"?>
<!DOCTYPE svg PUBLIC "-//W3C//DTD SVG 1.1//EN"
 "http://www.w3.org/Graphics/SVG/1.1/DTD/svg11.dtd">
<!-- Generated by graphviz version 2.43.0 (0)
 -->
<!-- Title: /home/kubo/IFJ_Compiler/IFJ&#45;project01/src/lexical_analyser.c Pages: 1 -->
<svg width="454pt" height="218pt"
 viewBox="0.00 0.00 453.82 218.00" xmlns="http://www.w3.org/2000/svg" xmlns:xlink="http://www.w3.org/1999/xlink">
<g id="graph0" class="graph" transform="scale(1 1) rotate(0) translate(4 214)">
<title>/home/kubo/IFJ_Compiler/IFJ&#45;project01/src/lexical_analyser.c</title>
<polygon fill="white" stroke="transparent" points="-4,4 -4,-214 449.82,-214 449.82,4 -4,4"/>
<!-- Node1 -->
<g id="node1" class="node">
<title>Node1</title>
<g id="a_node1"><a xlink:title=" ">
<polygon fill="#bfbfbf" stroke="black" points="219.32,-168.5 219.32,-209.5 357.32,-209.5 357.32,-168.5 219.32,-168.5"/>
<text text-anchor="start" x="227.32" y="-197.5" font-family="Helvetica,sans-Serif" font-size="10.00">/home/kubo/IFJ_Compiler</text>
<text text-anchor="start" x="227.32" y="-186.5" font-family="Helvetica,sans-Serif" font-size="10.00">/IFJ&#45;project01/src/lexical</text>
<text text-anchor="middle" x="288.32" y="-175.5" font-family="Helvetica,sans-Serif" font-size="10.00">_analyser.c</text>
</a>
</g>
</g>
<!-- Node2 -->
<g id="node2" class="node">
<title>Node2</title>
<g id="a_node2"><a xlink:href="lexical__analyser_8h.html" target="_top" xlink:title=" ">
<polygon fill="white" stroke="black" points="196.32,-112.5 196.32,-131.5 300.32,-131.5 300.32,-112.5 196.32,-112.5"/>
<text text-anchor="middle" x="248.32" y="-119.5" font-family="Helvetica,sans-Serif" font-size="10.00">lexical_analyser.h</text>
</a>
</g>
</g>
<!-- Node1&#45;&gt;Node2 -->
<g id="edge1" class="edge">
<title>Node1&#45;&gt;Node2</title>
<path fill="none" stroke="midnightblue" d="M276.31,-168.5C270.77,-159.49 264.25,-148.89 258.89,-140.19"/>
<polygon fill="midnightblue" stroke="midnightblue" points="261.86,-138.33 253.64,-131.65 255.9,-142 261.86,-138.33"/>
</g>
<!-- Node10 -->
<g id="node10" class="node">
<title>Node10</title>
<g id="a_node10"><a xlink:href="newstring_8h.html" target="_top" xlink:title=" ">
<polygon fill="white" stroke="black" points="331.32,-56.5 331.32,-75.5 405.32,-75.5 405.32,-56.5 331.32,-56.5"/>
<text text-anchor="middle" x="368.32" y="-63.5" font-family="Helvetica,sans-Serif" font-size="10.00">newstring.h</text>
</a>
</g>
</g>
<!-- Node1&#45;&gt;Node10 -->
<g id="edge13" class="edge">
<title>Node1&#45;&gt;Node10</title>
<path fill="none" stroke="midnightblue" d="M301.35,-168.29C316.84,-144.85 342.45,-106.13 357.1,-83.96"/>
<polygon fill="midnightblue" stroke="midnightblue" points="360.05,-85.85 362.65,-75.57 354.21,-81.99 360.05,-85.85"/>
</g>
<!-- Node3 -->
<g id="node3" class="node">
<title>Node3</title>
<g id="a_node3"><a xlink:title=" ">
<polygon fill="white" stroke="#bfbfbf" points="96.32,-0.5 96.32,-19.5 146.32,-19.5 146.32,-0.5 96.32,-0.5"/>
<text text-anchor="middle" x="121.32" y="-7.5" font-family="Helvetica,sans-Serif" font-size="10.00">stdio.h</text>
</a>
</g>
</g>
<!-- Node2&#45;&gt;Node3 -->
<g id="edge2" class="edge">
<title>Node2&#45;&gt;Node3</title>
<path fill="none" stroke="midnightblue" d="M196.22,-118.86C132.45,-115.01 29.98,-104.47 6.32,-76 -19.28,-45.21 43.53,-26.18 86.07,-17.2"/>
<polygon fill="midnightblue" stroke="midnightblue" points="87,-20.58 96.11,-15.18 85.62,-13.72 87,-20.58"/>
</g>
<!-- Node4 -->
<g id="node4" class="node">
<title>Node4</title>
<g id="a_node4"><a xlink:href="error_8h.html" target="_top" xlink:title=" ">
<polygon fill="white" stroke="black" points="15.32,-56.5 15.32,-75.5 63.32,-75.5 63.32,-56.5 15.32,-56.5"/>
<text text-anchor="middle" x="39.32" y="-63.5" font-family="Helvetica,sans-Serif" font-size="10.00">error.h</text>
</a>
</g>
</g>
<!-- Node2&#45;&gt;Node4 -->
<g id="edge3" class="edge">
<title>Node2&#45;&gt;Node4</title>
<path fill="none" stroke="midnightblue" d="M214.2,-112.45C180.73,-104.02 127.97,-90.64 73.31,-76.23"/>
<polygon fill="midnightblue" stroke="midnightblue" points="74.02,-72.8 63.45,-73.63 72.23,-79.57 74.02,-72.8"/>
</g>
<!-- Node5 -->
<g id="node5" class="node">
<title>Node5</title>
<g id="a_node5"><a xlink:title=" ">
<polygon fill="white" stroke="#bfbfbf" points="81.82,-56.5 81.82,-75.5 134.82,-75.5 134.82,-56.5 81.82,-56.5"/>
<text text-anchor="middle" x="108.32" y="-63.5" font-family="Helvetica,sans-Serif" font-size="10.00">ctype.h</text>
</a>
</g>
</g>
<!-- Node2&#45;&gt;Node5 -->
<g id="edge4" class="edge">
<title>Node2&#45;&gt;Node5</title>
<path fill="none" stroke="midnightblue" d="M226.13,-112.44C202.89,-103.48 166.17,-89.31 139.9,-79.18"/>
<polygon fill="midnightblue" stroke="midnightblue" points="140.98,-75.85 130.4,-75.52 138.47,-82.38 140.98,-75.85"/>
</g>
<!-- Node6 -->
<g id="node6" class="node">
<title>Node6</title>
<g id="a_node6"><a xlink:title=" ">
<polygon fill="white" stroke="#bfbfbf" points="285.32,-0.5 285.32,-19.5 347.32,-19.5 347.32,-0.5 285.32,-0.5"/>
<text text-anchor="middle" x="316.32" y="-7.5" font-family="Helvetica,sans-Serif" font-size="10.00">stdbool.h</text>
</a>
</g>
</g>
<!-- Node2&#45;&gt;Node6 -->
<g id="edge5" class="edge">
<title>Node2&#45;&gt;Node6</title>
<path fill="none" stroke="midnightblue" d="M255.81,-112.4C263.28,-103.61 274.83,-89.37 283.32,-76 292.95,-60.82 302.05,-42.48 308.24,-29.15"/>
<polygon fill="midnightblue" stroke="midnightblue" points="311.59,-30.25 312.54,-19.7 305.22,-27.35 311.59,-30.25"/>
</g>
<!-- Node7 -->
<g id="node7" class="node">
<title>Node7</title>
<g id="a_node7"><a xlink:title=" ">
<polygon fill="white" stroke="#bfbfbf" points="392.82,-0.5 392.82,-19.5 445.82,-19.5 445.82,-0.5 392.82,-0.5"/>
<text text-anchor="middle" x="419.32" y="-7.5" font-family="Helvetica,sans-Serif" font-size="10.00">stdlib.h</text>
</a>
</g>
</g>
<!-- Node2&#45;&gt;Node7 -->
<g id="edge6" class="edge">
<title>Node2&#45;&gt;Node7</title>
<path fill="none" stroke="midnightblue" d="M300.66,-113.48C343.67,-106.15 399.8,-93.54 414.32,-76 424.79,-63.34 424.99,-44.13 423.21,-29.88"/>
<polygon fill="midnightblue" stroke="midnightblue" points="426.61,-29.01 421.5,-19.73 419.71,-30.17 426.61,-29.01"/>
</g>
<!-- Node8 -->
<g id="node8" class="node">
<title>Node8</title>
<g id="a_node8"><a xlink:title=" ">
<polygon fill="white" stroke="#bfbfbf" points="152.82,-56.5 152.82,-75.5 203.82,-75.5 203.82,-56.5 152.82,-56.5"/>
<text text-anchor="middle" x="178.32" y="-63.5" font-family="Helvetica,sans-Serif" font-size="10.00">math.h</text>
</a>
</g>
</g>
<!-- Node2&#45;&gt;Node8 -->
<g id="edge7" class="edge">
<title>Node2&#45;&gt;Node8</title>
<path fill="none" stroke="midnightblue" d="M237.07,-112.32C226.52,-104.18 210.51,-91.84 197.87,-82.09"/>
<polygon fill="midnightblue" stroke="midnightblue" points="199.82,-79.17 189.77,-75.83 195.55,-84.71 199.82,-79.17"/>
</g>
<!-- Node9 -->
<g id="node9" class="node">
<title>Node9</title>
<g id="a_node9"><a xlink:title=" ">
<polygon fill="white" stroke="#bfbfbf" points="221.82,-56.5 221.82,-75.5 274.82,-75.5 274.82,-56.5 221.82,-56.5"/>
<text text-anchor="middle" x="248.32" y="-63.5" font-family="Helvetica,sans-Serif" font-size="10.00">string.h</text>
</a>
</g>
</g>
<!-- Node2&#45;&gt;Node9 -->
<g id="edge8" class="edge">
<title>Node2&#45;&gt;Node9</title>
<path fill="none" stroke="midnightblue" d="M248.32,-112.08C248.32,-105.01 248.32,-94.86 248.32,-85.99"/>
<polygon fill="midnightblue" stroke="midnightblue" points="251.82,-85.75 248.32,-75.75 244.82,-85.75 251.82,-85.75"/>
</g>
<!-- Node2&#45;&gt;Node10 -->
<g id="edge9" class="edge">
<title>Node2&#45;&gt;Node10</title>
<path fill="none" stroke="midnightblue" d="M267.33,-112.44C286.9,-103.64 317.62,-89.81 340.04,-79.72"/>
<polygon fill="midnightblue" stroke="midnightblue" points="341.71,-82.81 349.39,-75.52 338.83,-76.43 341.71,-82.81"/>
</g>
<!-- Node10&#45;&gt;Node3 -->
<g id="edge12" class="edge">
<title>Node10&#45;&gt;Node3</title>
<path fill="none" stroke="midnightblue" d="M331.07,-56.86C283.71,-46.5 202.55,-28.76 156.29,-18.65"/>
<polygon fill="midnightblue" stroke="midnightblue" points="156.95,-15.21 146.43,-16.49 155.45,-22.05 156.95,-15.21"/>
</g>
<!-- Node10&#45;&gt;Node6 -->
<g id="edge10" class="edge">
<title>Node10&#45;&gt;Node6</title>
<path fill="none" stroke="midnightblue" d="M359.73,-56.08C352.16,-48.22 340.94,-36.57 331.8,-27.08"/>
<polygon fill="midnightblue" stroke="midnightblue" points="334.2,-24.53 324.74,-19.75 329.16,-29.38 334.2,-24.53"/>
</g>
<!-- Node10&#45;&gt;Node7 -->
<g id="edge11" class="edge">
<title>Node10&#45;&gt;Node7</title>
<path fill="none" stroke="midnightblue" d="M376.74,-56.08C384.16,-48.22 395.17,-36.57 404.13,-27.08"/>
<polygon fill="midnightblue" stroke="midnightblue" points="406.73,-29.42 411.05,-19.75 401.64,-24.62 406.73,-29.42"/>
</g>
</g>
</svg>
