<?xml version="1.0" encoding="UTF-8" standalone="no"?>
<!DOCTYPE svg PUBLIC "-//W3C//DTD SVG 1.1//EN"
 "http://www.w3.org/Graphics/SVG/1.1/DTD/svg11.dtd">
<!-- Generated by graphviz version 2.43.0 (0)
 -->
<!-- Title: get_token Pages: 1 -->
<svg width="421pt" height="230pt"
 viewBox="0.00 0.00 421.00 229.50" xmlns="http://www.w3.org/2000/svg" xmlns:xlink="http://www.w3.org/1999/xlink">
<g id="graph0" class="graph" transform="scale(1 1) rotate(0) translate(4 225.5)">
<title>get_token</title>
<polygon fill="white" stroke="transparent" points="-4,4 -4,-225.5 417,-225.5 417,4 -4,4"/>
<!-- Node1 -->
<g id="node1" class="node">
<title>Node1</title>
<g id="a_node1"><a xlink:title="Retrieves the next token from the input file.">
<polygon fill="#bfbfbf" stroke="black" points="0,-95.5 0,-114.5 65,-114.5 65,-95.5 0,-95.5"/>
<text text-anchor="middle" x="32.5" y="-102.5" font-family="Helvetica,sans-Serif" font-size="10.00">get_token</text>
</a>
</g>
</g>
<!-- Node2 -->
<g id="node2" class="node">
<title>Node2</title>
<g id="a_node2"><a xlink:href="newstring_8c.html#a723751a5d99efdf10145303c11895ce9" target="_top" xlink:title=" ">
<polygon fill="white" stroke="black" points="101,-191 101,-221 236,-221 236,-191 101,-191"/>
<text text-anchor="start" x="109" y="-209" font-family="Helvetica,sans-Serif" font-size="10.00">add_double_to_dynamic</text>
<text text-anchor="middle" x="168.5" y="-198" font-family="Helvetica,sans-Serif" font-size="10.00">_string</text>
</a>
</g>
</g>
<!-- Node1&#45;&gt;Node2 -->
<g id="edge1" class="edge">
<title>Node1&#45;&gt;Node2</title>
<path fill="none" stroke="midnightblue" d="M40.83,-114.88C52.29,-129.76 75.76,-158.08 101,-176 106.29,-179.75 112.12,-183.2 118.07,-186.32"/>
<polygon fill="midnightblue" stroke="midnightblue" points="116.93,-189.67 127.44,-190.95 120.02,-183.39 116.93,-189.67"/>
</g>
<!-- Node3 -->
<g id="node3" class="node">
<title>Node3</title>
<g id="a_node3"><a xlink:href="newstring_8c.html#a33884f5f943a1e93cdba424756c663d9" target="_top" xlink:title=" ">
<polygon fill="white" stroke="black" points="272,-174.5 272,-193.5 413,-193.5 413,-174.5 272,-174.5"/>
<text text-anchor="middle" x="342.5" y="-181.5" font-family="Helvetica,sans-Serif" font-size="10.00">dynamic_string_add_char</text>
</a>
</g>
</g>
<!-- Node1&#45;&gt;Node3 -->
<g id="edge3" class="edge">
<title>Node1&#45;&gt;Node3</title>
<path fill="none" stroke="midnightblue" d="M47.3,-114.66C60.49,-123.41 81.23,-135.99 101,-143 152.9,-161.4 214.11,-171.69 261.79,-177.36"/>
<polygon fill="midnightblue" stroke="midnightblue" points="261.41,-180.84 271.75,-178.5 262.21,-173.88 261.41,-180.84"/>
</g>
<!-- Node4 -->
<g id="node4" class="node">
<title>Node4</title>
<g id="a_node4"><a xlink:href="newstring_8c.html#aa1207c77da58ada32d94fe4e97aa5e1e" target="_top" xlink:title=" ">
<polygon fill="white" stroke="black" points="108,-114.5 108,-133.5 229,-133.5 229,-114.5 108,-114.5"/>
<text text-anchor="middle" x="168.5" y="-121.5" font-family="Helvetica,sans-Serif" font-size="10.00">dynamic_string_clear</text>
</a>
</g>
</g>
<!-- Node1&#45;&gt;Node4 -->
<g id="edge4" class="edge">
<title>Node1&#45;&gt;Node4</title>
<path fill="none" stroke="midnightblue" d="M65.26,-109.5C75.13,-110.9 86.44,-112.51 97.85,-114.12"/>
<polygon fill="midnightblue" stroke="midnightblue" points="97.47,-117.61 107.86,-115.54 98.45,-110.67 97.47,-117.61"/>
</g>
<!-- Node5 -->
<g id="node5" class="node">
<title>Node5</title>
<g id="a_node5"><a xlink:href="newstring_8c.html#a03217aede38d7cef89609b66fd21f2f7" target="_top" xlink:title=" ">
<polygon fill="white" stroke="black" points="110.5,-76.5 110.5,-95.5 226.5,-95.5 226.5,-76.5 110.5,-76.5"/>
<text text-anchor="middle" x="168.5" y="-83.5" font-family="Helvetica,sans-Serif" font-size="10.00">dynamic_string_free</text>
</a>
</g>
</g>
<!-- Node1&#45;&gt;Node5 -->
<g id="edge5" class="edge">
<title>Node1&#45;&gt;Node5</title>
<path fill="none" stroke="midnightblue" d="M65.26,-100.5C75.78,-99.01 87.92,-97.28 100.08,-95.56"/>
<polygon fill="midnightblue" stroke="midnightblue" points="100.85,-98.99 110.26,-94.12 99.87,-92.05 100.85,-98.99"/>
</g>
<!-- Node6 -->
<g id="node6" class="node">
<title>Node6</title>
<g id="a_node6"><a xlink:href="newstring_8c.html#a5c4e413e494b26f4a5d9ddba7a274b3c" target="_top" xlink:title=" ">
<polygon fill="white" stroke="black" points="112,-38.5 112,-57.5 225,-57.5 225,-38.5 112,-38.5"/>
<text text-anchor="middle" x="168.5" y="-45.5" font-family="Helvetica,sans-Serif" font-size="10.00">dynamic_string_init</text>
</a>
</g>
</g>
<!-- Node1&#45;&gt;Node6 -->
<g id="edge6" class="edge">
<title>Node1&#45;&gt;Node6</title>
<path fill="none" stroke="midnightblue" d="M48.27,-95.35C61.61,-86.95 82.01,-74.93 101,-67 106.54,-64.69 112.45,-62.56 118.37,-60.62"/>
<polygon fill="midnightblue" stroke="midnightblue" points="119.77,-63.85 128.29,-57.55 117.71,-57.16 119.77,-63.85"/>
</g>
<!-- Node7 -->
<g id="node7" class="node">
<title>Node7</title>
<g id="a_node7"><a xlink:href="lexical__analyser_8c.html#ade03459f3b506becbc1e389002a1126a" target="_top" xlink:title="Checks if a given token is a keyword.">
<polygon fill="white" stroke="black" points="133,-0.5 133,-19.5 204,-19.5 204,-0.5 133,-0.5"/>
<text text-anchor="middle" x="168.5" y="-7.5" font-family="Helvetica,sans-Serif" font-size="10.00">is_keyword</text>
</a>
</g>
</g>
<!-- Node1&#45;&gt;Node7 -->
<g id="edge7" class="edge">
<title>Node1&#45;&gt;Node7</title>
<path fill="none" stroke="midnightblue" d="M39.48,-95.24C49.92,-79.02 73.07,-46.57 101,-29 107.72,-24.77 115.4,-21.47 123.1,-18.88"/>
<polygon fill="midnightblue" stroke="midnightblue" points="124.22,-22.2 132.79,-15.98 122.21,-15.49 124.22,-22.2"/>
</g>
<!-- Node2&#45;&gt;Node3 -->
<g id="edge2" class="edge">
<title>Node2&#45;&gt;Node3</title>
<path fill="none" stroke="midnightblue" d="M236.49,-197.43C244.83,-196.36 253.42,-195.27 261.93,-194.18"/>
<polygon fill="midnightblue" stroke="midnightblue" points="262.38,-197.65 271.85,-192.91 261.49,-190.71 262.38,-197.65"/>
</g>
</g>
</svg>
