<?xml version="1.0" encoding="UTF-8" standalone="no"?>
<!DOCTYPE svg PUBLIC "-//W3C//DTD SVG 1.1//EN"
 "http://www.w3.org/Graphics/SVG/1.1/DTD/svg11.dtd">
<!-- Generated by graphviz version 2.43.0 (0)
 -->
<!-- Title: test_hash_table Pages: 1 -->
<svg width="337pt" height="218pt"
 viewBox="0.00 0.00 337.00 218.00" xmlns="http://www.w3.org/2000/svg" xmlns:xlink="http://www.w3.org/1999/xlink">
<g id="graph0" class="graph" transform="scale(1 1) rotate(0) translate(4 214)">
<title>test_hash_table</title>
<polygon fill="white" stroke="transparent" points="-4,4 -4,-214 333,-214 333,4 -4,4"/>
<!-- Node1 -->
<g id="node1" class="node">
<title>Node1</title>
<g id="a_node1"><a xlink:title=" ">
<polygon fill="#bfbfbf" stroke="black" points="0,-95.5 0,-114.5 94,-114.5 94,-95.5 0,-95.5"/>
<text text-anchor="middle" x="47" y="-102.5" font-family="Helvetica,sans-Serif" font-size="10.00">test_hash_table</text>
</a>
</g>
</g>
<!-- Node2 -->
<g id="node2" class="node">
<title>Node2</title>
<g id="a_node2"><a xlink:href="ADT_8c.html#a99781ee05b9a784e40d6e179c04f42c9" target="_top" xlink:title=" ">
<polygon fill="white" stroke="black" points="136.5,-190.5 136.5,-209.5 213.5,-209.5 213.5,-190.5 136.5,-190.5"/>
<text text-anchor="middle" x="175" y="-197.5" font-family="Helvetica,sans-Serif" font-size="10.00">create_table</text>
</a>
</g>
</g>
<!-- Node1&#45;&gt;Node2 -->
<g id="edge1" class="edge">
<title>Node1&#45;&gt;Node2</title>
<path fill="none" stroke="midnightblue" d="M56.26,-114.52C70.17,-130.1 99.75,-161.29 130,-181 132.72,-182.77 135.63,-184.44 138.61,-186.01"/>
<polygon fill="midnightblue" stroke="midnightblue" points="137.12,-189.17 147.65,-190.36 140.16,-182.87 137.12,-189.17"/>
</g>
<!-- Node3 -->
<g id="node3" class="node">
<title>Node3</title>
<g id="a_node3"><a xlink:href="ADT_8c.html#a86337fb4e746828ec8da93815780b8e5" target="_top" xlink:title=" ">
<polygon fill="white" stroke="black" points="130.5,-152.5 130.5,-171.5 219.5,-171.5 219.5,-152.5 130.5,-152.5"/>
<text text-anchor="middle" x="175" y="-159.5" font-family="Helvetica,sans-Serif" font-size="10.00">delete_symbol</text>
</a>
</g>
</g>
<!-- Node1&#45;&gt;Node3 -->
<g id="edge2" class="edge">
<title>Node1&#45;&gt;Node3</title>
<path fill="none" stroke="midnightblue" d="M68.15,-114.52C84.71,-122.3 108.8,-133.51 130,-143 133.93,-144.76 138.07,-146.58 142.17,-148.37"/>
<polygon fill="midnightblue" stroke="midnightblue" points="141,-151.68 151.57,-152.45 143.78,-145.26 141,-151.68"/>
</g>
<!-- Node5 -->
<g id="node5" class="node">
<title>Node5</title>
<g id="a_node5"><a xlink:href="ADT_8c.html#a586c12683a18644602e7029a8fb528c4" target="_top" xlink:title=" ">
<polygon fill="white" stroke="black" points="142,-114.5 142,-133.5 208,-133.5 208,-114.5 142,-114.5"/>
<text text-anchor="middle" x="175" y="-121.5" font-family="Helvetica,sans-Serif" font-size="10.00">free_table</text>
</a>
</g>
</g>
<!-- Node1&#45;&gt;Node5 -->
<g id="edge4" class="edge">
<title>Node1&#45;&gt;Node5</title>
<path fill="none" stroke="midnightblue" d="M94.2,-111.97C106.48,-113.82 119.67,-115.81 131.73,-117.63"/>
<polygon fill="midnightblue" stroke="midnightblue" points="131.57,-121.14 141.98,-119.17 132.61,-114.22 131.57,-121.14"/>
</g>
<!-- Node6 -->
<g id="node6" class="node">
<title>Node6</title>
<g id="a_node6"><a xlink:href="ADT_8c.html#a498be84c0146adc44a4d75f3ddadfce8" target="_top" xlink:title=" ">
<polygon fill="white" stroke="black" points="132,-76.5 132,-95.5 218,-95.5 218,-76.5 132,-76.5"/>
<text text-anchor="middle" x="175" y="-83.5" font-family="Helvetica,sans-Serif" font-size="10.00">insert_symbol</text>
</a>
</g>
</g>
<!-- Node1&#45;&gt;Node6 -->
<g id="edge5" class="edge">
<title>Node1&#45;&gt;Node6</title>
<path fill="none" stroke="midnightblue" d="M94.2,-98.03C103.18,-96.68 112.66,-95.25 121.81,-93.87"/>
<polygon fill="midnightblue" stroke="midnightblue" points="122.61,-97.29 131.98,-92.34 121.57,-90.37 122.61,-97.29"/>
</g>
<!-- Node8 -->
<g id="node8" class="node">
<title>Node8</title>
<g id="a_node8"><a xlink:href="main_8c.html#a1127b7ccef7affaa427479522fd4024a" target="_top" xlink:title=" ">
<polygon fill="white" stroke="black" points="140.5,-38.5 140.5,-57.5 209.5,-57.5 209.5,-38.5 140.5,-38.5"/>
<text text-anchor="middle" x="175" y="-45.5" font-family="Helvetica,sans-Serif" font-size="10.00">print_table</text>
</a>
</g>
</g>
<!-- Node1&#45;&gt;Node8 -->
<g id="edge7" class="edge">
<title>Node1&#45;&gt;Node8</title>
<path fill="none" stroke="midnightblue" d="M68.15,-95.48C84.71,-87.7 108.8,-76.49 130,-67 133.93,-65.24 138.07,-63.42 142.17,-61.63"/>
<polygon fill="midnightblue" stroke="midnightblue" points="143.78,-64.74 151.57,-57.55 141,-58.32 143.78,-64.74"/>
</g>
<!-- Node9 -->
<g id="node9" class="node">
<title>Node9</title>
<g id="a_node9"><a xlink:href="ADT_8c.html#a87d79a5adc075526a4778d53c2948412" target="_top" xlink:title=" ">
<polygon fill="white" stroke="black" points="130,-0.5 130,-19.5 220,-19.5 220,-0.5 130,-0.5"/>
<text text-anchor="middle" x="175" y="-7.5" font-family="Helvetica,sans-Serif" font-size="10.00">search_symbol</text>
</a>
</g>
</g>
<!-- Node1&#45;&gt;Node9 -->
<g id="edge8" class="edge">
<title>Node1&#45;&gt;Node9</title>
<path fill="none" stroke="midnightblue" d="M56.26,-95.48C70.17,-79.9 99.75,-48.71 130,-29 132.72,-27.23 135.63,-25.56 138.61,-23.99"/>
<polygon fill="midnightblue" stroke="midnightblue" points="140.16,-27.13 147.65,-19.64 137.12,-20.83 140.16,-27.13"/>
</g>
<!-- Node4 -->
<g id="node4" class="node">
<title>Node4</title>
<g id="a_node4"><a xlink:href="ADT_8c.html#ae7778847ae19a4693087f819ef97ada7" target="_top" xlink:title=" ">
<polygon fill="white" stroke="black" points="258,-152.5 258,-171.5 327,-171.5 327,-152.5 258,-152.5"/>
<text text-anchor="middle" x="292.5" y="-159.5" font-family="Helvetica,sans-Serif" font-size="10.00">free_string</text>
</a>
</g>
</g>
<!-- Node3&#45;&gt;Node4 -->
<g id="edge3" class="edge">
<title>Node3&#45;&gt;Node4</title>
<path fill="none" stroke="midnightblue" d="M219.67,-162C228.86,-162 238.55,-162 247.75,-162"/>
<polygon fill="midnightblue" stroke="midnightblue" points="247.86,-165.5 257.86,-162 247.86,-158.5 247.86,-165.5"/>
</g>
<!-- Node7 -->
<g id="node7" class="node">
<title>Node7</title>
<g id="a_node7"><a xlink:href="ADT_8c.html#a69781ac22aa41ceaca20060ad642a403" target="_top" xlink:title=" ">
<polygon fill="white" stroke="black" points="256,-76.5 256,-95.5 329,-95.5 329,-76.5 256,-76.5"/>
<text text-anchor="middle" x="292.5" y="-83.5" font-family="Helvetica,sans-Serif" font-size="10.00">copy_string</text>
</a>
</g>
</g>
<!-- Node6&#45;&gt;Node7 -->
<g id="edge6" class="edge">
<title>Node6&#45;&gt;Node7</title>
<path fill="none" stroke="midnightblue" d="M218.02,-86C227.02,-86 236.57,-86 245.7,-86"/>
<polygon fill="midnightblue" stroke="midnightblue" points="245.79,-89.5 255.79,-86 245.79,-82.5 245.79,-89.5"/>
</g>
</g>
</svg>
