<?xml version="1.0" encoding="UTF-8" standalone="no"?>
<!DOCTYPE svg PUBLIC "-//W3C//DTD SVG 1.1//EN"
 "http://www.w3.org/Graphics/SVG/1.1/DTD/svg11.dtd">
<!-- Generated by graphviz version 2.43.0 (0)
 -->
<!-- Title: /home/kubo/IFJ_Compiler/IFJ&#45;project01/src/main.c Pages: 1 -->
<svg width="715pt" height="263pt"
 viewBox="0.00 0.00 714.92 263.00" xmlns="http://www.w3.org/2000/svg" xmlns:xlink="http://www.w3.org/1999/xlink">
<g id="graph0" class="graph" transform="scale(1 1) rotate(0) translate(4 259)">
<title>/home/kubo/IFJ_Compiler/IFJ&#45;project01/src/main.c</title>
<polygon fill="white" stroke="transparent" points="-4,4 -4,-259 710.92,-259 710.92,4 -4,4"/>
<!-- Node1 -->
<g id="node1" class="node">
<title>Node1</title>
<g id="a_node1"><a xlink:title=" ">
<polygon fill="#bfbfbf" stroke="black" points="384.42,-224.5 384.42,-254.5 522.42,-254.5 522.42,-224.5 384.42,-224.5"/>
<text text-anchor="start" x="392.42" y="-242.5" font-family="Helvetica,sans-Serif" font-size="10.00">/home/kubo/IFJ_Compiler</text>
<text text-anchor="middle" x="453.42" y="-231.5" font-family="Helvetica,sans-Serif" font-size="10.00">/IFJ&#45;project01/src/main.c</text>
</a>
</g>
</g>
<!-- Node2 -->
<g id="node2" class="node">
<title>Node2</title>
<g id="a_node2"><a xlink:title=" ">
<polygon fill="white" stroke="#bfbfbf" points="13.92,-56.5 13.92,-75.5 66.92,-75.5 66.92,-56.5 13.92,-56.5"/>
<text text-anchor="middle" x="40.42" y="-63.5" font-family="Helvetica,sans-Serif" font-size="10.00">ctype.h</text>
</a>
</g>
</g>
<!-- Node1&#45;&gt;Node2 -->
<g id="edge1" class="edge">
<title>Node1&#45;&gt;Node2</title>
<path fill="none" stroke="midnightblue" d="M416.61,-224.42C390.74,-214.45 355.37,-200.65 324.42,-188 230.7,-149.7 120.65,-102.04 69.41,-79.69"/>
<polygon fill="midnightblue" stroke="midnightblue" points="70.53,-76.36 59.96,-75.56 67.73,-82.77 70.53,-76.36"/>
</g>
<!-- Node3 -->
<g id="node3" class="node">
<title>Node3</title>
<g id="a_node3"><a xlink:title=" ">
<polygon fill="white" stroke="#bfbfbf" points="197.42,-0.5 197.42,-19.5 259.42,-19.5 259.42,-0.5 197.42,-0.5"/>
<text text-anchor="middle" x="228.42" y="-7.5" font-family="Helvetica,sans-Serif" font-size="10.00">stdbool.h</text>
</a>
</g>
</g>
<!-- Node1&#45;&gt;Node3 -->
<g id="edge2" class="edge">
<title>Node1&#45;&gt;Node3</title>
<path fill="none" stroke="midnightblue" d="M493.91,-224.5C510.48,-216.54 527.96,-204.74 537.42,-188 566.37,-136.82 569.12,-98.45 528.42,-56 510.74,-37.56 347.51,-21.22 269.53,-14.39"/>
<polygon fill="midnightblue" stroke="midnightblue" points="269.83,-10.9 259.56,-13.53 269.23,-17.88 269.83,-10.9"/>
</g>
<!-- Node4 -->
<g id="node4" class="node">
<title>Node4</title>
<g id="a_node4"><a xlink:title=" ">
<polygon fill="white" stroke="#bfbfbf" points="415.42,-0.5 415.42,-19.5 465.42,-19.5 465.42,-0.5 415.42,-0.5"/>
<text text-anchor="middle" x="440.42" y="-7.5" font-family="Helvetica,sans-Serif" font-size="10.00">stdio.h</text>
</a>
</g>
</g>
<!-- Node1&#45;&gt;Node4 -->
<g id="edge3" class="edge">
<title>Node1&#45;&gt;Node4</title>
<path fill="none" stroke="midnightblue" d="M522.51,-234.13C554.39,-228.23 589.5,-215.4 609.42,-188 643.93,-140.56 645.17,-102.52 609.42,-56 593.23,-34.94 520.23,-21.65 475.63,-15.34"/>
<polygon fill="midnightblue" stroke="midnightblue" points="475.88,-11.84 465.5,-13.96 474.93,-18.78 475.88,-11.84"/>
</g>
<!-- Node5 -->
<g id="node5" class="node">
<title>Node5</title>
<g id="a_node5"><a xlink:title=" ">
<polygon fill="white" stroke="#bfbfbf" points="68.92,-0.5 68.92,-19.5 121.92,-19.5 121.92,-0.5 68.92,-0.5"/>
<text text-anchor="middle" x="95.42" y="-7.5" font-family="Helvetica,sans-Serif" font-size="10.00">stdlib.h</text>
</a>
</g>
</g>
<!-- Node1&#45;&gt;Node5 -->
<g id="edge4" class="edge">
<title>Node1&#45;&gt;Node5</title>
<path fill="none" stroke="midnightblue" d="M384.01,-237.08C280.38,-230.72 88.41,-201.59 4.42,-76 -12.79,-50.26 26.77,-31.36 59.04,-20.77"/>
<polygon fill="midnightblue" stroke="midnightblue" points="60.24,-24.06 68.75,-17.75 58.16,-17.38 60.24,-24.06"/>
</g>
<!-- Node6 -->
<g id="node6" class="node">
<title>Node6</title>
<g id="a_node6"><a xlink:title=" ">
<polygon fill="white" stroke="#bfbfbf" points="361.92,-56.5 361.92,-75.5 414.92,-75.5 414.92,-56.5 361.92,-56.5"/>
<text text-anchor="middle" x="388.42" y="-63.5" font-family="Helvetica,sans-Serif" font-size="10.00">string.h</text>
</a>
</g>
</g>
<!-- Node1&#45;&gt;Node6 -->
<g id="edge5" class="edge">
<title>Node1&#45;&gt;Node6</title>
<path fill="none" stroke="midnightblue" d="M423.74,-224.34C409.68,-215.92 394.29,-203.77 386.42,-188 369.92,-154.9 377.06,-110.11 383.13,-85.35"/>
<polygon fill="midnightblue" stroke="midnightblue" points="386.56,-86.07 385.75,-75.5 379.8,-84.26 386.56,-86.07"/>
</g>
<!-- Node7 -->
<g id="node7" class="node">
<title>Node7</title>
<g id="a_node7"><a xlink:href="lexical__analyser_8h.html" target="_top" xlink:title=" ">
<polygon fill="white" stroke="black" points="231.42,-112.5 231.42,-131.5 335.42,-131.5 335.42,-112.5 231.42,-112.5"/>
<text text-anchor="middle" x="283.42" y="-119.5" font-family="Helvetica,sans-Serif" font-size="10.00">lexical_analyser.h</text>
</a>
</g>
</g>
<!-- Node1&#45;&gt;Node7 -->
<g id="edge6" class="edge">
<title>Node1&#45;&gt;Node7</title>
<path fill="none" stroke="midnightblue" d="M419.68,-224.34C399.64,-215.24 374.17,-202.44 353.42,-188 332.71,-173.59 311.89,-153.35 298.41,-139.3"/>
<polygon fill="midnightblue" stroke="midnightblue" points="300.78,-136.71 291.38,-131.83 295.69,-141.51 300.78,-136.71"/>
</g>
<!-- Node8 -->
<g id="node8" class="node">
<title>Node8</title>
<g id="a_node8"><a xlink:href="error_8h.html" target="_top" xlink:title=" ">
<polygon fill="white" stroke="black" points="471.42,-56.5 471.42,-75.5 519.42,-75.5 519.42,-56.5 471.42,-56.5"/>
<text text-anchor="middle" x="495.42" y="-63.5" font-family="Helvetica,sans-Serif" font-size="10.00">error.h</text>
</a>
</g>
</g>
<!-- Node1&#45;&gt;Node8 -->
<g id="edge24" class="edge">
<title>Node1&#45;&gt;Node8</title>
<path fill="none" stroke="midnightblue" d="M483.11,-224.34C497.16,-215.92 512.56,-203.77 520.42,-188 537.41,-153.92 518.81,-108.91 505.82,-84.53"/>
<polygon fill="midnightblue" stroke="midnightblue" points="508.81,-82.72 500.87,-75.7 502.71,-86.14 508.81,-82.72"/>
</g>
<!-- Node11 -->
<g id="node11" class="node">
<title>Node11</title>
<g id="a_node11"><a xlink:href="syntactic__analysis_8h.html" target="_top" xlink:title=" ">
<polygon fill="white" stroke="black" points="395.42,-168.5 395.42,-187.5 511.42,-187.5 511.42,-168.5 395.42,-168.5"/>
<text text-anchor="middle" x="453.42" y="-175.5" font-family="Helvetica,sans-Serif" font-size="10.00">syntactic_analysis.h</text>
</a>
</g>
</g>
<!-- Node1&#45;&gt;Node11 -->
<g id="edge18" class="edge">
<title>Node1&#45;&gt;Node11</title>
<path fill="none" stroke="midnightblue" d="M453.42,-224.4C453.42,-216.47 453.42,-206.46 453.42,-197.86"/>
<polygon fill="midnightblue" stroke="midnightblue" points="456.92,-197.66 453.42,-187.66 449.92,-197.66 456.92,-197.66"/>
</g>
<!-- Node12 -->
<g id="node12" class="node">
<title>Node12</title>
<g id="a_node12"><a xlink:href="ADT_8h.html" target="_top" xlink:title=" ">
<polygon fill="white" stroke="black" points="661.92,-168.5 661.92,-187.5 706.92,-187.5 706.92,-168.5 661.92,-168.5"/>
<text text-anchor="middle" x="684.42" y="-175.5" font-family="Helvetica,sans-Serif" font-size="10.00">ADT.h</text>
</a>
</g>
</g>
<!-- Node1&#45;&gt;Node12 -->
<g id="edge25" class="edge">
<title>Node1&#45;&gt;Node12</title>
<path fill="none" stroke="midnightblue" d="M507.87,-224.47C552.62,-212.95 614.52,-197.01 651.89,-187.38"/>
<polygon fill="midnightblue" stroke="midnightblue" points="652.93,-190.73 661.74,-184.84 651.18,-183.95 652.93,-190.73"/>
</g>
<!-- Node7&#45;&gt;Node2 -->
<g id="edge9" class="edge">
<title>Node7&#45;&gt;Node2</title>
<path fill="none" stroke="midnightblue" d="M244.92,-112.44C198.86,-102.21 122.31,-85.2 77.08,-75.15"/>
<polygon fill="midnightblue" stroke="midnightblue" points="77.63,-71.68 67.11,-72.93 76.11,-78.52 77.63,-71.68"/>
</g>
<!-- Node7&#45;&gt;Node3 -->
<g id="edge10" class="edge">
<title>Node7&#45;&gt;Node3</title>
<path fill="none" stroke="midnightblue" d="M231.33,-117.29C203.06,-112.3 170.31,-101.05 152.42,-76 136.9,-54.26 167.49,-35.17 194.37,-23.4"/>
<polygon fill="midnightblue" stroke="midnightblue" points="195.75,-26.62 203.64,-19.55 193.06,-20.15 195.75,-26.62"/>
</g>
<!-- Node7&#45;&gt;Node4 -->
<g id="edge7" class="edge">
<title>Node7&#45;&gt;Node4</title>
<path fill="none" stroke="midnightblue" d="M291.4,-112.2C303.77,-98.89 328.73,-73.36 353.42,-56 371.5,-43.29 393.64,-31.89 411.06,-23.74"/>
<polygon fill="midnightblue" stroke="midnightblue" points="412.56,-26.91 420.2,-19.56 409.65,-20.54 412.56,-26.91"/>
</g>
<!-- Node7&#45;&gt;Node5 -->
<g id="edge11" class="edge">
<title>Node7&#45;&gt;Node5</title>
<path fill="none" stroke="midnightblue" d="M233.09,-112.47C205.07,-105.91 170.66,-94.69 144.42,-76 127.03,-63.61 113.09,-43.2 104.6,-28.55"/>
<polygon fill="midnightblue" stroke="midnightblue" points="107.5,-26.57 99.61,-19.5 101.37,-29.95 107.5,-26.57"/>
</g>
<!-- Node7&#45;&gt;Node6 -->
<g id="edge13" class="edge">
<title>Node7&#45;&gt;Node6</title>
<path fill="none" stroke="midnightblue" d="M300.29,-112.32C317.13,-103.66 343.23,-90.24 362.66,-80.25"/>
<polygon fill="midnightblue" stroke="midnightblue" points="364.3,-83.34 371.59,-75.65 361.1,-77.12 364.3,-83.34"/>
</g>
<!-- Node7&#45;&gt;Node8 -->
<g id="edge8" class="edge">
<title>Node7&#45;&gt;Node8</title>
<path fill="none" stroke="midnightblue" d="M317.01,-112.44C356.54,-102.38 421.79,-85.75 461.47,-75.65"/>
<polygon fill="midnightblue" stroke="midnightblue" points="462.39,-79.03 471.22,-73.16 460.66,-72.24 462.39,-79.03"/>
</g>
<!-- Node9 -->
<g id="node9" class="node">
<title>Node9</title>
<g id="a_node9"><a xlink:title=" ">
<polygon fill="white" stroke="#bfbfbf" points="253.92,-56.5 253.92,-75.5 304.92,-75.5 304.92,-56.5 253.92,-56.5"/>
<text text-anchor="middle" x="279.42" y="-63.5" font-family="Helvetica,sans-Serif" font-size="10.00">math.h</text>
</a>
</g>
</g>
<!-- Node7&#45;&gt;Node9 -->
<g id="edge12" class="edge">
<title>Node7&#45;&gt;Node9</title>
<path fill="none" stroke="midnightblue" d="M282.76,-112.08C282.24,-105.01 281.49,-94.86 280.83,-85.99"/>
<polygon fill="midnightblue" stroke="midnightblue" points="284.3,-85.47 280.07,-75.75 277.32,-85.98 284.3,-85.47"/>
</g>
<!-- Node10 -->
<g id="node10" class="node">
<title>Node10</title>
<g id="a_node10"><a xlink:href="newstring_8h.html" target="_top" xlink:title=" ">
<polygon fill="white" stroke="black" points="161.42,-56.5 161.42,-75.5 235.42,-75.5 235.42,-56.5 161.42,-56.5"/>
<text text-anchor="middle" x="198.42" y="-63.5" font-family="Helvetica,sans-Serif" font-size="10.00">newstring.h</text>
</a>
</g>
</g>
<!-- Node7&#45;&gt;Node10 -->
<g id="edge14" class="edge">
<title>Node7&#45;&gt;Node10</title>
<path fill="none" stroke="midnightblue" d="M269.77,-112.32C256.51,-103.9 236.15,-90.97 220.58,-81.07"/>
<polygon fill="midnightblue" stroke="midnightblue" points="222.36,-78.06 212.04,-75.65 218.61,-83.97 222.36,-78.06"/>
</g>
<!-- Node10&#45;&gt;Node3 -->
<g id="edge15" class="edge">
<title>Node10&#45;&gt;Node3</title>
<path fill="none" stroke="midnightblue" d="M203.38,-56.08C207.53,-48.61 213.57,-37.72 218.69,-28.52"/>
<polygon fill="midnightblue" stroke="midnightblue" points="221.76,-30.19 223.56,-19.75 215.64,-26.79 221.76,-30.19"/>
</g>
<!-- Node10&#45;&gt;Node4 -->
<g id="edge17" class="edge">
<title>Node10&#45;&gt;Node4</title>
<path fill="none" stroke="midnightblue" d="M235.44,-56.74C281.63,-46.43 360.03,-28.94 405.31,-18.84"/>
<polygon fill="midnightblue" stroke="midnightblue" points="406.26,-22.21 415.25,-16.62 404.73,-15.38 406.26,-22.21"/>
</g>
<!-- Node10&#45;&gt;Node5 -->
<g id="edge16" class="edge">
<title>Node10&#45;&gt;Node5</title>
<path fill="none" stroke="midnightblue" d="M181.87,-56.32C165.43,-47.7 139.99,-34.36 120.95,-24.39"/>
<polygon fill="midnightblue" stroke="midnightblue" points="122.41,-21.2 111.93,-19.65 119.16,-27.4 122.41,-21.2"/>
</g>
<!-- Node11&#45;&gt;Node3 -->
<g id="edge21" class="edge">
<title>Node11&#45;&gt;Node3</title>
<path fill="none" stroke="midnightblue" d="M454.17,-168.22C455.55,-146.01 455.88,-87.16 424.42,-56 402.9,-34.68 320.48,-21.59 269.63,-15.36"/>
<polygon fill="midnightblue" stroke="midnightblue" points="269.94,-11.88 259.59,-14.17 269.11,-18.83 269.94,-11.88"/>
</g>
<!-- Node11&#45;&gt;Node4 -->
<g id="edge19" class="edge">
<title>Node11&#45;&gt;Node4</title>
<path fill="none" stroke="midnightblue" d="M466.32,-168.22C493.93,-148.3 554.22,-98.16 528.42,-56 516.83,-37.05 494.46,-25.76 475.18,-19.23"/>
<polygon fill="midnightblue" stroke="midnightblue" points="476.04,-15.83 465.45,-16.23 473.98,-22.52 476.04,-15.83"/>
</g>
<!-- Node11&#45;&gt;Node6 -->
<g id="edge20" class="edge">
<title>Node11&#45;&gt;Node6</title>
<path fill="none" stroke="midnightblue" d="M448.32,-168.37C437.64,-150.3 412.75,-108.18 398.65,-84.31"/>
<polygon fill="midnightblue" stroke="midnightblue" points="401.6,-82.42 393.5,-75.59 395.57,-85.98 401.6,-82.42"/>
</g>
<!-- Node11&#45;&gt;Node7 -->
<g id="edge22" class="edge">
<title>Node11&#45;&gt;Node7</title>
<path fill="none" stroke="midnightblue" d="M426.48,-168.44C397.76,-159.32 352.09,-144.81 320.1,-134.65"/>
<polygon fill="midnightblue" stroke="midnightblue" points="320.82,-131.21 310.23,-131.52 318.7,-137.88 320.82,-131.21"/>
</g>
<!-- Node11&#45;&gt;Node8 -->
<g id="edge23" class="edge">
<title>Node11&#45;&gt;Node8</title>
<path fill="none" stroke="midnightblue" d="M456.72,-168.37C463.56,-150.46 479.41,-108.92 488.57,-84.95"/>
<polygon fill="midnightblue" stroke="midnightblue" points="491.84,-86.18 492.14,-75.59 485.3,-83.69 491.84,-86.18"/>
</g>
</g>
</svg>
