<?xml version="1.0" encoding="UTF-8" standalone="no"?>
<!DOCTYPE svg PUBLIC "-//W3C//DTD SVG 1.1//EN"
 "http://www.w3.org/Graphics/SVG/1.1/DTD/svg11.dtd">
<!-- Generated by graphviz version 2.43.0 (0)
 -->
<!-- Title: main Pages: 1 -->
<svg width="1104pt" height="766pt"
 viewBox="0.00 0.00 1104.00 766.00" xmlns="http://www.w3.org/2000/svg" xmlns:xlink="http://www.w3.org/1999/xlink">
<g id="graph0" class="graph" transform="scale(1 1) rotate(0) translate(4 762)">
<title>main</title>
<polygon fill="white" stroke="transparent" points="-4,4 -4,-762 1100,-762 1100,4 -4,4"/>
<!-- Node1 -->
<g id="node1" class="node">
<title>Node1</title>
<g id="a_node1"><a xlink:title=" ">
<polygon fill="#bfbfbf" stroke="black" points="0,-373.5 0,-392.5 41,-392.5 41,-373.5 0,-373.5"/>
<text text-anchor="middle" x="20.5" y="-380.5" font-family="Helvetica,sans-Serif" font-size="10.00">main</text>
</a>
</g>
</g>
<!-- Node2 -->
<g id="node2" class="node">
<title>Node2</title>
<g id="a_node2"><a xlink:href="newstring_8c.html#a03217aede38d7cef89609b66fd21f2f7" target="_top" xlink:title=" ">
<polygon fill="white" stroke="black" points="216.5,-468.5 216.5,-487.5 332.5,-487.5 332.5,-468.5 216.5,-468.5"/>
<text text-anchor="middle" x="274.5" y="-475.5" font-family="Helvetica,sans-Serif" font-size="10.00">dynamic_string_free</text>
</a>
</g>
</g>
<!-- Node1&#45;&gt;Node2 -->
<g id="edge1" class="edge">
<title>Node1&#45;&gt;Node2</title>
<path fill="none" stroke="midnightblue" d="M41.26,-391.94C74.87,-406.96 145.51,-437.69 207,-459 213.56,-461.27 220.54,-463.49 227.42,-465.55"/>
<polygon fill="midnightblue" stroke="midnightblue" points="226.8,-469.02 237.38,-468.46 228.76,-462.3 226.8,-469.02"/>
</g>
<!-- Node3 -->
<g id="node3" class="node">
<title>Node3</title>
<g id="a_node3"><a xlink:href="syntactic__analysis_8c.html#a607ec0964227a0c6c98fd79770e51c11" target="_top" xlink:title="Processes the FIRST rule in the syntactic analysis.">
<polygon fill="white" stroke="black" points="102,-525.5 102,-544.5 146,-544.5 146,-525.5 102,-525.5"/>
<text text-anchor="middle" x="124" y="-532.5" font-family="Helvetica,sans-Serif" font-size="10.00">FIRST</text>
</a>
</g>
</g>
<!-- Node1&#45;&gt;Node3 -->
<g id="edge2" class="edge">
<title>Node1&#45;&gt;Node3</title>
<path fill="none" stroke="midnightblue" d="M27.07,-392.63C36.79,-409.28 57.64,-444.43 77,-473 87.28,-488.18 99.71,-504.84 109.06,-517.06"/>
<polygon fill="midnightblue" stroke="midnightblue" points="106.37,-519.31 115.24,-525.1 111.91,-515.04 106.37,-519.31"/>
</g>
<!-- Node24 -->
<g id="node24" class="node">
<title>Node24</title>
<g id="a_node24"><a xlink:href="lexical__analyser_8c.html#a1b68532a422d65e0eab79e3011af906e" target="_top" xlink:title="Retrieves the next token from the input file.">
<polygon fill="white" stroke="black" points="91.5,-373.5 91.5,-392.5 156.5,-392.5 156.5,-373.5 91.5,-373.5"/>
<text text-anchor="middle" x="124" y="-380.5" font-family="Helvetica,sans-Serif" font-size="10.00">get_token</text>
</a>
</g>
</g>
<!-- Node1&#45;&gt;Node24 -->
<g id="edge37" class="edge">
<title>Node1&#45;&gt;Node24</title>
<path fill="none" stroke="midnightblue" d="M41.07,-383C52.36,-383 67.02,-383 80.81,-383"/>
<polygon fill="midnightblue" stroke="midnightblue" points="81.11,-386.5 91.11,-383 81.11,-379.5 81.11,-386.5"/>
</g>
<!-- Node30 -->
<g id="node30" class="node">
<title>Node30</title>
<g id="a_node30"><a xlink:href="lexical__analyser_8c.html#acbb4fd03fd6564af6fe03306ec48364c" target="_top" xlink:title="Prints the details of a token.">
<polygon fill="white" stroke="black" points="88.5,-281.5 88.5,-300.5 159.5,-300.5 159.5,-281.5 88.5,-281.5"/>
<text text-anchor="middle" x="124" y="-288.5" font-family="Helvetica,sans-Serif" font-size="10.00">print_token</text>
</a>
</g>
</g>
<!-- Node1&#45;&gt;Node30 -->
<g id="edge45" class="edge">
<title>Node1&#45;&gt;Node30</title>
<path fill="none" stroke="midnightblue" d="M32.36,-373.15C49.61,-357.52 83.46,-326.84 104.56,-307.72"/>
<polygon fill="midnightblue" stroke="midnightblue" points="107.16,-310.08 112.22,-300.77 102.46,-304.9 107.16,-310.08"/>
</g>
<!-- Node32 -->
<g id="node32" class="node">
<title>Node32</title>
<g id="a_node32"><a xlink:href="main_8c.html#a61b668b23f9d1ce9068bff1a47a788de" target="_top" xlink:title=" ">
<polygon fill="white" stroke="black" points="77,-114.5 77,-133.5 171,-133.5 171,-114.5 77,-114.5"/>
<text text-anchor="middle" x="124" y="-121.5" font-family="Helvetica,sans-Serif" font-size="10.00">test_hash_table</text>
</a>
</g>
</g>
<!-- Node1&#45;&gt;Node32 -->
<g id="edge47" class="edge">
<title>Node1&#45;&gt;Node32</title>
<path fill="none" stroke="midnightblue" d="M25.23,-373.47C40.09,-335.56 95.21,-194.92 115.47,-143.22"/>
<polygon fill="midnightblue" stroke="midnightblue" points="118.84,-144.2 119.23,-133.61 112.33,-141.65 118.84,-144.2"/>
</g>
<!-- Node4 -->
<g id="node4" class="node">
<title>Node4</title>
<g id="a_node4"><a xlink:href="syntactic__analysis_8c.html#ab1c09d376532dc76198f8d2d6c729fef" target="_top" xlink:title="Processes command for constant declaration.">
<polygon fill="white" stroke="black" points="665,-700.5 665,-719.5 740,-719.5 740,-700.5 665,-700.5"/>
<text text-anchor="middle" x="702.5" y="-707.5" font-family="Helvetica,sans-Serif" font-size="10.00">CONST_DEF</text>
</a>
</g>
</g>
<!-- Node3&#45;&gt;Node4 -->
<g id="edge3" class="edge">
<title>Node3&#45;&gt;Node4</title>
<path fill="none" stroke="midnightblue" d="M138.29,-544.6C154,-555.54 181.27,-573.3 207,-584 364.77,-649.6 565.48,-687.87 654.89,-702.76"/>
<polygon fill="midnightblue" stroke="midnightblue" points="654.54,-706.25 664.98,-704.42 655.68,-699.34 654.54,-706.25"/>
</g>
<!-- Node7 -->
<g id="node7" class="node">
<title>Node7</title>
<g id="a_node7"><a xlink:href="syntactic__analysis_8c.html#afb9892407a0399d61e51261ff730599a" target="_top" xlink:title="Processes function declaration.">
<polygon fill="white" stroke="black" points="247,-506.5 247,-525.5 302,-525.5 302,-506.5 247,-506.5"/>
<text text-anchor="middle" x="274.5" y="-513.5" font-family="Helvetica,sans-Serif" font-size="10.00">FN_DEF</text>
</a>
</g>
</g>
<!-- Node3&#45;&gt;Node7 -->
<g id="edge6" class="edge">
<title>Node3&#45;&gt;Node7</title>
<path fill="none" stroke="midnightblue" d="M146.28,-532.28C169.92,-529.25 208.51,-524.31 237,-520.67"/>
<polygon fill="midnightblue" stroke="midnightblue" points="237.52,-524.13 247,-519.39 236.63,-517.19 237.52,-524.13"/>
</g>
<!-- Node21 -->
<g id="node21" class="node">
<title>Node21</title>
<g id="a_node21"><a xlink:href="syntactic__analysis_8c.html#a49c6186e8aee36246b52305756b7a017" target="_top" xlink:title="Processes command for variable declaration.">
<polygon fill="white" stroke="black" points="672,-662.5 672,-681.5 733,-681.5 733,-662.5 672,-662.5"/>
<text text-anchor="middle" x="702.5" y="-669.5" font-family="Helvetica,sans-Serif" font-size="10.00">VAR_DEF</text>
</a>
</g>
</g>
<!-- Node3&#45;&gt;Node21 -->
<g id="edge36" class="edge">
<title>Node3&#45;&gt;Node21</title>
<path fill="none" stroke="midnightblue" d="M146.2,-540.04C231.4,-560.29 549.63,-635.91 661.94,-662.6"/>
<polygon fill="midnightblue" stroke="midnightblue" points="661.31,-666.05 671.85,-664.95 662.93,-659.24 661.31,-666.05"/>
</g>
<!-- Node5 -->
<g id="node5" class="node">
<title>Node5</title>
<g id="a_node5"><a xlink:href="syntactic__analysis_8c.html#aa1d8bc4c3095f3ba13e1fcc83038d948" target="_top" xlink:title="Processes assigning expresions to the constant.">
<polygon fill="white" stroke="black" points="890,-700.5 890,-719.5 982,-719.5 982,-700.5 890,-700.5"/>
<text text-anchor="middle" x="936" y="-707.5" font-family="Helvetica,sans-Serif" font-size="10.00">ASSIGN_CONST</text>
</a>
</g>
</g>
<!-- Node4&#45;&gt;Node5 -->
<g id="edge4" class="edge">
<title>Node4&#45;&gt;Node5</title>
<path fill="none" stroke="midnightblue" d="M740.18,-710C777.72,-710 836.5,-710 879.68,-710"/>
<polygon fill="midnightblue" stroke="midnightblue" points="879.75,-713.5 889.75,-710 879.75,-706.5 879.75,-713.5"/>
</g>
<!-- Node6 -->
<g id="node6" class="node">
<title>Node6</title>
<g id="a_node6"><a xlink:href="syntactic__analysis_8c.html#a38b7a13b9a5926c2c4b6af62cec86f85" target="_top" xlink:title="Function for processing another argument which is in queue.">
<polygon fill="white" stroke="black" points="1018,-624.5 1018,-643.5 1096,-643.5 1096,-624.5 1018,-624.5"/>
<text text-anchor="middle" x="1057" y="-631.5" font-family="Helvetica,sans-Serif" font-size="10.00">EXPRESSION</text>
</a>
</g>
</g>
<!-- Node5&#45;&gt;Node6 -->
<g id="edge5" class="edge">
<title>Node5&#45;&gt;Node6</title>
<path fill="none" stroke="midnightblue" d="M956.12,-700.46C964.23,-696.25 973.7,-691.1 982,-686 1000.5,-674.63 1020.61,-660.37 1035.19,-649.66"/>
<polygon fill="midnightblue" stroke="midnightblue" points="1037.54,-652.27 1043.49,-643.51 1033.37,-646.65 1037.54,-652.27"/>
</g>
<!-- Node8 -->
<g id="node8" class="node">
<title>Node8</title>
<g id="a_node8"><a xlink:href="syntactic__analysis_8c.html#aef5821c4ef2e8e26c864efa3564244f6" target="_top" xlink:title="Function for verifaction enabled data types (FUNCTIONS)">
<polygon fill="white" stroke="black" points="562.5,-396.5 562.5,-415.5 621.5,-415.5 621.5,-396.5 562.5,-396.5"/>
<text text-anchor="middle" x="592" y="-403.5" font-family="Helvetica,sans-Serif" font-size="10.00">FN_TYPE</text>
</a>
</g>
</g>
<!-- Node7&#45;&gt;Node8 -->
<g id="edge7" class="edge">
<title>Node7&#45;&gt;Node8</title>
<path fill="none" stroke="midnightblue" d="M302.17,-508.85C314.37,-505.46 328.98,-501.23 342,-497 419.64,-471.76 509.23,-437.81 556.94,-419.33"/>
<polygon fill="midnightblue" stroke="midnightblue" points="558.41,-422.52 566.47,-415.64 555.88,-415.99 558.41,-422.52"/>
</g>
<!-- Node10 -->
<g id="node10" class="node">
<title>Node10</title>
<g id="a_node10"><a xlink:href="syntactic__analysis_8c.html#acb21f12318c9d312a452616eb6c7262d" target="_top" xlink:title="Function for processing parameters of declaraced function.">
<polygon fill="white" stroke="black" points="566.5,-358.5 566.5,-377.5 617.5,-377.5 617.5,-358.5 566.5,-358.5"/>
<text text-anchor="middle" x="592" y="-365.5" font-family="Helvetica,sans-Serif" font-size="10.00">PARAM</text>
</a>
</g>
</g>
<!-- Node7&#45;&gt;Node10 -->
<g id="edge9" class="edge">
<title>Node7&#45;&gt;Node10</title>
<path fill="none" stroke="midnightblue" d="M302.01,-513.29C315.18,-510.82 330.66,-506.08 342,-497 368.09,-476.12 352.01,-452 378,-431 430.46,-388.62 510.64,-374.74 556.19,-370.2"/>
<polygon fill="midnightblue" stroke="midnightblue" points="556.53,-373.69 566.18,-369.3 555.9,-366.71 556.53,-373.69"/>
</g>
<!-- Node11 -->
<g id="node11" class="node">
<title>Node11</title>
<g id="a_node11"><a xlink:href="syntactic__analysis_8c.html#a7d21e9db61747d6734d9a7f27d33b4f4" target="_top" xlink:title="Function for determining the depth of infestation.">
<polygon fill="white" stroke="black" points="424,-506.5 424,-525.5 473,-525.5 473,-506.5 424,-506.5"/>
<text text-anchor="middle" x="448.5" y="-513.5" font-family="Helvetica,sans-Serif" font-size="10.00">SCOPE</text>
</a>
</g>
</g>
<!-- Node7&#45;&gt;Node11 -->
<g id="edge11" class="edge">
<title>Node7&#45;&gt;Node11</title>
<path fill="none" stroke="midnightblue" d="M302.38,-516C332.34,-516 380.87,-516 413.46,-516"/>
<polygon fill="midnightblue" stroke="midnightblue" points="413.85,-519.5 423.85,-516 413.85,-512.5 413.85,-519.5"/>
</g>
<!-- Node9 -->
<g id="node9" class="node">
<title>Node9</title>
<g id="a_node9"><a xlink:href="syntactic__analysis_8c.html#aaef2bee27144c07c175bb36e4c28af9d" target="_top" xlink:title="Function for verifaction enabled data types (DATA TYPES)">
<polygon fill="white" stroke="black" points="904,-396.5 904,-415.5 968,-415.5 968,-396.5 904,-396.5"/>
<text text-anchor="middle" x="936" y="-403.5" font-family="Helvetica,sans-Serif" font-size="10.00">VAL_TYPE</text>
</a>
</g>
</g>
<!-- Node8&#45;&gt;Node9 -->
<g id="edge8" class="edge">
<title>Node8&#45;&gt;Node9</title>
<path fill="none" stroke="midnightblue" d="M621.57,-406C682.04,-406 823.17,-406 893.55,-406"/>
<polygon fill="midnightblue" stroke="midnightblue" points="893.81,-409.5 903.81,-406 893.81,-402.5 893.81,-409.5"/>
</g>
<!-- Node10&#45;&gt;Node9 -->
<g id="edge10" class="edge">
<title>Node10&#45;&gt;Node9</title>
<path fill="none" stroke="midnightblue" d="M617.6,-370.73C675.7,-377.19 821.94,-393.44 893.82,-401.42"/>
<polygon fill="midnightblue" stroke="midnightblue" points="893.54,-404.91 903.87,-402.54 894.31,-397.96 893.54,-404.91"/>
</g>
<!-- Node12 -->
<g id="node12" class="node">
<title>Node12</title>
<g id="a_node12"><a xlink:href="syntactic__analysis_8c.html#a7eac9e4351cf87fecd3e9a66cf5f28d8" target="_top" xlink:title="Processes the commands, coditions, ...">
<polygon fill="white" stroke="black" points="555,-578.5 555,-597.5 629,-597.5 629,-578.5 555,-578.5"/>
<text text-anchor="middle" x="592" y="-585.5" font-family="Helvetica,sans-Serif" font-size="10.00">STATEMENT</text>
</a>
</g>
</g>
<!-- Node11&#45;&gt;Node12 -->
<g id="edge12" class="edge">
<title>Node11&#45;&gt;Node12</title>
<path fill="none" stroke="midnightblue" d="M468.29,-525.56C492.5,-537.88 534.8,-559.4 562.86,-573.68"/>
<polygon fill="midnightblue" stroke="midnightblue" points="561.63,-576.98 572.13,-578.4 564.81,-570.74 561.63,-576.98"/>
</g>
<!-- Node12&#45;&gt;Node4 -->
<g id="edge20" class="edge">
<title>Node12&#45;&gt;Node4</title>
<path fill="none" stroke="midnightblue" d="M597.71,-597.67C607.73,-617.4 632.86,-662.79 665,-691 666.53,-692.34 668.17,-693.62 669.88,-694.84"/>
<polygon fill="midnightblue" stroke="midnightblue" points="668.45,-698.06 678.79,-700.34 672.13,-692.11 668.45,-698.06"/>
</g>
<!-- Node13 -->
<g id="node13" class="node">
<title>Node13</title>
<g id="a_node13"><a xlink:href="syntactic__analysis_8c.html#a2999c303cc3fb4692b7e96d9a22e9c03" target="_top" xlink:title="Processes calling functions, variables.">
<polygon fill="white" stroke="black" points="670,-624.5 670,-643.5 735,-643.5 735,-624.5 670,-624.5"/>
<text text-anchor="middle" x="702.5" y="-631.5" font-family="Helvetica,sans-Serif" font-size="10.00">CALL_DEF</text>
</a>
</g>
</g>
<!-- Node12&#45;&gt;Node13 -->
<g id="edge13" class="edge">
<title>Node12&#45;&gt;Node13</title>
<path fill="none" stroke="midnightblue" d="M615.48,-597.53C631.19,-604.19 652.39,-613.18 669.82,-620.57"/>
<polygon fill="midnightblue" stroke="midnightblue" points="668.47,-623.8 679.05,-624.48 671.21,-617.36 668.47,-623.8"/>
</g>
<!-- Node17 -->
<g id="node17" class="node">
<title>Node17</title>
<g id="a_node17"><a xlink:href="syntactic__analysis_8c.html#a047deda12297b3a39f2d50261fd7de70" target="_top" xlink:title="Processes else condition.">
<polygon fill="white" stroke="black" points="670,-472.5 670,-491.5 735,-491.5 735,-472.5 670,-472.5"/>
<text text-anchor="middle" x="702.5" y="-479.5" font-family="Helvetica,sans-Serif" font-size="10.00">ELSE_DEF</text>
</a>
</g>
</g>
<!-- Node12&#45;&gt;Node17 -->
<g id="edge21" class="edge">
<title>Node12&#45;&gt;Node17</title>
<path fill="none" stroke="midnightblue" d="M599.11,-578.3C610.4,-561 636.03,-524.41 665,-501 666.76,-499.58 668.64,-498.22 670.59,-496.92"/>
<polygon fill="midnightblue" stroke="midnightblue" points="672.57,-499.82 679.39,-491.7 669,-493.8 672.57,-499.82"/>
</g>
<!-- Node18 -->
<g id="node18" class="node">
<title>Node18</title>
<g id="a_node18"><a xlink:href="syntactic__analysis_8c.html#ac9b33c13aa831335429748838739aef7" target="_top" xlink:title="Processes if condition.">
<polygon fill="white" stroke="black" points="677.5,-510.5 677.5,-529.5 727.5,-529.5 727.5,-510.5 677.5,-510.5"/>
<text text-anchor="middle" x="702.5" y="-517.5" font-family="Helvetica,sans-Serif" font-size="10.00">IF_DEF</text>
</a>
</g>
</g>
<!-- Node12&#45;&gt;Node18 -->
<g id="edge23" class="edge">
<title>Node12&#45;&gt;Node18</title>
<path fill="none" stroke="midnightblue" d="M605.97,-578.49C620.15,-568.25 643.72,-551.72 665,-539 667.53,-537.49 670.19,-535.97 672.88,-534.49"/>
<polygon fill="midnightblue" stroke="midnightblue" points="674.78,-537.44 681.95,-529.64 671.48,-531.27 674.78,-537.44"/>
</g>
<!-- Node20 -->
<g id="node20" class="node">
<title>Node20</title>
<g id="a_node20"><a xlink:href="syntactic__analysis_8c.html#a1012bbb9f570627aabec5e3eda7c4993" target="_top" xlink:title="Processes return command.">
<polygon fill="white" stroke="black" points="906,-586.5 906,-605.5 966,-605.5 966,-586.5 906,-586.5"/>
<text text-anchor="middle" x="936" y="-593.5" font-family="Helvetica,sans-Serif" font-size="10.00">RET_DEF</text>
</a>
</g>
</g>
<!-- Node12&#45;&gt;Node20 -->
<g id="edge27" class="edge">
<title>Node12&#45;&gt;Node20</title>
<path fill="none" stroke="midnightblue" d="M629.28,-588.85C694.06,-590.36 829.1,-593.52 895.88,-595.08"/>
<polygon fill="midnightblue" stroke="midnightblue" points="895.91,-598.59 905.99,-595.32 896.07,-591.59 895.91,-598.59"/>
</g>
<!-- Node12&#45;&gt;Node21 -->
<g id="edge29" class="edge">
<title>Node12&#45;&gt;Node21</title>
<path fill="none" stroke="midnightblue" d="M605.6,-597.61C612.64,-603.11 621.48,-610.24 629,-617 645.83,-632.12 646.75,-639.62 665,-653 667.07,-654.52 669.27,-655.98 671.53,-657.38"/>
<polygon fill="midnightblue" stroke="midnightblue" points="669.96,-660.51 680.38,-662.4 673.41,-654.42 669.96,-660.51"/>
</g>
<!-- Node23 -->
<g id="node23" class="node">
<title>Node23</title>
<g id="a_node23"><a xlink:href="syntactic__analysis_8c.html#a13efec100d0c39c874c413765ded4d10" target="_top" xlink:title="Processes while loop.">
<polygon fill="white" stroke="black" points="666,-548.5 666,-567.5 739,-567.5 739,-548.5 666,-548.5"/>
<text text-anchor="middle" x="702.5" y="-555.5" font-family="Helvetica,sans-Serif" font-size="10.00">WHILE_DEF</text>
</a>
</g>
</g>
<!-- Node12&#45;&gt;Node23 -->
<g id="edge33" class="edge">
<title>Node12&#45;&gt;Node23</title>
<path fill="none" stroke="midnightblue" d="M627.63,-578.43C637.02,-575.83 647.33,-572.98 657.18,-570.25"/>
<polygon fill="midnightblue" stroke="midnightblue" points="658.12,-573.63 666.83,-567.59 656.26,-566.88 658.12,-573.63"/>
</g>
<!-- Node14 -->
<g id="node14" class="node">
<title>Node14</title>
<g id="a_node14"><a xlink:href="syntactic__analysis_8c.html#ade39708cf9c0a95b1e75a94b3982f1aa" target="_top" xlink:title="Extended function for CALL_DEF()">
<polygon fill="white" stroke="black" points="782.5,-662.5 782.5,-681.5 847.5,-681.5 847.5,-662.5 782.5,-662.5"/>
<text text-anchor="middle" x="815" y="-669.5" font-family="Helvetica,sans-Serif" font-size="10.00">CALL_EXT</text>
</a>
</g>
</g>
<!-- Node13&#45;&gt;Node14 -->
<g id="edge14" class="edge">
<title>Node13&#45;&gt;Node14</title>
<path fill="none" stroke="midnightblue" d="M731.38,-643.59C744.99,-648.27 761.57,-653.97 776.29,-659.03"/>
<polygon fill="midnightblue" stroke="midnightblue" points="775.53,-662.47 786.13,-662.41 777.81,-655.85 775.53,-662.47"/>
</g>
<!-- Node14&#45;&gt;Node6 -->
<g id="edge19" class="edge">
<title>Node14&#45;&gt;Node6</title>
<path fill="none" stroke="midnightblue" d="M847.58,-667.85C881.02,-663.36 935.33,-655.79 982,-648 990.34,-646.61 999.19,-645.03 1007.76,-643.44"/>
<polygon fill="midnightblue" stroke="midnightblue" points="1008.47,-646.87 1017.65,-641.58 1007.17,-639.99 1008.47,-646.87"/>
</g>
<!-- Node15 -->
<g id="node15" class="node">
<title>Node15</title>
<g id="a_node15"><a xlink:href="syntactic__analysis_8c.html#a83f44b9d12d581ea924af4ba707819c3" target="_top" xlink:title="Function for processing argument of called function.">
<polygon fill="white" stroke="black" points="917,-738.5 917,-757.5 955,-757.5 955,-738.5 917,-738.5"/>
<text text-anchor="middle" x="936" y="-745.5" font-family="Helvetica,sans-Serif" font-size="10.00">ARG</text>
</a>
</g>
</g>
<!-- Node14&#45;&gt;Node15 -->
<g id="edge15" class="edge">
<title>Node14&#45;&gt;Node15</title>
<path fill="none" stroke="midnightblue" d="M826.89,-681.85C840.78,-694.05 865.9,-714.95 890,-729 895.44,-732.17 901.52,-735.11 907.4,-737.67"/>
<polygon fill="midnightblue" stroke="midnightblue" points="906.39,-741.04 916.97,-741.61 909.06,-734.57 906.39,-741.04"/>
</g>
<!-- Node15&#45;&gt;Node6 -->
<g id="edge18" class="edge">
<title>Node15&#45;&gt;Node6</title>
<path fill="none" stroke="midnightblue" d="M955.21,-742.7C963.88,-739.6 974.06,-735.09 982,-729 1009.78,-707.69 1032.89,-673.6 1045.54,-652.58"/>
<polygon fill="midnightblue" stroke="midnightblue" points="1048.72,-654.07 1050.74,-643.67 1042.68,-650.54 1048.72,-654.07"/>
</g>
<!-- Node16 -->
<g id="node16" class="node">
<title>Node16</title>
<g id="a_node16"><a xlink:href="syntactic__analysis_8c.html#a271ef1f0dc6a029b233bcb024b19b116" target="_top" xlink:title="Function for processing another argument which is in queue.">
<polygon fill="white" stroke="black" points="1035,-738.5 1035,-757.5 1079,-757.5 1079,-738.5 1035,-738.5"/>
<text text-anchor="middle" x="1057" y="-745.5" font-family="Helvetica,sans-Serif" font-size="10.00">ARGS</text>
</a>
</g>
</g>
<!-- Node15&#45;&gt;Node16 -->
<g id="edge16" class="edge">
<title>Node15&#45;&gt;Node16</title>
<path fill="none" stroke="midnightblue" d="M955.07,-742.99C973.51,-741.08 1002.49,-740.74 1024.67,-741.97"/>
<polygon fill="midnightblue" stroke="midnightblue" points="1024.72,-745.49 1034.94,-742.7 1025.21,-738.5 1024.72,-745.49"/>
</g>
<!-- Node16&#45;&gt;Node15 -->
<g id="edge17" class="edge">
<title>Node16&#45;&gt;Node15</title>
<path fill="none" stroke="midnightblue" d="M1034.94,-753.3C1015.53,-755.03 986.58,-755.21 965.19,-753.84"/>
<polygon fill="midnightblue" stroke="midnightblue" points="965.33,-750.34 955.07,-753.01 964.75,-757.32 965.33,-750.34"/>
</g>
<!-- Node17&#45;&gt;Node11 -->
<g id="edge22" class="edge">
<title>Node17&#45;&gt;Node11</title>
<path fill="none" stroke="midnightblue" d="M669.85,-486.27C622.15,-492.71 532.21,-504.84 483.28,-511.44"/>
<polygon fill="midnightblue" stroke="midnightblue" points="482.65,-508 473.21,-512.8 483.59,-514.93 482.65,-508"/>
</g>
<!-- Node18&#45;&gt;Node6 -->
<g id="edge24" class="edge">
<title>Node18&#45;&gt;Node6</title>
<path fill="none" stroke="midnightblue" d="M727.88,-517.14C778.43,-512.34 897.06,-507.13 982,-551 1010.3,-565.62 1032.86,-595.87 1045.32,-615.53"/>
<polygon fill="midnightblue" stroke="midnightblue" points="1042.42,-617.5 1050.61,-624.22 1048.4,-613.86 1042.42,-617.5"/>
</g>
<!-- Node19 -->
<g id="node19" class="node">
<title>Node19</title>
<g id="a_node19"><a xlink:href="syntactic__analysis_8c.html#af131918ae0d8a1cc29cb2c8d6dc13aff" target="_top" xlink:title="Extended function for CALL_DEF()">
<polygon fill="white" stroke="black" points="790,-453.5 790,-472.5 840,-472.5 840,-453.5 790,-453.5"/>
<text text-anchor="middle" x="815" y="-460.5" font-family="Helvetica,sans-Serif" font-size="10.00">IF_EXT</text>
</a>
</g>
</g>
<!-- Node18&#45;&gt;Node19 -->
<g id="edge25" class="edge">
<title>Node18&#45;&gt;Node19</title>
<path fill="none" stroke="midnightblue" d="M722.24,-510.33C739.89,-501.23 766.53,-487.48 786.57,-477.15"/>
<polygon fill="midnightblue" stroke="midnightblue" points="788.25,-480.22 795.53,-472.53 785.04,-474 788.25,-480.22"/>
</g>
<!-- Node19&#45;&gt;Node11 -->
<g id="edge26" class="edge">
<title>Node19&#45;&gt;Node11</title>
<path fill="none" stroke="midnightblue" d="M789.91,-461.35C760.37,-459.71 708.83,-458.08 665,-463 615.18,-468.59 603.68,-476.01 555,-488 530.92,-493.93 503.88,-501.12 483.21,-506.72"/>
<polygon fill="midnightblue" stroke="midnightblue" points="482.05,-503.41 473.32,-509.42 483.89,-510.17 482.05,-503.41"/>
</g>
<!-- Node20&#45;&gt;Node6 -->
<g id="edge28" class="edge">
<title>Node20&#45;&gt;Node6</title>
<path fill="none" stroke="midnightblue" d="M966.11,-605.3C981.15,-610.1 999.74,-616.03 1016.1,-621.26"/>
<polygon fill="midnightblue" stroke="midnightblue" points="1015.36,-624.7 1025.95,-624.4 1017.49,-618.03 1015.36,-624.7"/>
</g>
<!-- Node22 -->
<g id="node22" class="node">
<title>Node22</title>
<g id="a_node22"><a xlink:href="syntactic__analysis_8c.html#a76e0ba812902123b4ec0d43c59c13c04" target="_top" xlink:title="Processes assigning expresions to the variable.">
<polygon fill="white" stroke="black" points="776,-624.5 776,-643.5 854,-643.5 854,-624.5 776,-624.5"/>
<text text-anchor="middle" x="815" y="-631.5" font-family="Helvetica,sans-Serif" font-size="10.00">ASSIGN_VAR</text>
</a>
</g>
</g>
<!-- Node21&#45;&gt;Node22 -->
<g id="edge30" class="edge">
<title>Node21&#45;&gt;Node22</title>
<path fill="none" stroke="midnightblue" d="M731.38,-662.41C744.99,-657.73 761.57,-652.03 776.29,-646.97"/>
<polygon fill="midnightblue" stroke="midnightblue" points="777.81,-650.15 786.13,-643.59 775.53,-643.53 777.81,-650.15"/>
</g>
<!-- Node22&#45;&gt;Node6 -->
<g id="edge31" class="edge">
<title>Node22&#45;&gt;Node6</title>
<path fill="none" stroke="midnightblue" d="M854.03,-634C895.6,-634 962.31,-634 1007.58,-634"/>
<polygon fill="midnightblue" stroke="midnightblue" points="1007.75,-637.5 1017.75,-634 1007.75,-630.5 1007.75,-637.5"/>
</g>
<!-- Node22&#45;&gt;Node9 -->
<g id="edge32" class="edge">
<title>Node22&#45;&gt;Node9</title>
<path fill="none" stroke="midnightblue" d="M820.96,-624.49C838.99,-589.95 901.25,-470.66 925.36,-424.47"/>
<polygon fill="midnightblue" stroke="midnightblue" points="928.49,-426.03 930.02,-415.55 922.29,-422.79 928.49,-426.03"/>
</g>
<!-- Node23&#45;&gt;Node6 -->
<g id="edge34" class="edge">
<title>Node23&#45;&gt;Node6</title>
<path fill="none" stroke="midnightblue" d="M739.18,-554.01C793.55,-549.33 899.52,-545.74 982,-577 1004.56,-585.55 1025.9,-603.42 1039.81,-616.88"/>
<polygon fill="midnightblue" stroke="midnightblue" points="1037.56,-619.58 1047.09,-624.2 1042.52,-614.64 1037.56,-619.58"/>
</g>
<!-- Node23&#45;&gt;Node11 -->
<g id="edge35" class="edge">
<title>Node23&#45;&gt;Node11</title>
<path fill="none" stroke="midnightblue" d="M665.62,-552.02C617,-543.92 530.81,-529.55 483.29,-521.63"/>
<polygon fill="midnightblue" stroke="midnightblue" points="483.65,-518.14 473.21,-519.95 482.5,-525.05 483.65,-518.14"/>
</g>
<!-- Node24&#45;&gt;Node2 -->
<g id="edge42" class="edge">
<title>Node24&#45;&gt;Node2</title>
<path fill="none" stroke="midnightblue" d="M132.77,-392.71C146.2,-408.85 175.37,-441.19 207,-459 210.93,-461.21 215.14,-463.19 219.46,-464.94"/>
<polygon fill="midnightblue" stroke="midnightblue" points="218.45,-468.3 229.04,-468.45 220.85,-461.72 218.45,-468.3"/>
</g>
<!-- Node25 -->
<g id="node25" class="node">
<title>Node25</title>
<g id="a_node25"><a xlink:href="newstring_8c.html#a723751a5d99efdf10145303c11895ce9" target="_top" xlink:title=" ">
<polygon fill="white" stroke="black" points="207,-305 207,-335 342,-335 342,-305 207,-305"/>
<text text-anchor="start" x="215" y="-323" font-family="Helvetica,sans-Serif" font-size="10.00">add_double_to_dynamic</text>
<text text-anchor="middle" x="274.5" y="-312" font-family="Helvetica,sans-Serif" font-size="10.00">_string</text>
</a>
</g>
</g>
<!-- Node24&#45;&gt;Node25 -->
<g id="edge38" class="edge">
<title>Node24&#45;&gt;Node25</title>
<path fill="none" stroke="midnightblue" d="M144.7,-373.37C161.2,-365.43 185.44,-354.03 207,-345 211.98,-342.91 217.19,-340.81 222.43,-338.76"/>
<polygon fill="midnightblue" stroke="midnightblue" points="223.74,-342 231.81,-335.13 221.22,-335.47 223.74,-342"/>
</g>
<!-- Node26 -->
<g id="node26" class="node">
<title>Node26</title>
<g id="a_node26"><a xlink:href="newstring_8c.html#a33884f5f943a1e93cdba424756c663d9" target="_top" xlink:title=" ">
<polygon fill="white" stroke="black" points="378,-288.5 378,-307.5 519,-307.5 519,-288.5 378,-288.5"/>
<text text-anchor="middle" x="448.5" y="-295.5" font-family="Helvetica,sans-Serif" font-size="10.00">dynamic_string_add_char</text>
</a>
</g>
</g>
<!-- Node24&#45;&gt;Node26 -->
<g id="edge40" class="edge">
<title>Node24&#45;&gt;Node26</title>
<path fill="none" stroke="midnightblue" d="M130.42,-373.27C141.71,-354.12 169.84,-312.04 207,-296 269.05,-269.22 348.77,-277.1 399.02,-286.52"/>
<polygon fill="midnightblue" stroke="midnightblue" points="398.48,-289.98 408.97,-288.48 399.83,-283.11 398.48,-289.98"/>
</g>
<!-- Node27 -->
<g id="node27" class="node">
<title>Node27</title>
<g id="a_node27"><a xlink:href="newstring_8c.html#aa1207c77da58ada32d94fe4e97aa5e1e" target="_top" xlink:title=" ">
<polygon fill="white" stroke="black" points="214,-430.5 214,-449.5 335,-449.5 335,-430.5 214,-430.5"/>
<text text-anchor="middle" x="274.5" y="-437.5" font-family="Helvetica,sans-Serif" font-size="10.00">dynamic_string_clear</text>
</a>
</g>
</g>
<!-- Node24&#45;&gt;Node27 -->
<g id="edge41" class="edge">
<title>Node24&#45;&gt;Node27</title>
<path fill="none" stroke="midnightblue" d="M143.54,-392.6C159.93,-400.85 184.65,-412.68 207,-421 213.28,-423.33 219.97,-425.55 226.61,-427.6"/>
<polygon fill="midnightblue" stroke="midnightblue" points="225.65,-430.96 236.24,-430.46 227.65,-424.25 225.65,-430.96"/>
</g>
<!-- Node28 -->
<g id="node28" class="node">
<title>Node28</title>
<g id="a_node28"><a xlink:href="newstring_8c.html#a5c4e413e494b26f4a5d9ddba7a274b3c" target="_top" xlink:title=" ">
<polygon fill="white" stroke="black" points="218,-392.5 218,-411.5 331,-411.5 331,-392.5 218,-392.5"/>
<text text-anchor="middle" x="274.5" y="-399.5" font-family="Helvetica,sans-Serif" font-size="10.00">dynamic_string_init</text>
</a>
</g>
</g>
<!-- Node24&#45;&gt;Node28 -->
<g id="edge43" class="edge">
<title>Node24&#45;&gt;Node28</title>
<path fill="none" stroke="midnightblue" d="M156.86,-387.08C171.68,-388.97 189.88,-391.3 207.46,-393.55"/>
<polygon fill="midnightblue" stroke="midnightblue" points="207.35,-397.07 217.72,-394.86 208.24,-390.12 207.35,-397.07"/>
</g>
<!-- Node29 -->
<g id="node29" class="node">
<title>Node29</title>
<g id="a_node29"><a xlink:href="lexical__analyser_8c.html#ade03459f3b506becbc1e389002a1126a" target="_top" xlink:title="Checks if a given token is a keyword.">
<polygon fill="white" stroke="black" points="239,-354.5 239,-373.5 310,-373.5 310,-354.5 239,-354.5"/>
<text text-anchor="middle" x="274.5" y="-361.5" font-family="Helvetica,sans-Serif" font-size="10.00">is_keyword</text>
</a>
</g>
</g>
<!-- Node24&#45;&gt;Node29 -->
<g id="edge44" class="edge">
<title>Node24&#45;&gt;Node29</title>
<path fill="none" stroke="midnightblue" d="M156.86,-378.92C177.87,-376.24 205.69,-372.68 228.89,-369.71"/>
<polygon fill="midnightblue" stroke="midnightblue" points="229.37,-373.17 238.85,-368.43 228.48,-366.23 229.37,-373.17"/>
</g>
<!-- Node25&#45;&gt;Node26 -->
<g id="edge39" class="edge">
<title>Node25&#45;&gt;Node26</title>
<path fill="none" stroke="midnightblue" d="M342.49,-311.43C350.83,-310.36 359.42,-309.27 367.93,-308.18"/>
<polygon fill="midnightblue" stroke="midnightblue" points="368.38,-311.65 377.85,-306.91 367.49,-304.71 368.38,-311.65"/>
</g>
<!-- Node31 -->
<g id="node31" class="node">
<title>Node31</title>
<g id="a_node31"><a xlink:href="lexical__analyser_8c.html#a67367cc8618de258a4163191d1ac05b8" target="_top" xlink:title="Converts a token type to its string representation.">
<polygon fill="white" stroke="black" points="215,-228.5 215,-247.5 334,-247.5 334,-228.5 215,-228.5"/>
<text text-anchor="middle" x="274.5" y="-235.5" font-family="Helvetica,sans-Serif" font-size="10.00">token_type_to_string</text>
</a>
</g>
</g>
<!-- Node30&#45;&gt;Node31 -->
<g id="edge46" class="edge">
<title>Node30&#45;&gt;Node31</title>
<path fill="none" stroke="midnightblue" d="M151.89,-281.4C175.76,-272.88 210.82,-260.37 237.18,-250.96"/>
<polygon fill="midnightblue" stroke="midnightblue" points="238.57,-254.18 246.81,-247.53 236.21,-247.59 238.57,-254.18"/>
</g>
<!-- Node33 -->
<g id="node33" class="node">
<title>Node33</title>
<g id="a_node33"><a xlink:href="ADT_8c.html#a99781ee05b9a784e40d6e179c04f42c9" target="_top" xlink:title=" ">
<polygon fill="white" stroke="black" points="236,-190.5 236,-209.5 313,-209.5 313,-190.5 236,-190.5"/>
<text text-anchor="middle" x="274.5" y="-197.5" font-family="Helvetica,sans-Serif" font-size="10.00">create_table</text>
</a>
</g>
</g>
<!-- Node32&#45;&gt;Node33 -->
<g id="edge48" class="edge">
<title>Node32&#45;&gt;Node33</title>
<path fill="none" stroke="midnightblue" d="M136.2,-133.6C151.33,-146.14 179.59,-168 207,-181 213.05,-183.87 219.62,-186.39 226.2,-188.58"/>
<polygon fill="midnightblue" stroke="midnightblue" points="225.19,-191.93 235.77,-191.55 227.26,-185.24 225.19,-191.93"/>
</g>
<!-- Node34 -->
<g id="node34" class="node">
<title>Node34</title>
<g id="a_node34"><a xlink:href="ADT_8c.html#a86337fb4e746828ec8da93815780b8e5" target="_top" xlink:title=" ">
<polygon fill="white" stroke="black" points="230,-152.5 230,-171.5 319,-171.5 319,-152.5 230,-152.5"/>
<text text-anchor="middle" x="274.5" y="-159.5" font-family="Helvetica,sans-Serif" font-size="10.00">delete_symbol</text>
</a>
</g>
</g>
<!-- Node32&#45;&gt;Node34 -->
<g id="edge49" class="edge">
<title>Node32&#45;&gt;Node34</title>
<path fill="none" stroke="midnightblue" d="M162.47,-133.59C181.89,-138.56 205.8,-144.68 226.45,-149.96"/>
<polygon fill="midnightblue" stroke="midnightblue" points="225.74,-153.39 236.3,-152.48 227.48,-146.61 225.74,-153.39"/>
</g>
<!-- Node36 -->
<g id="node36" class="node">
<title>Node36</title>
<g id="a_node36"><a xlink:href="ADT_8c.html#a586c12683a18644602e7029a8fb528c4" target="_top" xlink:title=" ">
<polygon fill="white" stroke="black" points="241.5,-114.5 241.5,-133.5 307.5,-133.5 307.5,-114.5 241.5,-114.5"/>
<text text-anchor="middle" x="274.5" y="-121.5" font-family="Helvetica,sans-Serif" font-size="10.00">free_table</text>
</a>
</g>
</g>
<!-- Node32&#45;&gt;Node36 -->
<g id="edge51" class="edge">
<title>Node32&#45;&gt;Node36</title>
<path fill="none" stroke="midnightblue" d="M171.17,-124C190.42,-124 212.63,-124 231.43,-124"/>
<polygon fill="midnightblue" stroke="midnightblue" points="231.48,-127.5 241.48,-124 231.48,-120.5 231.48,-127.5"/>
</g>
<!-- Node37 -->
<g id="node37" class="node">
<title>Node37</title>
<g id="a_node37"><a xlink:href="ADT_8c.html#a498be84c0146adc44a4d75f3ddadfce8" target="_top" xlink:title=" ">
<polygon fill="white" stroke="black" points="231.5,-76.5 231.5,-95.5 317.5,-95.5 317.5,-76.5 231.5,-76.5"/>
<text text-anchor="middle" x="274.5" y="-83.5" font-family="Helvetica,sans-Serif" font-size="10.00">insert_symbol</text>
</a>
</g>
</g>
<!-- Node32&#45;&gt;Node37 -->
<g id="edge52" class="edge">
<title>Node32&#45;&gt;Node37</title>
<path fill="none" stroke="midnightblue" d="M162.47,-114.41C181.89,-109.44 205.8,-103.32 226.45,-98.04"/>
<polygon fill="midnightblue" stroke="midnightblue" points="227.48,-101.39 236.3,-95.52 225.74,-94.61 227.48,-101.39"/>
</g>
<!-- Node39 -->
<g id="node39" class="node">
<title>Node39</title>
<g id="a_node39"><a xlink:href="main_8c.html#a1127b7ccef7affaa427479522fd4024a" target="_top" xlink:title=" ">
<polygon fill="white" stroke="black" points="240,-38.5 240,-57.5 309,-57.5 309,-38.5 240,-38.5"/>
<text text-anchor="middle" x="274.5" y="-45.5" font-family="Helvetica,sans-Serif" font-size="10.00">print_table</text>
</a>
</g>
</g>
<!-- Node32&#45;&gt;Node39 -->
<g id="edge54" class="edge">
<title>Node32&#45;&gt;Node39</title>
<path fill="none" stroke="midnightblue" d="M136.2,-114.4C151.33,-101.86 179.59,-80 207,-67 214.25,-63.56 222.24,-60.63 230.09,-58.16"/>
<polygon fill="midnightblue" stroke="midnightblue" points="231.29,-61.46 239.91,-55.29 229.33,-54.74 231.29,-61.46"/>
</g>
<!-- Node40 -->
<g id="node40" class="node">
<title>Node40</title>
<g id="a_node40"><a xlink:href="ADT_8c.html#a87d79a5adc075526a4778d53c2948412" target="_top" xlink:title=" ">
<polygon fill="white" stroke="black" points="229.5,-0.5 229.5,-19.5 319.5,-19.5 319.5,-0.5 229.5,-0.5"/>
<text text-anchor="middle" x="274.5" y="-7.5" font-family="Helvetica,sans-Serif" font-size="10.00">search_symbol</text>
</a>
</g>
</g>
<!-- Node32&#45;&gt;Node40 -->
<g id="edge55" class="edge">
<title>Node32&#45;&gt;Node40</title>
<path fill="none" stroke="midnightblue" d="M130.65,-114.28C142.36,-95.02 171.2,-51.87 207,-29 211.03,-26.43 215.41,-24.2 219.93,-22.26"/>
<polygon fill="midnightblue" stroke="midnightblue" points="221.25,-25.51 229.37,-18.69 218.77,-18.96 221.25,-25.51"/>
</g>
<!-- Node35 -->
<g id="node35" class="node">
<title>Node35</title>
<g id="a_node35"><a xlink:href="ADT_8c.html#ae7778847ae19a4693087f819ef97ada7" target="_top" xlink:title=" ">
<polygon fill="white" stroke="black" points="414,-152.5 414,-171.5 483,-171.5 483,-152.5 414,-152.5"/>
<text text-anchor="middle" x="448.5" y="-159.5" font-family="Helvetica,sans-Serif" font-size="10.00">free_string</text>
</a>
</g>
</g>
<!-- Node34&#45;&gt;Node35 -->
<g id="edge50" class="edge">
<title>Node34&#45;&gt;Node35</title>
<path fill="none" stroke="midnightblue" d="M319.35,-162C345.15,-162 377.69,-162 403.52,-162"/>
<polygon fill="midnightblue" stroke="midnightblue" points="403.78,-165.5 413.78,-162 403.78,-158.5 403.78,-165.5"/>
</g>
<!-- Node38 -->
<g id="node38" class="node">
<title>Node38</title>
<g id="a_node38"><a xlink:href="ADT_8c.html#a69781ac22aa41ceaca20060ad642a403" target="_top" xlink:title=" ">
<polygon fill="white" stroke="black" points="412,-76.5 412,-95.5 485,-95.5 485,-76.5 412,-76.5"/>
<text text-anchor="middle" x="448.5" y="-83.5" font-family="Helvetica,sans-Serif" font-size="10.00">copy_string</text>
</a>
</g>
</g>
<!-- Node37&#45;&gt;Node38 -->
<g id="edge53" class="edge">
<title>Node37&#45;&gt;Node38</title>
<path fill="none" stroke="midnightblue" d="M317.58,-86C343.13,-86 375.75,-86 401.91,-86"/>
<polygon fill="midnightblue" stroke="midnightblue" points="401.95,-89.5 411.95,-86 401.95,-82.5 401.95,-89.5"/>
</g>
</g>
</svg>
