<?xml version="1.0" encoding="UTF-8" standalone="no"?>
<!DOCTYPE svg PUBLIC "-//W3C//DTD SVG 1.1//EN"
 "http://www.w3.org/Graphics/SVG/1.1/DTD/svg11.dtd">
<!-- Generated by graphviz version 2.43.0 (0)
 -->
<!-- Title: dynamic_string_free Pages: 1 -->
<svg width="302pt" height="47pt"
 viewBox="0.00 0.00 302.00 47.00" xmlns="http://www.w3.org/2000/svg" xmlns:xlink="http://www.w3.org/1999/xlink">
<g id="graph0" class="graph" transform="scale(1 1) rotate(0) translate(4 43)">
<title>dynamic_string_free</title>
<polygon fill="white" stroke="transparent" points="-4,4 -4,-43 298,-43 298,4 -4,4"/>
<!-- Node1 -->
<g id="node1" class="node">
<title>Node1</title>
<g id="a_node1"><a xlink:title=" ">
<polygon fill="#bfbfbf" stroke="black" points="178,-0.5 178,-19.5 294,-19.5 294,-0.5 178,-0.5"/>
<text text-anchor="middle" x="236" y="-7.5" font-family="Helvetica,sans-Serif" font-size="10.00">dynamic_string_free</text>
</a>
</g>
</g>
<!-- Node2 -->
<g id="node2" class="node">
<title>Node2</title>
<g id="a_node2"><a xlink:href="lexical__analyser_8c.html#a1b68532a422d65e0eab79e3011af906e" target="_top" xlink:title="Retrieves the next token from the input file.">
<polygon fill="white" stroke="black" points="77,-19.5 77,-38.5 142,-38.5 142,-19.5 77,-19.5"/>
<text text-anchor="middle" x="109.5" y="-26.5" font-family="Helvetica,sans-Serif" font-size="10.00">get_token</text>
</a>
</g>
</g>
<!-- Node1&#45;&gt;Node2 -->
<g id="edge1" class="edge">
<title>Node1&#45;&gt;Node2</title>
<path fill="none" stroke="midnightblue" d="M167.76,-20.26C158.84,-21.62 150.06,-22.96 142.16,-24.17"/>
<polygon fill="midnightblue" stroke="midnightblue" points="168.49,-23.69 177.85,-18.72 167.44,-16.77 168.49,-23.69"/>
</g>
<!-- Node3 -->
<g id="node3" class="node">
<title>Node3</title>
<g id="a_node3"><a xlink:href="main_8c.html#a3c04138a5bfe5d72780bb7e82a18e627" target="_top" xlink:title=" ">
<polygon fill="white" stroke="black" points="0,-0.5 0,-19.5 41,-19.5 41,-0.5 0,-0.5"/>
<text text-anchor="middle" x="20.5" y="-7.5" font-family="Helvetica,sans-Serif" font-size="10.00">main</text>
</a>
</g>
</g>
<!-- Node1&#45;&gt;Node3 -->
<g id="edge3" class="edge">
<title>Node1&#45;&gt;Node3</title>
<path fill="none" stroke="midnightblue" d="M167.74,-10C123.85,-10 69.59,-10 41.1,-10"/>
<polygon fill="midnightblue" stroke="midnightblue" points="167.79,-13.5 177.79,-10 167.79,-6.5 167.79,-13.5"/>
</g>
<!-- Node2&#45;&gt;Node3 -->
<g id="edge2" class="edge">
<title>Node2&#45;&gt;Node3</title>
<path fill="none" stroke="midnightblue" d="M66.61,-19.85C57.66,-17.9 48.62,-15.92 41,-14.26"/>
<polygon fill="midnightblue" stroke="midnightblue" points="66.08,-23.32 76.6,-22.03 67.58,-16.48 66.08,-23.32"/>
</g>
</g>
</svg>
