<?xml version="1.0" encoding="UTF-8" standalone="no"?>
<!DOCTYPE svg PUBLIC "-//W3C//DTD SVG 1.1//EN"
 "http://www.w3.org/Graphics/SVG/1.1/DTD/svg11.dtd">
<!-- Generated by graphviz version 2.43.0 (0)
 -->
<!-- Title: dynamic_string_add_char Pages: 1 -->
<svg width="498pt" height="56pt"
 viewBox="0.00 0.00 498.00 55.50" xmlns="http://www.w3.org/2000/svg" xmlns:xlink="http://www.w3.org/1999/xlink">
<g id="graph0" class="graph" transform="scale(1 1) rotate(0) translate(4 51.5)">
<title>dynamic_string_add_char</title>
<polygon fill="white" stroke="transparent" points="-4,4 -4,-51.5 494,-51.5 494,4 -4,4"/>
<!-- Node1 -->
<g id="node1" class="node">
<title>Node1</title>
<g id="a_node1"><a xlink:title=" ">
<polygon fill="#bfbfbf" stroke="black" points="349,-0.5 349,-19.5 490,-19.5 490,-0.5 349,-0.5"/>
<text text-anchor="middle" x="419.5" y="-7.5" font-family="Helvetica,sans-Serif" font-size="10.00">dynamic_string_add_char</text>
</a>
</g>
</g>
<!-- Node2 -->
<g id="node2" class="node">
<title>Node2</title>
<g id="a_node2"><a xlink:href="newstring_8c.html#a723751a5d99efdf10145303c11895ce9" target="_top" xlink:title=" ">
<polygon fill="white" stroke="black" points="178,-17 178,-47 313,-47 313,-17 178,-17"/>
<text text-anchor="start" x="186" y="-35" font-family="Helvetica,sans-Serif" font-size="10.00">add_double_to_dynamic</text>
<text text-anchor="middle" x="245.5" y="-24" font-family="Helvetica,sans-Serif" font-size="10.00">_string</text>
</a>
</g>
</g>
<!-- Node1&#45;&gt;Node2 -->
<g id="edge1" class="edge">
<title>Node1&#45;&gt;Node2</title>
<path fill="none" stroke="midnightblue" d="M338.58,-20.22C330.04,-21.31 321.42,-22.42 313.06,-23.49"/>
<polygon fill="midnightblue" stroke="midnightblue" points="339.07,-23.69 348.54,-18.95 338.18,-16.75 339.07,-23.69"/>
</g>
<!-- Node3 -->
<g id="node3" class="node">
<title>Node3</title>
<g id="a_node3"><a xlink:href="lexical__analyser_8c.html#a1b68532a422d65e0eab79e3011af906e" target="_top" xlink:title="Retrieves the next token from the input file.">
<polygon fill="white" stroke="black" points="77,-0.5 77,-19.5 142,-19.5 142,-0.5 77,-0.5"/>
<text text-anchor="middle" x="109.5" y="-7.5" font-family="Helvetica,sans-Serif" font-size="10.00">get_token</text>
</a>
</g>
</g>
<!-- Node1&#45;&gt;Node3 -->
<g id="edge4" class="edge">
<title>Node1&#45;&gt;Node3</title>
<path fill="none" stroke="midnightblue" d="M338.8,-8.33C330.09,-8.19 321.36,-8.08 313,-8 253,-7.43 237.99,-7.11 178,-8 166.28,-8.17 153.41,-8.52 142.09,-8.87"/>
<polygon fill="midnightblue" stroke="midnightblue" points="338.93,-11.83 348.98,-8.5 339.04,-4.83 338.93,-11.83"/>
</g>
<!-- Node2&#45;&gt;Node3 -->
<g id="edge2" class="edge">
<title>Node2&#45;&gt;Node3</title>
<path fill="none" stroke="midnightblue" d="M167.98,-19.44C158.89,-17.95 150.05,-16.49 142.13,-15.19"/>
<polygon fill="midnightblue" stroke="midnightblue" points="167.46,-22.9 177.89,-21.06 168.59,-15.99 167.46,-22.9"/>
</g>
<!-- Node4 -->
<g id="node4" class="node">
<title>Node4</title>
<g id="a_node4"><a xlink:href="main_8c.html#a3c04138a5bfe5d72780bb7e82a18e627" target="_top" xlink:title=" ">
<polygon fill="white" stroke="black" points="0,-0.5 0,-19.5 41,-19.5 41,-0.5 0,-0.5"/>
<text text-anchor="middle" x="20.5" y="-7.5" font-family="Helvetica,sans-Serif" font-size="10.00">main</text>
</a>
</g>
</g>
<!-- Node3&#45;&gt;Node4 -->
<g id="edge3" class="edge">
<title>Node3&#45;&gt;Node4</title>
<path fill="none" stroke="midnightblue" d="M66.32,-10C57.47,-10 48.54,-10 41,-10"/>
<polygon fill="midnightblue" stroke="midnightblue" points="66.6,-13.5 76.6,-10 66.6,-6.5 66.6,-13.5"/>
</g>
</g>
</svg>
