<?xml version="1.0" encoding="UTF-8" standalone="no"?>
<!DOCTYPE svg PUBLIC "-//W3C//DTD SVG 1.1//EN"
 "http://www.w3.org/Graphics/SVG/1.1/DTD/svg11.dtd">
<!-- Generated by graphviz version 2.43.0 (0)
 -->
<!-- Title: dynamic_string_init Pages: 1 -->
<svg width="299pt" height="28pt"
 viewBox="0.00 0.00 299.00 28.00" xmlns="http://www.w3.org/2000/svg" xmlns:xlink="http://www.w3.org/1999/xlink">
<g id="graph0" class="graph" transform="scale(1 1) rotate(0) translate(4 24)">
<title>dynamic_string_init</title>
<polygon fill="white" stroke="transparent" points="-4,4 -4,-24 295,-24 295,4 -4,4"/>
<!-- Node1 -->
<g id="node1" class="node">
<title>Node1</title>
<g id="a_node1"><a xlink:title=" ">
<polygon fill="#bfbfbf" stroke="black" points="178,-0.5 178,-19.5 291,-19.5 291,-0.5 178,-0.5"/>
<text text-anchor="middle" x="234.5" y="-7.5" font-family="Helvetica,sans-Serif" font-size="10.00">dynamic_string_init</text>
</a>
</g>
</g>
<!-- Node2 -->
<g id="node2" class="node">
<title>Node2</title>
<g id="a_node2"><a xlink:href="lexical__analyser_8c.html#a1b68532a422d65e0eab79e3011af906e" target="_top" xlink:title="Retrieves the next token from the input file.">
<polygon fill="white" stroke="black" points="77,-0.5 77,-19.5 142,-19.5 142,-0.5 77,-0.5"/>
<text text-anchor="middle" x="109.5" y="-7.5" font-family="Helvetica,sans-Serif" font-size="10.00">get_token</text>
</a>
</g>
</g>
<!-- Node1&#45;&gt;Node2 -->
<g id="edge1" class="edge">
<title>Node1&#45;&gt;Node2</title>
<path fill="none" stroke="midnightblue" d="M167.72,-10C158.84,-10 150.07,-10 142.18,-10"/>
<polygon fill="midnightblue" stroke="midnightblue" points="167.76,-13.5 177.76,-10 167.76,-6.5 167.76,-13.5"/>
</g>
<!-- Node3 -->
<g id="node3" class="node">
<title>Node3</title>
<g id="a_node3"><a xlink:href="main_8c.html#a3c04138a5bfe5d72780bb7e82a18e627" target="_top" xlink:title=" ">
<polygon fill="white" stroke="black" points="0,-0.5 0,-19.5 41,-19.5 41,-0.5 0,-0.5"/>
<text text-anchor="middle" x="20.5" y="-7.5" font-family="Helvetica,sans-Serif" font-size="10.00">main</text>
</a>
</g>
</g>
<!-- Node2&#45;&gt;Node3 -->
<g id="edge2" class="edge">
<title>Node2&#45;&gt;Node3</title>
<path fill="none" stroke="midnightblue" d="M66.32,-10C57.47,-10 48.54,-10 41,-10"/>
<polygon fill="midnightblue" stroke="midnightblue" points="66.6,-13.5 76.6,-10 66.6,-6.5 66.6,-13.5"/>
</g>
</g>
</svg>
