<?xml version="1.0" encoding="UTF-8" standalone="no"?>
<!DOCTYPE svg PUBLIC "-//W3C//DTD SVG 1.1//EN"
 "http://www.w3.org/Graphics/SVG/1.1/DTD/svg11.dtd">
<!-- Generated by graphviz version 2.43.0 (0)
 -->
<!-- Title: Token Pages: 1 -->
<svg width="114pt" height="162pt"
 viewBox="0.00 0.00 113.50 162.00" xmlns="http://www.w3.org/2000/svg" xmlns:xlink="http://www.w3.org/1999/xlink">
<g id="graph0" class="graph" transform="scale(1 1) rotate(0) translate(4 158)">
<title>Token</title>
<polygon fill="white" stroke="transparent" points="-4,4 -4,-158 109.5,-158 109.5,4 -4,4"/>
<!-- Node1 -->
<g id="node1" class="node">
<title>Node1</title>
<g id="a_node1"><a xlink:title="Structure representing a token.">
<polygon fill="#bfbfbf" stroke="black" points="24.5,-0.5 24.5,-19.5 68.5,-19.5 68.5,-0.5 24.5,-0.5"/>
<text text-anchor="middle" x="46.5" y="-7.5" font-family="Helvetica,sans-Serif" font-size="10.00">Token</text>
</a>
</g>
</g>
<!-- Node2 -->
<g id="node2" class="node">
<title>Node2</title>
<g id="a_node2"><a xlink:href="unionToken__Value.html" target="_top" xlink:title="Union for storing token values.">
<polygon fill="white" stroke="black" points="8,-67.5 8,-86.5 85,-86.5 85,-67.5 8,-67.5"/>
<text text-anchor="middle" x="46.5" y="-74.5" font-family="Helvetica,sans-Serif" font-size="10.00">Token_Value</text>
</a>
</g>
</g>
<!-- Node2&#45;&gt;Node1 -->
<g id="edge1" class="edge">
<title>Node2&#45;&gt;Node1</title>
<path fill="none" stroke="#9a32cd" stroke-dasharray="5,2" d="M46.5,-57.04C46.5,-44.67 46.5,-29.12 46.5,-19.63"/>
<polygon fill="#9a32cd" stroke="#9a32cd" points="43,-57.23 46.5,-67.23 50,-57.23 43,-57.23"/>
<text text-anchor="middle" x="62" y="-41" font-family="Helvetica,sans-Serif" font-size="10.00"> value</text>
</g>
<!-- Node3 -->
<g id="node3" class="node">
<title>Node3</title>
<g id="a_node3"><a xlink:href="structDynamic__string.html" target="_top" xlink:title=" ">
<polygon fill="white" stroke="black" points="0,-134.5 0,-153.5 93,-153.5 93,-134.5 0,-134.5"/>
<text text-anchor="middle" x="46.5" y="-141.5" font-family="Helvetica,sans-Serif" font-size="10.00">Dynamic_string</text>
</a>
</g>
</g>
<!-- Node3&#45;&gt;Node2 -->
<g id="edge2" class="edge">
<title>Node3&#45;&gt;Node2</title>
<path fill="none" stroke="#9a32cd" stroke-dasharray="5,2" d="M46.5,-124.04C46.5,-111.67 46.5,-96.12 46.5,-86.63"/>
<polygon fill="#9a32cd" stroke="#9a32cd" points="43,-124.23 46.5,-134.23 50,-124.23 43,-124.23"/>
<text text-anchor="middle" x="76" y="-108" font-family="Helvetica,sans-Serif" font-size="10.00"> valueString</text>
</g>
</g>
</svg>
