<?xml version="1.0" encoding="UTF-8" standalone="no"?>
<!DOCTYPE svg PUBLIC "-//W3C//DTD SVG 1.1//EN"
 "http://www.w3.org/Graphics/SVG/1.1/DTD/svg11.dtd">
<!-- Generated by graphviz version 2.43.0 (0)
 -->
<!-- Title: IF_EXT Pages: 1 -->
<svg width="706pt" height="294pt"
 viewBox="0.00 0.00 706.00 294.00" xmlns="http://www.w3.org/2000/svg" xmlns:xlink="http://www.w3.org/1999/xlink">
<g id="graph0" class="graph" transform="scale(1 1) rotate(0) translate(4 290)">
<title>IF_EXT</title>
<polygon fill="white" stroke="transparent" points="-4,4 -4,-290 702,-290 702,4 -4,4"/>
<!-- Node1 -->
<g id="node1" class="node">
<title>Node1</title>
<g id="a_node1"><a xlink:title="Extended function for CALL_DEF()">
<polygon fill="#bfbfbf" stroke="black" points="0,-85.5 0,-104.5 50,-104.5 50,-85.5 0,-85.5"/>
<text text-anchor="middle" x="25" y="-92.5" font-family="Helvetica,sans-Serif" font-size="10.00">IF_EXT</text>
</a>
</g>
</g>
<!-- Node2 -->
<g id="node2" class="node">
<title>Node2</title>
<g id="a_node2"><a xlink:href="syntactic__analysis_8c.html#a7d21e9db61747d6734d9a7f27d33b4f4" target="_top" xlink:title="Function for determining the depth of infestation.">
<polygon fill="white" stroke="black" points="86,-151.5 86,-170.5 135,-170.5 135,-151.5 86,-151.5"/>
<text text-anchor="middle" x="110.5" y="-158.5" font-family="Helvetica,sans-Serif" font-size="10.00">SCOPE</text>
</a>
</g>
</g>
<!-- Node1&#45;&gt;Node2 -->
<g id="edge1" class="edge">
<title>Node1&#45;&gt;Node2</title>
<path fill="none" stroke="midnightblue" d="M38.32,-104.74C51.72,-115.33 73.34,-132.42 89.24,-144.99"/>
<polygon fill="midnightblue" stroke="midnightblue" points="87.38,-147.98 97.4,-151.44 91.73,-142.49 87.38,-147.98"/>
</g>
<!-- Node3 -->
<g id="node3" class="node">
<title>Node3</title>
<g id="a_node3"><a xlink:href="syntactic__analysis_8c.html#a7eac9e4351cf87fecd3e9a66cf5f28d8" target="_top" xlink:title="Processes the commands, coditions, ...">
<polygon fill="white" stroke="black" points="171,-123.5 171,-142.5 245,-142.5 245,-123.5 171,-123.5"/>
<text text-anchor="middle" x="208" y="-130.5" font-family="Helvetica,sans-Serif" font-size="10.00">STATEMENT</text>
</a>
</g>
</g>
<!-- Node2&#45;&gt;Node3 -->
<g id="edge2" class="edge">
<title>Node2&#45;&gt;Node3</title>
<path fill="none" stroke="midnightblue" d="M135.11,-154.08C143.97,-151.48 154.34,-148.44 164.41,-145.49"/>
<polygon fill="midnightblue" stroke="midnightblue" points="165.69,-148.76 174.3,-142.59 163.72,-142.04 165.69,-148.76"/>
</g>
<!-- Node4 -->
<g id="node4" class="node">
<title>Node4</title>
<g id="a_node4"><a xlink:href="syntactic__analysis_8c.html#a2999c303cc3fb4692b7e96d9a22e9c03" target="_top" xlink:title="Processes calling functions, variables.">
<polygon fill="white" stroke="black" points="286,-152.5 286,-171.5 351,-171.5 351,-152.5 286,-152.5"/>
<text text-anchor="middle" x="318.5" y="-159.5" font-family="Helvetica,sans-Serif" font-size="10.00">CALL_DEF</text>
</a>
</g>
</g>
<!-- Node3&#45;&gt;Node4 -->
<g id="edge3" class="edge">
<title>Node3&#45;&gt;Node4</title>
<path fill="none" stroke="midnightblue" d="M244.83,-142.58C254.73,-145.22 265.57,-148.12 275.78,-150.85"/>
<polygon fill="midnightblue" stroke="midnightblue" points="275.16,-154.31 285.73,-153.51 276.97,-147.54 275.16,-154.31"/>
</g>
<!-- Node9 -->
<g id="node9" class="node">
<title>Node9</title>
<g id="a_node9"><a xlink:href="syntactic__analysis_8c.html#ab1c09d376532dc76198f8d2d6c729fef" target="_top" xlink:title="Processes command for constant declaration.">
<polygon fill="white" stroke="black" points="281,-38.5 281,-57.5 356,-57.5 356,-38.5 281,-38.5"/>
<text text-anchor="middle" x="318.5" y="-45.5" font-family="Helvetica,sans-Serif" font-size="10.00">CONST_DEF</text>
</a>
</g>
</g>
<!-- Node3&#45;&gt;Node9 -->
<g id="edge10" class="edge">
<title>Node3&#45;&gt;Node9</title>
<path fill="none" stroke="midnightblue" d="M219.4,-123.49C233.11,-111.12 258.17,-89.08 281,-72 284.97,-69.03 289.28,-66.02 293.52,-63.17"/>
<polygon fill="midnightblue" stroke="midnightblue" points="295.51,-66.05 301.94,-57.64 291.66,-60.2 295.51,-66.05"/>
</g>
<!-- Node11 -->
<g id="node11" class="node">
<title>Node11</title>
<g id="a_node11"><a xlink:href="syntactic__analysis_8c.html#a047deda12297b3a39f2d50261fd7de70" target="_top" xlink:title="Processes else condition.">
<polygon fill="white" stroke="black" points="286,-190.5 286,-209.5 351,-209.5 351,-190.5 286,-190.5"/>
<text text-anchor="middle" x="318.5" y="-197.5" font-family="Helvetica,sans-Serif" font-size="10.00">ELSE_DEF</text>
</a>
</g>
</g>
<!-- Node3&#45;&gt;Node11 -->
<g id="edge13" class="edge">
<title>Node3&#45;&gt;Node11</title>
<path fill="none" stroke="midnightblue" d="M222.52,-142.65C236.78,-152.68 260.05,-168.61 281,-181 283.54,-182.5 286.2,-184.01 288.89,-185.49"/>
<polygon fill="midnightblue" stroke="midnightblue" points="287.49,-188.71 297.97,-190.33 290.79,-182.53 287.49,-188.71"/>
</g>
<!-- Node12 -->
<g id="node12" class="node">
<title>Node12</title>
<g id="a_node12"><a xlink:href="syntactic__analysis_8c.html#ac9b33c13aa831335429748838739aef7" target="_top" xlink:title="Processes if condition.">
<polygon fill="white" stroke="black" points="293.5,-0.5 293.5,-19.5 343.5,-19.5 343.5,-0.5 293.5,-0.5"/>
<text text-anchor="middle" x="318.5" y="-7.5" font-family="Helvetica,sans-Serif" font-size="10.00">IF_DEF</text>
</a>
</g>
</g>
<!-- Node3&#45;&gt;Node12 -->
<g id="edge15" class="edge">
<title>Node3&#45;&gt;Node12</title>
<path fill="none" stroke="midnightblue" d="M214.83,-123.37C228.8,-100.5 264.28,-43.74 281,-29 282.53,-27.65 284.17,-26.37 285.87,-25.16"/>
<polygon fill="midnightblue" stroke="midnightblue" points="288.12,-27.88 294.78,-19.65 284.44,-21.93 288.12,-27.88"/>
</g>
<!-- Node13 -->
<g id="node13" class="node">
<title>Node13</title>
<g id="a_node13"><a xlink:href="syntactic__analysis_8c.html#a1012bbb9f570627aabec5e3eda7c4993" target="_top" xlink:title="Processes return command.">
<polygon fill="white" stroke="black" points="522,-76.5 522,-95.5 582,-95.5 582,-76.5 522,-76.5"/>
<text text-anchor="middle" x="552" y="-83.5" font-family="Helvetica,sans-Serif" font-size="10.00">RET_DEF</text>
</a>
</g>
</g>
<!-- Node3&#45;&gt;Node13 -->
<g id="edge18" class="edge">
<title>Node3&#45;&gt;Node13</title>
<path fill="none" stroke="midnightblue" d="M228.67,-123.49C242.86,-117.1 262.68,-109.11 281,-105 361.43,-86.97 458.41,-84.73 511.49,-85.1"/>
<polygon fill="midnightblue" stroke="midnightblue" points="511.78,-88.6 521.82,-85.21 511.86,-81.61 511.78,-88.6"/>
</g>
<!-- Node14 -->
<g id="node14" class="node">
<title>Node14</title>
<g id="a_node14"><a xlink:href="syntactic__analysis_8c.html#a49c6186e8aee36246b52305756b7a017" target="_top" xlink:title="Processes command for variable declaration.">
<polygon fill="white" stroke="black" points="288,-114.5 288,-133.5 349,-133.5 349,-114.5 288,-114.5"/>
<text text-anchor="middle" x="318.5" y="-121.5" font-family="Helvetica,sans-Serif" font-size="10.00">VAR_DEF</text>
</a>
</g>
</g>
<!-- Node3&#45;&gt;Node14 -->
<g id="edge20" class="edge">
<title>Node3&#45;&gt;Node14</title>
<path fill="none" stroke="midnightblue" d="M245.13,-130C255.49,-129.14 266.84,-128.2 277.42,-127.32"/>
<polygon fill="midnightblue" stroke="midnightblue" points="278,-130.79 287.67,-126.47 277.42,-123.81 278,-130.79"/>
</g>
<!-- Node17 -->
<g id="node17" class="node">
<title>Node17</title>
<g id="a_node17"><a xlink:href="syntactic__analysis_8c.html#a13efec100d0c39c874c413765ded4d10" target="_top" xlink:title="Processes while loop.">
<polygon fill="white" stroke="black" points="282,-228.5 282,-247.5 355,-247.5 355,-228.5 282,-228.5"/>
<text text-anchor="middle" x="318.5" y="-235.5" font-family="Helvetica,sans-Serif" font-size="10.00">WHILE_DEF</text>
</a>
</g>
</g>
<!-- Node3&#45;&gt;Node17 -->
<g id="edge24" class="edge">
<title>Node3&#45;&gt;Node17</title>
<path fill="none" stroke="midnightblue" d="M215.14,-142.58C226.47,-159.68 252.16,-195.83 281,-219 282.81,-220.45 284.75,-221.85 286.75,-223.17"/>
<polygon fill="midnightblue" stroke="midnightblue" points="285.39,-226.42 295.78,-228.48 288.94,-220.39 285.39,-226.42"/>
</g>
<!-- Node5 -->
<g id="node5" class="node">
<title>Node5</title>
<g id="a_node5"><a xlink:href="syntactic__analysis_8c.html#ade39708cf9c0a95b1e75a94b3982f1aa" target="_top" xlink:title="Extended function for CALL_DEF()">
<polygon fill="white" stroke="black" points="405.5,-190.5 405.5,-209.5 470.5,-209.5 470.5,-190.5 405.5,-190.5"/>
<text text-anchor="middle" x="438" y="-197.5" font-family="Helvetica,sans-Serif" font-size="10.00">CALL_EXT</text>
</a>
</g>
</g>
<!-- Node4&#45;&gt;Node5 -->
<g id="edge4" class="edge">
<title>Node4&#45;&gt;Node5</title>
<path fill="none" stroke="midnightblue" d="M349.15,-171.59C363.9,-176.36 381.93,-182.19 397.8,-187.32"/>
<polygon fill="midnightblue" stroke="midnightblue" points="396.77,-190.67 407.36,-190.41 398.92,-184.01 396.77,-190.67"/>
</g>
<!-- Node6 -->
<g id="node6" class="node">
<title>Node6</title>
<g id="a_node6"><a xlink:href="syntactic__analysis_8c.html#a83f44b9d12d581ea924af4ba707819c3" target="_top" xlink:title="Function for processing argument of called function.">
<polygon fill="white" stroke="black" points="533,-266.5 533,-285.5 571,-285.5 571,-266.5 533,-266.5"/>
<text text-anchor="middle" x="552" y="-273.5" font-family="Helvetica,sans-Serif" font-size="10.00">ARG</text>
</a>
</g>
</g>
<!-- Node5&#45;&gt;Node6 -->
<g id="edge5" class="edge">
<title>Node5&#45;&gt;Node6</title>
<path fill="none" stroke="midnightblue" d="M453.18,-209.63C472.2,-222.53 506.17,-245.58 528.65,-260.83"/>
<polygon fill="midnightblue" stroke="midnightblue" points="526.69,-263.73 536.93,-266.45 530.62,-257.94 526.69,-263.73"/>
</g>
<!-- Node8 -->
<g id="node8" class="node">
<title>Node8</title>
<g id="a_node8"><a xlink:href="syntactic__analysis_8c.html#a38b7a13b9a5926c2c4b6af62cec86f85" target="_top" xlink:title="Function for processing another argument which is in queue.">
<polygon fill="white" stroke="black" points="620,-152.5 620,-171.5 698,-171.5 698,-152.5 620,-152.5"/>
<text text-anchor="middle" x="659" y="-159.5" font-family="Helvetica,sans-Serif" font-size="10.00">EXPRESSION</text>
</a>
</g>
</g>
<!-- Node5&#45;&gt;Node8 -->
<g id="edge9" class="edge">
<title>Node5&#45;&gt;Node8</title>
<path fill="none" stroke="midnightblue" d="M470.72,-194.97C500.12,-190.25 545.06,-182.91 584,-176 592.33,-174.52 601.17,-172.9 609.74,-171.3"/>
<polygon fill="midnightblue" stroke="midnightblue" points="610.44,-174.72 619.62,-169.43 609.15,-167.85 610.44,-174.72"/>
</g>
<!-- Node7 -->
<g id="node7" class="node">
<title>Node7</title>
<g id="a_node7"><a xlink:href="syntactic__analysis_8c.html#a271ef1f0dc6a029b233bcb024b19b116" target="_top" xlink:title="Function for processing another argument which is in queue.">
<polygon fill="white" stroke="black" points="637,-266.5 637,-285.5 681,-285.5 681,-266.5 637,-266.5"/>
<text text-anchor="middle" x="659" y="-273.5" font-family="Helvetica,sans-Serif" font-size="10.00">ARGS</text>
</a>
</g>
</g>
<!-- Node6&#45;&gt;Node7 -->
<g id="edge6" class="edge">
<title>Node6&#45;&gt;Node7</title>
<path fill="none" stroke="midnightblue" d="M571.29,-270.73C586.52,-269.17 608.54,-268.84 626.58,-269.76"/>
<polygon fill="midnightblue" stroke="midnightblue" points="626.45,-273.26 636.66,-270.44 626.92,-266.27 626.45,-273.26"/>
</g>
<!-- Node6&#45;&gt;Node8 -->
<g id="edge8" class="edge">
<title>Node6&#45;&gt;Node8</title>
<path fill="none" stroke="midnightblue" d="M566.82,-266.35C572.39,-262.19 578.73,-257.12 584,-252 607.7,-228.99 631.27,-198.72 645.24,-179.81"/>
<polygon fill="midnightblue" stroke="midnightblue" points="648.21,-181.66 651.28,-171.52 642.56,-177.54 648.21,-181.66"/>
</g>
<!-- Node7&#45;&gt;Node6 -->
<g id="edge7" class="edge">
<title>Node7&#45;&gt;Node6</title>
<path fill="none" stroke="midnightblue" d="M636.66,-281.56C620.75,-282.95 598.85,-283.12 581.45,-282.08"/>
<polygon fill="midnightblue" stroke="midnightblue" points="581.54,-278.57 571.29,-281.27 580.98,-285.55 581.54,-278.57"/>
</g>
<!-- Node10 -->
<g id="node10" class="node">
<title>Node10</title>
<g id="a_node10"><a xlink:href="syntactic__analysis_8c.html#aa1d8bc4c3095f3ba13e1fcc83038d948" target="_top" xlink:title="Processes assigning expresions to the constant.">
<polygon fill="white" stroke="black" points="392,-38.5 392,-57.5 484,-57.5 484,-38.5 392,-38.5"/>
<text text-anchor="middle" x="438" y="-45.5" font-family="Helvetica,sans-Serif" font-size="10.00">ASSIGN_CONST</text>
</a>
</g>
</g>
<!-- Node9&#45;&gt;Node10 -->
<g id="edge11" class="edge">
<title>Node9&#45;&gt;Node10</title>
<path fill="none" stroke="midnightblue" d="M356.03,-48C364.17,-48 372.97,-48 381.67,-48"/>
<polygon fill="midnightblue" stroke="midnightblue" points="381.79,-51.5 391.79,-48 381.79,-44.5 381.79,-51.5"/>
</g>
<!-- Node10&#45;&gt;Node8 -->
<g id="edge12" class="edge">
<title>Node10&#45;&gt;Node8</title>
<path fill="none" stroke="midnightblue" d="M484.3,-45.3C514.4,-45.5 553.81,-49.73 584,-67 615,-84.74 637.58,-121.11 649.17,-143.34"/>
<polygon fill="midnightblue" stroke="midnightblue" points="646.12,-145.06 653.72,-152.45 652.38,-141.94 646.12,-145.06"/>
</g>
<!-- Node11&#45;&gt;Node2 -->
<g id="edge14" class="edge">
<title>Node11&#45;&gt;Node2</title>
<path fill="none" stroke="midnightblue" d="M285.75,-193.99C247.74,-186.79 184.37,-174.8 145.42,-167.42"/>
<polygon fill="midnightblue" stroke="midnightblue" points="145.61,-163.9 135.13,-165.47 144.31,-170.77 145.61,-163.9"/>
</g>
<!-- Node12&#45;&gt;Node1 -->
<g id="edge17" class="edge">
<title>Node12&#45;&gt;Node1</title>
<path fill="none" stroke="midnightblue" d="M293.42,-17.02C241.67,-32.11 119.71,-67.68 60.05,-85.07"/>
<polygon fill="midnightblue" stroke="midnightblue" points="58.97,-81.74 50.35,-87.9 60.93,-88.46 58.97,-81.74"/>
</g>
<!-- Node12&#45;&gt;Node8 -->
<g id="edge16" class="edge">
<title>Node12&#45;&gt;Node8</title>
<path fill="none" stroke="midnightblue" d="M343.77,-6.54C393.37,-0.77 508.09,5.71 584,-44 620.25,-67.74 642.01,-116.07 651.81,-142.93"/>
<polygon fill="midnightblue" stroke="midnightblue" points="648.5,-144.07 655.08,-152.38 655.11,-141.78 648.5,-144.07"/>
</g>
<!-- Node13&#45;&gt;Node8 -->
<g id="edge19" class="edge">
<title>Node13&#45;&gt;Node8</title>
<path fill="none" stroke="midnightblue" d="M569.3,-95.54C574.1,-98.47 579.32,-101.78 584,-105 602.98,-118.07 623.69,-134.2 638.36,-145.95"/>
<polygon fill="midnightblue" stroke="midnightblue" points="636.26,-148.76 646.24,-152.32 640.66,-143.31 636.26,-148.76"/>
</g>
<!-- Node15 -->
<g id="node15" class="node">
<title>Node15</title>
<g id="a_node15"><a xlink:href="syntactic__analysis_8c.html#a76e0ba812902123b4ec0d43c59c13c04" target="_top" xlink:title="Processes assigning expresions to the variable.">
<polygon fill="white" stroke="black" points="399,-114.5 399,-133.5 477,-133.5 477,-114.5 399,-114.5"/>
<text text-anchor="middle" x="438" y="-121.5" font-family="Helvetica,sans-Serif" font-size="10.00">ASSIGN_VAR</text>
</a>
</g>
</g>
<!-- Node14&#45;&gt;Node15 -->
<g id="edge21" class="edge">
<title>Node14&#45;&gt;Node15</title>
<path fill="none" stroke="midnightblue" d="M349.15,-124C361.18,-124 375.38,-124 388.82,-124"/>
<polygon fill="midnightblue" stroke="midnightblue" points="388.9,-127.5 398.9,-124 388.9,-120.5 388.9,-127.5"/>
</g>
<!-- Node15&#45;&gt;Node8 -->
<g id="edge22" class="edge">
<title>Node15&#45;&gt;Node8</title>
<path fill="none" stroke="midnightblue" d="M476.35,-133.53C490.02,-136.82 505.66,-140.34 520,-143 549.6,-148.5 583.04,-153.14 609.59,-156.46"/>
<polygon fill="midnightblue" stroke="midnightblue" points="609.42,-159.97 619.77,-157.71 610.27,-153.02 609.42,-159.97"/>
</g>
<!-- Node16 -->
<g id="node16" class="node">
<title>Node16</title>
<g id="a_node16"><a xlink:href="syntactic__analysis_8c.html#aaef2bee27144c07c175bb36e4c28af9d" target="_top" xlink:title="Function for verifaction enabled data types (DATA TYPES)">
<polygon fill="white" stroke="black" points="520,-114.5 520,-133.5 584,-133.5 584,-114.5 520,-114.5"/>
<text text-anchor="middle" x="552" y="-121.5" font-family="Helvetica,sans-Serif" font-size="10.00">VAL_TYPE</text>
</a>
</g>
</g>
<!-- Node15&#45;&gt;Node16 -->
<g id="edge23" class="edge">
<title>Node15&#45;&gt;Node16</title>
<path fill="none" stroke="midnightblue" d="M477.23,-124C487.69,-124 499.06,-124 509.68,-124"/>
<polygon fill="midnightblue" stroke="midnightblue" points="509.99,-127.5 519.99,-124 509.99,-120.5 509.99,-127.5"/>
</g>
<!-- Node17&#45;&gt;Node2 -->
<g id="edge26" class="edge">
<title>Node17&#45;&gt;Node2</title>
<path fill="none" stroke="midnightblue" d="M281.89,-229.16C251.79,-221.19 207.83,-208.38 171,-193 159.23,-188.08 146.73,-181.57 136.24,-175.71"/>
<polygon fill="midnightblue" stroke="midnightblue" points="137.66,-172.49 127.25,-170.57 134.19,-178.57 137.66,-172.49"/>
</g>
<!-- Node17&#45;&gt;Node8 -->
<g id="edge25" class="edge">
<title>Node17&#45;&gt;Node8</title>
<path fill="none" stroke="midnightblue" d="M355.06,-235.97C406.7,-232.2 504.93,-221.86 584,-195 599.54,-189.72 616.29,-182.4 629.91,-175.99"/>
<polygon fill="midnightblue" stroke="midnightblue" points="631.71,-179.01 639.22,-171.53 628.69,-172.7 631.71,-179.01"/>
</g>
</g>
</svg>
