<?xml version="1.0" encoding="UTF-8" standalone="no"?>
<!DOCTYPE svg PUBLIC "-//W3C//DTD SVG 1.1//EN"
 "http://www.w3.org/Graphics/SVG/1.1/DTD/svg11.dtd">
<!-- Generated by graphviz version 2.43.0 (0)
 -->
<!-- Title: STATEMENT Pages: 1 -->
<svg width="549pt" height="370pt"
 viewBox="0.00 0.00 549.00 370.00" xmlns="http://www.w3.org/2000/svg" xmlns:xlink="http://www.w3.org/1999/xlink">
<g id="graph0" class="graph" transform="scale(1 1) rotate(0) translate(4 366)">
<title>STATEMENT</title>
<polygon fill="white" stroke="transparent" points="-4,4 -4,-366 545,-366 545,4 -4,4"/>
<!-- Node1 -->
<g id="node1" class="node">
<title>Node1</title>
<g id="a_node1"><a xlink:title="Processes the commands, coditions, ...">
<polygon fill="#bfbfbf" stroke="black" points="0,-133.5 0,-152.5 74,-152.5 74,-133.5 0,-133.5"/>
<text text-anchor="middle" x="37" y="-140.5" font-family="Helvetica,sans-Serif" font-size="10.00">STATEMENT</text>
</a>
</g>
</g>
<!-- Node2 -->
<g id="node2" class="node">
<title>Node2</title>
<g id="a_node2"><a xlink:href="syntactic__analysis_8c.html#a2999c303cc3fb4692b7e96d9a22e9c03" target="_top" xlink:title="Processes calling functions, variables.">
<polygon fill="white" stroke="black" points="115,-247.5 115,-266.5 180,-266.5 180,-247.5 115,-247.5"/>
<text text-anchor="middle" x="147.5" y="-254.5" font-family="Helvetica,sans-Serif" font-size="10.00">CALL_DEF</text>
</a>
</g>
</g>
<!-- Node1&#45;&gt;Node2 -->
<g id="edge1" class="edge">
<title>Node1&#45;&gt;Node2</title>
<path fill="none" stroke="midnightblue" d="M47.3,-152.86C61,-167.37 87.42,-195.33 110,-219 116.48,-225.79 123.63,-233.25 129.88,-239.74"/>
<polygon fill="midnightblue" stroke="midnightblue" points="127.72,-242.56 137.18,-247.33 132.77,-237.7 127.72,-242.56"/>
</g>
<!-- Node7 -->
<g id="node7" class="node">
<title>Node7</title>
<g id="a_node7"><a xlink:href="syntactic__analysis_8c.html#ab1c09d376532dc76198f8d2d6c729fef" target="_top" xlink:title="Processes command for constant declaration.">
<polygon fill="white" stroke="black" points="110,-0.5 110,-19.5 185,-19.5 185,-0.5 110,-0.5"/>
<text text-anchor="middle" x="147.5" y="-7.5" font-family="Helvetica,sans-Serif" font-size="10.00">CONST_DEF</text>
</a>
</g>
</g>
<!-- Node1&#45;&gt;Node7 -->
<g id="edge8" class="edge">
<title>Node1&#45;&gt;Node7</title>
<path fill="none" stroke="midnightblue" d="M42.02,-133.25C51.23,-111.93 75.72,-60.54 110,-29 111.5,-27.62 113.12,-26.31 114.81,-25.08"/>
<polygon fill="midnightblue" stroke="midnightblue" points="117.06,-27.8 123.67,-19.52 113.34,-21.87 117.06,-27.8"/>
</g>
<!-- Node9 -->
<g id="node9" class="node">
<title>Node9</title>
<g id="a_node9"><a xlink:href="syntactic__analysis_8c.html#a047deda12297b3a39f2d50261fd7de70" target="_top" xlink:title="Processes else condition.">
<polygon fill="white" stroke="black" points="227.5,-152.5 227.5,-171.5 292.5,-171.5 292.5,-152.5 227.5,-152.5"/>
<text text-anchor="middle" x="260" y="-159.5" font-family="Helvetica,sans-Serif" font-size="10.00">ELSE_DEF</text>
</a>
</g>
</g>
<!-- Node1&#45;&gt;Node9 -->
<g id="edge11" class="edge">
<title>Node1&#45;&gt;Node9</title>
<path fill="none" stroke="midnightblue" d="M74.49,-146.14C113.82,-149.52 176.31,-154.89 217.49,-158.43"/>
<polygon fill="midnightblue" stroke="midnightblue" points="217.21,-161.92 227.47,-159.29 217.8,-154.95 217.21,-161.92"/>
</g>
<!-- Node11 -->
<g id="node11" class="node">
<title>Node11</title>
<g id="a_node11"><a xlink:href="syntactic__analysis_8c.html#ac9b33c13aa831335429748838739aef7" target="_top" xlink:title="Processes if condition.">
<polygon fill="white" stroke="black" points="122.5,-190.5 122.5,-209.5 172.5,-209.5 172.5,-190.5 122.5,-190.5"/>
<text text-anchor="middle" x="147.5" y="-197.5" font-family="Helvetica,sans-Serif" font-size="10.00">IF_DEF</text>
</a>
</g>
</g>
<!-- Node1&#45;&gt;Node11 -->
<g id="edge14" class="edge">
<title>Node1&#45;&gt;Node11</title>
<path fill="none" stroke="midnightblue" d="M56.41,-152.67C73.66,-161.73 99.66,-175.39 119.3,-185.71"/>
<polygon fill="midnightblue" stroke="midnightblue" points="117.89,-188.92 128.37,-190.47 121.14,-182.72 117.89,-188.92"/>
</g>
<!-- Node13 -->
<g id="node13" class="node">
<title>Node13</title>
<g id="a_node13"><a xlink:href="syntactic__analysis_8c.html#a1012bbb9f570627aabec5e3eda7c4993" target="_top" xlink:title="Processes return command.">
<polygon fill="white" stroke="black" points="351,-304.5 351,-323.5 411,-323.5 411,-304.5 351,-304.5"/>
<text text-anchor="middle" x="381" y="-311.5" font-family="Helvetica,sans-Serif" font-size="10.00">RET_DEF</text>
</a>
</g>
</g>
<!-- Node1&#45;&gt;Node13 -->
<g id="edge18" class="edge">
<title>Node1&#45;&gt;Node13</title>
<path fill="none" stroke="midnightblue" d="M40.14,-152.63C46.21,-177.57 66.04,-244.48 110,-276 179.17,-325.6 284.37,-324.27 340.87,-319.09"/>
<polygon fill="midnightblue" stroke="midnightblue" points="341.23,-322.57 350.83,-318.08 340.53,-315.6 341.23,-322.57"/>
</g>
<!-- Node14 -->
<g id="node14" class="node">
<title>Node14</title>
<g id="a_node14"><a xlink:href="syntactic__analysis_8c.html#a49c6186e8aee36246b52305756b7a017" target="_top" xlink:title="Processes command for variable declaration.">
<polygon fill="white" stroke="black" points="117,-38.5 117,-57.5 178,-57.5 178,-38.5 117,-38.5"/>
<text text-anchor="middle" x="147.5" y="-45.5" font-family="Helvetica,sans-Serif" font-size="10.00">VAR_DEF</text>
</a>
</g>
</g>
<!-- Node1&#45;&gt;Node14 -->
<g id="edge20" class="edge">
<title>Node1&#45;&gt;Node14</title>
<path fill="none" stroke="midnightblue" d="M46.77,-133.2C59.82,-118.9 85.43,-91.87 110,-72 113.68,-69.02 117.74,-66.07 121.77,-63.31"/>
<polygon fill="midnightblue" stroke="midnightblue" points="123.97,-66.05 130.39,-57.63 120.12,-60.2 123.97,-66.05"/>
</g>
<!-- Node17 -->
<g id="node17" class="node">
<title>Node17</title>
<g id="a_node17"><a xlink:href="syntactic__analysis_8c.html#a13efec100d0c39c874c413765ded4d10" target="_top" xlink:title="Processes while loop.">
<polygon fill="white" stroke="black" points="223.5,-76.5 223.5,-95.5 296.5,-95.5 296.5,-76.5 223.5,-76.5"/>
<text text-anchor="middle" x="260" y="-83.5" font-family="Helvetica,sans-Serif" font-size="10.00">WHILE_DEF</text>
</a>
</g>
</g>
<!-- Node1&#45;&gt;Node17 -->
<g id="edge24" class="edge">
<title>Node1&#45;&gt;Node17</title>
<path fill="none" stroke="midnightblue" d="M55.23,-133.49C69.51,-126.02 90.53,-115.91 110,-110 143.87,-99.72 183.47,-93.61 213.34,-90.12"/>
<polygon fill="midnightblue" stroke="midnightblue" points="213.92,-93.58 223.47,-89 213.15,-86.62 213.92,-93.58"/>
</g>
<!-- Node3 -->
<g id="node3" class="node">
<title>Node3</title>
<g id="a_node3"><a xlink:href="syntactic__analysis_8c.html#ade39708cf9c0a95b1e75a94b3982f1aa" target="_top" xlink:title="Extended function for CALL_DEF()">
<polygon fill="white" stroke="black" points="227.5,-266.5 227.5,-285.5 292.5,-285.5 292.5,-266.5 227.5,-266.5"/>
<text text-anchor="middle" x="260" y="-273.5" font-family="Helvetica,sans-Serif" font-size="10.00">CALL_EXT</text>
</a>
</g>
</g>
<!-- Node2&#45;&gt;Node3 -->
<g id="edge2" class="edge">
<title>Node2&#45;&gt;Node3</title>
<path fill="none" stroke="midnightblue" d="M180.16,-262.44C191.72,-264.43 204.98,-266.71 217.28,-268.83"/>
<polygon fill="midnightblue" stroke="midnightblue" points="216.88,-272.31 227.33,-270.55 218.07,-265.41 216.88,-272.31"/>
</g>
<!-- Node4 -->
<g id="node4" class="node">
<title>Node4</title>
<g id="a_node4"><a xlink:href="syntactic__analysis_8c.html#a83f44b9d12d581ea924af4ba707819c3" target="_top" xlink:title="Function for processing argument of called function.">
<polygon fill="white" stroke="black" points="362,-342.5 362,-361.5 400,-361.5 400,-342.5 362,-342.5"/>
<text text-anchor="middle" x="381" y="-349.5" font-family="Helvetica,sans-Serif" font-size="10.00">ARG</text>
</a>
</g>
</g>
<!-- Node3&#45;&gt;Node4 -->
<g id="edge3" class="edge">
<title>Node3&#45;&gt;Node4</title>
<path fill="none" stroke="midnightblue" d="M271.89,-285.85C285.78,-298.05 310.9,-318.95 335,-333 340.44,-336.17 346.52,-339.11 352.4,-341.67"/>
<polygon fill="midnightblue" stroke="midnightblue" points="351.39,-345.04 361.97,-345.61 354.06,-338.57 351.39,-345.04"/>
</g>
<!-- Node6 -->
<g id="node6" class="node">
<title>Node6</title>
<g id="a_node6"><a xlink:href="syntactic__analysis_8c.html#a38b7a13b9a5926c2c4b6af62cec86f85" target="_top" xlink:title="Function for processing another argument which is in queue.">
<polygon fill="white" stroke="black" points="463,-228.5 463,-247.5 541,-247.5 541,-228.5 463,-228.5"/>
<text text-anchor="middle" x="502" y="-235.5" font-family="Helvetica,sans-Serif" font-size="10.00">EXPRESSION</text>
</a>
</g>
</g>
<!-- Node3&#45;&gt;Node6 -->
<g id="edge7" class="edge">
<title>Node3&#45;&gt;Node6</title>
<path fill="none" stroke="midnightblue" d="M292.58,-271.85C326.02,-267.36 380.33,-259.79 427,-252 435.34,-250.61 444.19,-249.03 452.76,-247.44"/>
<polygon fill="midnightblue" stroke="midnightblue" points="453.47,-250.87 462.65,-245.58 452.17,-243.99 453.47,-250.87"/>
</g>
<!-- Node5 -->
<g id="node5" class="node">
<title>Node5</title>
<g id="a_node5"><a xlink:href="syntactic__analysis_8c.html#a271ef1f0dc6a029b233bcb024b19b116" target="_top" xlink:title="Function for processing another argument which is in queue.">
<polygon fill="white" stroke="black" points="480,-342.5 480,-361.5 524,-361.5 524,-342.5 480,-342.5"/>
<text text-anchor="middle" x="502" y="-349.5" font-family="Helvetica,sans-Serif" font-size="10.00">ARGS</text>
</a>
</g>
</g>
<!-- Node4&#45;&gt;Node5 -->
<g id="edge4" class="edge">
<title>Node4&#45;&gt;Node5</title>
<path fill="none" stroke="midnightblue" d="M400.07,-346.99C418.51,-345.08 447.49,-344.74 469.67,-345.97"/>
<polygon fill="midnightblue" stroke="midnightblue" points="469.72,-349.49 479.94,-346.7 470.21,-342.5 469.72,-349.49"/>
</g>
<!-- Node4&#45;&gt;Node6 -->
<g id="edge6" class="edge">
<title>Node4&#45;&gt;Node6</title>
<path fill="none" stroke="midnightblue" d="M400.21,-346.7C408.88,-343.6 419.06,-339.09 427,-333 454.78,-311.69 477.89,-277.6 490.54,-256.58"/>
<polygon fill="midnightblue" stroke="midnightblue" points="493.72,-258.07 495.74,-247.67 487.68,-254.54 493.72,-258.07"/>
</g>
<!-- Node5&#45;&gt;Node4 -->
<g id="edge5" class="edge">
<title>Node5&#45;&gt;Node4</title>
<path fill="none" stroke="midnightblue" d="M479.94,-357.3C460.53,-359.03 431.58,-359.21 410.19,-357.84"/>
<polygon fill="midnightblue" stroke="midnightblue" points="410.33,-354.34 400.07,-357.01 409.75,-361.32 410.33,-354.34"/>
</g>
<!-- Node8 -->
<g id="node8" class="node">
<title>Node8</title>
<g id="a_node8"><a xlink:href="syntactic__analysis_8c.html#aa1d8bc4c3095f3ba13e1fcc83038d948" target="_top" xlink:title="Processes assigning expresions to the constant.">
<polygon fill="white" stroke="black" points="335,-0.5 335,-19.5 427,-19.5 427,-0.5 335,-0.5"/>
<text text-anchor="middle" x="381" y="-7.5" font-family="Helvetica,sans-Serif" font-size="10.00">ASSIGN_CONST</text>
</a>
</g>
</g>
<!-- Node7&#45;&gt;Node8 -->
<g id="edge9" class="edge">
<title>Node7&#45;&gt;Node8</title>
<path fill="none" stroke="midnightblue" d="M185.18,-10C222.72,-10 281.5,-10 324.68,-10"/>
<polygon fill="midnightblue" stroke="midnightblue" points="324.75,-13.5 334.75,-10 324.75,-6.5 324.75,-13.5"/>
</g>
<!-- Node8&#45;&gt;Node6 -->
<g id="edge10" class="edge">
<title>Node8&#45;&gt;Node6</title>
<path fill="none" stroke="midnightblue" d="M414.15,-19.6C418.89,-22.09 423.39,-25.17 427,-29 478.88,-84.05 494.72,-177.75 499.27,-218.31"/>
<polygon fill="midnightblue" stroke="midnightblue" points="495.79,-218.67 500.28,-228.27 502.76,-217.97 495.79,-218.67"/>
</g>
<!-- Node10 -->
<g id="node10" class="node">
<title>Node10</title>
<g id="a_node10"><a xlink:href="syntactic__analysis_8c.html#a7d21e9db61747d6734d9a7f27d33b4f4" target="_top" xlink:title="Function for determining the depth of infestation.">
<polygon fill="white" stroke="black" points="356.5,-152.5 356.5,-171.5 405.5,-171.5 405.5,-152.5 356.5,-152.5"/>
<text text-anchor="middle" x="381" y="-159.5" font-family="Helvetica,sans-Serif" font-size="10.00">SCOPE</text>
</a>
</g>
</g>
<!-- Node9&#45;&gt;Node10 -->
<g id="edge12" class="edge">
<title>Node9&#45;&gt;Node10</title>
<path fill="none" stroke="midnightblue" d="M292.58,-162C308.96,-162 328.99,-162 345.74,-162"/>
<polygon fill="midnightblue" stroke="midnightblue" points="346.21,-165.5 356.21,-162 346.21,-158.5 346.21,-165.5"/>
</g>
<!-- Node10&#45;&gt;Node1 -->
<g id="edge13" class="edge">
<title>Node10&#45;&gt;Node1</title>
<path fill="none" stroke="midnightblue" d="M356.16,-154.88C340.15,-150.48 318.51,-145.26 299,-143 224.25,-134.35 136.66,-136.92 84.33,-139.8"/>
<polygon fill="midnightblue" stroke="midnightblue" points="83.82,-136.32 74.04,-140.39 84.22,-143.31 83.82,-136.32"/>
</g>
<!-- Node11&#45;&gt;Node6 -->
<g id="edge15" class="edge">
<title>Node11&#45;&gt;Node6</title>
<path fill="none" stroke="midnightblue" d="M172.75,-207.58C186.72,-211.64 204.69,-216.33 221,-219 301.58,-232.17 396.64,-236.24 452.7,-237.48"/>
<polygon fill="midnightblue" stroke="midnightblue" points="452.63,-240.98 462.7,-237.68 452.77,-233.98 452.63,-240.98"/>
</g>
<!-- Node12 -->
<g id="node12" class="node">
<title>Node12</title>
<g id="a_node12"><a xlink:href="syntactic__analysis_8c.html#af131918ae0d8a1cc29cb2c8d6dc13aff" target="_top" xlink:title="Extended function for CALL_DEF()">
<polygon fill="white" stroke="black" points="235,-190.5 235,-209.5 285,-209.5 285,-190.5 235,-190.5"/>
<text text-anchor="middle" x="260" y="-197.5" font-family="Helvetica,sans-Serif" font-size="10.00">IF_EXT</text>
</a>
</g>
</g>
<!-- Node11&#45;&gt;Node12 -->
<g id="edge16" class="edge">
<title>Node11&#45;&gt;Node12</title>
<path fill="none" stroke="midnightblue" d="M172.75,-200C188.01,-200 207.93,-200 224.78,-200"/>
<polygon fill="midnightblue" stroke="midnightblue" points="224.81,-203.5 234.81,-200 224.81,-196.5 224.81,-203.5"/>
</g>
<!-- Node12&#45;&gt;Node10 -->
<g id="edge17" class="edge">
<title>Node12&#45;&gt;Node10</title>
<path fill="none" stroke="midnightblue" d="M285.08,-192.31C302.78,-186.66 327.05,-178.91 346.62,-172.66"/>
<polygon fill="midnightblue" stroke="midnightblue" points="347.9,-175.92 356.36,-169.55 345.77,-169.26 347.9,-175.92"/>
</g>
<!-- Node13&#45;&gt;Node6 -->
<g id="edge19" class="edge">
<title>Node13&#45;&gt;Node6</title>
<path fill="none" stroke="midnightblue" d="M401.12,-304.46C409.23,-300.25 418.7,-295.1 427,-290 445.5,-278.63 465.61,-264.37 480.19,-253.66"/>
<polygon fill="midnightblue" stroke="midnightblue" points="482.54,-256.27 488.49,-247.51 478.37,-250.65 482.54,-256.27"/>
</g>
<!-- Node15 -->
<g id="node15" class="node">
<title>Node15</title>
<g id="a_node15"><a xlink:href="syntactic__analysis_8c.html#a76e0ba812902123b4ec0d43c59c13c04" target="_top" xlink:title="Processes assigning expresions to the variable.">
<polygon fill="white" stroke="black" points="221,-38.5 221,-57.5 299,-57.5 299,-38.5 221,-38.5"/>
<text text-anchor="middle" x="260" y="-45.5" font-family="Helvetica,sans-Serif" font-size="10.00">ASSIGN_VAR</text>
</a>
</g>
</g>
<!-- Node14&#45;&gt;Node15 -->
<g id="edge21" class="edge">
<title>Node14&#45;&gt;Node15</title>
<path fill="none" stroke="midnightblue" d="M178.11,-48C188.19,-48 199.74,-48 210.89,-48"/>
<polygon fill="midnightblue" stroke="midnightblue" points="210.97,-51.5 220.97,-48 210.97,-44.5 210.97,-51.5"/>
</g>
<!-- Node15&#45;&gt;Node6 -->
<g id="edge22" class="edge">
<title>Node15&#45;&gt;Node6</title>
<path fill="none" stroke="midnightblue" d="M296.5,-57.58C342.14,-70.13 416.76,-91.53 427,-100 465.43,-131.79 486.79,-188.89 495.8,-218.7"/>
<polygon fill="midnightblue" stroke="midnightblue" points="492.45,-219.7 498.57,-228.35 499.18,-217.77 492.45,-219.7"/>
</g>
<!-- Node16 -->
<g id="node16" class="node">
<title>Node16</title>
<g id="a_node16"><a xlink:href="syntactic__analysis_8c.html#aaef2bee27144c07c175bb36e4c28af9d" target="_top" xlink:title="Function for verifaction enabled data types (DATA TYPES)">
<polygon fill="white" stroke="black" points="349,-38.5 349,-57.5 413,-57.5 413,-38.5 349,-38.5"/>
<text text-anchor="middle" x="381" y="-45.5" font-family="Helvetica,sans-Serif" font-size="10.00">VAL_TYPE</text>
</a>
</g>
</g>
<!-- Node15&#45;&gt;Node16 -->
<g id="edge23" class="edge">
<title>Node15&#45;&gt;Node16</title>
<path fill="none" stroke="midnightblue" d="M299.31,-48C311.83,-48 325.8,-48 338.55,-48"/>
<polygon fill="midnightblue" stroke="midnightblue" points="338.91,-51.5 348.91,-48 338.91,-44.5 338.91,-51.5"/>
</g>
<!-- Node17&#45;&gt;Node6 -->
<g id="edge25" class="edge">
<title>Node17&#45;&gt;Node6</title>
<path fill="none" stroke="midnightblue" d="M296.78,-92.09C332.39,-99.49 387.32,-114.68 427,-143 455.78,-163.54 478.82,-198.39 491.16,-219.69"/>
<polygon fill="midnightblue" stroke="midnightblue" points="488.11,-221.41 496.05,-228.42 494.21,-217.99 488.11,-221.41"/>
</g>
<!-- Node17&#45;&gt;Node10 -->
<g id="edge26" class="edge">
<title>Node17&#45;&gt;Node10</title>
<path fill="none" stroke="midnightblue" d="M277.13,-95.7C283.97,-99.94 291.98,-105.07 299,-110 315.59,-121.65 318,-126.97 335,-138 340.14,-141.33 345.79,-144.62 351.29,-147.64"/>
<polygon fill="midnightblue" stroke="midnightblue" points="349.84,-150.83 360.31,-152.43 353.12,-144.65 349.84,-150.83"/>
</g>
</g>
</svg>
