<?xml version="1.0" encoding="UTF-8" standalone="no"?>
<!DOCTYPE svg PUBLIC "-//W3C//DTD SVG 1.1//EN"
 "http://www.w3.org/Graphics/SVG/1.1/DTD/svg11.dtd">
<!-- Generated by graphviz version 2.43.0 (0)
 -->
<!-- Title: ASSIGN_VAR Pages: 1 -->
<svg width="650pt" height="179pt"
 viewBox="0.00 0.00 650.00 179.00" xmlns="http://www.w3.org/2000/svg" xmlns:xlink="http://www.w3.org/1999/xlink">
<g id="graph0" class="graph" transform="scale(1 1) rotate(0) translate(4 175)">
<title>ASSIGN_VAR</title>
<polygon fill="white" stroke="transparent" points="-4,4 -4,-175 646,-175 646,4 -4,4"/>
<!-- Node1 -->
<g id="node1" class="node">
<title>Node1</title>
<g id="a_node1"><a xlink:title="Processes assigning expresions to the variable.">
<polygon fill="#bfbfbf" stroke="black" points="564,-115.71 564,-134.71 642,-134.71 642,-115.71 564,-115.71"/>
<text text-anchor="middle" x="603" y="-122.71" font-family="Helvetica,sans-Serif" font-size="10.00">ASSIGN_VAR</text>
</a>
</g>
</g>
<!-- Node2 -->
<g id="node2" class="node">
<title>Node2</title>
<g id="a_node2"><a xlink:href="syntactic__analysis_8c.html#a49c6186e8aee36246b52305756b7a017" target="_top" xlink:title="Processes command for variable declaration.">
<polygon fill="white" stroke="black" points="467,-115.71 467,-134.71 528,-134.71 528,-115.71 467,-115.71"/>
<text text-anchor="middle" x="497.5" y="-122.71" font-family="Helvetica,sans-Serif" font-size="10.00">VAR_DEF</text>
</a>
</g>
</g>
<!-- Node1&#45;&gt;Node2 -->
<g id="edge1" class="edge">
<title>Node1&#45;&gt;Node2</title>
<path fill="none" stroke="midnightblue" d="M553.67,-125.21C544.97,-125.21 536.14,-125.21 528.18,-125.21"/>
<polygon fill="midnightblue" stroke="midnightblue" points="553.75,-128.71 563.75,-125.21 553.75,-121.71 553.75,-128.71"/>
</g>
<!-- Node3 -->
<g id="node3" class="node">
<title>Node3</title>
<g id="a_node3"><a xlink:href="syntactic__analysis_8c.html#a607ec0964227a0c6c98fd79770e51c11" target="_top" xlink:title="Processes the FIRST rule in the syntactic analysis.">
<polygon fill="white" stroke="black" points="80,-110.71 80,-129.71 124,-129.71 124,-110.71 80,-110.71"/>
<text text-anchor="middle" x="102" y="-117.71" font-family="Helvetica,sans-Serif" font-size="10.00">FIRST</text>
</a>
</g>
</g>
<!-- Node2&#45;&gt;Node3 -->
<g id="edge2" class="edge">
<title>Node2&#45;&gt;Node3</title>
<path fill="none" stroke="midnightblue" d="M459.26,-137.84C396.74,-157.07 267.28,-188.45 163,-158.21 144.05,-152.72 125.35,-139.25 113.99,-129.92"/>
<polygon fill="midnightblue" stroke="midnightblue" points="460.58,-141.09 469.06,-134.75 458.47,-134.41 460.58,-141.09"/>
</g>
<!-- Node5 -->
<g id="node5" class="node">
<title>Node5</title>
<g id="a_node5"><a xlink:href="syntactic__analysis_8c.html#a7eac9e4351cf87fecd3e9a66cf5f28d8" target="_top" xlink:title="Processes the commands, coditions, ...">
<polygon fill="white" stroke="black" points="357,-77.71 357,-96.71 431,-96.71 431,-77.71 357,-77.71"/>
<text text-anchor="middle" x="394" y="-84.71" font-family="Helvetica,sans-Serif" font-size="10.00">STATEMENT</text>
</a>
</g>
</g>
<!-- Node2&#45;&gt;Node5 -->
<g id="edge4" class="edge">
<title>Node2&#45;&gt;Node5</title>
<path fill="none" stroke="midnightblue" d="M461.46,-112.09C448.04,-107.07 432.98,-101.43 420.6,-96.8"/>
<polygon fill="midnightblue" stroke="midnightblue" points="460.29,-115.39 470.89,-115.62 462.75,-108.84 460.29,-115.39"/>
</g>
<!-- Node4 -->
<g id="node4" class="node">
<title>Node4</title>
<g id="a_node4"><a xlink:href="main_8c.html#a3c04138a5bfe5d72780bb7e82a18e627" target="_top" xlink:title=" ">
<polygon fill="white" stroke="black" points="0,-110.71 0,-129.71 41,-129.71 41,-110.71 0,-110.71"/>
<text text-anchor="middle" x="20.5" y="-117.71" font-family="Helvetica,sans-Serif" font-size="10.00">main</text>
</a>
</g>
</g>
<!-- Node3&#45;&gt;Node4 -->
<g id="edge3" class="edge">
<title>Node3&#45;&gt;Node4</title>
<path fill="none" stroke="midnightblue" d="M69.67,-120.21C60.08,-120.21 49.81,-120.21 41.23,-120.21"/>
<polygon fill="midnightblue" stroke="midnightblue" points="69.7,-123.71 79.7,-120.21 69.7,-116.71 69.7,-123.71"/>
</g>
<!-- Node6 -->
<g id="node6" class="node">
<title>Node6</title>
<g id="a_node6"><a xlink:href="syntactic__analysis_8c.html#a7d21e9db61747d6734d9a7f27d33b4f4" target="_top" xlink:title="Function for determining the depth of infestation.">
<polygon fill="white" stroke="black" points="272,-77.71 272,-96.71 321,-96.71 321,-77.71 272,-77.71"/>
<text text-anchor="middle" x="296.5" y="-84.71" font-family="Helvetica,sans-Serif" font-size="10.00">SCOPE</text>
</a>
</g>
</g>
<!-- Node5&#45;&gt;Node6 -->
<g id="edge5" class="edge">
<title>Node5&#45;&gt;Node6</title>
<path fill="none" stroke="midnightblue" d="M346.65,-87.21C337.84,-87.21 328.96,-87.21 321.22,-87.21"/>
<polygon fill="midnightblue" stroke="midnightblue" points="346.9,-90.71 356.9,-87.21 346.9,-83.71 346.9,-90.71"/>
</g>
<!-- Node7 -->
<g id="node7" class="node">
<title>Node7</title>
<g id="a_node7"><a xlink:href="syntactic__analysis_8c.html#a047deda12297b3a39f2d50261fd7de70" target="_top" xlink:title="Processes else condition.">
<polygon fill="white" stroke="black" points="167,-129.71 167,-148.71 232,-148.71 232,-129.71 167,-129.71"/>
<text text-anchor="middle" x="199.5" y="-136.71" font-family="Helvetica,sans-Serif" font-size="10.00">ELSE_DEF</text>
</a>
</g>
</g>
<!-- Node6&#45;&gt;Node7 -->
<g id="edge6" class="edge">
<title>Node6&#45;&gt;Node7</title>
<path fill="none" stroke="midnightblue" d="M269.38,-101.81C259.01,-107.58 246.96,-114.24 236,-120.21 230.35,-123.29 224.18,-126.61 218.59,-129.6"/>
<polygon fill="midnightblue" stroke="midnightblue" points="271.32,-104.73 278.35,-96.81 267.91,-98.62 271.32,-104.73"/>
</g>
<!-- Node8 -->
<g id="node8" class="node">
<title>Node8</title>
<g id="a_node8"><a xlink:href="syntactic__analysis_8c.html#afb9892407a0399d61e51261ff730599a" target="_top" xlink:title="Processes function declaration.">
<polygon fill="white" stroke="black" points="172,-91.71 172,-110.71 227,-110.71 227,-91.71 172,-91.71"/>
<text text-anchor="middle" x="199.5" y="-98.71" font-family="Helvetica,sans-Serif" font-size="10.00">FN_DEF</text>
</a>
</g>
</g>
<!-- Node6&#45;&gt;Node8 -->
<g id="edge8" class="edge">
<title>Node6&#45;&gt;Node8</title>
<path fill="none" stroke="midnightblue" d="M261.54,-92.22C250.24,-93.88 237.81,-95.71 227.14,-97.28"/>
<polygon fill="midnightblue" stroke="midnightblue" points="262.14,-95.66 271.53,-90.74 261.12,-88.74 262.14,-95.66"/>
</g>
<!-- Node9 -->
<g id="node9" class="node">
<title>Node9</title>
<g id="a_node9"><a xlink:href="syntactic__analysis_8c.html#af131918ae0d8a1cc29cb2c8d6dc13aff" target="_top" xlink:title="Extended function for CALL_DEF()">
<polygon fill="white" stroke="black" points="174.5,-53.71 174.5,-72.71 224.5,-72.71 224.5,-53.71 174.5,-53.71"/>
<text text-anchor="middle" x="199.5" y="-60.71" font-family="Helvetica,sans-Serif" font-size="10.00">IF_EXT</text>
</a>
</g>
</g>
<!-- Node6&#45;&gt;Node9 -->
<g id="edge10" class="edge">
<title>Node6&#45;&gt;Node9</title>
<path fill="none" stroke="midnightblue" d="M261.68,-78.67C249.5,-75.59 236,-72.18 224.8,-69.35"/>
<polygon fill="midnightblue" stroke="midnightblue" points="260.97,-82.1 271.53,-81.15 262.69,-75.31 260.97,-82.1"/>
</g>
<!-- Node11 -->
<g id="node11" class="node">
<title>Node11</title>
<g id="a_node11"><a xlink:href="syntactic__analysis_8c.html#a13efec100d0c39c874c413765ded4d10" target="_top" xlink:title="Processes while loop.">
<polygon fill="white" stroke="black" points="163,-15.71 163,-34.71 236,-34.71 236,-15.71 163,-15.71"/>
<text text-anchor="middle" x="199.5" y="-22.71" font-family="Helvetica,sans-Serif" font-size="10.00">WHILE_DEF</text>
</a>
</g>
</g>
<!-- Node6&#45;&gt;Node11 -->
<g id="edge13" class="edge">
<title>Node6&#45;&gt;Node11</title>
<path fill="none" stroke="midnightblue" d="M274.8,-71.2C263.57,-62.79 249.3,-52.53 236,-44.21 230.78,-40.95 224.96,-37.69 219.56,-34.81"/>
<polygon fill="midnightblue" stroke="midnightblue" points="272.99,-74.22 283.07,-77.48 277.22,-68.64 272.99,-74.22"/>
</g>
<!-- Node7&#45;&gt;Node5 -->
<g id="edge7" class="edge">
<title>Node7&#45;&gt;Node5</title>
<path fill="none" stroke="midnightblue" d="M241.85,-128.04C276.35,-118.72 324.99,-105.58 357.69,-96.75"/>
<polygon fill="midnightblue" stroke="midnightblue" points="240.82,-124.69 232.08,-130.68 242.64,-131.45 240.82,-124.69"/>
</g>
<!-- Node8&#45;&gt;Node3 -->
<g id="edge9" class="edge">
<title>Node8&#45;&gt;Node3</title>
<path fill="none" stroke="midnightblue" d="M161.93,-108.49C149.1,-111.04 135.14,-113.82 124.02,-116.03"/>
<polygon fill="midnightblue" stroke="midnightblue" points="162.77,-111.89 171.9,-106.5 161.41,-105.02 162.77,-111.89"/>
</g>
<!-- Node10 -->
<g id="node10" class="node">
<title>Node10</title>
<g id="a_node10"><a xlink:href="syntactic__analysis_8c.html#ac9b33c13aa831335429748838739aef7" target="_top" xlink:title="Processes if condition.">
<polygon fill="white" stroke="black" points="77,-34.71 77,-53.71 127,-53.71 127,-34.71 77,-34.71"/>
<text text-anchor="middle" x="102" y="-41.71" font-family="Helvetica,sans-Serif" font-size="10.00">IF_DEF</text>
</a>
</g>
</g>
<!-- Node9&#45;&gt;Node10 -->
<g id="edge11" class="edge">
<title>Node9&#45;&gt;Node10</title>
<path fill="none" stroke="midnightblue" d="M164.42,-56.43C152.08,-53.98 138.4,-51.25 127.09,-49"/>
<polygon fill="midnightblue" stroke="midnightblue" points="163.91,-59.9 174.4,-58.42 165.28,-53.03 163.91,-59.9"/>
</g>
<!-- Node10&#45;&gt;Node5 -->
<g id="edge12" class="edge">
<title>Node10&#45;&gt;Node5</title>
<path fill="none" stroke="midnightblue" d="M122.09,-28.16C133.25,-19.85 148.05,-10.55 163,-6.21 194.16,2.83 204.27,0.56 236,-6.21 294.19,-18.63 354.35,-58.74 380.07,-77.44"/>
<polygon fill="midnightblue" stroke="midnightblue" points="119.71,-25.59 113.99,-34.51 124.02,-31.1 119.71,-25.59"/>
</g>
<!-- Node11&#45;&gt;Node5 -->
<g id="edge14" class="edge">
<title>Node11&#45;&gt;Node5</title>
<path fill="none" stroke="midnightblue" d="M240.03,-37.94C276.65,-49.74 330.28,-67.01 363.34,-77.66"/>
<polygon fill="midnightblue" stroke="midnightblue" points="240.78,-34.51 230.19,-34.77 238.64,-41.17 240.78,-34.51"/>
</g>
</g>
</svg>
