<?xml version="1.0" encoding="UTF-8" standalone="no"?>
<!DOCTYPE svg PUBLIC "-//W3C//DTD SVG 1.1//EN"
 "http://www.w3.org/Graphics/SVG/1.1/DTD/svg11.dtd">
<!-- Generated by graphviz version 2.43.0 (0)
 -->
<!-- Title: PARAM Pages: 1 -->
<svg width="307pt" height="28pt"
 viewBox="0.00 0.00 307.00 28.00" xmlns="http://www.w3.org/2000/svg" xmlns:xlink="http://www.w3.org/1999/xlink">
<g id="graph0" class="graph" transform="scale(1 1) rotate(0) translate(4 24)">
<title>PARAM</title>
<polygon fill="white" stroke="transparent" points="-4,4 -4,-24 303,-24 303,4 -4,4"/>
<!-- Node1 -->
<g id="node1" class="node">
<title>Node1</title>
<g id="a_node1"><a xlink:title="Function for processing parameters of declaraced function.">
<polygon fill="#bfbfbf" stroke="black" points="248,-0.5 248,-19.5 299,-19.5 299,-0.5 248,-0.5"/>
<text text-anchor="middle" x="273.5" y="-7.5" font-family="Helvetica,sans-Serif" font-size="10.00">PARAM</text>
</a>
</g>
</g>
<!-- Node2 -->
<g id="node2" class="node">
<title>Node2</title>
<g id="a_node2"><a xlink:href="syntactic__analysis_8c.html#afb9892407a0399d61e51261ff730599a" target="_top" xlink:title="Processes function declaration.">
<polygon fill="white" stroke="black" points="157,-0.5 157,-19.5 212,-19.5 212,-0.5 157,-0.5"/>
<text text-anchor="middle" x="184.5" y="-7.5" font-family="Helvetica,sans-Serif" font-size="10.00">FN_DEF</text>
</a>
</g>
</g>
<!-- Node1&#45;&gt;Node2 -->
<g id="edge1" class="edge">
<title>Node1&#45;&gt;Node2</title>
<path fill="none" stroke="midnightblue" d="M237.71,-10C229.17,-10 220.17,-10 212.09,-10"/>
<polygon fill="midnightblue" stroke="midnightblue" points="237.8,-13.5 247.8,-10 237.8,-6.5 237.8,-13.5"/>
</g>
<!-- Node3 -->
<g id="node3" class="node">
<title>Node3</title>
<g id="a_node3"><a xlink:href="syntactic__analysis_8c.html#a607ec0964227a0c6c98fd79770e51c11" target="_top" xlink:title="Processes the FIRST rule in the syntactic analysis.">
<polygon fill="white" stroke="black" points="77,-0.5 77,-19.5 121,-19.5 121,-0.5 77,-0.5"/>
<text text-anchor="middle" x="99" y="-7.5" font-family="Helvetica,sans-Serif" font-size="10.00">FIRST</text>
</a>
</g>
</g>
<!-- Node2&#45;&gt;Node3 -->
<g id="edge2" class="edge">
<title>Node2&#45;&gt;Node3</title>
<path fill="none" stroke="midnightblue" d="M146.57,-10C137.81,-10 128.77,-10 121,-10"/>
<polygon fill="midnightblue" stroke="midnightblue" points="146.62,-13.5 156.62,-10 146.62,-6.5 146.62,-13.5"/>
</g>
<!-- Node4 -->
<g id="node4" class="node">
<title>Node4</title>
<g id="a_node4"><a xlink:href="main_8c.html#a3c04138a5bfe5d72780bb7e82a18e627" target="_top" xlink:title=" ">
<polygon fill="white" stroke="black" points="0,-0.5 0,-19.5 41,-19.5 41,-0.5 0,-0.5"/>
<text text-anchor="middle" x="20.5" y="-7.5" font-family="Helvetica,sans-Serif" font-size="10.00">main</text>
</a>
</g>
</g>
<!-- Node3&#45;&gt;Node4 -->
<g id="edge3" class="edge">
<title>Node3&#45;&gt;Node4</title>
<path fill="none" stroke="midnightblue" d="M66.55,-10C57.94,-10 48.86,-10 41.12,-10"/>
<polygon fill="midnightblue" stroke="midnightblue" points="66.69,-13.5 76.69,-10 66.69,-6.5 66.69,-13.5"/>
</g>
</g>
</svg>
