<?xml version="1.0" encoding="UTF-8" standalone="no"?>
<!DOCTYPE svg PUBLIC "-//W3C//DTD SVG 1.1//EN"
 "http://www.w3.org/Graphics/SVG/1.1/DTD/svg11.dtd">
<!-- Generated by graphviz version 2.43.0 (0)
 -->
<!-- Title: ELSE_DEF Pages: 1 -->
<svg width="540pt" height="117pt"
 viewBox="0.00 0.00 540.00 117.23" xmlns="http://www.w3.org/2000/svg" xmlns:xlink="http://www.w3.org/1999/xlink">
<g id="graph0" class="graph" transform="scale(1 1) rotate(0) translate(4 113.23)">
<title>ELSE_DEF</title>
<polygon fill="white" stroke="transparent" points="-4,4 -4,-113.23 536,-113.23 536,4 -4,4"/>
<!-- Node1 -->
<g id="node1" class="node">
<title>Node1</title>
<g id="a_node1"><a xlink:title="Processes else condition.">
<polygon fill="#bfbfbf" stroke="black" points="467,-32.73 467,-51.73 532,-51.73 532,-32.73 467,-32.73"/>
<text text-anchor="middle" x="499.5" y="-39.73" font-family="Helvetica,sans-Serif" font-size="10.00">ELSE_DEF</text>
</a>
</g>
</g>
<!-- Node2 -->
<g id="node2" class="node">
<title>Node2</title>
<g id="a_node2"><a xlink:href="syntactic__analysis_8c.html#a7eac9e4351cf87fecd3e9a66cf5f28d8" target="_top" xlink:title="Processes the commands, coditions, ...">
<polygon fill="white" stroke="black" points="357,-13.73 357,-32.73 431,-32.73 431,-13.73 357,-13.73"/>
<text text-anchor="middle" x="394" y="-20.73" font-family="Helvetica,sans-Serif" font-size="10.00">STATEMENT</text>
</a>
</g>
</g>
<!-- Node1&#45;&gt;Node2 -->
<g id="edge1" class="edge">
<title>Node1&#45;&gt;Node2</title>
<path fill="none" stroke="midnightblue" d="M456.77,-34.57C448.28,-33.01 439.41,-31.38 431.13,-29.86"/>
<polygon fill="midnightblue" stroke="midnightblue" points="456.42,-38.06 466.88,-36.43 457.68,-31.18 456.42,-38.06"/>
</g>
<!-- Node3 -->
<g id="node3" class="node">
<title>Node3</title>
<g id="a_node3"><a xlink:href="syntactic__analysis_8c.html#a7d21e9db61747d6734d9a7f27d33b4f4" target="_top" xlink:title="Function for determining the depth of infestation.">
<polygon fill="white" stroke="black" points="272,-51.73 272,-70.73 321,-70.73 321,-51.73 272,-51.73"/>
<text text-anchor="middle" x="296.5" y="-58.73" font-family="Helvetica,sans-Serif" font-size="10.00">SCOPE</text>
</a>
</g>
</g>
<!-- Node2&#45;&gt;Node3 -->
<g id="edge2" class="edge">
<title>Node2&#45;&gt;Node3</title>
<path fill="none" stroke="midnightblue" d="M359.59,-36.52C346.95,-41.55 332.84,-47.17 321.26,-51.78"/>
<polygon fill="midnightblue" stroke="midnightblue" points="360.9,-39.77 368.9,-32.82 358.32,-33.27 360.9,-39.77"/>
</g>
<!-- Node3&#45;&gt;Node1 -->
<g id="edge3" class="edge">
<title>Node3&#45;&gt;Node1</title>
<path fill="none" stroke="midnightblue" d="M331.03,-58.06C368.76,-54.49 429.62,-48.74 466.65,-45.24"/>
<polygon fill="midnightblue" stroke="midnightblue" points="330.66,-54.58 321.04,-59.01 331.32,-61.55 330.66,-54.58"/>
</g>
<!-- Node4 -->
<g id="node4" class="node">
<title>Node4</title>
<g id="a_node4"><a xlink:href="syntactic__analysis_8c.html#afb9892407a0399d61e51261ff730599a" target="_top" xlink:title="Processes function declaration.">
<polygon fill="white" stroke="black" points="172,-89.73 172,-108.73 227,-108.73 227,-89.73 172,-89.73"/>
<text text-anchor="middle" x="199.5" y="-96.73" font-family="Helvetica,sans-Serif" font-size="10.00">FN_DEF</text>
</a>
</g>
</g>
<!-- Node3&#45;&gt;Node4 -->
<g id="edge4" class="edge">
<title>Node3&#45;&gt;Node4</title>
<path fill="none" stroke="midnightblue" d="M261.97,-74.64C249.59,-79.59 235.83,-85.1 224.46,-89.65"/>
<polygon fill="midnightblue" stroke="midnightblue" points="263.54,-77.78 271.53,-70.82 260.94,-71.28 263.54,-77.78"/>
</g>
<!-- Node7 -->
<g id="node7" class="node">
<title>Node7</title>
<g id="a_node7"><a xlink:href="syntactic__analysis_8c.html#af131918ae0d8a1cc29cb2c8d6dc13aff" target="_top" xlink:title="Extended function for CALL_DEF()">
<polygon fill="white" stroke="black" points="174.5,-51.73 174.5,-70.73 224.5,-70.73 224.5,-51.73 174.5,-51.73"/>
<text text-anchor="middle" x="199.5" y="-58.73" font-family="Helvetica,sans-Serif" font-size="10.00">IF_EXT</text>
</a>
</g>
</g>
<!-- Node3&#45;&gt;Node7 -->
<g id="edge7" class="edge">
<title>Node3&#45;&gt;Node7</title>
<path fill="none" stroke="midnightblue" d="M261.32,-61.23C249.23,-61.23 235.89,-61.23 224.8,-61.23"/>
<polygon fill="midnightblue" stroke="midnightblue" points="261.53,-64.73 271.53,-61.23 261.53,-57.73 261.53,-64.73"/>
</g>
<!-- Node9 -->
<g id="node9" class="node">
<title>Node9</title>
<g id="a_node9"><a xlink:href="syntactic__analysis_8c.html#a13efec100d0c39c874c413765ded4d10" target="_top" xlink:title="Processes while loop.">
<polygon fill="white" stroke="black" points="163,-13.73 163,-32.73 236,-32.73 236,-13.73 163,-13.73"/>
<text text-anchor="middle" x="199.5" y="-20.73" font-family="Helvetica,sans-Serif" font-size="10.00">WHILE_DEF</text>
</a>
</g>
</g>
<!-- Node3&#45;&gt;Node9 -->
<g id="edge10" class="edge">
<title>Node3&#45;&gt;Node9</title>
<path fill="none" stroke="midnightblue" d="M261.97,-47.82C249.59,-42.87 235.83,-37.36 224.46,-32.82"/>
<polygon fill="midnightblue" stroke="midnightblue" points="260.94,-51.18 271.53,-51.64 263.54,-44.68 260.94,-51.18"/>
</g>
<!-- Node5 -->
<g id="node5" class="node">
<title>Node5</title>
<g id="a_node5"><a xlink:href="syntactic__analysis_8c.html#a607ec0964227a0c6c98fd79770e51c11" target="_top" xlink:title="Processes the FIRST rule in the syntactic analysis.">
<polygon fill="white" stroke="black" points="80,-89.73 80,-108.73 124,-108.73 124,-89.73 80,-89.73"/>
<text text-anchor="middle" x="102" y="-96.73" font-family="Helvetica,sans-Serif" font-size="10.00">FIRST</text>
</a>
</g>
</g>
<!-- Node4&#45;&gt;Node5 -->
<g id="edge5" class="edge">
<title>Node4&#45;&gt;Node5</title>
<path fill="none" stroke="midnightblue" d="M161.55,-99.23C148.83,-99.23 135.03,-99.23 124.02,-99.23"/>
<polygon fill="midnightblue" stroke="midnightblue" points="161.9,-102.73 171.9,-99.23 161.9,-95.73 161.9,-102.73"/>
</g>
<!-- Node6 -->
<g id="node6" class="node">
<title>Node6</title>
<g id="a_node6"><a xlink:href="main_8c.html#a3c04138a5bfe5d72780bb7e82a18e627" target="_top" xlink:title=" ">
<polygon fill="white" stroke="black" points="0,-89.73 0,-108.73 41,-108.73 41,-89.73 0,-89.73"/>
<text text-anchor="middle" x="20.5" y="-96.73" font-family="Helvetica,sans-Serif" font-size="10.00">main</text>
</a>
</g>
</g>
<!-- Node5&#45;&gt;Node6 -->
<g id="edge6" class="edge">
<title>Node5&#45;&gt;Node6</title>
<path fill="none" stroke="midnightblue" d="M69.67,-99.23C60.08,-99.23 49.81,-99.23 41.23,-99.23"/>
<polygon fill="midnightblue" stroke="midnightblue" points="69.7,-102.73 79.7,-99.23 69.7,-95.73 69.7,-102.73"/>
</g>
<!-- Node8 -->
<g id="node8" class="node">
<title>Node8</title>
<g id="a_node8"><a xlink:href="syntactic__analysis_8c.html#ac9b33c13aa831335429748838739aef7" target="_top" xlink:title="Processes if condition.">
<polygon fill="white" stroke="black" points="77,-13.73 77,-32.73 127,-32.73 127,-13.73 77,-13.73"/>
<text text-anchor="middle" x="102" y="-20.73" font-family="Helvetica,sans-Serif" font-size="10.00">IF_DEF</text>
</a>
</g>
</g>
<!-- Node7&#45;&gt;Node8 -->
<g id="edge8" class="edge">
<title>Node7&#45;&gt;Node8</title>
<path fill="none" stroke="midnightblue" d="M164.79,-47.82C152.35,-42.87 138.51,-37.36 127.09,-32.82"/>
<polygon fill="midnightblue" stroke="midnightblue" points="163.82,-51.2 174.4,-51.64 166.4,-44.69 163.82,-51.2"/>
</g>
<!-- Node8&#45;&gt;Node2 -->
<g id="edge9" class="edge">
<title>Node8&#45;&gt;Node2</title>
<path fill="none" stroke="midnightblue" d="M136.68,-10.58C145.15,-7.95 154.31,-5.57 163,-4.23 231.11,6.29 311.52,-5.9 356.96,-15.04"/>
<polygon fill="midnightblue" stroke="midnightblue" points="135.52,-7.28 127.12,-13.73 137.71,-13.92 135.52,-7.28"/>
</g>
<!-- Node9&#45;&gt;Node2 -->
<g id="edge11" class="edge">
<title>Node9&#45;&gt;Node2</title>
<path fill="none" stroke="midnightblue" d="M246.31,-23.23C280.12,-23.23 325.5,-23.23 356.79,-23.23"/>
<polygon fill="midnightblue" stroke="midnightblue" points="246.22,-19.73 236.22,-23.23 246.22,-26.73 246.22,-19.73"/>
</g>
</g>
</svg>
