<?xml version="1.0" encoding="UTF-8" standalone="no"?>
<!DOCTYPE svg PUBLIC "-//W3C//DTD SVG 1.1//EN"
 "http://www.w3.org/Graphics/SVG/1.1/DTD/svg11.dtd">
<!-- Generated by graphviz version 2.43.0 (0)
 -->
<!-- Title: /home/kubo/IFJ_Compiler/IFJ&#45;project01/src/syntactic_analysis.h Pages: 1 -->
<svg width="504pt" height="218pt"
 viewBox="0.00 0.00 503.92 218.00" xmlns="http://www.w3.org/2000/svg" xmlns:xlink="http://www.w3.org/1999/xlink">
<g id="graph0" class="graph" transform="scale(1 1) rotate(0) translate(4 214)">
<title>/home/kubo/IFJ_Compiler/IFJ&#45;project01/src/syntactic_analysis.h</title>
<polygon fill="white" stroke="transparent" points="-4,4 -4,-214 499.92,-214 499.92,4 -4,4"/>
<!-- Node1 -->
<g id="node1" class="node">
<title>Node1</title>
<g id="a_node1"><a xlink:title=" ">
<polygon fill="#bfbfbf" stroke="black" points="162.73,-168.5 162.73,-209.5 307.73,-209.5 307.73,-168.5 162.73,-168.5"/>
<text text-anchor="start" x="170.73" y="-197.5" font-family="Helvetica,sans-Serif" font-size="10.00">/home/kubo/IFJ_Compiler</text>
<text text-anchor="start" x="170.73" y="-186.5" font-family="Helvetica,sans-Serif" font-size="10.00">/IFJ&#45;project01/src/syntactic</text>
<text text-anchor="middle" x="235.23" y="-175.5" font-family="Helvetica,sans-Serif" font-size="10.00">_analysis.h</text>
</a>
</g>
</g>
<!-- Node2 -->
<g id="node2" class="node">
<title>Node2</title>
<g id="a_node2"><a xlink:title=" ">
<polygon fill="white" stroke="#bfbfbf" points="140.23,-0.5 140.23,-19.5 190.23,-19.5 190.23,-0.5 140.23,-0.5"/>
<text text-anchor="middle" x="165.23" y="-7.5" font-family="Helvetica,sans-Serif" font-size="10.00">stdio.h</text>
</a>
</g>
</g>
<!-- Node1&#45;&gt;Node2 -->
<g id="edge1" class="edge">
<title>Node1&#45;&gt;Node2</title>
<path fill="none" stroke="midnightblue" d="M162.59,-174.42C108.56,-160.06 38.64,-131.44 5.23,-76 -23.63,-28.11 74.46,-15.5 129.86,-12.18"/>
<polygon fill="midnightblue" stroke="midnightblue" points="130.19,-15.67 139.99,-11.65 129.82,-8.68 130.19,-15.67"/>
</g>
<!-- Node3 -->
<g id="node3" class="node">
<title>Node3</title>
<g id="a_node3"><a xlink:title=" ">
<polygon fill="white" stroke="#bfbfbf" points="14.73,-56.5 14.73,-75.5 67.73,-75.5 67.73,-56.5 14.73,-56.5"/>
<text text-anchor="middle" x="41.23" y="-63.5" font-family="Helvetica,sans-Serif" font-size="10.00">string.h</text>
</a>
</g>
</g>
<!-- Node1&#45;&gt;Node3 -->
<g id="edge2" class="edge">
<title>Node1&#45;&gt;Node3</title>
<path fill="none" stroke="midnightblue" d="M203.63,-168.29C164.37,-143.81 98.37,-102.64 63.84,-81.1"/>
<polygon fill="midnightblue" stroke="midnightblue" points="65.32,-77.9 54.98,-75.57 61.61,-83.84 65.32,-77.9"/>
</g>
<!-- Node4 -->
<g id="node4" class="node">
<title>Node4</title>
<g id="a_node4"><a xlink:title=" ">
<polygon fill="white" stroke="#bfbfbf" points="302.23,-0.5 302.23,-19.5 364.23,-19.5 364.23,-0.5 302.23,-0.5"/>
<text text-anchor="middle" x="333.23" y="-7.5" font-family="Helvetica,sans-Serif" font-size="10.00">stdbool.h</text>
</a>
</g>
</g>
<!-- Node1&#45;&gt;Node4 -->
<g id="edge3" class="edge">
<title>Node1&#45;&gt;Node4</title>
<path fill="none" stroke="midnightblue" d="M307.99,-178.17C368.45,-165.71 450.72,-137.83 490.23,-76 518.74,-31.4 430.15,-17.39 374.61,-13"/>
<polygon fill="midnightblue" stroke="midnightblue" points="374.55,-9.48 364.32,-12.26 374.05,-16.46 374.55,-9.48"/>
</g>
<!-- Node5 -->
<g id="node5" class="node">
<title>Node5</title>
<g id="a_node5"><a xlink:href="lexical__analyser_8h.html" target="_top" xlink:title=" ">
<polygon fill="white" stroke="black" points="183.23,-112.5 183.23,-131.5 287.23,-131.5 287.23,-112.5 183.23,-112.5"/>
<text text-anchor="middle" x="235.23" y="-119.5" font-family="Helvetica,sans-Serif" font-size="10.00">lexical_analyser.h</text>
</a>
</g>
</g>
<!-- Node1&#45;&gt;Node5 -->
<g id="edge4" class="edge">
<title>Node1&#45;&gt;Node5</title>
<path fill="none" stroke="midnightblue" d="M235.23,-168.5C235.23,-160.07 235.23,-150.24 235.23,-141.87"/>
<polygon fill="midnightblue" stroke="midnightblue" points="238.73,-141.65 235.23,-131.65 231.73,-141.65 238.73,-141.65"/>
</g>
<!-- Node6 -->
<g id="node6" class="node">
<title>Node6</title>
<g id="a_node6"><a xlink:href="error_8h.html" target="_top" xlink:title=" ">
<polygon fill="white" stroke="black" points="433.23,-56.5 433.23,-75.5 481.23,-75.5 481.23,-56.5 433.23,-56.5"/>
<text text-anchor="middle" x="457.23" y="-63.5" font-family="Helvetica,sans-Serif" font-size="10.00">error.h</text>
</a>
</g>
</g>
<!-- Node1&#45;&gt;Node6 -->
<g id="edge16" class="edge">
<title>Node1&#45;&gt;Node6</title>
<path fill="none" stroke="midnightblue" d="M271.39,-168.29C316.7,-143.6 393.14,-101.93 432.37,-80.55"/>
<polygon fill="midnightblue" stroke="midnightblue" points="434.39,-83.43 441.5,-75.57 431.04,-77.29 434.39,-83.43"/>
</g>
<!-- Node5&#45;&gt;Node2 -->
<g id="edge5" class="edge">
<title>Node5&#45;&gt;Node2</title>
<path fill="none" stroke="midnightblue" d="M229.74,-112.37C218.24,-94.3 191.43,-52.18 176.25,-28.31"/>
<polygon fill="midnightblue" stroke="midnightblue" points="179.02,-26.15 170.7,-19.59 173.11,-29.91 179.02,-26.15"/>
</g>
<!-- Node5&#45;&gt;Node3 -->
<g id="edge11" class="edge">
<title>Node5&#45;&gt;Node3</title>
<path fill="none" stroke="midnightblue" d="M204.49,-112.44C170.02,-102.85 114.16,-87.3 77.55,-77.11"/>
<polygon fill="midnightblue" stroke="midnightblue" points="78.35,-73.7 67.78,-74.39 76.47,-80.44 78.35,-73.7"/>
</g>
<!-- Node5&#45;&gt;Node4 -->
<g id="edge8" class="edge">
<title>Node5&#45;&gt;Node4</title>
<path fill="none" stroke="midnightblue" d="M260.38,-112.49C277.87,-105.34 300.43,-93.46 314.23,-76 324.81,-62.61 329.5,-43.5 331.58,-29.46"/>
<polygon fill="midnightblue" stroke="midnightblue" points="335.06,-29.84 332.75,-19.5 328.11,-29.03 335.06,-29.84"/>
</g>
<!-- Node5&#45;&gt;Node6 -->
<g id="edge6" class="edge">
<title>Node5&#45;&gt;Node6</title>
<path fill="none" stroke="midnightblue" d="M272.61,-112.48C308.79,-104.14 365.41,-90.89 423.41,-76.15"/>
<polygon fill="midnightblue" stroke="midnightblue" points="424.28,-79.54 433.1,-73.68 422.55,-72.76 424.28,-79.54"/>
</g>
<!-- Node7 -->
<g id="node7" class="node">
<title>Node7</title>
<g id="a_node7"><a xlink:title=" ">
<polygon fill="white" stroke="#bfbfbf" points="361.73,-56.5 361.73,-75.5 414.73,-75.5 414.73,-56.5 361.73,-56.5"/>
<text text-anchor="middle" x="388.23" y="-63.5" font-family="Helvetica,sans-Serif" font-size="10.00">ctype.h</text>
</a>
</g>
</g>
<!-- Node5&#45;&gt;Node7 -->
<g id="edge7" class="edge">
<title>Node5&#45;&gt;Node7</title>
<path fill="none" stroke="midnightblue" d="M259.47,-112.44C285.1,-103.4 325.72,-89.06 354.47,-78.92"/>
<polygon fill="midnightblue" stroke="midnightblue" points="355.84,-82.15 364.1,-75.52 353.51,-75.54 355.84,-82.15"/>
</g>
<!-- Node8 -->
<g id="node8" class="node">
<title>Node8</title>
<g id="a_node8"><a xlink:title=" ">
<polygon fill="white" stroke="#bfbfbf" points="219.73,-0.5 219.73,-19.5 272.73,-19.5 272.73,-0.5 219.73,-0.5"/>
<text text-anchor="middle" x="246.23" y="-7.5" font-family="Helvetica,sans-Serif" font-size="10.00">stdlib.h</text>
</a>
</g>
</g>
<!-- Node5&#45;&gt;Node8 -->
<g id="edge9" class="edge">
<title>Node5&#45;&gt;Node8</title>
<path fill="none" stroke="midnightblue" d="M230.96,-112.11C225.49,-99.53 217.26,-75.87 222.23,-56 224.67,-46.25 229.67,-36.29 234.47,-28.23"/>
<polygon fill="midnightblue" stroke="midnightblue" points="237.44,-30.08 239.86,-19.77 231.54,-26.32 237.44,-30.08"/>
</g>
<!-- Node9 -->
<g id="node9" class="node">
<title>Node9</title>
<g id="a_node9"><a xlink:title=" ">
<polygon fill="white" stroke="#bfbfbf" points="85.73,-56.5 85.73,-75.5 136.73,-75.5 136.73,-56.5 85.73,-56.5"/>
<text text-anchor="middle" x="111.23" y="-63.5" font-family="Helvetica,sans-Serif" font-size="10.00">math.h</text>
</a>
</g>
</g>
<!-- Node5&#45;&gt;Node9 -->
<g id="edge10" class="edge">
<title>Node5&#45;&gt;Node9</title>
<path fill="none" stroke="midnightblue" d="M215.58,-112.44C195.27,-103.6 163.33,-89.69 140.13,-79.59"/>
<polygon fill="midnightblue" stroke="midnightblue" points="141.35,-76.3 130.79,-75.52 138.56,-82.72 141.35,-76.3"/>
</g>
<!-- Node10 -->
<g id="node10" class="node">
<title>Node10</title>
<g id="a_node10"><a xlink:href="newstring_8h.html" target="_top" xlink:title=" ">
<polygon fill="white" stroke="black" points="231.23,-56.5 231.23,-75.5 305.23,-75.5 305.23,-56.5 231.23,-56.5"/>
<text text-anchor="middle" x="268.23" y="-63.5" font-family="Helvetica,sans-Serif" font-size="10.00">newstring.h</text>
</a>
</g>
</g>
<!-- Node5&#45;&gt;Node10 -->
<g id="edge12" class="edge">
<title>Node5&#45;&gt;Node10</title>
<path fill="none" stroke="midnightblue" d="M240.68,-112.08C245.25,-104.61 251.9,-93.72 257.52,-84.52"/>
<polygon fill="midnightblue" stroke="midnightblue" points="260.66,-86.11 262.88,-75.75 254.68,-82.46 260.66,-86.11"/>
</g>
<!-- Node10&#45;&gt;Node2 -->
<g id="edge15" class="edge">
<title>Node10&#45;&gt;Node2</title>
<path fill="none" stroke="midnightblue" d="M251.68,-56.32C235.24,-47.7 209.8,-34.36 190.76,-24.39"/>
<polygon fill="midnightblue" stroke="midnightblue" points="192.22,-21.2 181.74,-19.65 188.97,-27.4 192.22,-21.2"/>
</g>
<!-- Node10&#45;&gt;Node4 -->
<g id="edge13" class="edge">
<title>Node10&#45;&gt;Node4</title>
<path fill="none" stroke="midnightblue" d="M278.67,-56.32C288.38,-48.26 303.05,-36.08 314.73,-26.37"/>
<polygon fill="midnightblue" stroke="midnightblue" points="317.14,-28.92 322.6,-19.83 312.67,-23.53 317.14,-28.92"/>
</g>
<!-- Node10&#45;&gt;Node8 -->
<g id="edge14" class="edge">
<title>Node10&#45;&gt;Node8</title>
<path fill="none" stroke="midnightblue" d="M264.6,-56.08C261.62,-48.77 257.31,-38.18 253.61,-29.1"/>
<polygon fill="midnightblue" stroke="midnightblue" points="256.81,-27.69 249.8,-19.75 250.33,-30.33 256.81,-27.69"/>
</g>
</g>
</svg>
