<?xml version="1.0" encoding="UTF-8" standalone="no"?>
<!DOCTYPE svg PUBLIC "-//W3C//DTD SVG 1.1//EN"
 "http://www.w3.org/Graphics/SVG/1.1/DTD/svg11.dtd">
<!-- Generated by graphviz version 2.43.0 (0)
 -->
<!-- Title: /home/kubo/IFJ_Compiler/IFJ&#45;project01/src/syntactic_analysis.h Pages: 1 -->
<svg width="310pt" height="128pt"
 viewBox="0.00 0.00 309.50 128.00" xmlns="http://www.w3.org/2000/svg" xmlns:xlink="http://www.w3.org/1999/xlink">
<g id="graph0" class="graph" transform="scale(1 1) rotate(0) translate(4 124)">
<title>/home/kubo/IFJ_Compiler/IFJ&#45;project01/src/syntactic_analysis.h</title>
<polygon fill="white" stroke="transparent" points="-4,4 -4,-124 305.5,-124 305.5,4 -4,4"/>
<!-- Node1 -->
<g id="node1" class="node">
<title>Node1</title>
<g id="a_node1"><a xlink:title=" ">
<polygon fill="#bfbfbf" stroke="black" points="76.5,-78.5 76.5,-119.5 221.5,-119.5 221.5,-78.5 76.5,-78.5"/>
<text text-anchor="start" x="84.5" y="-107.5" font-family="Helvetica,sans-Serif" font-size="10.00">/home/kubo/IFJ_Compiler</text>
<text text-anchor="start" x="84.5" y="-96.5" font-family="Helvetica,sans-Serif" font-size="10.00">/IFJ&#45;project01/src/syntactic</text>
<text text-anchor="middle" x="149" y="-85.5" font-family="Helvetica,sans-Serif" font-size="10.00">_analysis.h</text>
</a>
</g>
</g>
<!-- Node2 -->
<g id="node2" class="node">
<title>Node2</title>
<g id="a_node2"><a xlink:href="main_8c.html" target="_top" xlink:title=" ">
<polygon fill="white" stroke="black" points="0,-6 0,-36 138,-36 138,-6 0,-6"/>
<text text-anchor="start" x="8" y="-24" font-family="Helvetica,sans-Serif" font-size="10.00">/home/kubo/IFJ_Compiler</text>
<text text-anchor="middle" x="69" y="-13" font-family="Helvetica,sans-Serif" font-size="10.00">/IFJ&#45;project01/src/main.c</text>
</a>
</g>
</g>
<!-- Node1&#45;&gt;Node2 -->
<g id="edge1" class="edge">
<title>Node1&#45;&gt;Node2</title>
<path fill="none" stroke="midnightblue" d="M120.92,-71.32C108.48,-59.51 94.35,-46.08 83.97,-36.23"/>
<polygon fill="midnightblue" stroke="midnightblue" points="118.74,-74.08 128.4,-78.43 123.56,-69 118.74,-74.08"/>
</g>
<!-- Node3 -->
<g id="node3" class="node">
<title>Node3</title>
<g id="a_node3"><a xlink:href="syntactic__analysis_8c.html" target="_top" xlink:title=" ">
<polygon fill="white" stroke="black" points="156.5,-0.5 156.5,-41.5 301.5,-41.5 301.5,-0.5 156.5,-0.5"/>
<text text-anchor="start" x="164.5" y="-29.5" font-family="Helvetica,sans-Serif" font-size="10.00">/home/kubo/IFJ_Compiler</text>
<text text-anchor="start" x="164.5" y="-18.5" font-family="Helvetica,sans-Serif" font-size="10.00">/IFJ&#45;project01/src/syntactic</text>
<text text-anchor="middle" x="229" y="-7.5" font-family="Helvetica,sans-Serif" font-size="10.00">_analysis.c</text>
</a>
</g>
</g>
<!-- Node1&#45;&gt;Node3 -->
<g id="edge2" class="edge">
<title>Node1&#45;&gt;Node3</title>
<path fill="none" stroke="midnightblue" d="M176.9,-71.49C187.28,-61.63 198.87,-50.63 208.47,-41.51"/>
<polygon fill="midnightblue" stroke="midnightblue" points="174.44,-69 169.6,-78.43 179.26,-74.08 174.44,-69"/>
</g>
</g>
</svg>
