<?xml version="1.0" encoding="UTF-8" standalone="no"?>
<!DOCTYPE svg PUBLIC "-//W3C//DTD SVG 1.1//EN"
 "http://www.w3.org/Graphics/SVG/1.1/DTD/svg11.dtd">
<!-- Generated by graphviz version 2.43.0 (0)
 -->
<!-- Title: /home/kubo/IFJ_Compiler/IFJ&#45;project01/src/syntactic_analysis.c Pages: 1 -->
<svg width="504pt" height="274pt"
 viewBox="0.00 0.00 504.31 274.00" xmlns="http://www.w3.org/2000/svg" xmlns:xlink="http://www.w3.org/1999/xlink">
<g id="graph0" class="graph" transform="scale(1 1) rotate(0) translate(4 270)">
<title>/home/kubo/IFJ_Compiler/IFJ&#45;project01/src/syntactic_analysis.c</title>
<polygon fill="white" stroke="transparent" points="-4,4 -4,-270 500.31,-270 500.31,4 -4,4"/>
<!-- Node1 -->
<g id="node1" class="node">
<title>Node1</title>
<g id="a_node1"><a xlink:title=" ">
<polygon fill="#bfbfbf" stroke="black" points="162.88,-224.5 162.88,-265.5 307.88,-265.5 307.88,-224.5 162.88,-224.5"/>
<text text-anchor="start" x="170.88" y="-253.5" font-family="Helvetica,sans-Serif" font-size="10.00">/home/kubo/IFJ_Compiler</text>
<text text-anchor="start" x="170.88" y="-242.5" font-family="Helvetica,sans-Serif" font-size="10.00">/IFJ&#45;project01/src/syntactic</text>
<text text-anchor="middle" x="235.38" y="-231.5" font-family="Helvetica,sans-Serif" font-size="10.00">_analysis.c</text>
</a>
</g>
</g>
<!-- Node2 -->
<g id="node2" class="node">
<title>Node2</title>
<g id="a_node2"><a xlink:href="syntactic__analysis_8h.html" target="_top" xlink:title=" ">
<polygon fill="white" stroke="black" points="177.38,-168.5 177.38,-187.5 293.38,-187.5 293.38,-168.5 177.38,-168.5"/>
<text text-anchor="middle" x="235.38" y="-175.5" font-family="Helvetica,sans-Serif" font-size="10.00">syntactic_analysis.h</text>
</a>
</g>
</g>
<!-- Node1&#45;&gt;Node2 -->
<g id="edge1" class="edge">
<title>Node1&#45;&gt;Node2</title>
<path fill="none" stroke="midnightblue" d="M235.38,-224.5C235.38,-216.07 235.38,-206.24 235.38,-197.87"/>
<polygon fill="midnightblue" stroke="midnightblue" points="238.88,-197.65 235.38,-187.65 231.88,-197.65 238.88,-197.65"/>
</g>
<!-- Node3 -->
<g id="node3" class="node">
<title>Node3</title>
<g id="a_node3"><a xlink:title=" ">
<polygon fill="white" stroke="#bfbfbf" points="140.38,-0.5 140.38,-19.5 190.38,-19.5 190.38,-0.5 140.38,-0.5"/>
<text text-anchor="middle" x="165.38" y="-7.5" font-family="Helvetica,sans-Serif" font-size="10.00">stdio.h</text>
</a>
</g>
</g>
<!-- Node2&#45;&gt;Node3 -->
<g id="edge2" class="edge">
<title>Node2&#45;&gt;Node3</title>
<path fill="none" stroke="midnightblue" d="M177.31,-169.94C121.99,-159.74 41.9,-135.08 5.38,-76 -24.01,-28.44 74.32,-15.68 129.89,-12.25"/>
<polygon fill="midnightblue" stroke="midnightblue" points="130.26,-15.74 140.06,-11.7 129.88,-8.75 130.26,-15.74"/>
</g>
<!-- Node4 -->
<g id="node4" class="node">
<title>Node4</title>
<g id="a_node4"><a xlink:title=" ">
<polygon fill="white" stroke="#bfbfbf" points="14.88,-56.5 14.88,-75.5 67.88,-75.5 67.88,-56.5 14.88,-56.5"/>
<text text-anchor="middle" x="41.38" y="-63.5" font-family="Helvetica,sans-Serif" font-size="10.00">string.h</text>
</a>
</g>
</g>
<!-- Node2&#45;&gt;Node4 -->
<g id="edge3" class="edge">
<title>Node2&#45;&gt;Node4</title>
<path fill="none" stroke="midnightblue" d="M220.16,-168.37C186.59,-149.33 105.96,-103.62 65.46,-80.65"/>
<polygon fill="midnightblue" stroke="midnightblue" points="66.96,-77.48 56.54,-75.59 63.51,-83.57 66.96,-77.48"/>
</g>
<!-- Node5 -->
<g id="node5" class="node">
<title>Node5</title>
<g id="a_node5"><a xlink:title=" ">
<polygon fill="white" stroke="#bfbfbf" points="302.38,-0.5 302.38,-19.5 364.38,-19.5 364.38,-0.5 302.38,-0.5"/>
<text text-anchor="middle" x="333.38" y="-7.5" font-family="Helvetica,sans-Serif" font-size="10.00">stdbool.h</text>
</a>
</g>
</g>
<!-- Node2&#45;&gt;Node5 -->
<g id="edge4" class="edge">
<title>Node2&#45;&gt;Node5</title>
<path fill="none" stroke="midnightblue" d="M293.6,-172.56C354.6,-164.41 447.39,-141.33 490.38,-76 519.54,-31.69 430.29,-17.56 374.58,-13.07"/>
<polygon fill="midnightblue" stroke="midnightblue" points="374.83,-9.58 364.6,-12.34 374.32,-16.56 374.83,-9.58"/>
</g>
<!-- Node6 -->
<g id="node6" class="node">
<title>Node6</title>
<g id="a_node6"><a xlink:href="lexical__analyser_8h.html" target="_top" xlink:title=" ">
<polygon fill="white" stroke="black" points="183.38,-112.5 183.38,-131.5 287.38,-131.5 287.38,-112.5 183.38,-112.5"/>
<text text-anchor="middle" x="235.38" y="-119.5" font-family="Helvetica,sans-Serif" font-size="10.00">lexical_analyser.h</text>
</a>
</g>
</g>
<!-- Node2&#45;&gt;Node6 -->
<g id="edge5" class="edge">
<title>Node2&#45;&gt;Node6</title>
<path fill="none" stroke="midnightblue" d="M235.38,-168.08C235.38,-161.01 235.38,-150.86 235.38,-141.99"/>
<polygon fill="midnightblue" stroke="midnightblue" points="238.88,-141.75 235.38,-131.75 231.88,-141.75 238.88,-141.75"/>
</g>
<!-- Node7 -->
<g id="node7" class="node">
<title>Node7</title>
<g id="a_node7"><a xlink:href="error_8h.html" target="_top" xlink:title=" ">
<polygon fill="white" stroke="black" points="433.38,-56.5 433.38,-75.5 481.38,-75.5 481.38,-56.5 433.38,-56.5"/>
<text text-anchor="middle" x="457.38" y="-63.5" font-family="Helvetica,sans-Serif" font-size="10.00">error.h</text>
</a>
</g>
</g>
<!-- Node2&#45;&gt;Node7 -->
<g id="edge17" class="edge">
<title>Node2&#45;&gt;Node7</title>
<path fill="none" stroke="midnightblue" d="M252.8,-168.37C291.55,-149.17 385.05,-102.84 431,-80.07"/>
<polygon fill="midnightblue" stroke="midnightblue" points="432.64,-83.17 440.05,-75.59 429.53,-76.9 432.64,-83.17"/>
</g>
<!-- Node6&#45;&gt;Node3 -->
<g id="edge6" class="edge">
<title>Node6&#45;&gt;Node3</title>
<path fill="none" stroke="midnightblue" d="M229.89,-112.37C218.39,-94.3 191.59,-52.18 176.4,-28.31"/>
<polygon fill="midnightblue" stroke="midnightblue" points="179.17,-26.15 170.85,-19.59 173.27,-29.91 179.17,-26.15"/>
</g>
<!-- Node6&#45;&gt;Node4 -->
<g id="edge12" class="edge">
<title>Node6&#45;&gt;Node4</title>
<path fill="none" stroke="midnightblue" d="M204.64,-112.44C170.17,-102.85 114.31,-87.3 77.71,-77.11"/>
<polygon fill="midnightblue" stroke="midnightblue" points="78.5,-73.7 67.93,-74.39 76.62,-80.44 78.5,-73.7"/>
</g>
<!-- Node6&#45;&gt;Node5 -->
<g id="edge9" class="edge">
<title>Node6&#45;&gt;Node5</title>
<path fill="none" stroke="midnightblue" d="M260.53,-112.49C278.02,-105.34 300.59,-93.46 314.38,-76 324.97,-62.61 329.66,-43.5 331.74,-29.46"/>
<polygon fill="midnightblue" stroke="midnightblue" points="335.21,-29.84 332.9,-19.5 328.26,-29.03 335.21,-29.84"/>
</g>
<!-- Node6&#45;&gt;Node7 -->
<g id="edge7" class="edge">
<title>Node6&#45;&gt;Node7</title>
<path fill="none" stroke="midnightblue" d="M272.77,-112.48C308.95,-104.14 365.56,-90.89 423.56,-76.15"/>
<polygon fill="midnightblue" stroke="midnightblue" points="424.43,-79.54 433.26,-73.68 422.7,-72.76 424.43,-79.54"/>
</g>
<!-- Node8 -->
<g id="node8" class="node">
<title>Node8</title>
<g id="a_node8"><a xlink:title=" ">
<polygon fill="white" stroke="#bfbfbf" points="361.88,-56.5 361.88,-75.5 414.88,-75.5 414.88,-56.5 361.88,-56.5"/>
<text text-anchor="middle" x="388.38" y="-63.5" font-family="Helvetica,sans-Serif" font-size="10.00">ctype.h</text>
</a>
</g>
</g>
<!-- Node6&#45;&gt;Node8 -->
<g id="edge8" class="edge">
<title>Node6&#45;&gt;Node8</title>
<path fill="none" stroke="midnightblue" d="M259.63,-112.44C285.26,-103.4 325.87,-89.06 354.62,-78.92"/>
<polygon fill="midnightblue" stroke="midnightblue" points="355.99,-82.15 364.25,-75.52 353.66,-75.54 355.99,-82.15"/>
</g>
<!-- Node9 -->
<g id="node9" class="node">
<title>Node9</title>
<g id="a_node9"><a xlink:title=" ">
<polygon fill="white" stroke="#bfbfbf" points="219.88,-0.5 219.88,-19.5 272.88,-19.5 272.88,-0.5 219.88,-0.5"/>
<text text-anchor="middle" x="246.38" y="-7.5" font-family="Helvetica,sans-Serif" font-size="10.00">stdlib.h</text>
</a>
</g>
</g>
<!-- Node6&#45;&gt;Node9 -->
<g id="edge10" class="edge">
<title>Node6&#45;&gt;Node9</title>
<path fill="none" stroke="midnightblue" d="M231.12,-112.11C225.64,-99.53 217.42,-75.87 222.38,-56 224.82,-46.25 229.82,-36.29 234.63,-28.23"/>
<polygon fill="midnightblue" stroke="midnightblue" points="237.6,-30.08 240.02,-19.77 231.69,-26.32 237.6,-30.08"/>
</g>
<!-- Node10 -->
<g id="node10" class="node">
<title>Node10</title>
<g id="a_node10"><a xlink:title=" ">
<polygon fill="white" stroke="#bfbfbf" points="85.88,-56.5 85.88,-75.5 136.88,-75.5 136.88,-56.5 85.88,-56.5"/>
<text text-anchor="middle" x="111.38" y="-63.5" font-family="Helvetica,sans-Serif" font-size="10.00">math.h</text>
</a>
</g>
</g>
<!-- Node6&#45;&gt;Node10 -->
<g id="edge11" class="edge">
<title>Node6&#45;&gt;Node10</title>
<path fill="none" stroke="midnightblue" d="M215.74,-112.44C195.42,-103.6 163.48,-89.69 140.29,-79.59"/>
<polygon fill="midnightblue" stroke="midnightblue" points="141.51,-76.3 130.94,-75.52 138.71,-82.72 141.51,-76.3"/>
</g>
<!-- Node11 -->
<g id="node11" class="node">
<title>Node11</title>
<g id="a_node11"><a xlink:href="newstring_8h.html" target="_top" xlink:title=" ">
<polygon fill="white" stroke="black" points="231.38,-56.5 231.38,-75.5 305.38,-75.5 305.38,-56.5 231.38,-56.5"/>
<text text-anchor="middle" x="268.38" y="-63.5" font-family="Helvetica,sans-Serif" font-size="10.00">newstring.h</text>
</a>
</g>
</g>
<!-- Node6&#45;&gt;Node11 -->
<g id="edge13" class="edge">
<title>Node6&#45;&gt;Node11</title>
<path fill="none" stroke="midnightblue" d="M240.83,-112.08C245.4,-104.61 252.05,-93.72 257.68,-84.52"/>
<polygon fill="midnightblue" stroke="midnightblue" points="260.81,-86.11 263.04,-75.75 254.84,-82.46 260.81,-86.11"/>
</g>
<!-- Node11&#45;&gt;Node3 -->
<g id="edge16" class="edge">
<title>Node11&#45;&gt;Node3</title>
<path fill="none" stroke="midnightblue" d="M251.84,-56.32C235.39,-47.7 209.95,-34.36 190.92,-24.39"/>
<polygon fill="midnightblue" stroke="midnightblue" points="192.37,-21.2 181.89,-19.65 189.12,-27.4 192.37,-21.2"/>
</g>
<!-- Node11&#45;&gt;Node5 -->
<g id="edge14" class="edge">
<title>Node11&#45;&gt;Node5</title>
<path fill="none" stroke="midnightblue" d="M278.83,-56.32C288.53,-48.26 303.2,-36.08 314.88,-26.37"/>
<polygon fill="midnightblue" stroke="midnightblue" points="317.3,-28.92 322.75,-19.83 312.82,-23.53 317.3,-28.92"/>
</g>
<!-- Node11&#45;&gt;Node9 -->
<g id="edge15" class="edge">
<title>Node11&#45;&gt;Node9</title>
<path fill="none" stroke="midnightblue" d="M264.75,-56.08C261.77,-48.77 257.46,-38.18 253.76,-29.1"/>
<polygon fill="midnightblue" stroke="midnightblue" points="256.96,-27.69 249.95,-19.75 250.48,-30.33 256.96,-27.69"/>
</g>
</g>
</svg>
