<?xml version="1.0" encoding="UTF-8" standalone="no"?>
<!DOCTYPE svg PUBLIC "-//W3C//DTD SVG 1.1//EN"
 "http://www.w3.org/Graphics/SVG/1.1/DTD/svg11.dtd">
<!-- Generated by graphviz version 2.43.0 (0)
 -->
<!-- Title: SCOPE Pages: 1 -->
<svg width="625pt" height="152pt"
 viewBox="0.00 0.00 625.00 152.00" xmlns="http://www.w3.org/2000/svg" xmlns:xlink="http://www.w3.org/1999/xlink">
<g id="graph0" class="graph" transform="scale(1 1) rotate(0) translate(4 148)">
<title>SCOPE</title>
<polygon fill="white" stroke="transparent" points="-4,4 -4,-148 621,-148 621,4 -4,4"/>
<!-- Node1 -->
<g id="node1" class="node">
<title>Node1</title>
<g id="a_node1"><a xlink:title="Function for determining the depth of infestation.">
<polygon fill="#bfbfbf" stroke="black" points="568,-29.5 568,-48.5 617,-48.5 617,-29.5 568,-29.5"/>
<text text-anchor="middle" x="592.5" y="-36.5" font-family="Helvetica,sans-Serif" font-size="10.00">SCOPE</text>
</a>
</g>
</g>
<!-- Node2 -->
<g id="node2" class="node">
<title>Node2</title>
<g id="a_node2"><a xlink:href="syntactic__analysis_8c.html#a047deda12297b3a39f2d50261fd7de70" target="_top" xlink:title="Processes else condition.">
<polygon fill="white" stroke="black" points="467,-48.5 467,-67.5 532,-67.5 532,-48.5 467,-48.5"/>
<text text-anchor="middle" x="499.5" y="-55.5" font-family="Helvetica,sans-Serif" font-size="10.00">ELSE_DEF</text>
</a>
</g>
</g>
<!-- Node1&#45;&gt;Node2 -->
<g id="edge1" class="edge">
<title>Node1&#45;&gt;Node2</title>
<path fill="none" stroke="midnightblue" d="M557.73,-46.05C549.35,-47.8 540.4,-49.67 532.12,-51.4"/>
<polygon fill="midnightblue" stroke="midnightblue" points="558.52,-49.46 567.59,-43.99 557.09,-42.61 558.52,-49.46"/>
</g>
<!-- Node5 -->
<g id="node5" class="node">
<title>Node5</title>
<g id="a_node5"><a xlink:href="syntactic__analysis_8c.html#afb9892407a0399d61e51261ff730599a" target="_top" xlink:title="Processes function declaration.">
<polygon fill="white" stroke="black" points="172,-0.5 172,-19.5 227,-19.5 227,-0.5 172,-0.5"/>
<text text-anchor="middle" x="199.5" y="-7.5" font-family="Helvetica,sans-Serif" font-size="10.00">FN_DEF</text>
</a>
</g>
</g>
<!-- Node1&#45;&gt;Node5 -->
<g id="edge13" class="edge">
<title>Node1&#45;&gt;Node5</title>
<path fill="none" stroke="midnightblue" d="M557.99,-31.34C549.55,-29.66 540.47,-28.07 532,-27 419.36,-12.83 283.77,-10.4 227.26,-10.04"/>
<polygon fill="midnightblue" stroke="midnightblue" points="557.39,-34.79 567.89,-33.4 558.81,-27.94 557.39,-34.79"/>
</g>
<!-- Node8 -->
<g id="node8" class="node">
<title>Node8</title>
<g id="a_node8"><a xlink:href="syntactic__analysis_8c.html#af131918ae0d8a1cc29cb2c8d6dc13aff" target="_top" xlink:title="Extended function for CALL_DEF()">
<polygon fill="white" stroke="black" points="174.5,-48.5 174.5,-67.5 224.5,-67.5 224.5,-48.5 174.5,-48.5"/>
<text text-anchor="middle" x="199.5" y="-55.5" font-family="Helvetica,sans-Serif" font-size="10.00">IF_EXT</text>
</a>
</g>
</g>
<!-- Node1&#45;&gt;Node8 -->
<g id="edge14" class="edge">
<title>Node1&#45;&gt;Node8</title>
<path fill="none" stroke="midnightblue" d="M557.56,-36.13C498.99,-31.81 375.3,-25.51 272,-39 255.95,-41.1 238.38,-45.73 224.67,-49.9"/>
<polygon fill="midnightblue" stroke="midnightblue" points="557.48,-39.63 567.72,-36.91 558.01,-32.65 557.48,-39.63"/>
</g>
<!-- Node10 -->
<g id="node10" class="node">
<title>Node10</title>
<g id="a_node10"><a xlink:href="syntactic__analysis_8c.html#a13efec100d0c39c874c413765ded4d10" target="_top" xlink:title="Processes while loop.">
<polygon fill="white" stroke="black" points="163,-124.5 163,-143.5 236,-143.5 236,-124.5 163,-124.5"/>
<text text-anchor="middle" x="199.5" y="-131.5" font-family="Helvetica,sans-Serif" font-size="10.00">WHILE_DEF</text>
</a>
</g>
</g>
<!-- Node1&#45;&gt;Node10 -->
<g id="edge15" class="edge">
<title>Node1&#45;&gt;Node10</title>
<path fill="none" stroke="midnightblue" d="M569.75,-54.44C558.76,-61.84 545.02,-70.48 532,-77 445.63,-120.23 417.24,-120.89 321,-129 292.52,-131.4 260.15,-132.66 236.14,-133.32"/>
<polygon fill="midnightblue" stroke="midnightblue" points="572.01,-57.14 578.27,-48.59 568.04,-51.37 572.01,-57.14"/>
</g>
<!-- Node3 -->
<g id="node3" class="node">
<title>Node3</title>
<g id="a_node3"><a xlink:href="syntactic__analysis_8c.html#a7eac9e4351cf87fecd3e9a66cf5f28d8" target="_top" xlink:title="Processes the commands, coditions, ...">
<polygon fill="white" stroke="black" points="357,-86.5 357,-105.5 431,-105.5 431,-86.5 357,-86.5"/>
<text text-anchor="middle" x="394" y="-93.5" font-family="Helvetica,sans-Serif" font-size="10.00">STATEMENT</text>
</a>
</g>
</g>
<!-- Node2&#45;&gt;Node3 -->
<g id="edge2" class="edge">
<title>Node2&#45;&gt;Node3</title>
<path fill="none" stroke="midnightblue" d="M462.77,-71.12C449.08,-76.14 433.73,-81.78 421.11,-86.41"/>
<polygon fill="midnightblue" stroke="midnightblue" points="464.2,-74.32 472.38,-67.59 461.79,-67.75 464.2,-74.32"/>
</g>
<!-- Node4 -->
<g id="node4" class="node">
<title>Node4</title>
<g id="a_node4"><a xlink:href="syntactic__analysis_8c.html#a7d21e9db61747d6734d9a7f27d33b4f4" target="_top" xlink:title="Function for determining the depth of infestation.">
<polygon fill="white" stroke="black" points="272,-48.5 272,-67.5 321,-67.5 321,-48.5 272,-48.5"/>
<text text-anchor="middle" x="296.5" y="-55.5" font-family="Helvetica,sans-Serif" font-size="10.00">SCOPE</text>
</a>
</g>
</g>
<!-- Node3&#45;&gt;Node4 -->
<g id="edge3" class="edge">
<title>Node3&#45;&gt;Node4</title>
<path fill="none" stroke="midnightblue" d="M359.59,-82.71C346.95,-77.68 332.84,-72.06 321.26,-67.45"/>
<polygon fill="midnightblue" stroke="midnightblue" points="358.32,-85.97 368.9,-86.41 360.9,-79.46 358.32,-85.97"/>
</g>
<!-- Node4&#45;&gt;Node2 -->
<g id="edge4" class="edge">
<title>Node4&#45;&gt;Node2</title>
<path fill="none" stroke="midnightblue" d="M331.51,-58C369.28,-58 429.78,-58 466.65,-58"/>
<polygon fill="midnightblue" stroke="midnightblue" points="331.04,-54.5 321.04,-58 331.04,-61.5 331.04,-54.5"/>
</g>
<!-- Node4&#45;&gt;Node5 -->
<g id="edge5" class="edge">
<title>Node4&#45;&gt;Node5</title>
<path fill="none" stroke="midnightblue" d="M267.15,-43.68C251.71,-35.88 233.03,-26.43 219.37,-19.54"/>
<polygon fill="midnightblue" stroke="midnightblue" points="265.77,-46.9 276.28,-48.29 268.93,-40.65 265.77,-46.9"/>
</g>
<!-- Node4&#45;&gt;Node8 -->
<g id="edge8" class="edge">
<title>Node4&#45;&gt;Node8</title>
<path fill="none" stroke="midnightblue" d="M261.32,-58C249.23,-58 235.89,-58 224.8,-58"/>
<polygon fill="midnightblue" stroke="midnightblue" points="261.53,-61.5 271.53,-58 261.53,-54.5 261.53,-61.5"/>
</g>
<!-- Node4&#45;&gt;Node10 -->
<g id="edge11" class="edge">
<title>Node4&#45;&gt;Node10</title>
<path fill="none" stroke="midnightblue" d="M275.4,-74.08C256.31,-89.35 228.23,-111.82 212.43,-124.45"/>
<polygon fill="midnightblue" stroke="midnightblue" points="277.85,-76.61 283.47,-67.63 273.47,-71.14 277.85,-76.61"/>
</g>
<!-- Node6 -->
<g id="node6" class="node">
<title>Node6</title>
<g id="a_node6"><a xlink:href="syntactic__analysis_8c.html#a607ec0964227a0c6c98fd79770e51c11" target="_top" xlink:title="Processes the FIRST rule in the syntactic analysis.">
<polygon fill="white" stroke="black" points="80,-0.5 80,-19.5 124,-19.5 124,-0.5 80,-0.5"/>
<text text-anchor="middle" x="102" y="-7.5" font-family="Helvetica,sans-Serif" font-size="10.00">FIRST</text>
</a>
</g>
</g>
<!-- Node5&#45;&gt;Node6 -->
<g id="edge6" class="edge">
<title>Node5&#45;&gt;Node6</title>
<path fill="none" stroke="midnightblue" d="M161.55,-10C148.83,-10 135.03,-10 124.02,-10"/>
<polygon fill="midnightblue" stroke="midnightblue" points="161.9,-13.5 171.9,-10 161.9,-6.5 161.9,-13.5"/>
</g>
<!-- Node7 -->
<g id="node7" class="node">
<title>Node7</title>
<g id="a_node7"><a xlink:href="main_8c.html#a3c04138a5bfe5d72780bb7e82a18e627" target="_top" xlink:title=" ">
<polygon fill="white" stroke="black" points="0,-0.5 0,-19.5 41,-19.5 41,-0.5 0,-0.5"/>
<text text-anchor="middle" x="20.5" y="-7.5" font-family="Helvetica,sans-Serif" font-size="10.00">main</text>
</a>
</g>
</g>
<!-- Node6&#45;&gt;Node7 -->
<g id="edge7" class="edge">
<title>Node6&#45;&gt;Node7</title>
<path fill="none" stroke="midnightblue" d="M69.67,-10C60.08,-10 49.81,-10 41.23,-10"/>
<polygon fill="midnightblue" stroke="midnightblue" points="69.7,-13.5 79.7,-10 69.7,-6.5 69.7,-13.5"/>
</g>
<!-- Node9 -->
<g id="node9" class="node">
<title>Node9</title>
<g id="a_node9"><a xlink:href="syntactic__analysis_8c.html#ac9b33c13aa831335429748838739aef7" target="_top" xlink:title="Processes if condition.">
<polygon fill="white" stroke="black" points="77,-57.5 77,-76.5 127,-76.5 127,-57.5 77,-57.5"/>
<text text-anchor="middle" x="102" y="-64.5" font-family="Helvetica,sans-Serif" font-size="10.00">IF_DEF</text>
</a>
</g>
</g>
<!-- Node8&#45;&gt;Node9 -->
<g id="edge9" class="edge">
<title>Node8&#45;&gt;Node9</title>
<path fill="none" stroke="midnightblue" d="M164.42,-61.21C152.08,-62.37 138.4,-63.66 127.09,-64.73"/>
<polygon fill="midnightblue" stroke="midnightblue" points="164.77,-64.69 174.4,-60.27 164.12,-57.72 164.77,-64.69"/>
</g>
<!-- Node9&#45;&gt;Node3 -->
<g id="edge10" class="edge">
<title>Node9&#45;&gt;Node3</title>
<path fill="none" stroke="midnightblue" d="M137.09,-73.18C145.54,-74.58 154.58,-75.95 163,-77 231.19,-85.48 311.24,-91.13 356.65,-93.93"/>
<polygon fill="midnightblue" stroke="midnightblue" points="137.61,-69.72 127.16,-71.5 136.44,-76.62 137.61,-69.72"/>
</g>
<!-- Node10&#45;&gt;Node3 -->
<g id="edge12" class="edge">
<title>Node10&#45;&gt;Node3</title>
<path fill="none" stroke="midnightblue" d="M246.31,-124.96C280.12,-118.28 325.5,-109.32 356.79,-103.15"/>
<polygon fill="midnightblue" stroke="midnightblue" points="245.35,-121.58 236.22,-126.95 246.71,-128.45 245.35,-121.58"/>
</g>
</g>
</svg>
