<?xml version="1.0" encoding="UTF-8" standalone="no"?>
<!DOCTYPE svg PUBLIC "-//W3C//DTD SVG 1.1//EN"
 "http://www.w3.org/Graphics/SVG/1.1/DTD/svg11.dtd">
<!-- Generated by graphviz version 2.43.0 (0)
 -->
<!-- Title: CALL_EXT Pages: 1 -->
<svg width="261pt" height="66pt"
 viewBox="0.00 0.00 261.00 66.00" xmlns="http://www.w3.org/2000/svg" xmlns:xlink="http://www.w3.org/1999/xlink">
<g id="graph0" class="graph" transform="scale(1 1) rotate(0) translate(4 62)">
<title>CALL_EXT</title>
<polygon fill="white" stroke="transparent" points="-4,4 -4,-62 257,-62 257,4 -4,4"/>
<!-- Node1 -->
<g id="node1" class="node">
<title>Node1</title>
<g id="a_node1"><a xlink:title="Extended function for CALL_DEF()">
<polygon fill="#bfbfbf" stroke="black" points="0,-19.5 0,-38.5 65,-38.5 65,-19.5 0,-19.5"/>
<text text-anchor="middle" x="32.5" y="-26.5" font-family="Helvetica,sans-Serif" font-size="10.00">CALL_EXT</text>
</a>
</g>
</g>
<!-- Node2 -->
<g id="node2" class="node">
<title>Node2</title>
<g id="a_node2"><a xlink:href="syntactic__analysis_8c.html#a83f44b9d12d581ea924af4ba707819c3" target="_top" xlink:title="Function for processing argument of called function.">
<polygon fill="white" stroke="black" points="101,-38.5 101,-57.5 139,-57.5 139,-38.5 101,-38.5"/>
<text text-anchor="middle" x="120" y="-45.5" font-family="Helvetica,sans-Serif" font-size="10.00">ARG</text>
</a>
</g>
</g>
<!-- Node1&#45;&gt;Node2 -->
<g id="edge1" class="edge">
<title>Node1&#45;&gt;Node2</title>
<path fill="none" stroke="midnightblue" d="M65.34,-36.07C73.75,-37.94 82.77,-39.95 90.96,-41.77"/>
<polygon fill="midnightblue" stroke="midnightblue" points="90.27,-45.2 100.8,-43.95 91.79,-38.37 90.27,-45.2"/>
</g>
<!-- Node4 -->
<g id="node4" class="node">
<title>Node4</title>
<g id="a_node4"><a xlink:href="syntactic__analysis_8c.html#a38b7a13b9a5926c2c4b6af62cec86f85" target="_top" xlink:title="Function for processing another argument which is in queue.">
<polygon fill="white" stroke="black" points="175,-0.5 175,-19.5 253,-19.5 253,-0.5 175,-0.5"/>
<text text-anchor="middle" x="214" y="-7.5" font-family="Helvetica,sans-Serif" font-size="10.00">EXPRESSION</text>
</a>
</g>
</g>
<!-- Node1&#45;&gt;Node4 -->
<g id="edge5" class="edge">
<title>Node1&#45;&gt;Node4</title>
<path fill="none" stroke="midnightblue" d="M65.18,-25.65C92.67,-22.74 132.89,-18.48 164.44,-15.14"/>
<polygon fill="midnightblue" stroke="midnightblue" points="165.21,-18.58 174.78,-14.05 164.47,-11.62 165.21,-18.58"/>
</g>
<!-- Node3 -->
<g id="node3" class="node">
<title>Node3</title>
<g id="a_node3"><a xlink:href="syntactic__analysis_8c.html#a271ef1f0dc6a029b233bcb024b19b116" target="_top" xlink:title="Function for processing another argument which is in queue.">
<polygon fill="white" stroke="black" points="192,-38.5 192,-57.5 236,-57.5 236,-38.5 192,-38.5"/>
<text text-anchor="middle" x="214" y="-45.5" font-family="Helvetica,sans-Serif" font-size="10.00">ARGS</text>
</a>
</g>
</g>
<!-- Node2&#45;&gt;Node3 -->
<g id="edge2" class="edge">
<title>Node2&#45;&gt;Node3</title>
<path fill="none" stroke="midnightblue" d="M139.18,-42.5C151.28,-41.25 167.49,-40.94 181.65,-41.56"/>
<polygon fill="midnightblue" stroke="midnightblue" points="181.76,-45.08 191.96,-42.23 182.21,-38.09 181.76,-45.08"/>
</g>
<!-- Node2&#45;&gt;Node4 -->
<g id="edge4" class="edge">
<title>Node2&#45;&gt;Node4</title>
<path fill="none" stroke="midnightblue" d="M139.18,-40.49C151,-35.61 166.76,-29.1 180.68,-23.35"/>
<polygon fill="midnightblue" stroke="midnightblue" points="182.05,-26.57 189.96,-19.52 179.38,-20.1 182.05,-26.57"/>
</g>
<!-- Node3&#45;&gt;Node2 -->
<g id="edge3" class="edge">
<title>Node3&#45;&gt;Node2</title>
<path fill="none" stroke="midnightblue" d="M191.96,-53.77C179.39,-54.87 163.25,-55.04 149.54,-54.3"/>
<polygon fill="midnightblue" stroke="midnightblue" points="149.41,-50.78 139.18,-53.5 148.88,-57.76 149.41,-50.78"/>
</g>
</g>
</svg>
