<?xml version="1.0" encoding="UTF-8" standalone="no"?>
<!DOCTYPE svg PUBLIC "-//W3C//DTD SVG 1.1//EN"
 "http://www.w3.org/Graphics/SVG/1.1/DTD/svg11.dtd">
<!-- Generated by graphviz version 2.43.0 (0)
 -->
<!-- Title: IF_DEF Pages: 1 -->
<svg width="792pt" height="284pt"
 viewBox="0.00 0.00 792.00 284.00" xmlns="http://www.w3.org/2000/svg" xmlns:xlink="http://www.w3.org/1999/xlink">
<g id="graph0" class="graph" transform="scale(1 1) rotate(0) translate(4 280)">
<title>IF_DEF</title>
<polygon fill="white" stroke="transparent" points="-4,4 -4,-280 788,-280 788,4 -4,4"/>
<!-- Node1 -->
<g id="node1" class="node">
<title>Node1</title>
<g id="a_node1"><a xlink:title="Processes if condition.">
<polygon fill="#bfbfbf" stroke="black" points="0,-190.5 0,-209.5 50,-209.5 50,-190.5 0,-190.5"/>
<text text-anchor="middle" x="25" y="-197.5" font-family="Helvetica,sans-Serif" font-size="10.00">IF_DEF</text>
</a>
</g>
</g>
<!-- Node2 -->
<g id="node2" class="node">
<title>Node2</title>
<g id="a_node2"><a xlink:href="syntactic__analysis_8c.html#a38b7a13b9a5926c2c4b6af62cec86f85" target="_top" xlink:title="Function for processing another argument which is in queue.">
<polygon fill="white" stroke="black" points="706,-114.5 706,-133.5 784,-133.5 784,-114.5 706,-114.5"/>
<text text-anchor="middle" x="745" y="-121.5" font-family="Helvetica,sans-Serif" font-size="10.00">EXPRESSION</text>
</a>
</g>
</g>
<!-- Node1&#45;&gt;Node2 -->
<g id="edge1" class="edge">
<title>Node1&#45;&gt;Node2</title>
<path fill="none" stroke="midnightblue" d="M37.92,-209.63C64.5,-230.08 131.32,-276 195.5,-276 195.5,-276 195.5,-276 525,-276 593.46,-276 615.05,-264.83 670,-224 699.47,-202.11 722.42,-165.2 734.53,-142.87"/>
<polygon fill="midnightblue" stroke="midnightblue" points="737.77,-144.23 739.31,-133.74 731.57,-140.98 737.77,-144.23"/>
</g>
<!-- Node3 -->
<g id="node3" class="node">
<title>Node3</title>
<g id="a_node3"><a xlink:href="syntactic__analysis_8c.html#af131918ae0d8a1cc29cb2c8d6dc13aff" target="_top" xlink:title="Extended function for CALL_DEF()">
<polygon fill="white" stroke="black" points="86,-190.5 86,-209.5 136,-209.5 136,-190.5 86,-190.5"/>
<text text-anchor="middle" x="111" y="-197.5" font-family="Helvetica,sans-Serif" font-size="10.00">IF_EXT</text>
</a>
</g>
</g>
<!-- Node1&#45;&gt;Node3 -->
<g id="edge2" class="edge">
<title>Node1&#45;&gt;Node3</title>
<path fill="none" stroke="midnightblue" d="M50.3,-200C58.22,-200 67.17,-200 75.69,-200"/>
<polygon fill="midnightblue" stroke="midnightblue" points="75.76,-203.5 85.76,-200 75.76,-196.5 75.76,-203.5"/>
</g>
<!-- Node4 -->
<g id="node4" class="node">
<title>Node4</title>
<g id="a_node4"><a xlink:href="syntactic__analysis_8c.html#a7d21e9db61747d6734d9a7f27d33b4f4" target="_top" xlink:title="Function for determining the depth of infestation.">
<polygon fill="white" stroke="black" points="172,-190.5 172,-209.5 221,-209.5 221,-190.5 172,-190.5"/>
<text text-anchor="middle" x="196.5" y="-197.5" font-family="Helvetica,sans-Serif" font-size="10.00">SCOPE</text>
</a>
</g>
</g>
<!-- Node3&#45;&gt;Node4 -->
<g id="edge3" class="edge">
<title>Node3&#45;&gt;Node4</title>
<path fill="none" stroke="midnightblue" d="M136.15,-200C144.16,-200 153.24,-200 161.83,-200"/>
<polygon fill="midnightblue" stroke="midnightblue" points="161.98,-203.5 171.98,-200 161.98,-196.5 161.98,-203.5"/>
</g>
<!-- Node5 -->
<g id="node5" class="node">
<title>Node5</title>
<g id="a_node5"><a xlink:href="syntactic__analysis_8c.html#a7eac9e4351cf87fecd3e9a66cf5f28d8" target="_top" xlink:title="Processes the commands, coditions, ...">
<polygon fill="white" stroke="black" points="257,-152.5 257,-171.5 331,-171.5 331,-152.5 257,-152.5"/>
<text text-anchor="middle" x="294" y="-159.5" font-family="Helvetica,sans-Serif" font-size="10.00">STATEMENT</text>
</a>
</g>
</g>
<!-- Node4&#45;&gt;Node5 -->
<g id="edge4" class="edge">
<title>Node4&#45;&gt;Node5</title>
<path fill="none" stroke="midnightblue" d="M221.11,-190.61C232.73,-185.98 246.94,-180.33 259.64,-175.27"/>
<polygon fill="midnightblue" stroke="midnightblue" points="261,-178.5 269,-171.55 258.42,-171.99 261,-178.5"/>
</g>
<!-- Node5&#45;&gt;Node1 -->
<g id="edge17" class="edge">
<title>Node5&#45;&gt;Node1</title>
<path fill="none" stroke="midnightblue" d="M256.76,-162.97C215.17,-164.63 145.08,-169.08 86,-181 77.38,-182.74 68.25,-185.26 59.78,-187.91"/>
<polygon fill="midnightblue" stroke="midnightblue" points="58.63,-184.6 50.21,-191.03 60.8,-191.25 58.63,-184.6"/>
</g>
<!-- Node6 -->
<g id="node6" class="node">
<title>Node6</title>
<g id="a_node6"><a xlink:href="syntactic__analysis_8c.html#a2999c303cc3fb4692b7e96d9a22e9c03" target="_top" xlink:title="Processes calling functions, variables.">
<polygon fill="white" stroke="black" points="372,-38.5 372,-57.5 437,-57.5 437,-38.5 372,-38.5"/>
<text text-anchor="middle" x="404.5" y="-45.5" font-family="Helvetica,sans-Serif" font-size="10.00">CALL_DEF</text>
</a>
</g>
</g>
<!-- Node5&#45;&gt;Node6 -->
<g id="edge5" class="edge">
<title>Node5&#45;&gt;Node6</title>
<path fill="none" stroke="midnightblue" d="M301.29,-152.24C312.85,-134.78 338.9,-97.6 367,-72 370.37,-68.93 374.17,-65.98 378.01,-63.26"/>
<polygon fill="midnightblue" stroke="midnightblue" points="379.96,-66.17 386.34,-57.72 376.08,-60.34 379.96,-66.17"/>
</g>
<!-- Node10 -->
<g id="node10" class="node">
<title>Node10</title>
<g id="a_node10"><a xlink:href="syntactic__analysis_8c.html#ab1c09d376532dc76198f8d2d6c729fef" target="_top" xlink:title="Processes command for constant declaration.">
<polygon fill="white" stroke="black" points="367,-152.5 367,-171.5 442,-171.5 442,-152.5 367,-152.5"/>
<text text-anchor="middle" x="404.5" y="-159.5" font-family="Helvetica,sans-Serif" font-size="10.00">CONST_DEF</text>
</a>
</g>
</g>
<!-- Node5&#45;&gt;Node10 -->
<g id="edge12" class="edge">
<title>Node5&#45;&gt;Node10</title>
<path fill="none" stroke="midnightblue" d="M331.13,-162C339.28,-162 348.05,-162 356.57,-162"/>
<polygon fill="midnightblue" stroke="midnightblue" points="356.79,-165.5 366.79,-162 356.79,-158.5 356.79,-165.5"/>
</g>
<!-- Node12 -->
<g id="node12" class="node">
<title>Node12</title>
<g id="a_node12"><a xlink:href="syntactic__analysis_8c.html#a047deda12297b3a39f2d50261fd7de70" target="_top" xlink:title="Processes else condition.">
<polygon fill="white" stroke="black" points="372,-190.5 372,-209.5 437,-209.5 437,-190.5 372,-190.5"/>
<text text-anchor="middle" x="404.5" y="-197.5" font-family="Helvetica,sans-Serif" font-size="10.00">ELSE_DEF</text>
</a>
</g>
</g>
<!-- Node5&#45;&gt;Node12 -->
<g id="edge15" class="edge">
<title>Node5&#45;&gt;Node12</title>
<path fill="none" stroke="midnightblue" d="M322.38,-171.59C335.74,-176.27 352.02,-181.97 366.47,-187.03"/>
<polygon fill="midnightblue" stroke="midnightblue" points="365.53,-190.41 376.13,-190.41 367.85,-183.81 365.53,-190.41"/>
</g>
<!-- Node13 -->
<g id="node13" class="node">
<title>Node13</title>
<g id="a_node13"><a xlink:href="syntactic__analysis_8c.html#a1012bbb9f570627aabec5e3eda7c4993" target="_top" xlink:title="Processes return command.">
<polygon fill="white" stroke="black" points="608,-76.5 608,-95.5 668,-95.5 668,-76.5 608,-76.5"/>
<text text-anchor="middle" x="638" y="-83.5" font-family="Helvetica,sans-Serif" font-size="10.00">RET_DEF</text>
</a>
</g>
</g>
<!-- Node5&#45;&gt;Node13 -->
<g id="edge18" class="edge">
<title>Node5&#45;&gt;Node13</title>
<path fill="none" stroke="midnightblue" d="M303.61,-152.21C316.07,-138.81 340.54,-115.26 367,-105 444.42,-74.97 543.62,-77.35 597.63,-81.7"/>
<polygon fill="midnightblue" stroke="midnightblue" points="597.54,-85.2 607.81,-82.59 598.15,-78.23 597.54,-85.2"/>
</g>
<!-- Node14 -->
<g id="node14" class="node">
<title>Node14</title>
<g id="a_node14"><a xlink:href="syntactic__analysis_8c.html#a49c6186e8aee36246b52305756b7a017" target="_top" xlink:title="Processes command for variable declaration.">
<polygon fill="white" stroke="black" points="374,-114.5 374,-133.5 435,-133.5 435,-114.5 374,-114.5"/>
<text text-anchor="middle" x="404.5" y="-121.5" font-family="Helvetica,sans-Serif" font-size="10.00">VAR_DEF</text>
</a>
</g>
</g>
<!-- Node5&#45;&gt;Node14 -->
<g id="edge20" class="edge">
<title>Node5&#45;&gt;Node14</title>
<path fill="none" stroke="midnightblue" d="M322.38,-152.41C335.74,-147.73 352.02,-142.03 366.47,-136.97"/>
<polygon fill="midnightblue" stroke="midnightblue" points="367.85,-140.19 376.13,-133.59 365.53,-133.59 367.85,-140.19"/>
</g>
<!-- Node17 -->
<g id="node17" class="node">
<title>Node17</title>
<g id="a_node17"><a xlink:href="syntactic__analysis_8c.html#a13efec100d0c39c874c413765ded4d10" target="_top" xlink:title="Processes while loop.">
<polygon fill="white" stroke="black" points="368,-228.5 368,-247.5 441,-247.5 441,-228.5 368,-228.5"/>
<text text-anchor="middle" x="404.5" y="-235.5" font-family="Helvetica,sans-Serif" font-size="10.00">WHILE_DEF</text>
</a>
</g>
</g>
<!-- Node5&#45;&gt;Node17 -->
<g id="edge24" class="edge">
<title>Node5&#45;&gt;Node17</title>
<path fill="none" stroke="midnightblue" d="M305.73,-171.57C319.39,-183.49 343.98,-204.09 367,-219 369.42,-220.57 371.98,-222.11 374.58,-223.6"/>
<polygon fill="midnightblue" stroke="midnightblue" points="372.96,-226.7 383.41,-228.41 376.3,-220.55 372.96,-226.7"/>
</g>
<!-- Node7 -->
<g id="node7" class="node">
<title>Node7</title>
<g id="a_node7"><a xlink:href="syntactic__analysis_8c.html#ade39708cf9c0a95b1e75a94b3982f1aa" target="_top" xlink:title="Extended function for CALL_DEF()">
<polygon fill="white" stroke="black" points="491.5,-38.5 491.5,-57.5 556.5,-57.5 556.5,-38.5 491.5,-38.5"/>
<text text-anchor="middle" x="524" y="-45.5" font-family="Helvetica,sans-Serif" font-size="10.00">CALL_EXT</text>
</a>
</g>
</g>
<!-- Node6&#45;&gt;Node7 -->
<g id="edge6" class="edge">
<title>Node6&#45;&gt;Node7</title>
<path fill="none" stroke="midnightblue" d="M437.3,-48C450.75,-48 466.61,-48 481.01,-48"/>
<polygon fill="midnightblue" stroke="midnightblue" points="481.18,-51.5 491.18,-48 481.18,-44.5 481.18,-51.5"/>
</g>
<!-- Node7&#45;&gt;Node2 -->
<g id="edge11" class="edge">
<title>Node7&#45;&gt;Node2</title>
<path fill="none" stroke="midnightblue" d="M556.76,-47.47C586.99,-48.04 633.18,-51.72 670,-67 692.29,-76.25 713.67,-94 727.66,-107.25"/>
<polygon fill="midnightblue" stroke="midnightblue" points="725.41,-109.94 735,-114.43 730.3,-104.94 725.41,-109.94"/>
</g>
<!-- Node8 -->
<g id="node8" class="node">
<title>Node8</title>
<g id="a_node8"><a xlink:href="syntactic__analysis_8c.html#a83f44b9d12d581ea924af4ba707819c3" target="_top" xlink:title="Function for processing argument of called function.">
<polygon fill="white" stroke="black" points="619,-0.5 619,-19.5 657,-19.5 657,-0.5 619,-0.5"/>
<text text-anchor="middle" x="638" y="-7.5" font-family="Helvetica,sans-Serif" font-size="10.00">ARG</text>
</a>
</g>
</g>
<!-- Node7&#45;&gt;Node8 -->
<g id="edge7" class="edge">
<title>Node7&#45;&gt;Node8</title>
<path fill="none" stroke="midnightblue" d="M553.26,-38.41C570.33,-32.62 591.99,-25.27 609.01,-19.5"/>
<polygon fill="midnightblue" stroke="midnightblue" points="610.57,-22.66 618.92,-16.13 608.33,-16.03 610.57,-22.66"/>
</g>
<!-- Node8&#45;&gt;Node2 -->
<g id="edge10" class="edge">
<title>Node8&#45;&gt;Node2</title>
<path fill="none" stroke="midnightblue" d="M652.82,-19.65C658.39,-23.81 664.73,-28.88 670,-34 693.7,-57.01 717.27,-87.28 731.24,-106.19"/>
<polygon fill="midnightblue" stroke="midnightblue" points="728.56,-108.46 737.28,-114.48 734.21,-104.34 728.56,-108.46"/>
</g>
<!-- Node9 -->
<g id="node9" class="node">
<title>Node9</title>
<g id="a_node9"><a xlink:href="syntactic__analysis_8c.html#a271ef1f0dc6a029b233bcb024b19b116" target="_top" xlink:title="Function for processing another argument which is in queue.">
<polygon fill="white" stroke="black" points="723,-0.5 723,-19.5 767,-19.5 767,-0.5 723,-0.5"/>
<text text-anchor="middle" x="745" y="-7.5" font-family="Helvetica,sans-Serif" font-size="10.00">ARGS</text>
</a>
</g>
</g>
<!-- Node8&#45;&gt;Node9 -->
<g id="edge8" class="edge">
<title>Node8&#45;&gt;Node9</title>
<path fill="none" stroke="midnightblue" d="M657.29,-4.73C672.52,-3.17 694.54,-2.84 712.58,-3.76"/>
<polygon fill="midnightblue" stroke="midnightblue" points="712.45,-7.26 722.66,-4.44 712.92,-0.27 712.45,-7.26"/>
</g>
<!-- Node9&#45;&gt;Node8 -->
<g id="edge9" class="edge">
<title>Node9&#45;&gt;Node8</title>
<path fill="none" stroke="midnightblue" d="M722.66,-15.56C706.75,-16.95 684.85,-17.12 667.45,-16.08"/>
<polygon fill="midnightblue" stroke="midnightblue" points="667.54,-12.57 657.29,-15.27 666.98,-19.55 667.54,-12.57"/>
</g>
<!-- Node11 -->
<g id="node11" class="node">
<title>Node11</title>
<g id="a_node11"><a xlink:href="syntactic__analysis_8c.html#aa1d8bc4c3095f3ba13e1fcc83038d948" target="_top" xlink:title="Processes assigning expresions to the constant.">
<polygon fill="white" stroke="black" points="478,-171.5 478,-190.5 570,-190.5 570,-171.5 478,-171.5"/>
<text text-anchor="middle" x="524" y="-178.5" font-family="Helvetica,sans-Serif" font-size="10.00">ASSIGN_CONST</text>
</a>
</g>
</g>
<!-- Node10&#45;&gt;Node11 -->
<g id="edge13" class="edge">
<title>Node10&#45;&gt;Node11</title>
<path fill="none" stroke="midnightblue" d="M442.03,-167.91C450.17,-169.22 458.97,-170.65 467.67,-172.05"/>
<polygon fill="midnightblue" stroke="midnightblue" points="467.36,-175.55 477.79,-173.69 468.48,-168.64 467.36,-175.55"/>
</g>
<!-- Node11&#45;&gt;Node2 -->
<g id="edge14" class="edge">
<title>Node11&#45;&gt;Node2</title>
<path fill="none" stroke="midnightblue" d="M570.32,-188.37C599.55,-191.36 637.95,-191.91 670,-181 693.1,-173.14 714.61,-154.82 728.42,-141.06"/>
<polygon fill="midnightblue" stroke="midnightblue" points="731.19,-143.23 735.61,-133.6 726.15,-138.37 731.19,-143.23"/>
</g>
<!-- Node12&#45;&gt;Node4 -->
<g id="edge16" class="edge">
<title>Node12&#45;&gt;Node4</title>
<path fill="none" stroke="midnightblue" d="M371.75,-200C333.74,-200 270.37,-200 231.42,-200"/>
<polygon fill="midnightblue" stroke="midnightblue" points="231.13,-196.5 221.13,-200 231.13,-203.5 231.13,-196.5"/>
</g>
<!-- Node13&#45;&gt;Node2 -->
<g id="edge19" class="edge">
<title>Node13&#45;&gt;Node2</title>
<path fill="none" stroke="midnightblue" d="M665.5,-95.59C678.3,-100.22 693.88,-105.86 707.76,-110.89"/>
<polygon fill="midnightblue" stroke="midnightblue" points="706.92,-114.3 717.51,-114.41 709.3,-107.72 706.92,-114.3"/>
</g>
<!-- Node15 -->
<g id="node15" class="node">
<title>Node15</title>
<g id="a_node15"><a xlink:href="syntactic__analysis_8c.html#a76e0ba812902123b4ec0d43c59c13c04" target="_top" xlink:title="Processes assigning expresions to the variable.">
<polygon fill="white" stroke="black" points="485,-114.5 485,-133.5 563,-133.5 563,-114.5 485,-114.5"/>
<text text-anchor="middle" x="524" y="-121.5" font-family="Helvetica,sans-Serif" font-size="10.00">ASSIGN_VAR</text>
</a>
</g>
</g>
<!-- Node14&#45;&gt;Node15 -->
<g id="edge21" class="edge">
<title>Node14&#45;&gt;Node15</title>
<path fill="none" stroke="midnightblue" d="M435.15,-124C447.18,-124 461.38,-124 474.82,-124"/>
<polygon fill="midnightblue" stroke="midnightblue" points="474.9,-127.5 484.9,-124 474.9,-120.5 474.9,-127.5"/>
</g>
<!-- Node15&#45;&gt;Node2 -->
<g id="edge22" class="edge">
<title>Node15&#45;&gt;Node2</title>
<path fill="none" stroke="midnightblue" d="M563.15,-124C600.01,-124 655.99,-124 695.89,-124"/>
<polygon fill="midnightblue" stroke="midnightblue" points="695.92,-127.5 705.92,-124 695.92,-120.5 695.92,-127.5"/>
</g>
<!-- Node16 -->
<g id="node16" class="node">
<title>Node16</title>
<g id="a_node16"><a xlink:href="syntactic__analysis_8c.html#aaef2bee27144c07c175bb36e4c28af9d" target="_top" xlink:title="Function for verifaction enabled data types (DATA TYPES)">
<polygon fill="white" stroke="black" points="606,-152.5 606,-171.5 670,-171.5 670,-152.5 606,-152.5"/>
<text text-anchor="middle" x="638" y="-159.5" font-family="Helvetica,sans-Serif" font-size="10.00">VAL_TYPE</text>
</a>
</g>
</g>
<!-- Node15&#45;&gt;Node16 -->
<g id="edge23" class="edge">
<title>Node15&#45;&gt;Node16</title>
<path fill="none" stroke="midnightblue" d="M553.26,-133.59C567.19,-138.31 584.18,-144.08 599.21,-149.18"/>
<polygon fill="midnightblue" stroke="midnightblue" points="598.15,-152.52 608.75,-152.41 600.4,-145.89 598.15,-152.52"/>
</g>
<!-- Node17&#45;&gt;Node2 -->
<g id="edge25" class="edge">
<title>Node17&#45;&gt;Node2</title>
<path fill="none" stroke="midnightblue" d="M441.01,-239.7C493.87,-240.76 595.07,-236.99 670,-199 696.26,-185.69 718.75,-159.47 731.83,-141.84"/>
<polygon fill="midnightblue" stroke="midnightblue" points="734.81,-143.68 737.78,-133.51 729.12,-139.61 734.81,-143.68"/>
</g>
<!-- Node17&#45;&gt;Node4 -->
<g id="edge26" class="edge">
<title>Node17&#45;&gt;Node4</title>
<path fill="none" stroke="midnightblue" d="M367.85,-232.86C338.11,-228.41 294.66,-221.51 257,-214 248.57,-212.32 239.51,-210.3 231.07,-208.32"/>
<polygon fill="midnightblue" stroke="midnightblue" points="231.7,-204.88 221.16,-205.96 230.08,-211.69 231.7,-204.88"/>
</g>
</g>
</svg>
