<?xml version="1.0" encoding="UTF-8" standalone="no"?>
<!DOCTYPE svg PUBLIC "-//W3C//DTD SVG 1.1//EN"
 "http://www.w3.org/Graphics/SVG/1.1/DTD/svg11.dtd">
<!-- Generated by graphviz version 2.43.0 (0)
 -->
<!-- Title: FIRST Pages: 1 -->
<svg width="807pt" height="370pt"
 viewBox="0.00 0.00 807.00 370.00" xmlns="http://www.w3.org/2000/svg" xmlns:xlink="http://www.w3.org/1999/xlink">
<g id="graph0" class="graph" transform="scale(1 1) rotate(0) translate(4 366)">
<title>FIRST</title>
<polygon fill="white" stroke="transparent" points="-4,4 -4,-366 803,-366 803,4 -4,4"/>
<!-- Node1 -->
<g id="node1" class="node">
<title>Node1</title>
<g id="a_node1"><a xlink:title="Processes the FIRST rule in the syntactic analysis.">
<polygon fill="#bfbfbf" stroke="black" points="0,-266.5 0,-285.5 44,-285.5 44,-266.5 0,-266.5"/>
<text text-anchor="middle" x="22" y="-273.5" font-family="Helvetica,sans-Serif" font-size="10.00">FIRST</text>
</a>
</g>
</g>
<!-- Node2 -->
<g id="node2" class="node">
<title>Node2</title>
<g id="a_node2"><a xlink:href="syntactic__analysis_8c.html#ab1c09d376532dc76198f8d2d6c729fef" target="_top" xlink:title="Processes command for constant declaration.">
<polygon fill="white" stroke="black" points="368,-0.5 368,-19.5 443,-19.5 443,-0.5 368,-0.5"/>
<text text-anchor="middle" x="405.5" y="-7.5" font-family="Helvetica,sans-Serif" font-size="10.00">CONST_DEF</text>
</a>
</g>
</g>
<!-- Node1&#45;&gt;Node2 -->
<g id="edge1" class="edge">
<title>Node1&#45;&gt;Node2</title>
<path fill="none" stroke="midnightblue" d="M31.89,-266.09C61.23,-233.89 158.8,-130.86 258,-71 292.01,-50.47 334.19,-33.72 364.54,-23"/>
<polygon fill="midnightblue" stroke="midnightblue" points="366.05,-26.18 374.35,-19.6 363.76,-19.56 366.05,-26.18"/>
</g>
<!-- Node5 -->
<g id="node5" class="node">
<title>Node5</title>
<g id="a_node5"><a xlink:href="syntactic__analysis_8c.html#afb9892407a0399d61e51261ff730599a" target="_top" xlink:title="Processes function declaration.">
<polygon fill="white" stroke="black" points="80,-304.5 80,-323.5 135,-323.5 135,-304.5 80,-304.5"/>
<text text-anchor="middle" x="107.5" y="-311.5" font-family="Helvetica,sans-Serif" font-size="10.00">FN_DEF</text>
</a>
</g>
</g>
<!-- Node1&#45;&gt;Node5 -->
<g id="edge4" class="edge">
<title>Node1&#45;&gt;Node5</title>
<path fill="none" stroke="midnightblue" d="M44.07,-285.59C53.76,-290 65.44,-295.31 76.06,-300.15"/>
<polygon fill="midnightblue" stroke="midnightblue" points="74.88,-303.46 85.44,-304.41 77.78,-297.09 74.88,-303.46"/>
</g>
<!-- Node19 -->
<g id="node19" class="node">
<title>Node19</title>
<g id="a_node19"><a xlink:href="syntactic__analysis_8c.html#a49c6186e8aee36246b52305756b7a017" target="_top" xlink:title="Processes command for variable declaration.">
<polygon fill="white" stroke="black" points="375,-266.5 375,-285.5 436,-285.5 436,-266.5 375,-266.5"/>
<text text-anchor="middle" x="405.5" y="-273.5" font-family="Helvetica,sans-Serif" font-size="10.00">VAR_DEF</text>
</a>
</g>
</g>
<!-- Node1&#45;&gt;Node19 -->
<g id="edge34" class="edge">
<title>Node1&#45;&gt;Node19</title>
<path fill="none" stroke="midnightblue" d="M44.05,-276C105.35,-276 284.39,-276 364.71,-276"/>
<polygon fill="midnightblue" stroke="midnightblue" points="364.91,-279.5 374.91,-276 364.91,-272.5 364.91,-279.5"/>
</g>
<!-- Node3 -->
<g id="node3" class="node">
<title>Node3</title>
<g id="a_node3"><a xlink:href="syntactic__analysis_8c.html#aa1d8bc4c3095f3ba13e1fcc83038d948" target="_top" xlink:title="Processes assigning expresions to the constant.">
<polygon fill="white" stroke="black" points="593,-57.5 593,-76.5 685,-76.5 685,-57.5 593,-57.5"/>
<text text-anchor="middle" x="639" y="-64.5" font-family="Helvetica,sans-Serif" font-size="10.00">ASSIGN_CONST</text>
</a>
</g>
</g>
<!-- Node2&#45;&gt;Node3 -->
<g id="edge2" class="edge">
<title>Node2&#45;&gt;Node3</title>
<path fill="none" stroke="midnightblue" d="M443.18,-19.03C482.69,-28.76 545.73,-44.28 589.35,-55.02"/>
<polygon fill="midnightblue" stroke="midnightblue" points="588.63,-58.45 599.17,-57.44 590.3,-51.65 588.63,-58.45"/>
</g>
<!-- Node4 -->
<g id="node4" class="node">
<title>Node4</title>
<g id="a_node4"><a xlink:href="syntactic__analysis_8c.html#a38b7a13b9a5926c2c4b6af62cec86f85" target="_top" xlink:title="Function for processing another argument which is in queue.">
<polygon fill="white" stroke="black" points="721,-190.5 721,-209.5 799,-209.5 799,-190.5 721,-190.5"/>
<text text-anchor="middle" x="760" y="-197.5" font-family="Helvetica,sans-Serif" font-size="10.00">EXPRESSION</text>
</a>
</g>
</g>
<!-- Node3&#45;&gt;Node4 -->
<g id="edge3" class="edge">
<title>Node3&#45;&gt;Node4</title>
<path fill="none" stroke="midnightblue" d="M652.84,-76.67C662.19,-83.99 674.94,-94.53 685,-105 708.89,-129.85 732.7,-162.1 746.63,-181.91"/>
<polygon fill="midnightblue" stroke="midnightblue" points="743.88,-184.09 752.46,-190.3 749.63,-180.09 743.88,-184.09"/>
</g>
<!-- Node6 -->
<g id="node6" class="node">
<title>Node6</title>
<g id="a_node6"><a xlink:href="syntactic__analysis_8c.html#aef5821c4ef2e8e26c864efa3564244f6" target="_top" xlink:title="Function for verifaction enabled data types (FUNCTIONS)">
<polygon fill="white" stroke="black" points="265.5,-304.5 265.5,-323.5 324.5,-323.5 324.5,-304.5 265.5,-304.5"/>
<text text-anchor="middle" x="295" y="-311.5" font-family="Helvetica,sans-Serif" font-size="10.00">FN_TYPE</text>
</a>
</g>
</g>
<!-- Node5&#45;&gt;Node6 -->
<g id="edge5" class="edge">
<title>Node5&#45;&gt;Node6</title>
<path fill="none" stroke="midnightblue" d="M135.08,-314C166.53,-314 219.18,-314 255.2,-314"/>
<polygon fill="midnightblue" stroke="midnightblue" points="255.34,-317.5 265.34,-314 255.34,-310.5 255.34,-317.5"/>
</g>
<!-- Node8 -->
<g id="node8" class="node">
<title>Node8</title>
<g id="a_node8"><a xlink:href="syntactic__analysis_8c.html#acb21f12318c9d312a452616eb6c7262d" target="_top" xlink:title="Function for processing parameters of declaraced function.">
<polygon fill="white" stroke="black" points="171,-342.5 171,-361.5 222,-361.5 222,-342.5 171,-342.5"/>
<text text-anchor="middle" x="196.5" y="-349.5" font-family="Helvetica,sans-Serif" font-size="10.00">PARAM</text>
</a>
</g>
</g>
<!-- Node5&#45;&gt;Node8 -->
<g id="edge7" class="edge">
<title>Node5&#45;&gt;Node8</title>
<path fill="none" stroke="midnightblue" d="M130.45,-323.59C140.65,-328.04 152.97,-333.42 164.13,-338.3"/>
<polygon fill="midnightblue" stroke="midnightblue" points="162.99,-341.62 173.55,-342.41 165.79,-335.2 162.99,-341.62"/>
</g>
<!-- Node9 -->
<g id="node9" class="node">
<title>Node9</title>
<g id="a_node9"><a xlink:href="syntactic__analysis_8c.html#a7d21e9db61747d6734d9a7f27d33b4f4" target="_top" xlink:title="Function for determining the depth of infestation.">
<polygon fill="white" stroke="black" points="172,-152.5 172,-171.5 221,-171.5 221,-152.5 172,-152.5"/>
<text text-anchor="middle" x="196.5" y="-159.5" font-family="Helvetica,sans-Serif" font-size="10.00">SCOPE</text>
</a>
</g>
</g>
<!-- Node5&#45;&gt;Node9 -->
<g id="edge9" class="edge">
<title>Node5&#45;&gt;Node9</title>
<path fill="none" stroke="midnightblue" d="M113.94,-304.49C128.1,-279.75 166.28,-213.05 184.94,-180.44"/>
<polygon fill="midnightblue" stroke="midnightblue" points="188.13,-181.92 190.06,-171.5 182.05,-178.44 188.13,-181.92"/>
</g>
<!-- Node7 -->
<g id="node7" class="node">
<title>Node7</title>
<g id="a_node7"><a xlink:href="syntactic__analysis_8c.html#aaef2bee27144c07c175bb36e4c28af9d" target="_top" xlink:title="Function for verifaction enabled data types (DATA TYPES)">
<polygon fill="white" stroke="black" points="607,-342.5 607,-361.5 671,-361.5 671,-342.5 607,-342.5"/>
<text text-anchor="middle" x="639" y="-349.5" font-family="Helvetica,sans-Serif" font-size="10.00">VAL_TYPE</text>
</a>
</g>
</g>
<!-- Node6&#45;&gt;Node7 -->
<g id="edge6" class="edge">
<title>Node6&#45;&gt;Node7</title>
<path fill="none" stroke="midnightblue" d="M324.66,-315.89C372.8,-319.22 472.87,-326.88 557,-338 570.06,-339.73 584.24,-342.03 597.02,-344.27"/>
<polygon fill="midnightblue" stroke="midnightblue" points="596.47,-347.72 606.93,-346.04 597.7,-340.83 596.47,-347.72"/>
</g>
<!-- Node8&#45;&gt;Node7 -->
<g id="edge8" class="edge">
<title>Node8&#45;&gt;Node7</title>
<path fill="none" stroke="midnightblue" d="M222.13,-352C294.46,-352 506.81,-352 596.87,-352"/>
<polygon fill="midnightblue" stroke="midnightblue" points="596.97,-355.5 606.97,-352 596.97,-348.5 596.97,-355.5"/>
</g>
<!-- Node10 -->
<g id="node10" class="node">
<title>Node10</title>
<g id="a_node10"><a xlink:href="syntactic__analysis_8c.html#a7eac9e4351cf87fecd3e9a66cf5f28d8" target="_top" xlink:title="Processes the commands, coditions, ...">
<polygon fill="white" stroke="black" points="258,-152.5 258,-171.5 332,-171.5 332,-152.5 258,-152.5"/>
<text text-anchor="middle" x="295" y="-159.5" font-family="Helvetica,sans-Serif" font-size="10.00">STATEMENT</text>
</a>
</g>
</g>
<!-- Node9&#45;&gt;Node10 -->
<g id="edge10" class="edge">
<title>Node9&#45;&gt;Node10</title>
<path fill="none" stroke="midnightblue" d="M221.35,-162C229.3,-162 238.45,-162 247.51,-162"/>
<polygon fill="midnightblue" stroke="midnightblue" points="247.64,-165.5 257.64,-162 247.64,-158.5 247.64,-165.5"/>
</g>
<!-- Node10&#45;&gt;Node2 -->
<g id="edge18" class="edge">
<title>Node10&#45;&gt;Node2</title>
<path fill="none" stroke="midnightblue" d="M302.79,-152.49C320.52,-127.65 368.47,-60.47 391.63,-28.02"/>
<polygon fill="midnightblue" stroke="midnightblue" points="394.75,-29.68 397.72,-19.5 389.06,-25.61 394.75,-29.68"/>
</g>
<!-- Node11 -->
<g id="node11" class="node">
<title>Node11</title>
<g id="a_node11"><a xlink:href="syntactic__analysis_8c.html#a2999c303cc3fb4692b7e96d9a22e9c03" target="_top" xlink:title="Processes calling functions, variables.">
<polygon fill="white" stroke="black" points="373,-190.5 373,-209.5 438,-209.5 438,-190.5 373,-190.5"/>
<text text-anchor="middle" x="405.5" y="-197.5" font-family="Helvetica,sans-Serif" font-size="10.00">CALL_DEF</text>
</a>
</g>
</g>
<!-- Node10&#45;&gt;Node11 -->
<g id="edge11" class="edge">
<title>Node10&#45;&gt;Node11</title>
<path fill="none" stroke="midnightblue" d="M323.38,-171.59C336.74,-176.27 353.02,-181.97 367.47,-187.03"/>
<polygon fill="midnightblue" stroke="midnightblue" points="366.53,-190.41 377.13,-190.41 368.85,-183.81 366.53,-190.41"/>
</g>
<!-- Node15 -->
<g id="node15" class="node">
<title>Node15</title>
<g id="a_node15"><a xlink:href="syntactic__analysis_8c.html#a047deda12297b3a39f2d50261fd7de70" target="_top" xlink:title="Processes else condition.">
<polygon fill="white" stroke="black" points="373,-76.5 373,-95.5 438,-95.5 438,-76.5 373,-76.5"/>
<text text-anchor="middle" x="405.5" y="-83.5" font-family="Helvetica,sans-Serif" font-size="10.00">ELSE_DEF</text>
</a>
</g>
</g>
<!-- Node10&#45;&gt;Node15 -->
<g id="edge19" class="edge">
<title>Node10&#45;&gt;Node15</title>
<path fill="none" stroke="midnightblue" d="M306.73,-152.43C320.39,-140.51 344.98,-119.91 368,-105 370.42,-103.43 372.98,-101.89 375.58,-100.4"/>
<polygon fill="midnightblue" stroke="midnightblue" points="377.3,-103.45 384.41,-95.59 373.96,-97.3 377.3,-103.45"/>
</g>
<!-- Node16 -->
<g id="node16" class="node">
<title>Node16</title>
<g id="a_node16"><a xlink:href="syntactic__analysis_8c.html#ac9b33c13aa831335429748838739aef7" target="_top" xlink:title="Processes if condition.">
<polygon fill="white" stroke="black" points="380.5,-114.5 380.5,-133.5 430.5,-133.5 430.5,-114.5 380.5,-114.5"/>
<text text-anchor="middle" x="405.5" y="-121.5" font-family="Helvetica,sans-Serif" font-size="10.00">IF_DEF</text>
</a>
</g>
</g>
<!-- Node10&#45;&gt;Node16 -->
<g id="edge21" class="edge">
<title>Node10&#45;&gt;Node16</title>
<path fill="none" stroke="midnightblue" d="M323.38,-152.41C337.8,-147.36 355.61,-141.12 370.86,-135.78"/>
<polygon fill="midnightblue" stroke="midnightblue" points="372.17,-139.03 380.45,-132.42 369.86,-132.42 372.17,-139.03"/>
</g>
<!-- Node18 -->
<g id="node18" class="node">
<title>Node18</title>
<g id="a_node18"><a xlink:href="syntactic__analysis_8c.html#a1012bbb9f570627aabec5e3eda7c4993" target="_top" xlink:title="Processes return command.">
<polygon fill="white" stroke="black" points="609,-114.5 609,-133.5 669,-133.5 669,-114.5 609,-114.5"/>
<text text-anchor="middle" x="639" y="-121.5" font-family="Helvetica,sans-Serif" font-size="10.00">RET_DEF</text>
</a>
</g>
</g>
<!-- Node10&#45;&gt;Node18 -->
<g id="edge25" class="edge">
<title>Node10&#45;&gt;Node18</title>
<path fill="none" stroke="midnightblue" d="M332.28,-157.97C397.06,-150.77 532.1,-135.77 598.88,-128.35"/>
<polygon fill="midnightblue" stroke="midnightblue" points="599.43,-131.81 608.99,-127.22 598.66,-124.85 599.43,-131.81"/>
</g>
<!-- Node10&#45;&gt;Node19 -->
<g id="edge27" class="edge">
<title>Node10&#45;&gt;Node19</title>
<path fill="none" stroke="midnightblue" d="M301.39,-171.75C312.06,-190.32 337.48,-231.24 368,-257 369.73,-258.46 371.59,-259.85 373.52,-261.16"/>
<polygon fill="midnightblue" stroke="midnightblue" points="371.9,-264.27 382.28,-266.43 375.51,-258.28 371.9,-264.27"/>
</g>
<!-- Node21 -->
<g id="node21" class="node">
<title>Node21</title>
<g id="a_node21"><a xlink:href="syntactic__analysis_8c.html#a13efec100d0c39c874c413765ded4d10" target="_top" xlink:title="Processes while loop.">
<polygon fill="white" stroke="black" points="369,-228.5 369,-247.5 442,-247.5 442,-228.5 369,-228.5"/>
<text text-anchor="middle" x="405.5" y="-235.5" font-family="Helvetica,sans-Serif" font-size="10.00">WHILE_DEF</text>
</a>
</g>
</g>
<!-- Node10&#45;&gt;Node21 -->
<g id="edge31" class="edge">
<title>Node10&#45;&gt;Node21</title>
<path fill="none" stroke="midnightblue" d="M306.73,-171.57C320.39,-183.49 344.98,-204.09 368,-219 370.42,-220.57 372.98,-222.11 375.58,-223.6"/>
<polygon fill="midnightblue" stroke="midnightblue" points="373.96,-226.7 384.41,-228.41 377.3,-220.55 373.96,-226.7"/>
</g>
<!-- Node12 -->
<g id="node12" class="node">
<title>Node12</title>
<g id="a_node12"><a xlink:href="syntactic__analysis_8c.html#ade39708cf9c0a95b1e75a94b3982f1aa" target="_top" xlink:title="Extended function for CALL_DEF()">
<polygon fill="white" stroke="black" points="485.5,-190.5 485.5,-209.5 550.5,-209.5 550.5,-190.5 485.5,-190.5"/>
<text text-anchor="middle" x="518" y="-197.5" font-family="Helvetica,sans-Serif" font-size="10.00">CALL_EXT</text>
</a>
</g>
</g>
<!-- Node11&#45;&gt;Node12 -->
<g id="edge12" class="edge">
<title>Node11&#45;&gt;Node12</title>
<path fill="none" stroke="midnightblue" d="M438.16,-200C449.72,-200 462.98,-200 475.28,-200"/>
<polygon fill="midnightblue" stroke="midnightblue" points="475.33,-203.5 485.33,-200 475.33,-196.5 475.33,-203.5"/>
</g>
<!-- Node12&#45;&gt;Node4 -->
<g id="edge17" class="edge">
<title>Node12&#45;&gt;Node4</title>
<path fill="none" stroke="midnightblue" d="M550.87,-200C591.73,-200 662.99,-200 710.58,-200"/>
<polygon fill="midnightblue" stroke="midnightblue" points="710.65,-203.5 720.65,-200 710.65,-196.5 710.65,-203.5"/>
</g>
<!-- Node13 -->
<g id="node13" class="node">
<title>Node13</title>
<g id="a_node13"><a xlink:href="syntactic__analysis_8c.html#a83f44b9d12d581ea924af4ba707819c3" target="_top" xlink:title="Function for processing argument of called function.">
<polygon fill="white" stroke="black" points="620,-304.5 620,-323.5 658,-323.5 658,-304.5 620,-304.5"/>
<text text-anchor="middle" x="639" y="-311.5" font-family="Helvetica,sans-Serif" font-size="10.00">ARG</text>
</a>
</g>
</g>
<!-- Node12&#45;&gt;Node13 -->
<g id="edge13" class="edge">
<title>Node12&#45;&gt;Node13</title>
<path fill="none" stroke="midnightblue" d="M529.15,-209.72C549.43,-229.15 595.21,-273.01 620.46,-297.2"/>
<polygon fill="midnightblue" stroke="midnightblue" points="618.24,-299.91 627.88,-304.31 623.08,-294.86 618.24,-299.91"/>
</g>
<!-- Node13&#45;&gt;Node4 -->
<g id="edge16" class="edge">
<title>Node13&#45;&gt;Node4</title>
<path fill="none" stroke="midnightblue" d="M658.09,-306.37C666.73,-302.24 676.92,-296.62 685,-290 710.8,-268.86 734.07,-237.62 747.36,-218.05"/>
<polygon fill="midnightblue" stroke="midnightblue" points="750.27,-219.99 752.89,-209.72 744.44,-216.12 750.27,-219.99"/>
</g>
<!-- Node14 -->
<g id="node14" class="node">
<title>Node14</title>
<g id="a_node14"><a xlink:href="syntactic__analysis_8c.html#a271ef1f0dc6a029b233bcb024b19b116" target="_top" xlink:title="Function for processing another argument which is in queue.">
<polygon fill="white" stroke="black" points="738,-304.5 738,-323.5 782,-323.5 782,-304.5 738,-304.5"/>
<text text-anchor="middle" x="760" y="-311.5" font-family="Helvetica,sans-Serif" font-size="10.00">ARGS</text>
</a>
</g>
</g>
<!-- Node13&#45;&gt;Node14 -->
<g id="edge14" class="edge">
<title>Node13&#45;&gt;Node14</title>
<path fill="none" stroke="midnightblue" d="M658.07,-308.99C676.51,-307.08 705.49,-306.74 727.67,-307.97"/>
<polygon fill="midnightblue" stroke="midnightblue" points="727.72,-311.49 737.94,-308.7 728.21,-304.5 727.72,-311.49"/>
</g>
<!-- Node14&#45;&gt;Node13 -->
<g id="edge15" class="edge">
<title>Node14&#45;&gt;Node13</title>
<path fill="none" stroke="midnightblue" d="M737.94,-319.3C718.53,-321.03 689.58,-321.21 668.19,-319.84"/>
<polygon fill="midnightblue" stroke="midnightblue" points="668.33,-316.34 658.07,-319.01 667.75,-323.32 668.33,-316.34"/>
</g>
<!-- Node15&#45;&gt;Node9 -->
<g id="edge20" class="edge">
<title>Node15&#45;&gt;Node9</title>
<path fill="none" stroke="midnightblue" d="M378.44,-95.57C340.99,-109.32 271.93,-134.67 230.81,-149.77"/>
<polygon fill="midnightblue" stroke="midnightblue" points="229.43,-146.55 221.25,-153.28 231.84,-153.12 229.43,-146.55"/>
</g>
<!-- Node16&#45;&gt;Node4 -->
<g id="edge22" class="edge">
<title>Node16&#45;&gt;Node4</title>
<path fill="none" stroke="midnightblue" d="M430.73,-129.22C488.41,-141.66 634.76,-173.21 711.06,-189.66"/>
<polygon fill="midnightblue" stroke="midnightblue" points="710.39,-193.1 720.9,-191.79 711.86,-186.26 710.39,-193.1"/>
</g>
<!-- Node17 -->
<g id="node17" class="node">
<title>Node17</title>
<g id="a_node17"><a xlink:href="syntactic__analysis_8c.html#af131918ae0d8a1cc29cb2c8d6dc13aff" target="_top" xlink:title="Extended function for CALL_DEF()">
<polygon fill="white" stroke="black" points="493,-67.5 493,-86.5 543,-86.5 543,-67.5 493,-67.5"/>
<text text-anchor="middle" x="518" y="-74.5" font-family="Helvetica,sans-Serif" font-size="10.00">IF_EXT</text>
</a>
</g>
</g>
<!-- Node16&#45;&gt;Node17 -->
<g id="edge23" class="edge">
<title>Node16&#45;&gt;Node17</title>
<path fill="none" stroke="midnightblue" d="M428.86,-114.49C444.93,-107.65 466.84,-98.34 484.79,-90.7"/>
<polygon fill="midnightblue" stroke="midnightblue" points="486.46,-93.79 494.29,-86.66 483.72,-87.35 486.46,-93.79"/>
</g>
<!-- Node17&#45;&gt;Node9 -->
<g id="edge24" class="edge">
<title>Node17&#45;&gt;Node9</title>
<path fill="none" stroke="midnightblue" d="M492.79,-71.72C463.13,-66.08 411.47,-58.98 368,-67 316.54,-76.49 302.83,-82 258,-109 241.48,-118.95 225.17,-133.59 213.66,-144.97"/>
<polygon fill="midnightblue" stroke="midnightblue" points="211.04,-142.64 206.51,-152.22 216.02,-147.55 211.04,-142.64"/>
</g>
<!-- Node18&#45;&gt;Node4 -->
<g id="edge26" class="edge">
<title>Node18&#45;&gt;Node4</title>
<path fill="none" stroke="midnightblue" d="M659.12,-133.54C667.23,-137.75 676.7,-142.9 685,-148 703.5,-159.37 723.61,-173.63 738.19,-184.34"/>
<polygon fill="midnightblue" stroke="midnightblue" points="736.37,-187.35 746.49,-190.49 740.54,-181.73 736.37,-187.35"/>
</g>
<!-- Node20 -->
<g id="node20" class="node">
<title>Node20</title>
<g id="a_node20"><a xlink:href="syntactic__analysis_8c.html#a76e0ba812902123b4ec0d43c59c13c04" target="_top" xlink:title="Processes assigning expresions to the variable.">
<polygon fill="white" stroke="black" points="479,-266.5 479,-285.5 557,-285.5 557,-266.5 479,-266.5"/>
<text text-anchor="middle" x="518" y="-273.5" font-family="Helvetica,sans-Serif" font-size="10.00">ASSIGN_VAR</text>
</a>
</g>
</g>
<!-- Node19&#45;&gt;Node20 -->
<g id="edge28" class="edge">
<title>Node19&#45;&gt;Node20</title>
<path fill="none" stroke="midnightblue" d="M436.11,-276C446.19,-276 457.74,-276 468.89,-276"/>
<polygon fill="midnightblue" stroke="midnightblue" points="468.97,-279.5 478.97,-276 468.97,-272.5 468.97,-279.5"/>
</g>
<!-- Node20&#45;&gt;Node4 -->
<g id="edge29" class="edge">
<title>Node20&#45;&gt;Node4</title>
<path fill="none" stroke="midnightblue" d="M557.21,-275.49C591.72,-273.88 643.32,-268.55 685,-252 705.79,-243.74 726.35,-228.58 740.5,-216.75"/>
<polygon fill="midnightblue" stroke="midnightblue" points="743.15,-219.09 748.43,-209.9 738.58,-213.79 743.15,-219.09"/>
</g>
<!-- Node20&#45;&gt;Node7 -->
<g id="edge30" class="edge">
<title>Node20&#45;&gt;Node7</title>
<path fill="none" stroke="midnightblue" d="M535.7,-285.66C542.5,-289.81 550.3,-294.88 557,-300 574.24,-313.18 574.74,-321.27 593,-333 595.78,-334.79 598.76,-336.47 601.81,-338.04"/>
<polygon fill="midnightblue" stroke="midnightblue" points="600.52,-341.3 611.06,-342.4 603.51,-334.97 600.52,-341.3"/>
</g>
<!-- Node21&#45;&gt;Node4 -->
<g id="edge32" class="edge">
<title>Node21&#45;&gt;Node4</title>
<path fill="none" stroke="midnightblue" d="M442.24,-236.08C495.36,-232.96 598.22,-225.92 685,-214 693.38,-212.85 702.25,-211.39 710.83,-209.84"/>
<polygon fill="midnightblue" stroke="midnightblue" points="711.52,-213.27 720.71,-208.01 710.24,-206.39 711.52,-213.27"/>
</g>
<!-- Node21&#45;&gt;Node9 -->
<g id="edge33" class="edge">
<title>Node21&#45;&gt;Node9</title>
<path fill="none" stroke="midnightblue" d="M378.44,-228.43C340.99,-214.68 271.93,-189.33 230.81,-174.23"/>
<polygon fill="midnightblue" stroke="midnightblue" points="231.84,-170.88 221.25,-170.72 229.43,-177.45 231.84,-170.88"/>
</g>
</g>
</svg>
