<?xml version="1.0" encoding="UTF-8" standalone="no"?>
<!DOCTYPE svg PUBLIC "-//W3C//DTD SVG 1.1//EN"
 "http://www.w3.org/Graphics/SVG/1.1/DTD/svg11.dtd">
<!-- Generated by graphviz version 2.43.0 (0)
 -->
<!-- Title: FN_DEF Pages: 1 -->
<svg width="727pt" height="351pt"
 viewBox="0.00 0.00 727.00 351.00" xmlns="http://www.w3.org/2000/svg" xmlns:xlink="http://www.w3.org/1999/xlink">
<g id="graph0" class="graph" transform="scale(1 1) rotate(0) translate(4 347)">
<title>FN_DEF</title>
<polygon fill="white" stroke="transparent" points="-4,4 -4,-347 723,-347 723,4 -4,4"/>
<!-- Node1 -->
<g id="node1" class="node">
<title>Node1</title>
<g id="a_node1"><a xlink:title="Processes function declaration.">
<polygon fill="#bfbfbf" stroke="black" points="0,-285.5 0,-304.5 55,-304.5 55,-285.5 0,-285.5"/>
<text text-anchor="middle" x="27.5" y="-292.5" font-family="Helvetica,sans-Serif" font-size="10.00">FN_DEF</text>
</a>
</g>
</g>
<!-- Node2 -->
<g id="node2" class="node">
<title>Node2</title>
<g id="a_node2"><a xlink:href="syntactic__analysis_8c.html#aef5821c4ef2e8e26c864efa3564244f6" target="_top" xlink:title="Function for verifaction enabled data types (FUNCTIONS)">
<polygon fill="white" stroke="black" points="185.5,-323.5 185.5,-342.5 244.5,-342.5 244.5,-323.5 185.5,-323.5"/>
<text text-anchor="middle" x="215" y="-330.5" font-family="Helvetica,sans-Serif" font-size="10.00">FN_TYPE</text>
</a>
</g>
</g>
<!-- Node1&#45;&gt;Node2 -->
<g id="edge1" class="edge">
<title>Node1&#45;&gt;Node2</title>
<path fill="none" stroke="midnightblue" d="M55.04,-303.98C66.07,-307.47 79.06,-311.28 91,-314 119.02,-320.39 151.12,-325.27 175.51,-328.48"/>
<polygon fill="midnightblue" stroke="midnightblue" points="175.08,-331.96 185.45,-329.76 175.97,-325.01 175.08,-331.96"/>
</g>
<!-- Node4 -->
<g id="node4" class="node">
<title>Node4</title>
<g id="a_node4"><a xlink:href="syntactic__analysis_8c.html#acb21f12318c9d312a452616eb6c7262d" target="_top" xlink:title="Function for processing parameters of declaraced function.">
<polygon fill="white" stroke="black" points="91,-285.5 91,-304.5 142,-304.5 142,-285.5 91,-285.5"/>
<text text-anchor="middle" x="116.5" y="-292.5" font-family="Helvetica,sans-Serif" font-size="10.00">PARAM</text>
</a>
</g>
</g>
<!-- Node1&#45;&gt;Node4 -->
<g id="edge3" class="edge">
<title>Node1&#45;&gt;Node4</title>
<path fill="none" stroke="midnightblue" d="M55.08,-295C63.18,-295 72.2,-295 80.76,-295"/>
<polygon fill="midnightblue" stroke="midnightblue" points="80.87,-298.5 90.87,-295 80.87,-291.5 80.87,-298.5"/>
</g>
<!-- Node5 -->
<g id="node5" class="node">
<title>Node5</title>
<g id="a_node5"><a xlink:href="syntactic__analysis_8c.html#a7d21e9db61747d6734d9a7f27d33b4f4" target="_top" xlink:title="Function for determining the depth of infestation.">
<polygon fill="white" stroke="black" points="92,-133.5 92,-152.5 141,-152.5 141,-133.5 92,-133.5"/>
<text text-anchor="middle" x="116.5" y="-140.5" font-family="Helvetica,sans-Serif" font-size="10.00">SCOPE</text>
</a>
</g>
</g>
<!-- Node1&#45;&gt;Node5 -->
<g id="edge5" class="edge">
<title>Node1&#45;&gt;Node5</title>
<path fill="none" stroke="midnightblue" d="M33.94,-285.49C48.1,-260.75 86.28,-194.05 104.94,-161.44"/>
<polygon fill="midnightblue" stroke="midnightblue" points="108.13,-162.92 110.06,-152.5 102.05,-159.44 108.13,-162.92"/>
</g>
<!-- Node3 -->
<g id="node3" class="node">
<title>Node3</title>
<g id="a_node3"><a xlink:href="syntactic__analysis_8c.html#aaef2bee27144c07c175bb36e4c28af9d" target="_top" xlink:title="Function for verifaction enabled data types (DATA TYPES)">
<polygon fill="white" stroke="black" points="527,-285.5 527,-304.5 591,-304.5 591,-285.5 527,-285.5"/>
<text text-anchor="middle" x="559" y="-292.5" font-family="Helvetica,sans-Serif" font-size="10.00">VAL_TYPE</text>
</a>
</g>
</g>
<!-- Node2&#45;&gt;Node3 -->
<g id="edge2" class="edge">
<title>Node2&#45;&gt;Node3</title>
<path fill="none" stroke="midnightblue" d="M244.66,-331.11C292.8,-327.78 392.87,-320.12 477,-309 490.06,-307.27 504.24,-304.97 517.02,-302.73"/>
<polygon fill="midnightblue" stroke="midnightblue" points="517.7,-306.17 526.93,-300.96 516.47,-299.28 517.7,-306.17"/>
</g>
<!-- Node4&#45;&gt;Node3 -->
<g id="edge4" class="edge">
<title>Node4&#45;&gt;Node3</title>
<path fill="none" stroke="midnightblue" d="M142.13,-295C214.46,-295 426.81,-295 516.87,-295"/>
<polygon fill="midnightblue" stroke="midnightblue" points="516.97,-298.5 526.97,-295 516.97,-291.5 516.97,-298.5"/>
</g>
<!-- Node6 -->
<g id="node6" class="node">
<title>Node6</title>
<g id="a_node6"><a xlink:href="syntactic__analysis_8c.html#a7eac9e4351cf87fecd3e9a66cf5f28d8" target="_top" xlink:title="Processes the commands, coditions, ...">
<polygon fill="white" stroke="black" points="178,-133.5 178,-152.5 252,-152.5 252,-133.5 178,-133.5"/>
<text text-anchor="middle" x="215" y="-140.5" font-family="Helvetica,sans-Serif" font-size="10.00">STATEMENT</text>
</a>
</g>
</g>
<!-- Node5&#45;&gt;Node6 -->
<g id="edge6" class="edge">
<title>Node5&#45;&gt;Node6</title>
<path fill="none" stroke="midnightblue" d="M141.35,-143C149.3,-143 158.45,-143 167.51,-143"/>
<polygon fill="midnightblue" stroke="midnightblue" points="167.64,-146.5 177.64,-143 167.64,-139.5 167.64,-146.5"/>
</g>
<!-- Node7 -->
<g id="node7" class="node">
<title>Node7</title>
<g id="a_node7"><a xlink:href="syntactic__analysis_8c.html#a2999c303cc3fb4692b7e96d9a22e9c03" target="_top" xlink:title="Processes calling functions, variables.">
<polygon fill="white" stroke="black" points="293,-95.5 293,-114.5 358,-114.5 358,-95.5 293,-95.5"/>
<text text-anchor="middle" x="325.5" y="-102.5" font-family="Helvetica,sans-Serif" font-size="10.00">CALL_DEF</text>
</a>
</g>
</g>
<!-- Node6&#45;&gt;Node7 -->
<g id="edge7" class="edge">
<title>Node6&#45;&gt;Node7</title>
<path fill="none" stroke="midnightblue" d="M243.38,-133.41C256.74,-128.73 273.02,-123.03 287.47,-117.97"/>
<polygon fill="midnightblue" stroke="midnightblue" points="288.85,-121.19 297.13,-114.59 286.53,-114.59 288.85,-121.19"/>
</g>
<!-- Node12 -->
<g id="node12" class="node">
<title>Node12</title>
<g id="a_node12"><a xlink:href="syntactic__analysis_8c.html#ab1c09d376532dc76198f8d2d6c729fef" target="_top" xlink:title="Processes command for constant declaration.">
<polygon fill="white" stroke="black" points="288,-133.5 288,-152.5 363,-152.5 363,-133.5 288,-133.5"/>
<text text-anchor="middle" x="325.5" y="-140.5" font-family="Helvetica,sans-Serif" font-size="10.00">CONST_DEF</text>
</a>
</g>
</g>
<!-- Node6&#45;&gt;Node12 -->
<g id="edge14" class="edge">
<title>Node6&#45;&gt;Node12</title>
<path fill="none" stroke="midnightblue" d="M252.13,-143C260.28,-143 269.05,-143 277.57,-143"/>
<polygon fill="midnightblue" stroke="midnightblue" points="277.79,-146.5 287.79,-143 277.79,-139.5 277.79,-146.5"/>
</g>
<!-- Node14 -->
<g id="node14" class="node">
<title>Node14</title>
<g id="a_node14"><a xlink:href="syntactic__analysis_8c.html#a047deda12297b3a39f2d50261fd7de70" target="_top" xlink:title="Processes else condition.">
<polygon fill="white" stroke="black" points="293,-19.5 293,-38.5 358,-38.5 358,-19.5 293,-19.5"/>
<text text-anchor="middle" x="325.5" y="-26.5" font-family="Helvetica,sans-Serif" font-size="10.00">ELSE_DEF</text>
</a>
</g>
</g>
<!-- Node6&#45;&gt;Node14 -->
<g id="edge17" class="edge">
<title>Node6&#45;&gt;Node14</title>
<path fill="none" stroke="midnightblue" d="M221.39,-133.25C232.06,-114.68 257.48,-73.76 288,-48 289.73,-46.54 291.59,-45.15 293.52,-43.84"/>
<polygon fill="midnightblue" stroke="midnightblue" points="295.51,-46.72 302.28,-38.57 291.9,-40.73 295.51,-46.72"/>
</g>
<!-- Node15 -->
<g id="node15" class="node">
<title>Node15</title>
<g id="a_node15"><a xlink:href="syntactic__analysis_8c.html#ac9b33c13aa831335429748838739aef7" target="_top" xlink:title="Processes if condition.">
<polygon fill="white" stroke="black" points="300.5,-57.5 300.5,-76.5 350.5,-76.5 350.5,-57.5 300.5,-57.5"/>
<text text-anchor="middle" x="325.5" y="-64.5" font-family="Helvetica,sans-Serif" font-size="10.00">IF_DEF</text>
</a>
</g>
</g>
<!-- Node6&#45;&gt;Node15 -->
<g id="edge19" class="edge">
<title>Node6&#45;&gt;Node15</title>
<path fill="none" stroke="midnightblue" d="M226.73,-133.43C240.39,-121.51 264.98,-100.91 288,-86 290.42,-84.43 292.98,-82.89 295.58,-81.4"/>
<polygon fill="midnightblue" stroke="midnightblue" points="297.3,-84.45 304.41,-76.59 293.96,-78.3 297.3,-84.45"/>
</g>
<!-- Node17 -->
<g id="node17" class="node">
<title>Node17</title>
<g id="a_node17"><a xlink:href="syntactic__analysis_8c.html#a1012bbb9f570627aabec5e3eda7c4993" target="_top" xlink:title="Processes return command.">
<polygon fill="white" stroke="black" points="529,-171.5 529,-190.5 589,-190.5 589,-171.5 529,-171.5"/>
<text text-anchor="middle" x="559" y="-178.5" font-family="Helvetica,sans-Serif" font-size="10.00">RET_DEF</text>
</a>
</g>
</g>
<!-- Node6&#45;&gt;Node17 -->
<g id="edge23" class="edge">
<title>Node6&#45;&gt;Node17</title>
<path fill="none" stroke="midnightblue" d="M246.91,-152.52C259.54,-156.05 274.35,-159.74 288,-162 369.1,-175.43 465.45,-179.38 518.33,-180.53"/>
<polygon fill="midnightblue" stroke="midnightblue" points="518.56,-184.04 528.62,-180.73 518.69,-177.04 518.56,-184.04"/>
</g>
<!-- Node18 -->
<g id="node18" class="node">
<title>Node18</title>
<g id="a_node18"><a xlink:href="syntactic__analysis_8c.html#a49c6186e8aee36246b52305756b7a017" target="_top" xlink:title="Processes command for variable declaration.">
<polygon fill="white" stroke="black" points="295,-209.5 295,-228.5 356,-228.5 356,-209.5 295,-209.5"/>
<text text-anchor="middle" x="325.5" y="-216.5" font-family="Helvetica,sans-Serif" font-size="10.00">VAR_DEF</text>
</a>
</g>
</g>
<!-- Node6&#45;&gt;Node18 -->
<g id="edge25" class="edge">
<title>Node6&#45;&gt;Node18</title>
<path fill="none" stroke="midnightblue" d="M228.89,-152.57C243.2,-163.13 267.05,-180.56 288,-195 292.15,-197.86 296.61,-200.86 300.93,-203.72"/>
<polygon fill="midnightblue" stroke="midnightblue" points="299.2,-206.77 309.48,-209.34 303.05,-200.92 299.2,-206.77"/>
</g>
<!-- Node20 -->
<g id="node20" class="node">
<title>Node20</title>
<g id="a_node20"><a xlink:href="syntactic__analysis_8c.html#a13efec100d0c39c874c413765ded4d10" target="_top" xlink:title="Processes while loop.">
<polygon fill="white" stroke="black" points="289,-247.5 289,-266.5 362,-266.5 362,-247.5 289,-247.5"/>
<text text-anchor="middle" x="325.5" y="-254.5" font-family="Helvetica,sans-Serif" font-size="10.00">WHILE_DEF</text>
</a>
</g>
</g>
<!-- Node6&#45;&gt;Node20 -->
<g id="edge29" class="edge">
<title>Node6&#45;&gt;Node20</title>
<path fill="none" stroke="midnightblue" d="M221.39,-152.75C232.06,-171.32 257.48,-212.24 288,-238 289.73,-239.46 291.59,-240.85 293.52,-242.16"/>
<polygon fill="midnightblue" stroke="midnightblue" points="291.9,-245.27 302.28,-247.43 295.51,-239.28 291.9,-245.27"/>
</g>
<!-- Node8 -->
<g id="node8" class="node">
<title>Node8</title>
<g id="a_node8"><a xlink:href="syntactic__analysis_8c.html#ade39708cf9c0a95b1e75a94b3982f1aa" target="_top" xlink:title="Extended function for CALL_DEF()">
<polygon fill="white" stroke="black" points="405.5,-95.5 405.5,-114.5 470.5,-114.5 470.5,-95.5 405.5,-95.5"/>
<text text-anchor="middle" x="438" y="-102.5" font-family="Helvetica,sans-Serif" font-size="10.00">CALL_EXT</text>
</a>
</g>
</g>
<!-- Node7&#45;&gt;Node8 -->
<g id="edge8" class="edge">
<title>Node7&#45;&gt;Node8</title>
<path fill="none" stroke="midnightblue" d="M358.16,-105C369.72,-105 382.98,-105 395.28,-105"/>
<polygon fill="midnightblue" stroke="midnightblue" points="395.33,-108.5 405.33,-105 395.33,-101.5 395.33,-108.5"/>
</g>
<!-- Node9 -->
<g id="node9" class="node">
<title>Node9</title>
<g id="a_node9"><a xlink:href="syntactic__analysis_8c.html#a83f44b9d12d581ea924af4ba707819c3" target="_top" xlink:title="Function for processing argument of called function.">
<polygon fill="white" stroke="black" points="540,-19.5 540,-38.5 578,-38.5 578,-19.5 540,-19.5"/>
<text text-anchor="middle" x="559" y="-26.5" font-family="Helvetica,sans-Serif" font-size="10.00">ARG</text>
</a>
</g>
</g>
<!-- Node8&#45;&gt;Node9 -->
<g id="edge9" class="edge">
<title>Node8&#45;&gt;Node9</title>
<path fill="none" stroke="midnightblue" d="M454.07,-95.37C474.37,-82.41 510.69,-59.21 534.57,-43.96"/>
<polygon fill="midnightblue" stroke="midnightblue" points="536.51,-46.88 543.05,-38.55 532.74,-40.98 536.51,-46.88"/>
</g>
<!-- Node11 -->
<g id="node11" class="node">
<title>Node11</title>
<g id="a_node11"><a xlink:href="syntactic__analysis_8c.html#a38b7a13b9a5926c2c4b6af62cec86f85" target="_top" xlink:title="Function for processing another argument which is in queue.">
<polygon fill="white" stroke="black" points="641,-133.5 641,-152.5 719,-152.5 719,-133.5 641,-133.5"/>
<text text-anchor="middle" x="680" y="-140.5" font-family="Helvetica,sans-Serif" font-size="10.00">EXPRESSION</text>
</a>
</g>
</g>
<!-- Node8&#45;&gt;Node11 -->
<g id="edge13" class="edge">
<title>Node8&#45;&gt;Node11</title>
<path fill="none" stroke="midnightblue" d="M470.71,-107.33C504.25,-110.09 558.65,-115.44 605,-124 615.08,-125.86 625.81,-128.33 635.89,-130.87"/>
<polygon fill="midnightblue" stroke="midnightblue" points="635.14,-134.29 645.69,-133.41 636.89,-127.51 635.14,-134.29"/>
</g>
<!-- Node10 -->
<g id="node10" class="node">
<title>Node10</title>
<g id="a_node10"><a xlink:href="syntactic__analysis_8c.html#a271ef1f0dc6a029b233bcb024b19b116" target="_top" xlink:title="Function for processing another argument which is in queue.">
<polygon fill="white" stroke="black" points="658,-19.5 658,-38.5 702,-38.5 702,-19.5 658,-19.5"/>
<text text-anchor="middle" x="680" y="-26.5" font-family="Helvetica,sans-Serif" font-size="10.00">ARGS</text>
</a>
</g>
</g>
<!-- Node9&#45;&gt;Node10 -->
<g id="edge10" class="edge">
<title>Node9&#45;&gt;Node10</title>
<path fill="none" stroke="midnightblue" d="M578.07,-23.99C596.51,-22.08 625.49,-21.74 647.67,-22.97"/>
<polygon fill="midnightblue" stroke="midnightblue" points="647.72,-26.49 657.94,-23.7 648.21,-19.5 647.72,-26.49"/>
</g>
<!-- Node9&#45;&gt;Node11 -->
<g id="edge12" class="edge">
<title>Node9&#45;&gt;Node11</title>
<path fill="none" stroke="midnightblue" d="M578.09,-36.63C586.73,-40.76 596.92,-46.38 605,-53 630.8,-74.14 654.07,-105.38 667.36,-124.95"/>
<polygon fill="midnightblue" stroke="midnightblue" points="664.44,-126.88 672.89,-133.28 670.27,-123.01 664.44,-126.88"/>
</g>
<!-- Node10&#45;&gt;Node9 -->
<g id="edge11" class="edge">
<title>Node10&#45;&gt;Node9</title>
<path fill="none" stroke="midnightblue" d="M657.94,-34.3C638.53,-36.03 609.58,-36.21 588.19,-34.84"/>
<polygon fill="midnightblue" stroke="midnightblue" points="588.33,-31.34 578.07,-34.01 587.75,-38.32 588.33,-31.34"/>
</g>
<!-- Node13 -->
<g id="node13" class="node">
<title>Node13</title>
<g id="a_node13"><a xlink:href="syntactic__analysis_8c.html#aa1d8bc4c3095f3ba13e1fcc83038d948" target="_top" xlink:title="Processes assigning expresions to the constant.">
<polygon fill="white" stroke="black" points="513,-133.5 513,-152.5 605,-152.5 605,-133.5 513,-133.5"/>
<text text-anchor="middle" x="559" y="-140.5" font-family="Helvetica,sans-Serif" font-size="10.00">ASSIGN_CONST</text>
</a>
</g>
</g>
<!-- Node12&#45;&gt;Node13 -->
<g id="edge15" class="edge">
<title>Node12&#45;&gt;Node13</title>
<path fill="none" stroke="midnightblue" d="M363.18,-143C400.72,-143 459.5,-143 502.68,-143"/>
<polygon fill="midnightblue" stroke="midnightblue" points="502.75,-146.5 512.75,-143 502.75,-139.5 502.75,-146.5"/>
</g>
<!-- Node13&#45;&gt;Node11 -->
<g id="edge16" class="edge">
<title>Node13&#45;&gt;Node11</title>
<path fill="none" stroke="midnightblue" d="M605.33,-143C613.64,-143 622.34,-143 630.74,-143"/>
<polygon fill="midnightblue" stroke="midnightblue" points="630.78,-146.5 640.78,-143 630.78,-139.5 630.78,-146.5"/>
</g>
<!-- Node14&#45;&gt;Node5 -->
<g id="edge18" class="edge">
<title>Node14&#45;&gt;Node5</title>
<path fill="none" stroke="midnightblue" d="M305.88,-38.56C300.13,-41.55 293.79,-44.88 288,-48 236.41,-75.79 176.72,-109.39 143.41,-128.26"/>
<polygon fill="midnightblue" stroke="midnightblue" points="141.32,-125.42 134.35,-133.4 144.78,-131.51 141.32,-125.42"/>
</g>
<!-- Node15&#45;&gt;Node11 -->
<g id="edge20" class="edge">
<title>Node15&#45;&gt;Node11</title>
<path fill="none" stroke="midnightblue" d="M350.56,-67.8C399.56,-70 513.99,-78.08 605,-107 621.93,-112.38 639.86,-121.02 653.84,-128.49"/>
<polygon fill="midnightblue" stroke="midnightblue" points="652.37,-131.68 662.82,-133.42 655.74,-125.54 652.37,-131.68"/>
</g>
<!-- Node16 -->
<g id="node16" class="node">
<title>Node16</title>
<g id="a_node16"><a xlink:href="syntactic__analysis_8c.html#af131918ae0d8a1cc29cb2c8d6dc13aff" target="_top" xlink:title="Extended function for CALL_DEF()">
<polygon fill="white" stroke="black" points="413,-0.5 413,-19.5 463,-19.5 463,-0.5 413,-0.5"/>
<text text-anchor="middle" x="438" y="-7.5" font-family="Helvetica,sans-Serif" font-size="10.00">IF_EXT</text>
</a>
</g>
</g>
<!-- Node15&#45;&gt;Node16 -->
<g id="edge21" class="edge">
<title>Node15&#45;&gt;Node16</title>
<path fill="none" stroke="midnightblue" d="M345.24,-57.33C362.89,-48.23 389.53,-34.48 409.57,-24.15"/>
<polygon fill="midnightblue" stroke="midnightblue" points="411.25,-27.22 418.53,-19.53 408.04,-21 411.25,-27.22"/>
</g>
<!-- Node16&#45;&gt;Node5 -->
<g id="edge22" class="edge">
<title>Node16&#45;&gt;Node5</title>
<path fill="none" stroke="midnightblue" d="M412.88,-6.69C383.09,-3.36 331.09,0.01 288,-10 234.95,-22.32 220.11,-29.47 178,-64 156.92,-81.28 138.84,-107.27 128.08,-124.67"/>
<polygon fill="midnightblue" stroke="midnightblue" points="125.02,-122.96 122.87,-133.34 131.02,-126.57 125.02,-122.96"/>
</g>
<!-- Node17&#45;&gt;Node11 -->
<g id="edge24" class="edge">
<title>Node17&#45;&gt;Node11</title>
<path fill="none" stroke="midnightblue" d="M589.11,-171.7C604.15,-166.9 622.74,-160.97 639.1,-155.74"/>
<polygon fill="midnightblue" stroke="midnightblue" points="640.49,-158.97 648.95,-152.6 638.36,-152.3 640.49,-158.97"/>
</g>
<!-- Node19 -->
<g id="node19" class="node">
<title>Node19</title>
<g id="a_node19"><a xlink:href="syntactic__analysis_8c.html#a76e0ba812902123b4ec0d43c59c13c04" target="_top" xlink:title="Processes assigning expresions to the variable.">
<polygon fill="white" stroke="black" points="399,-209.5 399,-228.5 477,-228.5 477,-209.5 399,-209.5"/>
<text text-anchor="middle" x="438" y="-216.5" font-family="Helvetica,sans-Serif" font-size="10.00">ASSIGN_VAR</text>
</a>
</g>
</g>
<!-- Node18&#45;&gt;Node19 -->
<g id="edge26" class="edge">
<title>Node18&#45;&gt;Node19</title>
<path fill="none" stroke="midnightblue" d="M356.11,-219C366.19,-219 377.74,-219 388.89,-219"/>
<polygon fill="midnightblue" stroke="midnightblue" points="388.97,-222.5 398.97,-219 388.97,-215.5 388.97,-222.5"/>
</g>
<!-- Node19&#45;&gt;Node3 -->
<g id="edge28" class="edge">
<title>Node19&#45;&gt;Node3</title>
<path fill="none" stroke="midnightblue" d="M454.07,-228.63C474.37,-241.59 510.69,-264.79 534.57,-280.04"/>
<polygon fill="midnightblue" stroke="midnightblue" points="532.74,-283.02 543.05,-285.45 536.51,-277.12 532.74,-283.02"/>
</g>
<!-- Node19&#45;&gt;Node11 -->
<g id="edge27" class="edge">
<title>Node19&#45;&gt;Node11</title>
<path fill="none" stroke="midnightblue" d="M477.01,-220.35C511.6,-220.27 563.47,-216.84 605,-200 627.36,-190.93 648.73,-173.15 662.7,-159.85"/>
<polygon fill="midnightblue" stroke="midnightblue" points="665.36,-162.14 670.03,-152.63 660.45,-157.15 665.36,-162.14"/>
</g>
<!-- Node20&#45;&gt;Node5 -->
<g id="edge31" class="edge">
<title>Node20&#45;&gt;Node5</title>
<path fill="none" stroke="midnightblue" d="M305.88,-247.44C300.13,-244.45 293.79,-241.12 288,-238 236.41,-210.21 176.72,-176.61 143.41,-157.74"/>
<polygon fill="midnightblue" stroke="midnightblue" points="144.78,-154.49 134.35,-152.6 141.32,-160.58 144.78,-154.49"/>
</g>
<!-- Node20&#45;&gt;Node11 -->
<g id="edge30" class="edge">
<title>Node20&#45;&gt;Node11</title>
<path fill="none" stroke="midnightblue" d="M362.16,-260.19C417.43,-263.53 525.64,-263.6 605,-223 632.52,-208.92 655.06,-180.22 667.76,-161.3"/>
<polygon fill="midnightblue" stroke="midnightblue" points="670.85,-162.97 673.33,-152.67 664.97,-159.17 670.85,-162.97"/>
</g>
</g>
</svg>
