<?xml version="1.0" encoding="UTF-8" standalone="no"?>
<!DOCTYPE svg PUBLIC "-//W3C//DTD SVG 1.1//EN"
 "http://www.w3.org/Graphics/SVG/1.1/DTD/svg11.dtd">
<!-- Generated by graphviz version 2.43.0 (0)
 -->
<!-- Title: VAR_DEF Pages: 1 -->
<svg width="297pt" height="66pt"
 viewBox="0.00 0.00 297.00 66.00" xmlns="http://www.w3.org/2000/svg" xmlns:xlink="http://www.w3.org/1999/xlink">
<g id="graph0" class="graph" transform="scale(1 1) rotate(0) translate(4 62)">
<title>VAR_DEF</title>
<polygon fill="white" stroke="transparent" points="-4,4 -4,-62 293,-62 293,4 -4,4"/>
<!-- Node1 -->
<g id="node1" class="node">
<title>Node1</title>
<g id="a_node1"><a xlink:title="Processes command for variable declaration.">
<polygon fill="#bfbfbf" stroke="black" points="0,-19.5 0,-38.5 61,-38.5 61,-19.5 0,-19.5"/>
<text text-anchor="middle" x="30.5" y="-26.5" font-family="Helvetica,sans-Serif" font-size="10.00">VAR_DEF</text>
</a>
</g>
</g>
<!-- Node2 -->
<g id="node2" class="node">
<title>Node2</title>
<g id="a_node2"><a xlink:href="syntactic__analysis_8c.html#a76e0ba812902123b4ec0d43c59c13c04" target="_top" xlink:title="Processes assigning expresions to the variable.">
<polygon fill="white" stroke="black" points="97,-19.5 97,-38.5 175,-38.5 175,-19.5 97,-19.5"/>
<text text-anchor="middle" x="136" y="-26.5" font-family="Helvetica,sans-Serif" font-size="10.00">ASSIGN_VAR</text>
</a>
</g>
</g>
<!-- Node1&#45;&gt;Node2 -->
<g id="edge1" class="edge">
<title>Node1&#45;&gt;Node2</title>
<path fill="none" stroke="midnightblue" d="M61.16,-29C69.14,-29 77.99,-29 86.71,-29"/>
<polygon fill="midnightblue" stroke="midnightblue" points="86.83,-32.5 96.83,-29 86.83,-25.5 86.83,-32.5"/>
</g>
<!-- Node3 -->
<g id="node3" class="node">
<title>Node3</title>
<g id="a_node3"><a xlink:href="syntactic__analysis_8c.html#a38b7a13b9a5926c2c4b6af62cec86f85" target="_top" xlink:title="Function for processing another argument which is in queue.">
<polygon fill="white" stroke="black" points="211,-38.5 211,-57.5 289,-57.5 289,-38.5 211,-38.5"/>
<text text-anchor="middle" x="250" y="-45.5" font-family="Helvetica,sans-Serif" font-size="10.00">EXPRESSION</text>
</a>
</g>
</g>
<!-- Node2&#45;&gt;Node3 -->
<g id="edge2" class="edge">
<title>Node2&#45;&gt;Node3</title>
<path fill="none" stroke="midnightblue" d="M175.23,-35.49C183.52,-36.89 192.39,-38.4 201,-39.86"/>
<polygon fill="midnightblue" stroke="midnightblue" points="200.5,-43.32 210.94,-41.54 201.67,-36.42 200.5,-43.32"/>
</g>
<!-- Node4 -->
<g id="node4" class="node">
<title>Node4</title>
<g id="a_node4"><a xlink:href="syntactic__analysis_8c.html#aaef2bee27144c07c175bb36e4c28af9d" target="_top" xlink:title="Function for verifaction enabled data types (DATA TYPES)">
<polygon fill="white" stroke="black" points="218,-0.5 218,-19.5 282,-19.5 282,-0.5 218,-0.5"/>
<text text-anchor="middle" x="250" y="-7.5" font-family="Helvetica,sans-Serif" font-size="10.00">VAL_TYPE</text>
</a>
</g>
</g>
<!-- Node2&#45;&gt;Node4 -->
<g id="edge3" class="edge">
<title>Node2&#45;&gt;Node4</title>
<path fill="none" stroke="midnightblue" d="M175.23,-22.51C185.8,-20.72 197.3,-18.77 208.02,-16.95"/>
<polygon fill="midnightblue" stroke="midnightblue" points="208.72,-20.38 217.99,-15.26 207.55,-13.48 208.72,-20.38"/>
</g>
</g>
</svg>
