<?xml version="1.0" encoding="UTF-8" standalone="no"?>
<!DOCTYPE svg PUBLIC "-//W3C//DTD SVG 1.1//EN"
 "http://www.w3.org/Graphics/SVG/1.1/DTD/svg11.dtd">
<!-- Generated by graphviz version 2.43.0 (0)
 -->
<!-- Title: STATEMENT Pages: 1 -->
<svg width="845pt" height="297pt"
 viewBox="0.00 0.00 845.00 296.73" xmlns="http://www.w3.org/2000/svg" xmlns:xlink="http://www.w3.org/1999/xlink">
<g id="graph0" class="graph" transform="scale(1 1) rotate(0) translate(4 292.73)">
<title>STATEMENT</title>
<polygon fill="white" stroke="transparent" points="-4,4 -4,-292.73 841,-292.73 841,4 -4,4"/>
<!-- Node1 -->
<g id="node1" class="node">
<title>Node1</title>
<g id="a_node1"><a xlink:title="Processes the commands, coditions, ...">
<polygon fill="#bfbfbf" stroke="black" points="0,-155.23 0,-174.23 74,-174.23 74,-155.23 0,-155.23"/>
<text text-anchor="middle" x="37" y="-162.23" font-family="Helvetica,sans-Serif" font-size="10.00">STATEMENT</text>
</a>
</g>
</g>
<!-- Node2 -->
<g id="node2" class="node">
<title>Node2</title>
<g id="a_node2"><a xlink:href="syntactic__analysis_8c.html#a2999c303cc3fb4692b7e96d9a22e9c03" target="_top" xlink:title="Processes calling functions, variables.">
<polygon fill="white" stroke="black" points="411,-250.23 411,-269.23 476,-269.23 476,-250.23 411,-250.23"/>
<text text-anchor="middle" x="443.5" y="-257.23" font-family="Helvetica,sans-Serif" font-size="10.00">CALL_DEF</text>
</a>
</g>
</g>
<!-- Node1&#45;&gt;Node2 -->
<g id="edge1" class="edge">
<title>Node1&#45;&gt;Node2</title>
<path fill="none" stroke="midnightblue" d="M48.8,-174.48C62.13,-185.92 86.01,-204.49 110,-213.73 209.17,-251.91 335.76,-259.04 400.4,-259.98"/>
<polygon fill="midnightblue" stroke="midnightblue" points="400.56,-263.48 410.6,-260.08 400.64,-256.48 400.56,-263.48"/>
</g>
<!-- Node7 -->
<g id="node7" class="node">
<title>Node7</title>
<g id="a_node7"><a xlink:href="syntactic__analysis_8c.html#ab1c09d376532dc76198f8d2d6c729fef" target="_top" xlink:title="Processes command for constant declaration.">
<polygon fill="white" stroke="black" points="406,-117.23 406,-136.23 481,-136.23 481,-117.23 406,-117.23"/>
<text text-anchor="middle" x="443.5" y="-124.23" font-family="Helvetica,sans-Serif" font-size="10.00">CONST_DEF</text>
</a>
</g>
</g>
<!-- Node1&#45;&gt;Node7 -->
<g id="edge8" class="edge">
<title>Node1&#45;&gt;Node7</title>
<path fill="none" stroke="midnightblue" d="M74.11,-165C135.37,-164.95 263.36,-162.58 370,-145.73 380.41,-144.08 391.49,-141.58 401.78,-138.92"/>
<polygon fill="midnightblue" stroke="midnightblue" points="402.99,-142.22 411.74,-136.24 401.17,-135.46 402.99,-142.22"/>
</g>
<!-- Node9 -->
<g id="node9" class="node">
<title>Node9</title>
<g id="a_node9"><a xlink:href="syntactic__analysis_8c.html#a047deda12297b3a39f2d50261fd7de70" target="_top" xlink:title="Processes else condition.">
<polygon fill="white" stroke="black" points="110,-117.23 110,-136.23 175,-136.23 175,-117.23 110,-117.23"/>
<text text-anchor="middle" x="142.5" y="-124.23" font-family="Helvetica,sans-Serif" font-size="10.00">ELSE_DEF</text>
</a>
</g>
</g>
<!-- Node1&#45;&gt;Node9 -->
<g id="edge11" class="edge">
<title>Node1&#45;&gt;Node9</title>
<path fill="none" stroke="midnightblue" d="M64.12,-155.14C76.74,-150.5 92.09,-144.87 105.78,-139.84"/>
<polygon fill="midnightblue" stroke="midnightblue" points="107.21,-143.05 115.39,-136.31 104.8,-136.48 107.21,-143.05"/>
</g>
<!-- Node12 -->
<g id="node12" class="node">
<title>Node12</title>
<g id="a_node12"><a xlink:href="syntactic__analysis_8c.html#ac9b33c13aa831335429748838739aef7" target="_top" xlink:title="Processes if condition.">
<polygon fill="white" stroke="black" points="418.5,-41.23 418.5,-60.23 468.5,-60.23 468.5,-41.23 418.5,-41.23"/>
<text text-anchor="middle" x="443.5" y="-48.23" font-family="Helvetica,sans-Serif" font-size="10.00">IF_DEF</text>
</a>
</g>
</g>
<!-- Node1&#45;&gt;Node12 -->
<g id="edge30" class="edge">
<title>Node1&#45;&gt;Node12</title>
<path fill="none" stroke="midnightblue" d="M48,-155.13C61.27,-142.81 85.85,-121.39 110,-107.73 207.34,-52.67 344.47,-48.03 407.86,-49.23"/>
<polygon fill="midnightblue" stroke="midnightblue" points="408.02,-52.74 418.1,-49.49 408.2,-45.74 408.02,-52.74"/>
</g>
<!-- Node14 -->
<g id="node14" class="node">
<title>Node14</title>
<g id="a_node14"><a xlink:href="syntactic__analysis_8c.html#a1012bbb9f570627aabec5e3eda7c4993" target="_top" xlink:title="Processes return command.">
<polygon fill="white" stroke="black" points="413.5,-193.23 413.5,-212.23 473.5,-212.23 473.5,-193.23 413.5,-193.23"/>
<text text-anchor="middle" x="443.5" y="-200.23" font-family="Helvetica,sans-Serif" font-size="10.00">RET_DEF</text>
</a>
</g>
</g>
<!-- Node1&#45;&gt;Node14 -->
<g id="edge31" class="edge">
<title>Node1&#45;&gt;Node14</title>
<path fill="none" stroke="midnightblue" d="M56.08,-174.26C70.31,-181.27 90.87,-190.31 110,-194.73 213.44,-218.63 339.81,-212.32 402.82,-206.87"/>
<polygon fill="midnightblue" stroke="midnightblue" points="403.45,-210.33 413.1,-205.94 402.82,-203.36 403.45,-210.33"/>
</g>
<!-- Node15 -->
<g id="node15" class="node">
<title>Node15</title>
<g id="a_node15"><a xlink:href="syntactic__analysis_8c.html#a49c6186e8aee36246b52305756b7a017" target="_top" xlink:title="Processes command for variable declaration.">
<polygon fill="white" stroke="black" points="413,-155.23 413,-174.23 474,-174.23 474,-155.23 413,-155.23"/>
<text text-anchor="middle" x="443.5" y="-162.23" font-family="Helvetica,sans-Serif" font-size="10.00">VAR_DEF</text>
</a>
</g>
</g>
<!-- Node1&#45;&gt;Node15 -->
<g id="edge32" class="edge">
<title>Node1&#45;&gt;Node15</title>
<path fill="none" stroke="midnightblue" d="M74.06,-173.15C85.49,-175.43 98.21,-177.59 110,-178.73 225.02,-189.81 254.97,-189.73 370,-178.73 380.73,-177.7 392.24,-175.84 402.86,-173.8"/>
<polygon fill="midnightblue" stroke="midnightblue" points="403.59,-177.22 412.7,-171.81 402.21,-170.36 403.59,-177.22"/>
</g>
<!-- Node18 -->
<g id="node18" class="node">
<title>Node18</title>
<g id="a_node18"><a xlink:href="syntactic__analysis_8c.html#a13efec100d0c39c874c413765ded4d10" target="_top" xlink:title="Processes while loop.">
<polygon fill="white" stroke="black" points="407,-3.23 407,-22.23 480,-22.23 480,-3.23 407,-3.23"/>
<text text-anchor="middle" x="443.5" y="-10.23" font-family="Helvetica,sans-Serif" font-size="10.00">WHILE_DEF</text>
</a>
</g>
</g>
<!-- Node1&#45;&gt;Node18 -->
<g id="edge33" class="edge">
<title>Node1&#45;&gt;Node18</title>
<path fill="none" stroke="midnightblue" d="M43.04,-154.99C53.1,-136.56 77.54,-96.67 110,-76.73 200.45,-21.15 328.75,-12.14 396.49,-11.65"/>
<polygon fill="midnightblue" stroke="midnightblue" points="396.83,-15.15 406.82,-11.64 396.82,-8.15 396.83,-15.15"/>
</g>
<!-- Node3 -->
<g id="node3" class="node">
<title>Node3</title>
<g id="a_node3"><a xlink:href="syntactic__analysis_8c.html#ade39708cf9c0a95b1e75a94b3982f1aa" target="_top" xlink:title="Extended function for CALL_DEF()">
<polygon fill="white" stroke="black" points="523.5,-250.23 523.5,-269.23 588.5,-269.23 588.5,-250.23 523.5,-250.23"/>
<text text-anchor="middle" x="556" y="-257.23" font-family="Helvetica,sans-Serif" font-size="10.00">CALL_EXT</text>
</a>
</g>
</g>
<!-- Node2&#45;&gt;Node3 -->
<g id="edge2" class="edge">
<title>Node2&#45;&gt;Node3</title>
<path fill="none" stroke="midnightblue" d="M476.16,-259.73C487.72,-259.73 500.98,-259.73 513.28,-259.73"/>
<polygon fill="midnightblue" stroke="midnightblue" points="513.33,-263.23 523.33,-259.73 513.33,-256.23 513.33,-263.23"/>
</g>
<!-- Node4 -->
<g id="node4" class="node">
<title>Node4</title>
<g id="a_node4"><a xlink:href="syntactic__analysis_8c.html#a83f44b9d12d581ea924af4ba707819c3" target="_top" xlink:title="Function for processing argument of called function.">
<polygon fill="white" stroke="black" points="658,-269.23 658,-288.23 696,-288.23 696,-269.23 658,-269.23"/>
<text text-anchor="middle" x="677" y="-276.23" font-family="Helvetica,sans-Serif" font-size="10.00">ARG</text>
</a>
</g>
</g>
<!-- Node3&#45;&gt;Node4 -->
<g id="edge3" class="edge">
<title>Node3&#45;&gt;Node4</title>
<path fill="none" stroke="midnightblue" d="M588.58,-264.77C607.02,-267.72 630.1,-271.4 647.92,-274.24"/>
<polygon fill="midnightblue" stroke="midnightblue" points="647.55,-277.73 657.98,-275.85 648.65,-270.82 647.55,-277.73"/>
</g>
<!-- Node6 -->
<g id="node6" class="node">
<title>Node6</title>
<g id="a_node6"><a xlink:href="syntactic__analysis_8c.html#a38b7a13b9a5926c2c4b6af62cec86f85" target="_top" xlink:title="Function for processing another argument which is in queue.">
<polygon fill="white" stroke="black" points="759,-155.23 759,-174.23 837,-174.23 837,-155.23 759,-155.23"/>
<text text-anchor="middle" x="798" y="-162.23" font-family="Helvetica,sans-Serif" font-size="10.00">EXPRESSION</text>
</a>
</g>
</g>
<!-- Node3&#45;&gt;Node6 -->
<g id="edge7" class="edge">
<title>Node3&#45;&gt;Node6</title>
<path fill="none" stroke="midnightblue" d="M588.74,-255C623.02,-249.1 678.68,-237.21 723,-216.73 743.07,-207.45 763.44,-192.65 777.72,-181.21"/>
<polygon fill="midnightblue" stroke="midnightblue" points="780.26,-183.65 785.76,-174.6 775.81,-178.24 780.26,-183.65"/>
</g>
<!-- Node5 -->
<g id="node5" class="node">
<title>Node5</title>
<g id="a_node5"><a xlink:href="syntactic__analysis_8c.html#a271ef1f0dc6a029b233bcb024b19b116" target="_top" xlink:title="Function for processing another argument which is in queue.">
<polygon fill="white" stroke="black" points="776,-269.23 776,-288.23 820,-288.23 820,-269.23 776,-269.23"/>
<text text-anchor="middle" x="798" y="-276.23" font-family="Helvetica,sans-Serif" font-size="10.00">ARGS</text>
</a>
</g>
</g>
<!-- Node4&#45;&gt;Node5 -->
<g id="edge4" class="edge">
<title>Node4&#45;&gt;Node5</title>
<path fill="none" stroke="midnightblue" d="M696.07,-273.72C714.51,-271.81 743.49,-271.47 765.67,-272.7"/>
<polygon fill="midnightblue" stroke="midnightblue" points="765.72,-276.21 775.94,-273.43 766.21,-269.23 765.72,-276.21"/>
</g>
<!-- Node4&#45;&gt;Node6 -->
<g id="edge6" class="edge">
<title>Node4&#45;&gt;Node6</title>
<path fill="none" stroke="midnightblue" d="M696.09,-271.1C704.73,-266.97 714.92,-261.35 723,-254.73 748.8,-233.59 772.07,-202.35 785.36,-182.78"/>
<polygon fill="midnightblue" stroke="midnightblue" points="788.27,-184.72 790.89,-174.45 782.44,-180.85 788.27,-184.72"/>
</g>
<!-- Node5&#45;&gt;Node4 -->
<g id="edge5" class="edge">
<title>Node5&#45;&gt;Node4</title>
<path fill="none" stroke="midnightblue" d="M775.94,-284.03C756.53,-285.76 727.58,-285.94 706.19,-284.57"/>
<polygon fill="midnightblue" stroke="midnightblue" points="706.33,-281.07 696.07,-283.74 705.75,-288.04 706.33,-281.07"/>
</g>
<!-- Node8 -->
<g id="node8" class="node">
<title>Node8</title>
<g id="a_node8"><a xlink:href="syntactic__analysis_8c.html#aa1d8bc4c3095f3ba13e1fcc83038d948" target="_top" xlink:title="Processes assigning expresions to the constant.">
<polygon fill="white" stroke="black" points="631,-79.23 631,-98.23 723,-98.23 723,-79.23 631,-79.23"/>
<text text-anchor="middle" x="677" y="-86.23" font-family="Helvetica,sans-Serif" font-size="10.00">ASSIGN_CONST</text>
</a>
</g>
</g>
<!-- Node7&#45;&gt;Node8 -->
<g id="edge9" class="edge">
<title>Node7&#45;&gt;Node8</title>
<path fill="none" stroke="midnightblue" d="M481.16,-123.19C511.73,-119.97 556.38,-114.68 595,-107.73 606.1,-105.73 617.97,-103.18 629.1,-100.61"/>
<polygon fill="midnightblue" stroke="midnightblue" points="630.15,-103.96 639.07,-98.25 628.53,-97.15 630.15,-103.96"/>
</g>
<!-- Node8&#45;&gt;Node6 -->
<g id="edge10" class="edge">
<title>Node8&#45;&gt;Node6</title>
<path fill="none" stroke="midnightblue" d="M703.78,-98.27C710.22,-101.02 716.99,-104.23 723,-107.73 743.14,-119.47 764,-136.01 778.42,-148.24"/>
<polygon fill="midnightblue" stroke="midnightblue" points="776.25,-151 786.11,-154.88 780.83,-145.7 776.25,-151"/>
</g>
<!-- Node10 -->
<g id="node10" class="node">
<title>Node10</title>
<g id="a_node10"><a xlink:href="syntactic__analysis_8c.html#a7d21e9db61747d6734d9a7f27d33b4f4" target="_top" xlink:title="Function for determining the depth of infestation.">
<polygon fill="white" stroke="black" points="211,-79.23 211,-98.23 260,-98.23 260,-79.23 211,-79.23"/>
<text text-anchor="middle" x="235.5" y="-86.23" font-family="Helvetica,sans-Serif" font-size="10.00">SCOPE</text>
</a>
</g>
</g>
<!-- Node9&#45;&gt;Node10 -->
<g id="edge12" class="edge">
<title>Node9&#45;&gt;Node10</title>
<path fill="none" stroke="midnightblue" d="M166.46,-117.14C177.24,-112.64 190.27,-107.2 202.04,-102.28"/>
<polygon fill="midnightblue" stroke="midnightblue" points="203.67,-105.4 211.54,-98.31 200.97,-98.94 203.67,-105.4"/>
</g>
<!-- Node11 -->
<g id="node11" class="node">
<title>Node11</title>
<g id="a_node11"><a xlink:href="syntactic__analysis_8c.html#a7eac9e4351cf87fecd3e9a66cf5f28d8" target="_top" xlink:title="Processes the commands, coditions, ...">
<polygon fill="white" stroke="black" points="296,-117.23 296,-136.23 370,-136.23 370,-117.23 296,-117.23"/>
<text text-anchor="middle" x="333" y="-124.23" font-family="Helvetica,sans-Serif" font-size="10.00">STATEMENT</text>
</a>
</g>
</g>
<!-- Node10&#45;&gt;Node11 -->
<g id="edge13" class="edge">
<title>Node10&#45;&gt;Node11</title>
<path fill="none" stroke="midnightblue" d="M260.11,-98.12C271.73,-102.75 285.94,-108.4 298.64,-113.46"/>
<polygon fill="midnightblue" stroke="midnightblue" points="297.42,-116.73 308,-117.18 300,-110.23 297.42,-116.73"/>
</g>
<!-- Node11&#45;&gt;Node2 -->
<g id="edge14" class="edge">
<title>Node11&#45;&gt;Node2</title>
<path fill="none" stroke="midnightblue" d="M340.8,-136.45C353.17,-153.98 380.46,-191.83 406,-221.73 412.02,-228.77 418.98,-236.19 425.21,-242.58"/>
<polygon fill="midnightblue" stroke="midnightblue" points="423.05,-245.37 432.57,-250.02 428.02,-240.45 423.05,-245.37"/>
</g>
<!-- Node11&#45;&gt;Node7 -->
<g id="edge15" class="edge">
<title>Node11&#45;&gt;Node7</title>
<path fill="none" stroke="midnightblue" d="M370.13,-126.73C378.28,-126.73 387.05,-126.73 395.57,-126.73"/>
<polygon fill="midnightblue" stroke="midnightblue" points="395.79,-130.23 405.79,-126.73 395.79,-123.23 395.79,-130.23"/>
</g>
<!-- Node11&#45;&gt;Node9 -->
<g id="edge16" class="edge">
<title>Node11&#45;&gt;Node9</title>
<path fill="none" stroke="midnightblue" d="M295.83,-126.73C264.27,-126.73 218.46,-126.73 185.33,-126.73"/>
<polygon fill="midnightblue" stroke="midnightblue" points="185.05,-123.23 175.05,-126.73 185.05,-130.23 185.05,-123.23"/>
</g>
<!-- Node11&#45;&gt;Node12 -->
<g id="edge17" class="edge">
<title>Node11&#45;&gt;Node12</title>
<path fill="none" stroke="midnightblue" d="M347.74,-117.1C366.08,-104.25 398.78,-81.35 420.56,-66.1"/>
<polygon fill="midnightblue" stroke="midnightblue" points="422.69,-68.88 428.87,-60.28 418.67,-63.15 422.69,-68.88"/>
</g>
<!-- Node11&#45;&gt;Node14 -->
<g id="edge21" class="edge">
<title>Node11&#45;&gt;Node14</title>
<path fill="none" stroke="midnightblue" d="M344.73,-136.3C358.39,-148.21 382.98,-168.82 406,-183.73 408.42,-185.29 410.98,-186.84 413.58,-188.33"/>
<polygon fill="midnightblue" stroke="midnightblue" points="411.96,-191.43 422.41,-193.14 415.3,-185.28 411.96,-191.43"/>
</g>
<!-- Node11&#45;&gt;Node15 -->
<g id="edge23" class="edge">
<title>Node11&#45;&gt;Node15</title>
<path fill="none" stroke="midnightblue" d="M361.38,-136.32C374.74,-141 391.02,-146.7 405.47,-151.76"/>
<polygon fill="midnightblue" stroke="midnightblue" points="404.53,-155.14 415.13,-155.14 406.85,-148.53 404.53,-155.14"/>
</g>
<!-- Node11&#45;&gt;Node18 -->
<g id="edge27" class="edge">
<title>Node11&#45;&gt;Node18</title>
<path fill="none" stroke="midnightblue" d="M339.39,-116.98C350.06,-98.4 375.48,-57.49 406,-31.73 407.73,-30.27 409.59,-28.88 411.52,-27.56"/>
<polygon fill="midnightblue" stroke="midnightblue" points="413.51,-30.45 420.28,-22.3 409.9,-24.45 413.51,-30.45"/>
</g>
<!-- Node12&#45;&gt;Node6 -->
<g id="edge18" class="edge">
<title>Node12&#45;&gt;Node6</title>
<path fill="none" stroke="midnightblue" d="M468.63,-46.15C519.22,-37.82 638.7,-24.92 723,-69.73 754.54,-86.49 776.94,-123.19 788.35,-145.75"/>
<polygon fill="midnightblue" stroke="midnightblue" points="785.32,-147.51 792.81,-155 791.62,-144.47 785.32,-147.51"/>
</g>
<!-- Node13 -->
<g id="node13" class="node">
<title>Node13</title>
<g id="a_node13"><a xlink:href="syntactic__analysis_8c.html#af131918ae0d8a1cc29cb2c8d6dc13aff" target="_top" xlink:title="Extended function for CALL_DEF()">
<polygon fill="white" stroke="black" points="531,-79.23 531,-98.23 581,-98.23 581,-79.23 531,-79.23"/>
<text text-anchor="middle" x="556" y="-86.23" font-family="Helvetica,sans-Serif" font-size="10.00">IF_EXT</text>
</a>
</g>
</g>
<!-- Node12&#45;&gt;Node13 -->
<g id="edge19" class="edge">
<title>Node12&#45;&gt;Node13</title>
<path fill="none" stroke="midnightblue" d="M468.75,-59.07C484.15,-64.36 504.3,-71.29 521.26,-77.12"/>
<polygon fill="midnightblue" stroke="midnightblue" points="520.21,-80.47 530.81,-80.41 522.49,-73.85 520.21,-80.47"/>
</g>
<!-- Node13&#45;&gt;Node10 -->
<g id="edge20" class="edge">
<title>Node13&#45;&gt;Node10</title>
<path fill="none" stroke="midnightblue" d="M530.73,-88.73C474.42,-88.73 334.8,-88.73 270.24,-88.73"/>
<polygon fill="midnightblue" stroke="midnightblue" points="270.18,-85.23 260.18,-88.73 270.18,-92.23 270.18,-85.23"/>
</g>
<!-- Node14&#45;&gt;Node6 -->
<g id="edge22" class="edge">
<title>Node14&#45;&gt;Node6</title>
<path fill="none" stroke="midnightblue" d="M473.88,-201.18C524.78,-198.27 632.61,-191.14 723,-178.73 731.38,-177.58 740.25,-176.11 748.83,-174.57"/>
<polygon fill="midnightblue" stroke="midnightblue" points="749.52,-178 758.71,-172.73 748.24,-171.12 749.52,-178"/>
</g>
<!-- Node16 -->
<g id="node16" class="node">
<title>Node16</title>
<g id="a_node16"><a xlink:href="syntactic__analysis_8c.html#a76e0ba812902123b4ec0d43c59c13c04" target="_top" xlink:title="Processes assigning expresions to the variable.">
<polygon fill="white" stroke="black" points="517,-155.23 517,-174.23 595,-174.23 595,-155.23 517,-155.23"/>
<text text-anchor="middle" x="556" y="-162.23" font-family="Helvetica,sans-Serif" font-size="10.00">ASSIGN_VAR</text>
</a>
</g>
</g>
<!-- Node15&#45;&gt;Node16 -->
<g id="edge24" class="edge">
<title>Node15&#45;&gt;Node16</title>
<path fill="none" stroke="midnightblue" d="M474.11,-164.73C484.19,-164.73 495.74,-164.73 506.89,-164.73"/>
<polygon fill="midnightblue" stroke="midnightblue" points="506.97,-168.23 516.97,-164.73 506.97,-161.23 506.97,-168.23"/>
</g>
<!-- Node16&#45;&gt;Node6 -->
<g id="edge25" class="edge">
<title>Node16&#45;&gt;Node6</title>
<path fill="none" stroke="midnightblue" d="M595.03,-164.73C636.6,-164.73 703.31,-164.73 748.58,-164.73"/>
<polygon fill="midnightblue" stroke="midnightblue" points="748.75,-168.23 758.75,-164.73 748.75,-161.23 748.75,-168.23"/>
</g>
<!-- Node17 -->
<g id="node17" class="node">
<title>Node17</title>
<g id="a_node17"><a xlink:href="syntactic__analysis_8c.html#aaef2bee27144c07c175bb36e4c28af9d" target="_top" xlink:title="Function for verifaction enabled data types (DATA TYPES)">
<polygon fill="white" stroke="black" points="645,-117.23 645,-136.23 709,-136.23 709,-117.23 645,-117.23"/>
<text text-anchor="middle" x="677" y="-124.23" font-family="Helvetica,sans-Serif" font-size="10.00">VAL_TYPE</text>
</a>
</g>
</g>
<!-- Node16&#45;&gt;Node17 -->
<g id="edge26" class="edge">
<title>Node16&#45;&gt;Node17</title>
<path fill="none" stroke="midnightblue" d="M587.03,-155.14C601.97,-150.37 620.22,-144.54 636.3,-139.41"/>
<polygon fill="midnightblue" stroke="midnightblue" points="637.52,-142.69 645.98,-136.31 635.39,-136.02 637.52,-142.69"/>
</g>
<!-- Node18&#45;&gt;Node6 -->
<g id="edge28" class="edge">
<title>Node18&#45;&gt;Node6</title>
<path fill="none" stroke="midnightblue" d="M480.31,-6.36C536.72,1.67 647.6,9.22 723,-38.73 761.91,-63.47 782.87,-116.61 791.76,-145.34"/>
<polygon fill="midnightblue" stroke="midnightblue" points="788.43,-146.42 794.58,-155.04 795.15,-144.46 788.43,-146.42"/>
</g>
<!-- Node18&#45;&gt;Node10 -->
<g id="edge29" class="edge">
<title>Node18&#45;&gt;Node10</title>
<path fill="none" stroke="midnightblue" d="M416.57,-22.3C379.29,-36.05 310.57,-61.4 269.65,-76.5"/>
<polygon fill="midnightblue" stroke="midnightblue" points="268.3,-73.27 260.13,-80.01 270.72,-79.83 268.3,-73.27"/>
</g>
</g>
</svg>
