<?xml version="1.0" encoding="UTF-8" standalone="no"?>
<!DOCTYPE svg PUBLIC "-//W3C//DTD SVG 1.1//EN"
 "http://www.w3.org/Graphics/SVG/1.1/DTD/svg11.dtd">
<!-- Generated by graphviz version 2.43.0 (0)
 -->
<!-- Title: ELSE_DEF Pages: 1 -->
<svg width="735pt" height="332pt"
 viewBox="0.00 0.00 735.00 332.00" xmlns="http://www.w3.org/2000/svg" xmlns:xlink="http://www.w3.org/1999/xlink">
<g id="graph0" class="graph" transform="scale(1 1) rotate(0) translate(4 328)">
<title>ELSE_DEF</title>
<polygon fill="white" stroke="transparent" points="-4,4 -4,-328 731,-328 731,4 -4,4"/>
<!-- Node1 -->
<g id="node1" class="node">
<title>Node1</title>
<g id="a_node1"><a xlink:title="Processes else condition.">
<polygon fill="#bfbfbf" stroke="black" points="0,-118.5 0,-137.5 65,-137.5 65,-118.5 0,-118.5"/>
<text text-anchor="middle" x="32.5" y="-125.5" font-family="Helvetica,sans-Serif" font-size="10.00">ELSE_DEF</text>
</a>
</g>
</g>
<!-- Node2 -->
<g id="node2" class="node">
<title>Node2</title>
<g id="a_node2"><a xlink:href="syntactic__analysis_8c.html#a7d21e9db61747d6734d9a7f27d33b4f4" target="_top" xlink:title="Function for determining the depth of infestation.">
<polygon fill="white" stroke="black" points="101,-99.5 101,-118.5 150,-118.5 150,-99.5 101,-99.5"/>
<text text-anchor="middle" x="125.5" y="-106.5" font-family="Helvetica,sans-Serif" font-size="10.00">SCOPE</text>
</a>
</g>
</g>
<!-- Node1&#45;&gt;Node2 -->
<g id="edge1" class="edge">
<title>Node1&#45;&gt;Node2</title>
<path fill="none" stroke="midnightblue" d="M65.07,-121.41C73.39,-119.67 82.4,-117.79 90.83,-116.03"/>
<polygon fill="midnightblue" stroke="midnightblue" points="91.66,-119.43 100.73,-113.96 90.23,-112.58 91.66,-119.43"/>
</g>
<!-- Node3 -->
<g id="node3" class="node">
<title>Node3</title>
<g id="a_node3"><a xlink:href="syntactic__analysis_8c.html#a7eac9e4351cf87fecd3e9a66cf5f28d8" target="_top" xlink:title="Processes the commands, coditions, ...">
<polygon fill="white" stroke="black" points="186,-142.5 186,-161.5 260,-161.5 260,-142.5 186,-142.5"/>
<text text-anchor="middle" x="223" y="-149.5" font-family="Helvetica,sans-Serif" font-size="10.00">STATEMENT</text>
</a>
</g>
</g>
<!-- Node2&#45;&gt;Node3 -->
<g id="edge2" class="edge">
<title>Node2&#45;&gt;Node3</title>
<path fill="none" stroke="midnightblue" d="M147.69,-118.54C160.55,-124.33 177.18,-131.82 191.44,-138.24"/>
<polygon fill="midnightblue" stroke="midnightblue" points="190.31,-141.57 200.86,-142.48 193.18,-135.19 190.31,-141.57"/>
</g>
<!-- Node3&#45;&gt;Node1 -->
<g id="edge13" class="edge">
<title>Node3&#45;&gt;Node1</title>
<path fill="none" stroke="midnightblue" d="M185.83,-147.39C154.27,-143.38 108.46,-137.54 75.33,-133.33"/>
<polygon fill="midnightblue" stroke="midnightblue" points="75.41,-129.81 65.05,-132.02 74.53,-136.75 75.41,-129.81"/>
</g>
<!-- Node4 -->
<g id="node4" class="node">
<title>Node4</title>
<g id="a_node4"><a xlink:href="syntactic__analysis_8c.html#a2999c303cc3fb4692b7e96d9a22e9c03" target="_top" xlink:title="Processes calling functions, variables.">
<polygon fill="white" stroke="black" points="301,-266.5 301,-285.5 366,-285.5 366,-266.5 301,-266.5"/>
<text text-anchor="middle" x="333.5" y="-273.5" font-family="Helvetica,sans-Serif" font-size="10.00">CALL_DEF</text>
</a>
</g>
</g>
<!-- Node3&#45;&gt;Node4 -->
<g id="edge3" class="edge">
<title>Node3&#45;&gt;Node4</title>
<path fill="none" stroke="midnightblue" d="M228.52,-161.56C238.34,-181.51 263.4,-228.13 296,-257 297.52,-258.35 299.16,-259.63 300.87,-260.85"/>
<polygon fill="midnightblue" stroke="midnightblue" points="299.43,-264.08 309.77,-266.37 303.11,-258.13 299.43,-264.08"/>
</g>
<!-- Node9 -->
<g id="node9" class="node">
<title>Node9</title>
<g id="a_node9"><a xlink:href="syntactic__analysis_8c.html#ab1c09d376532dc76198f8d2d6c729fef" target="_top" xlink:title="Processes command for constant declaration.">
<polygon fill="white" stroke="black" points="296,-228.5 296,-247.5 371,-247.5 371,-228.5 296,-228.5"/>
<text text-anchor="middle" x="333.5" y="-235.5" font-family="Helvetica,sans-Serif" font-size="10.00">CONST_DEF</text>
</a>
</g>
</g>
<!-- Node3&#45;&gt;Node9 -->
<g id="edge10" class="edge">
<title>Node3&#45;&gt;Node9</title>
<path fill="none" stroke="midnightblue" d="M232.63,-161.52C245.5,-175.35 270.89,-201.27 296,-219 298.22,-220.57 300.59,-222.09 303.01,-223.54"/>
<polygon fill="midnightblue" stroke="midnightblue" points="301.41,-226.66 311.85,-228.48 304.83,-220.55 301.41,-226.66"/>
</g>
<!-- Node11 -->
<g id="node11" class="node">
<title>Node11</title>
<g id="a_node11"><a xlink:href="syntactic__analysis_8c.html#ac9b33c13aa831335429748838739aef7" target="_top" xlink:title="Processes if condition.">
<polygon fill="white" stroke="black" points="308.5,-190.5 308.5,-209.5 358.5,-209.5 358.5,-190.5 308.5,-190.5"/>
<text text-anchor="middle" x="333.5" y="-197.5" font-family="Helvetica,sans-Serif" font-size="10.00">IF_DEF</text>
</a>
</g>
</g>
<!-- Node3&#45;&gt;Node11 -->
<g id="edge14" class="edge">
<title>Node3&#45;&gt;Node11</title>
<path fill="none" stroke="midnightblue" d="M245.7,-161.6C261.66,-168.66 283.6,-178.37 301.43,-186.25"/>
<polygon fill="midnightblue" stroke="midnightblue" points="300.28,-189.57 310.84,-190.42 303.11,-183.17 300.28,-189.57"/>
</g>
<!-- Node13 -->
<g id="node13" class="node">
<title>Node13</title>
<g id="a_node13"><a xlink:href="syntactic__analysis_8c.html#a1012bbb9f570627aabec5e3eda7c4993" target="_top" xlink:title="Processes return command.">
<polygon fill="white" stroke="black" points="537,-152.5 537,-171.5 597,-171.5 597,-152.5 537,-152.5"/>
<text text-anchor="middle" x="567" y="-159.5" font-family="Helvetica,sans-Serif" font-size="10.00">RET_DEF</text>
</a>
</g>
</g>
<!-- Node3&#45;&gt;Node13 -->
<g id="edge18" class="edge">
<title>Node3&#45;&gt;Node13</title>
<path fill="none" stroke="midnightblue" d="M260.28,-153.06C325.06,-154.95 460.1,-158.9 526.88,-160.86"/>
<polygon fill="midnightblue" stroke="midnightblue" points="526.89,-164.36 536.99,-161.15 527.09,-157.36 526.89,-164.36"/>
</g>
<!-- Node14 -->
<g id="node14" class="node">
<title>Node14</title>
<g id="a_node14"><a xlink:href="syntactic__analysis_8c.html#a49c6186e8aee36246b52305756b7a017" target="_top" xlink:title="Processes command for variable declaration.">
<polygon fill="white" stroke="black" points="303,-114.5 303,-133.5 364,-133.5 364,-114.5 303,-114.5"/>
<text text-anchor="middle" x="333.5" y="-121.5" font-family="Helvetica,sans-Serif" font-size="10.00">VAR_DEF</text>
</a>
</g>
</g>
<!-- Node3&#45;&gt;Node14 -->
<g id="edge20" class="edge">
<title>Node3&#45;&gt;Node14</title>
<path fill="none" stroke="midnightblue" d="M260.13,-142.68C270.59,-139.98 282.07,-137.01 292.75,-134.26"/>
<polygon fill="midnightblue" stroke="midnightblue" points="293.86,-137.59 302.67,-131.7 292.12,-130.81 293.86,-137.59"/>
</g>
<!-- Node17 -->
<g id="node17" class="node">
<title>Node17</title>
<g id="a_node17"><a xlink:href="syntactic__analysis_8c.html#a13efec100d0c39c874c413765ded4d10" target="_top" xlink:title="Processes while loop.">
<polygon fill="white" stroke="black" points="297,-76.5 297,-95.5 370,-95.5 370,-76.5 297,-76.5"/>
<text text-anchor="middle" x="333.5" y="-83.5" font-family="Helvetica,sans-Serif" font-size="10.00">WHILE_DEF</text>
</a>
</g>
</g>
<!-- Node3&#45;&gt;Node17 -->
<g id="edge24" class="edge">
<title>Node3&#45;&gt;Node17</title>
<path fill="none" stroke="midnightblue" d="M237.82,-142.4C252.12,-132.59 275.25,-117.13 296,-105 298.69,-103.43 301.52,-101.84 304.37,-100.29"/>
<polygon fill="midnightblue" stroke="midnightblue" points="306.17,-103.29 313.36,-95.51 302.89,-97.11 306.17,-103.29"/>
</g>
<!-- Node5 -->
<g id="node5" class="node">
<title>Node5</title>
<g id="a_node5"><a xlink:href="syntactic__analysis_8c.html#ade39708cf9c0a95b1e75a94b3982f1aa" target="_top" xlink:title="Extended function for CALL_DEF()">
<polygon fill="white" stroke="black" points="413.5,-266.5 413.5,-285.5 478.5,-285.5 478.5,-266.5 413.5,-266.5"/>
<text text-anchor="middle" x="446" y="-273.5" font-family="Helvetica,sans-Serif" font-size="10.00">CALL_EXT</text>
</a>
</g>
</g>
<!-- Node4&#45;&gt;Node5 -->
<g id="edge4" class="edge">
<title>Node4&#45;&gt;Node5</title>
<path fill="none" stroke="midnightblue" d="M366.16,-276C377.72,-276 390.98,-276 403.28,-276"/>
<polygon fill="midnightblue" stroke="midnightblue" points="403.33,-279.5 413.33,-276 403.33,-272.5 403.33,-279.5"/>
</g>
<!-- Node6 -->
<g id="node6" class="node">
<title>Node6</title>
<g id="a_node6"><a xlink:href="syntactic__analysis_8c.html#a83f44b9d12d581ea924af4ba707819c3" target="_top" xlink:title="Function for processing argument of called function.">
<polygon fill="white" stroke="black" points="548,-304.5 548,-323.5 586,-323.5 586,-304.5 548,-304.5"/>
<text text-anchor="middle" x="567" y="-311.5" font-family="Helvetica,sans-Serif" font-size="10.00">ARG</text>
</a>
</g>
</g>
<!-- Node5&#45;&gt;Node6 -->
<g id="edge5" class="edge">
<title>Node5&#45;&gt;Node6</title>
<path fill="none" stroke="midnightblue" d="M477.03,-285.59C495.85,-291.6 519.94,-299.29 538.3,-305.16"/>
<polygon fill="midnightblue" stroke="midnightblue" points="537.25,-308.49 547.85,-308.2 539.38,-301.83 537.25,-308.49"/>
</g>
<!-- Node8 -->
<g id="node8" class="node">
<title>Node8</title>
<g id="a_node8"><a xlink:href="syntactic__analysis_8c.html#a38b7a13b9a5926c2c4b6af62cec86f85" target="_top" xlink:title="Function for processing another argument which is in queue.">
<polygon fill="white" stroke="black" points="649,-190.5 649,-209.5 727,-209.5 727,-190.5 649,-190.5"/>
<text text-anchor="middle" x="688" y="-197.5" font-family="Helvetica,sans-Serif" font-size="10.00">EXPRESSION</text>
</a>
</g>
</g>
<!-- Node5&#45;&gt;Node8 -->
<g id="edge9" class="edge">
<title>Node5&#45;&gt;Node8</title>
<path fill="none" stroke="midnightblue" d="M478.51,-277.32C512.85,-277.66 568.78,-274.93 613,-257 635.36,-247.93 656.73,-230.15 670.7,-216.85"/>
<polygon fill="midnightblue" stroke="midnightblue" points="673.36,-219.14 678.03,-209.63 668.45,-214.15 673.36,-219.14"/>
</g>
<!-- Node7 -->
<g id="node7" class="node">
<title>Node7</title>
<g id="a_node7"><a xlink:href="syntactic__analysis_8c.html#a271ef1f0dc6a029b233bcb024b19b116" target="_top" xlink:title="Function for processing another argument which is in queue.">
<polygon fill="white" stroke="black" points="666,-304.5 666,-323.5 710,-323.5 710,-304.5 666,-304.5"/>
<text text-anchor="middle" x="688" y="-311.5" font-family="Helvetica,sans-Serif" font-size="10.00">ARGS</text>
</a>
</g>
</g>
<!-- Node6&#45;&gt;Node7 -->
<g id="edge6" class="edge">
<title>Node6&#45;&gt;Node7</title>
<path fill="none" stroke="midnightblue" d="M586.07,-308.99C604.51,-307.08 633.49,-306.74 655.67,-307.97"/>
<polygon fill="midnightblue" stroke="midnightblue" points="655.72,-311.49 665.94,-308.7 656.21,-304.5 655.72,-311.49"/>
</g>
<!-- Node6&#45;&gt;Node8 -->
<g id="edge8" class="edge">
<title>Node6&#45;&gt;Node8</title>
<path fill="none" stroke="midnightblue" d="M586.09,-306.37C594.73,-302.24 604.92,-296.62 613,-290 638.8,-268.86 662.07,-237.62 675.36,-218.05"/>
<polygon fill="midnightblue" stroke="midnightblue" points="678.27,-219.99 680.89,-209.72 672.44,-216.12 678.27,-219.99"/>
</g>
<!-- Node7&#45;&gt;Node6 -->
<g id="edge7" class="edge">
<title>Node7&#45;&gt;Node6</title>
<path fill="none" stroke="midnightblue" d="M665.94,-319.3C646.53,-321.03 617.58,-321.21 596.19,-319.84"/>
<polygon fill="midnightblue" stroke="midnightblue" points="596.33,-316.34 586.07,-319.01 595.75,-323.32 596.33,-316.34"/>
</g>
<!-- Node10 -->
<g id="node10" class="node">
<title>Node10</title>
<g id="a_node10"><a xlink:href="syntactic__analysis_8c.html#aa1d8bc4c3095f3ba13e1fcc83038d948" target="_top" xlink:title="Processes assigning expresions to the constant.">
<polygon fill="white" stroke="black" points="521,-228.5 521,-247.5 613,-247.5 613,-228.5 521,-228.5"/>
<text text-anchor="middle" x="567" y="-235.5" font-family="Helvetica,sans-Serif" font-size="10.00">ASSIGN_CONST</text>
</a>
</g>
</g>
<!-- Node9&#45;&gt;Node10 -->
<g id="edge11" class="edge">
<title>Node9&#45;&gt;Node10</title>
<path fill="none" stroke="midnightblue" d="M371.18,-238C408.72,-238 467.5,-238 510.68,-238"/>
<polygon fill="midnightblue" stroke="midnightblue" points="510.75,-241.5 520.75,-238 510.75,-234.5 510.75,-241.5"/>
</g>
<!-- Node10&#45;&gt;Node8 -->
<g id="edge12" class="edge">
<title>Node10&#45;&gt;Node8</title>
<path fill="none" stroke="midnightblue" d="M598.03,-228.41C612.97,-223.64 631.22,-217.81 647.3,-212.68"/>
<polygon fill="midnightblue" stroke="midnightblue" points="648.52,-215.96 656.98,-209.59 646.39,-209.29 648.52,-215.96"/>
</g>
<!-- Node11&#45;&gt;Node8 -->
<g id="edge15" class="edge">
<title>Node11&#45;&gt;Node8</title>
<path fill="none" stroke="midnightblue" d="M358.73,-200C416.3,-200 562.16,-200 638.59,-200"/>
<polygon fill="midnightblue" stroke="midnightblue" points="638.9,-203.5 648.9,-200 638.9,-196.5 638.9,-203.5"/>
</g>
<!-- Node12 -->
<g id="node12" class="node">
<title>Node12</title>
<g id="a_node12"><a xlink:href="syntactic__analysis_8c.html#af131918ae0d8a1cc29cb2c8d6dc13aff" target="_top" xlink:title="Extended function for CALL_DEF()">
<polygon fill="white" stroke="black" points="421,-0.5 421,-19.5 471,-19.5 471,-0.5 421,-0.5"/>
<text text-anchor="middle" x="446" y="-7.5" font-family="Helvetica,sans-Serif" font-size="10.00">IF_EXT</text>
</a>
</g>
</g>
<!-- Node11&#45;&gt;Node12 -->
<g id="edge16" class="edge">
<title>Node11&#45;&gt;Node12</title>
<path fill="none" stroke="midnightblue" d="M340.88,-190.43C348.32,-179.2 360.87,-159.95 371,-143 394.93,-102.95 421.05,-54.88 434.96,-28.9"/>
<polygon fill="midnightblue" stroke="midnightblue" points="438.2,-30.27 439.82,-19.8 432.02,-26.97 438.2,-30.27"/>
</g>
<!-- Node12&#45;&gt;Node2 -->
<g id="edge17" class="edge">
<title>Node12&#45;&gt;Node2</title>
<path fill="none" stroke="midnightblue" d="M420.73,-17.54C364.31,-35.08 224.23,-78.62 159.84,-98.64"/>
<polygon fill="midnightblue" stroke="midnightblue" points="158.69,-95.33 150.18,-101.64 160.77,-102.01 158.69,-95.33"/>
</g>
<!-- Node13&#45;&gt;Node8 -->
<g id="edge19" class="edge">
<title>Node13&#45;&gt;Node8</title>
<path fill="none" stroke="midnightblue" d="M597.11,-171.3C612.15,-176.1 630.74,-182.03 647.1,-187.26"/>
<polygon fill="midnightblue" stroke="midnightblue" points="646.36,-190.7 656.95,-190.4 648.49,-184.03 646.36,-190.7"/>
</g>
<!-- Node15 -->
<g id="node15" class="node">
<title>Node15</title>
<g id="a_node15"><a xlink:href="syntactic__analysis_8c.html#a76e0ba812902123b4ec0d43c59c13c04" target="_top" xlink:title="Processes assigning expresions to the variable.">
<polygon fill="white" stroke="black" points="407,-114.5 407,-133.5 485,-133.5 485,-114.5 407,-114.5"/>
<text text-anchor="middle" x="446" y="-121.5" font-family="Helvetica,sans-Serif" font-size="10.00">ASSIGN_VAR</text>
</a>
</g>
</g>
<!-- Node14&#45;&gt;Node15 -->
<g id="edge21" class="edge">
<title>Node14&#45;&gt;Node15</title>
<path fill="none" stroke="midnightblue" d="M364.11,-124C374.19,-124 385.74,-124 396.89,-124"/>
<polygon fill="midnightblue" stroke="midnightblue" points="396.97,-127.5 406.97,-124 396.97,-120.5 396.97,-127.5"/>
</g>
<!-- Node15&#45;&gt;Node8 -->
<g id="edge22" class="edge">
<title>Node15&#45;&gt;Node8</title>
<path fill="none" stroke="midnightblue" d="M485.01,-122.65C519.6,-122.73 571.47,-126.16 613,-143 635.36,-152.07 656.73,-169.85 670.7,-183.15"/>
<polygon fill="midnightblue" stroke="midnightblue" points="668.45,-185.85 678.03,-190.37 673.36,-180.86 668.45,-185.85"/>
</g>
<!-- Node16 -->
<g id="node16" class="node">
<title>Node16</title>
<g id="a_node16"><a xlink:href="syntactic__analysis_8c.html#aaef2bee27144c07c175bb36e4c28af9d" target="_top" xlink:title="Function for verifaction enabled data types (DATA TYPES)">
<polygon fill="white" stroke="black" points="535,-76.5 535,-95.5 599,-95.5 599,-76.5 535,-76.5"/>
<text text-anchor="middle" x="567" y="-83.5" font-family="Helvetica,sans-Serif" font-size="10.00">VAL_TYPE</text>
</a>
</g>
</g>
<!-- Node15&#45;&gt;Node16 -->
<g id="edge23" class="edge">
<title>Node15&#45;&gt;Node16</title>
<path fill="none" stroke="midnightblue" d="M477.03,-114.41C491.97,-109.64 510.22,-103.81 526.3,-98.68"/>
<polygon fill="midnightblue" stroke="midnightblue" points="527.52,-101.96 535.98,-95.59 525.39,-95.29 527.52,-101.96"/>
</g>
<!-- Node17&#45;&gt;Node2 -->
<g id="edge26" class="edge">
<title>Node17&#45;&gt;Node2</title>
<path fill="none" stroke="midnightblue" d="M296.75,-89.99C258.31,-94.28 197.66,-101.05 160.08,-105.25"/>
<polygon fill="midnightblue" stroke="midnightblue" points="159.68,-101.77 150.13,-106.36 160.46,-108.73 159.68,-101.77"/>
</g>
<!-- Node17&#45;&gt;Node8 -->
<g id="edge25" class="edge">
<title>Node17&#45;&gt;Node8</title>
<path fill="none" stroke="midnightblue" d="M357.03,-76.47C407.08,-56.91 529.66,-18 613,-67 654.99,-91.69 674.88,-149.8 682.72,-180.38"/>
<polygon fill="midnightblue" stroke="midnightblue" points="679.36,-181.38 685.09,-190.29 686.17,-179.76 679.36,-181.38"/>
</g>
</g>
</svg>
