<?xml version="1.0" encoding="UTF-8" standalone="no"?>
<!DOCTYPE svg PUBLIC "-//W3C//DTD SVG 1.1//EN"
 "http://www.w3.org/Graphics/SVG/1.1/DTD/svg11.dtd">
<!-- Generated by graphviz version 2.43.0 (0)
 -->
<!-- Title: CALL_DEF Pages: 1 -->
<svg width="362pt" height="66pt"
 viewBox="0.00 0.00 362.00 66.00" xmlns="http://www.w3.org/2000/svg" xmlns:xlink="http://www.w3.org/1999/xlink">
<g id="graph0" class="graph" transform="scale(1 1) rotate(0) translate(4 62)">
<title>CALL_DEF</title>
<polygon fill="white" stroke="transparent" points="-4,4 -4,-62 358,-62 358,4 -4,4"/>
<!-- Node1 -->
<g id="node1" class="node">
<title>Node1</title>
<g id="a_node1"><a xlink:title="Processes calling functions, variables.">
<polygon fill="#bfbfbf" stroke="black" points="0,-19.5 0,-38.5 65,-38.5 65,-19.5 0,-19.5"/>
<text text-anchor="middle" x="32.5" y="-26.5" font-family="Helvetica,sans-Serif" font-size="10.00">CALL_DEF</text>
</a>
</g>
</g>
<!-- Node2 -->
<g id="node2" class="node">
<title>Node2</title>
<g id="a_node2"><a xlink:href="syntactic__analysis_8c.html#ade39708cf9c0a95b1e75a94b3982f1aa" target="_top" xlink:title="Extended function for CALL_DEF()">
<polygon fill="white" stroke="black" points="101,-19.5 101,-38.5 166,-38.5 166,-19.5 101,-19.5"/>
<text text-anchor="middle" x="133.5" y="-26.5" font-family="Helvetica,sans-Serif" font-size="10.00">CALL_EXT</text>
</a>
</g>
</g>
<!-- Node1&#45;&gt;Node2 -->
<g id="edge1" class="edge">
<title>Node1&#45;&gt;Node2</title>
<path fill="none" stroke="midnightblue" d="M65.1,-29C73.22,-29 82.09,-29 90.65,-29"/>
<polygon fill="midnightblue" stroke="midnightblue" points="90.86,-32.5 100.86,-29 90.86,-25.5 90.86,-32.5"/>
</g>
<!-- Node3 -->
<g id="node3" class="node">
<title>Node3</title>
<g id="a_node3"><a xlink:href="syntactic__analysis_8c.html#a83f44b9d12d581ea924af4ba707819c3" target="_top" xlink:title="Function for processing argument of called function.">
<polygon fill="white" stroke="black" points="202,-38.5 202,-57.5 240,-57.5 240,-38.5 202,-38.5"/>
<text text-anchor="middle" x="221" y="-45.5" font-family="Helvetica,sans-Serif" font-size="10.00">ARG</text>
</a>
</g>
</g>
<!-- Node2&#45;&gt;Node3 -->
<g id="edge2" class="edge">
<title>Node2&#45;&gt;Node3</title>
<path fill="none" stroke="midnightblue" d="M166.34,-36.07C174.75,-37.94 183.77,-39.95 191.96,-41.77"/>
<polygon fill="midnightblue" stroke="midnightblue" points="191.27,-45.2 201.8,-43.95 192.79,-38.37 191.27,-45.2"/>
</g>
<!-- Node5 -->
<g id="node5" class="node">
<title>Node5</title>
<g id="a_node5"><a xlink:href="syntactic__analysis_8c.html#a38b7a13b9a5926c2c4b6af62cec86f85" target="_top" xlink:title="Function for processing another argument which is in queue.">
<polygon fill="white" stroke="black" points="276,-0.5 276,-19.5 354,-19.5 354,-0.5 276,-0.5"/>
<text text-anchor="middle" x="315" y="-7.5" font-family="Helvetica,sans-Serif" font-size="10.00">EXPRESSION</text>
</a>
</g>
</g>
<!-- Node2&#45;&gt;Node5 -->
<g id="edge6" class="edge">
<title>Node2&#45;&gt;Node5</title>
<path fill="none" stroke="midnightblue" d="M166.18,-25.65C193.67,-22.74 233.89,-18.48 265.44,-15.14"/>
<polygon fill="midnightblue" stroke="midnightblue" points="266.21,-18.58 275.78,-14.05 265.47,-11.62 266.21,-18.58"/>
</g>
<!-- Node4 -->
<g id="node4" class="node">
<title>Node4</title>
<g id="a_node4"><a xlink:href="syntactic__analysis_8c.html#a271ef1f0dc6a029b233bcb024b19b116" target="_top" xlink:title="Function for processing another argument which is in queue.">
<polygon fill="white" stroke="black" points="293,-38.5 293,-57.5 337,-57.5 337,-38.5 293,-38.5"/>
<text text-anchor="middle" x="315" y="-45.5" font-family="Helvetica,sans-Serif" font-size="10.00">ARGS</text>
</a>
</g>
</g>
<!-- Node3&#45;&gt;Node4 -->
<g id="edge3" class="edge">
<title>Node3&#45;&gt;Node4</title>
<path fill="none" stroke="midnightblue" d="M240.18,-42.5C252.28,-41.25 268.49,-40.94 282.65,-41.56"/>
<polygon fill="midnightblue" stroke="midnightblue" points="282.76,-45.08 292.96,-42.23 283.21,-38.09 282.76,-45.08"/>
</g>
<!-- Node3&#45;&gt;Node5 -->
<g id="edge5" class="edge">
<title>Node3&#45;&gt;Node5</title>
<path fill="none" stroke="midnightblue" d="M240.18,-40.49C252,-35.61 267.76,-29.1 281.68,-23.35"/>
<polygon fill="midnightblue" stroke="midnightblue" points="283.05,-26.57 290.96,-19.52 280.38,-20.1 283.05,-26.57"/>
</g>
<!-- Node4&#45;&gt;Node3 -->
<g id="edge4" class="edge">
<title>Node4&#45;&gt;Node3</title>
<path fill="none" stroke="midnightblue" d="M292.96,-53.77C280.39,-54.87 264.25,-55.04 250.54,-54.3"/>
<polygon fill="midnightblue" stroke="midnightblue" points="250.41,-50.78 240.18,-53.5 249.88,-57.76 250.41,-50.78"/>
</g>
</g>
</svg>
