<?xml version="1.0" encoding="UTF-8" standalone="no"?>
<!DOCTYPE svg PUBLIC "-//W3C//DTD SVG 1.1//EN"
 "http://www.w3.org/Graphics/SVG/1.1/DTD/svg11.dtd">
<!-- Generated by graphviz version 2.43.0 (0)
 -->
<!-- Title: IF_EXT Pages: 1 -->
<svg width="605pt" height="142pt"
 viewBox="0.00 0.00 605.00 142.00" xmlns="http://www.w3.org/2000/svg" xmlns:xlink="http://www.w3.org/1999/xlink">
<g id="graph0" class="graph" transform="scale(1 1) rotate(0) translate(4 138)">
<title>IF_EXT</title>
<polygon fill="white" stroke="transparent" points="-4,4 -4,-138 601,-138 601,4 -4,4"/>
<!-- Node1 -->
<g id="node1" class="node">
<title>Node1</title>
<g id="a_node1"><a xlink:title="Extended function for CALL_DEF()">
<polygon fill="#bfbfbf" stroke="black" points="547,-19.5 547,-38.5 597,-38.5 597,-19.5 547,-19.5"/>
<text text-anchor="middle" x="572" y="-26.5" font-family="Helvetica,sans-Serif" font-size="10.00">IF_EXT</text>
</a>
</g>
</g>
<!-- Node2 -->
<g id="node2" class="node">
<title>Node2</title>
<g id="a_node2"><a xlink:href="syntactic__analysis_8c.html#ac9b33c13aa831335429748838739aef7" target="_top" xlink:title="Processes if condition.">
<polygon fill="white" stroke="black" points="461,-19.5 461,-38.5 511,-38.5 511,-19.5 461,-19.5"/>
<text text-anchor="middle" x="486" y="-26.5" font-family="Helvetica,sans-Serif" font-size="10.00">IF_DEF</text>
</a>
</g>
</g>
<!-- Node1&#45;&gt;Node2 -->
<g id="edge1" class="edge">
<title>Node1&#45;&gt;Node2</title>
<path fill="none" stroke="midnightblue" d="M536.63,-29C528.11,-29 519.16,-29 511.24,-29"/>
<polygon fill="midnightblue" stroke="midnightblue" points="536.7,-32.5 546.7,-29 536.7,-25.5 536.7,-32.5"/>
</g>
<!-- Node3 -->
<g id="node3" class="node">
<title>Node3</title>
<g id="a_node3"><a xlink:href="syntactic__analysis_8c.html#a7eac9e4351cf87fecd3e9a66cf5f28d8" target="_top" xlink:title="Processes the commands, coditions, ...">
<polygon fill="white" stroke="black" points="351,-57.5 351,-76.5 425,-76.5 425,-57.5 351,-57.5"/>
<text text-anchor="middle" x="388" y="-64.5" font-family="Helvetica,sans-Serif" font-size="10.00">STATEMENT</text>
</a>
</g>
</g>
<!-- Node2&#45;&gt;Node3 -->
<g id="edge2" class="edge">
<title>Node2&#45;&gt;Node3</title>
<path fill="none" stroke="midnightblue" d="M451.12,-42.41C438.61,-47.36 424.7,-52.87 413.22,-57.41"/>
<polygon fill="midnightblue" stroke="midnightblue" points="452.77,-45.52 460.78,-38.59 450.19,-39.02 452.77,-45.52"/>
</g>
<!-- Node4 -->
<g id="node4" class="node">
<title>Node4</title>
<g id="a_node4"><a xlink:href="syntactic__analysis_8c.html#a7d21e9db61747d6734d9a7f27d33b4f4" target="_top" xlink:title="Function for determining the depth of infestation.">
<polygon fill="white" stroke="black" points="266,-38.5 266,-57.5 315,-57.5 315,-38.5 266,-38.5"/>
<text text-anchor="middle" x="290.5" y="-45.5" font-family="Helvetica,sans-Serif" font-size="10.00">SCOPE</text>
</a>
</g>
</g>
<!-- Node3&#45;&gt;Node4 -->
<g id="edge3" class="edge">
<title>Node3&#45;&gt;Node4</title>
<path fill="none" stroke="midnightblue" d="M340.94,-57.84C332.03,-56.06 323.04,-54.28 315.22,-52.72"/>
<polygon fill="midnightblue" stroke="midnightblue" points="340.4,-61.3 350.9,-59.82 341.77,-54.43 340.4,-61.3"/>
</g>
<!-- Node5 -->
<g id="node5" class="node">
<title>Node5</title>
<g id="a_node5"><a xlink:href="syntactic__analysis_8c.html#a047deda12297b3a39f2d50261fd7de70" target="_top" xlink:title="Processes else condition.">
<polygon fill="white" stroke="black" points="161,-114.5 161,-133.5 226,-133.5 226,-114.5 161,-114.5"/>
<text text-anchor="middle" x="193.5" y="-121.5" font-family="Helvetica,sans-Serif" font-size="10.00">ELSE_DEF</text>
</a>
</g>
</g>
<!-- Node4&#45;&gt;Node5 -->
<g id="edge4" class="edge">
<title>Node4&#45;&gt;Node5</title>
<path fill="none" stroke="midnightblue" d="M273.84,-65.32C262.43,-77.35 246.18,-93.26 230,-105 225.25,-108.45 219.79,-111.68 214.61,-114.46"/>
<polygon fill="midnightblue" stroke="midnightblue" points="276.67,-67.42 280.92,-57.72 271.55,-62.66 276.67,-67.42"/>
</g>
<!-- Node6 -->
<g id="node6" class="node">
<title>Node6</title>
<g id="a_node6"><a xlink:href="syntactic__analysis_8c.html#afb9892407a0399d61e51261ff730599a" target="_top" xlink:title="Processes function declaration.">
<polygon fill="white" stroke="black" points="166,-38.5 166,-57.5 221,-57.5 221,-38.5 166,-38.5"/>
<text text-anchor="middle" x="193.5" y="-45.5" font-family="Helvetica,sans-Serif" font-size="10.00">FN_DEF</text>
</a>
</g>
</g>
<!-- Node4&#45;&gt;Node6 -->
<g id="edge6" class="edge">
<title>Node4&#45;&gt;Node6</title>
<path fill="none" stroke="midnightblue" d="M255.2,-48C243.98,-48 231.71,-48 221.14,-48"/>
<polygon fill="midnightblue" stroke="midnightblue" points="255.53,-51.5 265.53,-48 255.53,-44.5 255.53,-51.5"/>
</g>
<!-- Node9 -->
<g id="node9" class="node">
<title>Node9</title>
<g id="a_node9"><a xlink:href="syntactic__analysis_8c.html#af131918ae0d8a1cc29cb2c8d6dc13aff" target="_top" xlink:title="Extended function for CALL_DEF()">
<polygon fill="white" stroke="black" points="168.5,-0.5 168.5,-19.5 218.5,-19.5 218.5,-0.5 168.5,-0.5"/>
<text text-anchor="middle" x="193.5" y="-7.5" font-family="Helvetica,sans-Serif" font-size="10.00">IF_EXT</text>
</a>
</g>
</g>
<!-- Node4&#45;&gt;Node9 -->
<g id="edge9" class="edge">
<title>Node4&#45;&gt;Node9</title>
<path fill="none" stroke="midnightblue" d="M255.97,-34.59C243.59,-29.64 229.83,-24.13 218.46,-19.59"/>
<polygon fill="midnightblue" stroke="midnightblue" points="254.94,-37.95 265.53,-38.41 257.54,-31.45 254.94,-37.95"/>
</g>
<!-- Node10 -->
<g id="node10" class="node">
<title>Node10</title>
<g id="a_node10"><a xlink:href="syntactic__analysis_8c.html#a13efec100d0c39c874c413765ded4d10" target="_top" xlink:title="Processes while loop.">
<polygon fill="white" stroke="black" points="157,-76.5 157,-95.5 230,-95.5 230,-76.5 157,-76.5"/>
<text text-anchor="middle" x="193.5" y="-83.5" font-family="Helvetica,sans-Serif" font-size="10.00">WHILE_DEF</text>
</a>
</g>
</g>
<!-- Node4&#45;&gt;Node10 -->
<g id="edge11" class="edge">
<title>Node4&#45;&gt;Node10</title>
<path fill="none" stroke="midnightblue" d="M255.97,-61.41C243.59,-66.36 229.83,-71.87 218.46,-76.41"/>
<polygon fill="midnightblue" stroke="midnightblue" points="257.54,-64.55 265.53,-57.59 254.94,-58.05 257.54,-64.55"/>
</g>
<!-- Node5&#45;&gt;Node3 -->
<g id="edge5" class="edge">
<title>Node5&#45;&gt;Node3</title>
<path fill="none" stroke="midnightblue" d="M235.94,-112.68C259.23,-106.23 288.8,-97.88 315,-90 329.2,-85.73 344.89,-80.75 357.99,-76.52"/>
<polygon fill="midnightblue" stroke="midnightblue" points="234.75,-109.38 226.05,-115.42 236.62,-116.13 234.75,-109.38"/>
</g>
<!-- Node7 -->
<g id="node7" class="node">
<title>Node7</title>
<g id="a_node7"><a xlink:href="syntactic__analysis_8c.html#a607ec0964227a0c6c98fd79770e51c11" target="_top" xlink:title="Processes the FIRST rule in the syntactic analysis.">
<polygon fill="white" stroke="black" points="77,-38.5 77,-57.5 121,-57.5 121,-38.5 77,-38.5"/>
<text text-anchor="middle" x="99" y="-45.5" font-family="Helvetica,sans-Serif" font-size="10.00">FIRST</text>
</a>
</g>
</g>
<!-- Node6&#45;&gt;Node7 -->
<g id="edge7" class="edge">
<title>Node6&#45;&gt;Node7</title>
<path fill="none" stroke="midnightblue" d="M155.72,-48C143.97,-48 131.36,-48 121.12,-48"/>
<polygon fill="midnightblue" stroke="midnightblue" points="155.75,-51.5 165.75,-48 155.75,-44.5 155.75,-51.5"/>
</g>
<!-- Node8 -->
<g id="node8" class="node">
<title>Node8</title>
<g id="a_node8"><a xlink:href="main_8c.html#a3c04138a5bfe5d72780bb7e82a18e627" target="_top" xlink:title=" ">
<polygon fill="white" stroke="black" points="0,-38.5 0,-57.5 41,-57.5 41,-38.5 0,-38.5"/>
<text text-anchor="middle" x="20.5" y="-45.5" font-family="Helvetica,sans-Serif" font-size="10.00">main</text>
</a>
</g>
</g>
<!-- Node7&#45;&gt;Node8 -->
<g id="edge8" class="edge">
<title>Node7&#45;&gt;Node8</title>
<path fill="none" stroke="midnightblue" d="M66.55,-48C57.94,-48 48.86,-48 41.12,-48"/>
<polygon fill="midnightblue" stroke="midnightblue" points="66.69,-51.5 76.69,-48 66.69,-44.5 66.69,-51.5"/>
</g>
<!-- Node9&#45;&gt;Node2 -->
<g id="edge10" class="edge">
<title>Node9&#45;&gt;Node2</title>
<path fill="none" stroke="midnightblue" d="M228.93,-12.25C288.46,-16.15 409.15,-24.04 460.73,-27.41"/>
<polygon fill="midnightblue" stroke="midnightblue" points="229.11,-8.76 218.9,-11.6 228.65,-15.74 229.11,-8.76"/>
</g>
<!-- Node10&#45;&gt;Node3 -->
<g id="edge12" class="edge">
<title>Node10&#45;&gt;Node3</title>
<path fill="none" stroke="midnightblue" d="M240.31,-81.48C274.12,-78.14 319.5,-73.66 350.79,-70.57"/>
<polygon fill="midnightblue" stroke="midnightblue" points="239.83,-78.01 230.22,-82.47 240.52,-84.98 239.83,-78.01"/>
</g>
</g>
</svg>
