<?xml version="1.0" encoding="UTF-8" standalone="no"?>
<!DOCTYPE svg PUBLIC "-//W3C//DTD SVG 1.1//EN"
 "http://www.w3.org/Graphics/SVG/1.1/DTD/svg11.dtd">
<!-- Generated by graphviz version 2.43.0 (0)
 -->
<!-- Title: SCOPE Pages: 1 -->
<svg width="634pt" height="370pt"
 viewBox="0.00 0.00 634.00 370.00" xmlns="http://www.w3.org/2000/svg" xmlns:xlink="http://www.w3.org/1999/xlink">
<g id="graph0" class="graph" transform="scale(1 1) rotate(0) translate(4 366)">
<title>SCOPE</title>
<polygon fill="white" stroke="transparent" points="-4,4 -4,-366 630,-366 630,4 -4,4"/>
<!-- Node1 -->
<g id="node1" class="node">
<title>Node1</title>
<g id="a_node1"><a xlink:title="Function for determining the depth of infestation.">
<polygon fill="#bfbfbf" stroke="black" points="0,-133.5 0,-152.5 49,-152.5 49,-133.5 0,-133.5"/>
<text text-anchor="middle" x="24.5" y="-140.5" font-family="Helvetica,sans-Serif" font-size="10.00">SCOPE</text>
</a>
</g>
</g>
<!-- Node2 -->
<g id="node2" class="node">
<title>Node2</title>
<g id="a_node2"><a xlink:href="syntactic__analysis_8c.html#a7eac9e4351cf87fecd3e9a66cf5f28d8" target="_top" xlink:title="Processes the commands, coditions, ...">
<polygon fill="white" stroke="black" points="85,-133.5 85,-152.5 159,-152.5 159,-133.5 85,-133.5"/>
<text text-anchor="middle" x="122" y="-140.5" font-family="Helvetica,sans-Serif" font-size="10.00">STATEMENT</text>
</a>
</g>
</g>
<!-- Node1&#45;&gt;Node2 -->
<g id="edge1" class="edge">
<title>Node1&#45;&gt;Node2</title>
<path fill="none" stroke="midnightblue" d="M49.11,-143C56.81,-143 65.65,-143 74.43,-143"/>
<polygon fill="midnightblue" stroke="midnightblue" points="74.65,-146.5 84.65,-143 74.65,-139.5 74.65,-146.5"/>
</g>
<!-- Node3 -->
<g id="node3" class="node">
<title>Node3</title>
<g id="a_node3"><a xlink:href="syntactic__analysis_8c.html#a2999c303cc3fb4692b7e96d9a22e9c03" target="_top" xlink:title="Processes calling functions, variables.">
<polygon fill="white" stroke="black" points="200,-247.5 200,-266.5 265,-266.5 265,-247.5 200,-247.5"/>
<text text-anchor="middle" x="232.5" y="-254.5" font-family="Helvetica,sans-Serif" font-size="10.00">CALL_DEF</text>
</a>
</g>
</g>
<!-- Node2&#45;&gt;Node3 -->
<g id="edge2" class="edge">
<title>Node2&#45;&gt;Node3</title>
<path fill="none" stroke="midnightblue" d="M132.3,-152.86C146,-167.37 172.42,-195.33 195,-219 201.48,-225.79 208.63,-233.25 214.88,-239.74"/>
<polygon fill="midnightblue" stroke="midnightblue" points="212.72,-242.56 222.18,-247.33 217.77,-237.7 212.72,-242.56"/>
</g>
<!-- Node8 -->
<g id="node8" class="node">
<title>Node8</title>
<g id="a_node8"><a xlink:href="syntactic__analysis_8c.html#ab1c09d376532dc76198f8d2d6c729fef" target="_top" xlink:title="Processes command for constant declaration.">
<polygon fill="white" stroke="black" points="195,-0.5 195,-19.5 270,-19.5 270,-0.5 195,-0.5"/>
<text text-anchor="middle" x="232.5" y="-7.5" font-family="Helvetica,sans-Serif" font-size="10.00">CONST_DEF</text>
</a>
</g>
</g>
<!-- Node2&#45;&gt;Node8 -->
<g id="edge9" class="edge">
<title>Node2&#45;&gt;Node8</title>
<path fill="none" stroke="midnightblue" d="M127.02,-133.25C136.23,-111.93 160.72,-60.54 195,-29 196.5,-27.62 198.12,-26.31 199.81,-25.08"/>
<polygon fill="midnightblue" stroke="midnightblue" points="202.06,-27.8 208.67,-19.52 198.34,-21.87 202.06,-27.8"/>
</g>
<!-- Node10 -->
<g id="node10" class="node">
<title>Node10</title>
<g id="a_node10"><a xlink:href="syntactic__analysis_8c.html#a047deda12297b3a39f2d50261fd7de70" target="_top" xlink:title="Processes else condition.">
<polygon fill="white" stroke="black" points="312.5,-152.5 312.5,-171.5 377.5,-171.5 377.5,-152.5 312.5,-152.5"/>
<text text-anchor="middle" x="345" y="-159.5" font-family="Helvetica,sans-Serif" font-size="10.00">ELSE_DEF</text>
</a>
</g>
</g>
<!-- Node2&#45;&gt;Node10 -->
<g id="edge12" class="edge">
<title>Node2&#45;&gt;Node10</title>
<path fill="none" stroke="midnightblue" d="M159.49,-146.14C198.82,-149.52 261.31,-154.89 302.49,-158.43"/>
<polygon fill="midnightblue" stroke="midnightblue" points="302.21,-161.92 312.47,-159.29 302.8,-154.95 302.21,-161.92"/>
</g>
<!-- Node12 -->
<g id="node12" class="node">
<title>Node12</title>
<g id="a_node12"><a xlink:href="syntactic__analysis_8c.html#ac9b33c13aa831335429748838739aef7" target="_top" xlink:title="Processes if condition.">
<polygon fill="white" stroke="black" points="207.5,-190.5 207.5,-209.5 257.5,-209.5 257.5,-190.5 207.5,-190.5"/>
<text text-anchor="middle" x="232.5" y="-197.5" font-family="Helvetica,sans-Serif" font-size="10.00">IF_DEF</text>
</a>
</g>
</g>
<!-- Node2&#45;&gt;Node12 -->
<g id="edge15" class="edge">
<title>Node2&#45;&gt;Node12</title>
<path fill="none" stroke="midnightblue" d="M141.41,-152.67C158.66,-161.73 184.66,-175.39 204.3,-185.71"/>
<polygon fill="midnightblue" stroke="midnightblue" points="202.89,-188.92 213.37,-190.47 206.14,-182.72 202.89,-188.92"/>
</g>
<!-- Node14 -->
<g id="node14" class="node">
<title>Node14</title>
<g id="a_node14"><a xlink:href="syntactic__analysis_8c.html#a1012bbb9f570627aabec5e3eda7c4993" target="_top" xlink:title="Processes return command.">
<polygon fill="white" stroke="black" points="436,-304.5 436,-323.5 496,-323.5 496,-304.5 436,-304.5"/>
<text text-anchor="middle" x="466" y="-311.5" font-family="Helvetica,sans-Serif" font-size="10.00">RET_DEF</text>
</a>
</g>
</g>
<!-- Node2&#45;&gt;Node14 -->
<g id="edge19" class="edge">
<title>Node2&#45;&gt;Node14</title>
<path fill="none" stroke="midnightblue" d="M125.14,-152.63C131.21,-177.57 151.04,-244.48 195,-276 264.17,-325.6 369.37,-324.27 425.87,-319.09"/>
<polygon fill="midnightblue" stroke="midnightblue" points="426.23,-322.57 435.83,-318.08 425.53,-315.6 426.23,-322.57"/>
</g>
<!-- Node15 -->
<g id="node15" class="node">
<title>Node15</title>
<g id="a_node15"><a xlink:href="syntactic__analysis_8c.html#a49c6186e8aee36246b52305756b7a017" target="_top" xlink:title="Processes command for variable declaration.">
<polygon fill="white" stroke="black" points="202,-38.5 202,-57.5 263,-57.5 263,-38.5 202,-38.5"/>
<text text-anchor="middle" x="232.5" y="-45.5" font-family="Helvetica,sans-Serif" font-size="10.00">VAR_DEF</text>
</a>
</g>
</g>
<!-- Node2&#45;&gt;Node15 -->
<g id="edge21" class="edge">
<title>Node2&#45;&gt;Node15</title>
<path fill="none" stroke="midnightblue" d="M131.77,-133.2C144.82,-118.9 170.43,-91.87 195,-72 198.68,-69.02 202.74,-66.07 206.77,-63.31"/>
<polygon fill="midnightblue" stroke="midnightblue" points="208.97,-66.05 215.39,-57.63 205.12,-60.2 208.97,-66.05"/>
</g>
<!-- Node18 -->
<g id="node18" class="node">
<title>Node18</title>
<g id="a_node18"><a xlink:href="syntactic__analysis_8c.html#a13efec100d0c39c874c413765ded4d10" target="_top" xlink:title="Processes while loop.">
<polygon fill="white" stroke="black" points="308.5,-76.5 308.5,-95.5 381.5,-95.5 381.5,-76.5 308.5,-76.5"/>
<text text-anchor="middle" x="345" y="-83.5" font-family="Helvetica,sans-Serif" font-size="10.00">WHILE_DEF</text>
</a>
</g>
</g>
<!-- Node2&#45;&gt;Node18 -->
<g id="edge25" class="edge">
<title>Node2&#45;&gt;Node18</title>
<path fill="none" stroke="midnightblue" d="M140.23,-133.49C154.51,-126.02 175.53,-115.91 195,-110 228.87,-99.72 268.47,-93.61 298.34,-90.12"/>
<polygon fill="midnightblue" stroke="midnightblue" points="298.92,-93.58 308.47,-89 298.15,-86.62 298.92,-93.58"/>
</g>
<!-- Node4 -->
<g id="node4" class="node">
<title>Node4</title>
<g id="a_node4"><a xlink:href="syntactic__analysis_8c.html#ade39708cf9c0a95b1e75a94b3982f1aa" target="_top" xlink:title="Extended function for CALL_DEF()">
<polygon fill="white" stroke="black" points="312.5,-266.5 312.5,-285.5 377.5,-285.5 377.5,-266.5 312.5,-266.5"/>
<text text-anchor="middle" x="345" y="-273.5" font-family="Helvetica,sans-Serif" font-size="10.00">CALL_EXT</text>
</a>
</g>
</g>
<!-- Node3&#45;&gt;Node4 -->
<g id="edge3" class="edge">
<title>Node3&#45;&gt;Node4</title>
<path fill="none" stroke="midnightblue" d="M265.16,-262.44C276.72,-264.43 289.98,-266.71 302.28,-268.83"/>
<polygon fill="midnightblue" stroke="midnightblue" points="301.88,-272.31 312.33,-270.55 303.07,-265.41 301.88,-272.31"/>
</g>
<!-- Node5 -->
<g id="node5" class="node">
<title>Node5</title>
<g id="a_node5"><a xlink:href="syntactic__analysis_8c.html#a83f44b9d12d581ea924af4ba707819c3" target="_top" xlink:title="Function for processing argument of called function.">
<polygon fill="white" stroke="black" points="447,-342.5 447,-361.5 485,-361.5 485,-342.5 447,-342.5"/>
<text text-anchor="middle" x="466" y="-349.5" font-family="Helvetica,sans-Serif" font-size="10.00">ARG</text>
</a>
</g>
</g>
<!-- Node4&#45;&gt;Node5 -->
<g id="edge4" class="edge">
<title>Node4&#45;&gt;Node5</title>
<path fill="none" stroke="midnightblue" d="M356.89,-285.85C370.78,-298.05 395.9,-318.95 420,-333 425.44,-336.17 431.52,-339.11 437.4,-341.67"/>
<polygon fill="midnightblue" stroke="midnightblue" points="436.39,-345.04 446.97,-345.61 439.06,-338.57 436.39,-345.04"/>
</g>
<!-- Node7 -->
<g id="node7" class="node">
<title>Node7</title>
<g id="a_node7"><a xlink:href="syntactic__analysis_8c.html#a38b7a13b9a5926c2c4b6af62cec86f85" target="_top" xlink:title="Function for processing another argument which is in queue.">
<polygon fill="white" stroke="black" points="548,-228.5 548,-247.5 626,-247.5 626,-228.5 548,-228.5"/>
<text text-anchor="middle" x="587" y="-235.5" font-family="Helvetica,sans-Serif" font-size="10.00">EXPRESSION</text>
</a>
</g>
</g>
<!-- Node4&#45;&gt;Node7 -->
<g id="edge8" class="edge">
<title>Node4&#45;&gt;Node7</title>
<path fill="none" stroke="midnightblue" d="M377.58,-271.85C411.02,-267.36 465.33,-259.79 512,-252 520.34,-250.61 529.19,-249.03 537.76,-247.44"/>
<polygon fill="midnightblue" stroke="midnightblue" points="538.47,-250.87 547.65,-245.58 537.17,-243.99 538.47,-250.87"/>
</g>
<!-- Node6 -->
<g id="node6" class="node">
<title>Node6</title>
<g id="a_node6"><a xlink:href="syntactic__analysis_8c.html#a271ef1f0dc6a029b233bcb024b19b116" target="_top" xlink:title="Function for processing another argument which is in queue.">
<polygon fill="white" stroke="black" points="565,-342.5 565,-361.5 609,-361.5 609,-342.5 565,-342.5"/>
<text text-anchor="middle" x="587" y="-349.5" font-family="Helvetica,sans-Serif" font-size="10.00">ARGS</text>
</a>
</g>
</g>
<!-- Node5&#45;&gt;Node6 -->
<g id="edge5" class="edge">
<title>Node5&#45;&gt;Node6</title>
<path fill="none" stroke="midnightblue" d="M485.07,-346.99C503.51,-345.08 532.49,-344.74 554.67,-345.97"/>
<polygon fill="midnightblue" stroke="midnightblue" points="554.72,-349.49 564.94,-346.7 555.21,-342.5 554.72,-349.49"/>
</g>
<!-- Node5&#45;&gt;Node7 -->
<g id="edge7" class="edge">
<title>Node5&#45;&gt;Node7</title>
<path fill="none" stroke="midnightblue" d="M485.21,-346.7C493.88,-343.6 504.06,-339.09 512,-333 539.78,-311.69 562.89,-277.6 575.54,-256.58"/>
<polygon fill="midnightblue" stroke="midnightblue" points="578.72,-258.07 580.74,-247.67 572.68,-254.54 578.72,-258.07"/>
</g>
<!-- Node6&#45;&gt;Node5 -->
<g id="edge6" class="edge">
<title>Node6&#45;&gt;Node5</title>
<path fill="none" stroke="midnightblue" d="M564.94,-357.3C545.53,-359.03 516.58,-359.21 495.19,-357.84"/>
<polygon fill="midnightblue" stroke="midnightblue" points="495.33,-354.34 485.07,-357.01 494.75,-361.32 495.33,-354.34"/>
</g>
<!-- Node9 -->
<g id="node9" class="node">
<title>Node9</title>
<g id="a_node9"><a xlink:href="syntactic__analysis_8c.html#aa1d8bc4c3095f3ba13e1fcc83038d948" target="_top" xlink:title="Processes assigning expresions to the constant.">
<polygon fill="white" stroke="black" points="420,-0.5 420,-19.5 512,-19.5 512,-0.5 420,-0.5"/>
<text text-anchor="middle" x="466" y="-7.5" font-family="Helvetica,sans-Serif" font-size="10.00">ASSIGN_CONST</text>
</a>
</g>
</g>
<!-- Node8&#45;&gt;Node9 -->
<g id="edge10" class="edge">
<title>Node8&#45;&gt;Node9</title>
<path fill="none" stroke="midnightblue" d="M270.18,-10C307.72,-10 366.5,-10 409.68,-10"/>
<polygon fill="midnightblue" stroke="midnightblue" points="409.75,-13.5 419.75,-10 409.75,-6.5 409.75,-13.5"/>
</g>
<!-- Node9&#45;&gt;Node7 -->
<g id="edge11" class="edge">
<title>Node9&#45;&gt;Node7</title>
<path fill="none" stroke="midnightblue" d="M499.15,-19.6C503.89,-22.09 508.39,-25.17 512,-29 563.88,-84.05 579.72,-177.75 584.27,-218.31"/>
<polygon fill="midnightblue" stroke="midnightblue" points="580.79,-218.67 585.28,-228.27 587.76,-217.97 580.79,-218.67"/>
</g>
<!-- Node11 -->
<g id="node11" class="node">
<title>Node11</title>
<g id="a_node11"><a xlink:href="syntactic__analysis_8c.html#a7d21e9db61747d6734d9a7f27d33b4f4" target="_top" xlink:title="Function for determining the depth of infestation.">
<polygon fill="white" stroke="black" points="441.5,-152.5 441.5,-171.5 490.5,-171.5 490.5,-152.5 441.5,-152.5"/>
<text text-anchor="middle" x="466" y="-159.5" font-family="Helvetica,sans-Serif" font-size="10.00">SCOPE</text>
</a>
</g>
</g>
<!-- Node10&#45;&gt;Node11 -->
<g id="edge13" class="edge">
<title>Node10&#45;&gt;Node11</title>
<path fill="none" stroke="midnightblue" d="M377.58,-162C393.96,-162 413.99,-162 430.74,-162"/>
<polygon fill="midnightblue" stroke="midnightblue" points="431.21,-165.5 441.21,-162 431.21,-158.5 431.21,-165.5"/>
</g>
<!-- Node11&#45;&gt;Node2 -->
<g id="edge14" class="edge">
<title>Node11&#45;&gt;Node2</title>
<path fill="none" stroke="midnightblue" d="M441.16,-154.88C425.15,-150.48 403.51,-145.26 384,-143 309.25,-134.35 221.66,-136.92 169.33,-139.8"/>
<polygon fill="midnightblue" stroke="midnightblue" points="168.82,-136.32 159.04,-140.39 169.22,-143.31 168.82,-136.32"/>
</g>
<!-- Node12&#45;&gt;Node7 -->
<g id="edge16" class="edge">
<title>Node12&#45;&gt;Node7</title>
<path fill="none" stroke="midnightblue" d="M257.75,-207.58C271.72,-211.64 289.69,-216.33 306,-219 386.58,-232.17 481.64,-236.24 537.7,-237.48"/>
<polygon fill="midnightblue" stroke="midnightblue" points="537.63,-240.98 547.7,-237.68 537.77,-233.98 537.63,-240.98"/>
</g>
<!-- Node13 -->
<g id="node13" class="node">
<title>Node13</title>
<g id="a_node13"><a xlink:href="syntactic__analysis_8c.html#af131918ae0d8a1cc29cb2c8d6dc13aff" target="_top" xlink:title="Extended function for CALL_DEF()">
<polygon fill="white" stroke="black" points="320,-190.5 320,-209.5 370,-209.5 370,-190.5 320,-190.5"/>
<text text-anchor="middle" x="345" y="-197.5" font-family="Helvetica,sans-Serif" font-size="10.00">IF_EXT</text>
</a>
</g>
</g>
<!-- Node12&#45;&gt;Node13 -->
<g id="edge17" class="edge">
<title>Node12&#45;&gt;Node13</title>
<path fill="none" stroke="midnightblue" d="M257.75,-200C273.01,-200 292.93,-200 309.78,-200"/>
<polygon fill="midnightblue" stroke="midnightblue" points="309.81,-203.5 319.81,-200 309.81,-196.5 309.81,-203.5"/>
</g>
<!-- Node13&#45;&gt;Node11 -->
<g id="edge18" class="edge">
<title>Node13&#45;&gt;Node11</title>
<path fill="none" stroke="midnightblue" d="M370.08,-192.31C387.78,-186.66 412.05,-178.91 431.62,-172.66"/>
<polygon fill="midnightblue" stroke="midnightblue" points="432.9,-175.92 441.36,-169.55 430.77,-169.26 432.9,-175.92"/>
</g>
<!-- Node14&#45;&gt;Node7 -->
<g id="edge20" class="edge">
<title>Node14&#45;&gt;Node7</title>
<path fill="none" stroke="midnightblue" d="M486.12,-304.46C494.23,-300.25 503.7,-295.1 512,-290 530.5,-278.63 550.61,-264.37 565.19,-253.66"/>
<polygon fill="midnightblue" stroke="midnightblue" points="567.54,-256.27 573.49,-247.51 563.37,-250.65 567.54,-256.27"/>
</g>
<!-- Node16 -->
<g id="node16" class="node">
<title>Node16</title>
<g id="a_node16"><a xlink:href="syntactic__analysis_8c.html#a76e0ba812902123b4ec0d43c59c13c04" target="_top" xlink:title="Processes assigning expresions to the variable.">
<polygon fill="white" stroke="black" points="306,-38.5 306,-57.5 384,-57.5 384,-38.5 306,-38.5"/>
<text text-anchor="middle" x="345" y="-45.5" font-family="Helvetica,sans-Serif" font-size="10.00">ASSIGN_VAR</text>
</a>
</g>
</g>
<!-- Node15&#45;&gt;Node16 -->
<g id="edge22" class="edge">
<title>Node15&#45;&gt;Node16</title>
<path fill="none" stroke="midnightblue" d="M263.11,-48C273.19,-48 284.74,-48 295.89,-48"/>
<polygon fill="midnightblue" stroke="midnightblue" points="295.97,-51.5 305.97,-48 295.97,-44.5 295.97,-51.5"/>
</g>
<!-- Node16&#45;&gt;Node7 -->
<g id="edge23" class="edge">
<title>Node16&#45;&gt;Node7</title>
<path fill="none" stroke="midnightblue" d="M381.5,-57.58C427.14,-70.13 501.76,-91.53 512,-100 550.43,-131.79 571.79,-188.89 580.8,-218.7"/>
<polygon fill="midnightblue" stroke="midnightblue" points="577.45,-219.7 583.57,-228.35 584.18,-217.77 577.45,-219.7"/>
</g>
<!-- Node17 -->
<g id="node17" class="node">
<title>Node17</title>
<g id="a_node17"><a xlink:href="syntactic__analysis_8c.html#aaef2bee27144c07c175bb36e4c28af9d" target="_top" xlink:title="Function for verifaction enabled data types (DATA TYPES)">
<polygon fill="white" stroke="black" points="434,-38.5 434,-57.5 498,-57.5 498,-38.5 434,-38.5"/>
<text text-anchor="middle" x="466" y="-45.5" font-family="Helvetica,sans-Serif" font-size="10.00">VAL_TYPE</text>
</a>
</g>
</g>
<!-- Node16&#45;&gt;Node17 -->
<g id="edge24" class="edge">
<title>Node16&#45;&gt;Node17</title>
<path fill="none" stroke="midnightblue" d="M384.31,-48C396.83,-48 410.8,-48 423.55,-48"/>
<polygon fill="midnightblue" stroke="midnightblue" points="423.91,-51.5 433.91,-48 423.91,-44.5 423.91,-51.5"/>
</g>
<!-- Node18&#45;&gt;Node7 -->
<g id="edge26" class="edge">
<title>Node18&#45;&gt;Node7</title>
<path fill="none" stroke="midnightblue" d="M381.78,-92.09C417.39,-99.49 472.32,-114.68 512,-143 540.78,-163.54 563.82,-198.39 576.16,-219.69"/>
<polygon fill="midnightblue" stroke="midnightblue" points="573.11,-221.41 581.05,-228.42 579.21,-217.99 573.11,-221.41"/>
</g>
<!-- Node18&#45;&gt;Node11 -->
<g id="edge27" class="edge">
<title>Node18&#45;&gt;Node11</title>
<path fill="none" stroke="midnightblue" d="M362.13,-95.7C368.97,-99.94 376.98,-105.07 384,-110 400.59,-121.65 403,-126.97 420,-138 425.14,-141.33 430.79,-144.62 436.29,-147.64"/>
<polygon fill="midnightblue" stroke="midnightblue" points="434.84,-150.83 445.31,-152.43 438.12,-144.65 434.84,-150.83"/>
</g>
</g>
</svg>
