<?xml version="1.0" encoding="UTF-8" standalone="no"?>
<!DOCTYPE svg PUBLIC "-//W3C//DTD SVG 1.1//EN"
 "http://www.w3.org/Graphics/SVG/1.1/DTD/svg11.dtd">
<!-- Generated by graphviz version 2.43.0 (0)
 -->
<!-- Title: WHILE_DEF Pages: 1 -->
<svg width="743pt" height="360pt"
 viewBox="0.00 0.00 743.00 360.00" xmlns="http://www.w3.org/2000/svg" xmlns:xlink="http://www.w3.org/1999/xlink">
<g id="graph0" class="graph" transform="scale(1 1) rotate(0) translate(4 356)">
<title>WHILE_DEF</title>
<polygon fill="white" stroke="transparent" points="-4,4 -4,-356 739,-356 739,4 -4,4"/>
<!-- Node1 -->
<g id="node1" class="node">
<title>Node1</title>
<g id="a_node1"><a xlink:title="Processes while loop.">
<polygon fill="#bfbfbf" stroke="black" points="0,-304.5 0,-323.5 73,-323.5 73,-304.5 0,-304.5"/>
<text text-anchor="middle" x="36.5" y="-311.5" font-family="Helvetica,sans-Serif" font-size="10.00">WHILE_DEF</text>
</a>
</g>
</g>
<!-- Node2 -->
<g id="node2" class="node">
<title>Node2</title>
<g id="a_node2"><a xlink:href="syntactic__analysis_8c.html#a38b7a13b9a5926c2c4b6af62cec86f85" target="_top" xlink:title="Function for processing another argument which is in queue.">
<polygon fill="white" stroke="black" points="657,-152.5 657,-171.5 735,-171.5 735,-152.5 657,-152.5"/>
<text text-anchor="middle" x="696" y="-159.5" font-family="Helvetica,sans-Serif" font-size="10.00">EXPRESSION</text>
</a>
</g>
</g>
<!-- Node1&#45;&gt;Node2 -->
<g id="edge1" class="edge">
<title>Node1&#45;&gt;Node2</title>
<path fill="none" stroke="midnightblue" d="M67.15,-323.59C104.65,-334.85 171.41,-352 230,-352 230,-352 230,-352 455,-352 535.78,-352 559.8,-330.72 621,-278 652.81,-250.59 675.83,-206.13 687.13,-180.96"/>
<polygon fill="midnightblue" stroke="midnightblue" points="690.35,-182.31 691.12,-171.75 683.93,-179.53 690.35,-182.31"/>
</g>
<!-- Node3 -->
<g id="node3" class="node">
<title>Node3</title>
<g id="a_node3"><a xlink:href="syntactic__analysis_8c.html#a7d21e9db61747d6734d9a7f27d33b4f4" target="_top" xlink:title="Function for determining the depth of infestation.">
<polygon fill="white" stroke="black" points="109,-266.5 109,-285.5 158,-285.5 158,-266.5 109,-266.5"/>
<text text-anchor="middle" x="133.5" y="-273.5" font-family="Helvetica,sans-Serif" font-size="10.00">SCOPE</text>
</a>
</g>
</g>
<!-- Node1&#45;&gt;Node3 -->
<g id="edge2" class="edge">
<title>Node1&#45;&gt;Node3</title>
<path fill="none" stroke="midnightblue" d="M61.47,-304.41C72.92,-299.83 86.81,-294.27 99.26,-289.29"/>
<polygon fill="midnightblue" stroke="midnightblue" points="100.88,-292.42 108.86,-285.45 98.28,-285.92 100.88,-292.42"/>
</g>
<!-- Node4 -->
<g id="node4" class="node">
<title>Node4</title>
<g id="a_node4"><a xlink:href="syntactic__analysis_8c.html#a7eac9e4351cf87fecd3e9a66cf5f28d8" target="_top" xlink:title="Processes the commands, coditions, ...">
<polygon fill="white" stroke="black" points="194,-171.5 194,-190.5 268,-190.5 268,-171.5 194,-171.5"/>
<text text-anchor="middle" x="231" y="-178.5" font-family="Helvetica,sans-Serif" font-size="10.00">STATEMENT</text>
</a>
</g>
</g>
<!-- Node3&#45;&gt;Node4 -->
<g id="edge3" class="edge">
<title>Node3&#45;&gt;Node4</title>
<path fill="none" stroke="midnightblue" d="M144.36,-266.19C160.6,-250.04 193.16,-217.65 213.12,-197.79"/>
<polygon fill="midnightblue" stroke="midnightblue" points="215.71,-200.15 220.34,-190.61 210.78,-195.19 215.71,-200.15"/>
</g>
<!-- Node5 -->
<g id="node5" class="node">
<title>Node5</title>
<g id="a_node5"><a xlink:href="syntactic__analysis_8c.html#a2999c303cc3fb4692b7e96d9a22e9c03" target="_top" xlink:title="Processes calling functions, variables.">
<polygon fill="white" stroke="black" points="309,-76.5 309,-95.5 374,-95.5 374,-76.5 309,-76.5"/>
<text text-anchor="middle" x="341.5" y="-83.5" font-family="Helvetica,sans-Serif" font-size="10.00">CALL_DEF</text>
</a>
</g>
</g>
<!-- Node4&#45;&gt;Node5 -->
<g id="edge4" class="edge">
<title>Node4&#45;&gt;Node5</title>
<path fill="none" stroke="midnightblue" d="M240.77,-171.2C253.82,-156.9 279.43,-129.87 304,-110 307.68,-107.02 311.74,-104.07 315.77,-101.31"/>
<polygon fill="midnightblue" stroke="midnightblue" points="317.97,-104.05 324.39,-95.63 314.12,-98.2 317.97,-104.05"/>
</g>
<!-- Node9 -->
<g id="node9" class="node">
<title>Node9</title>
<g id="a_node9"><a xlink:href="syntactic__analysis_8c.html#ab1c09d376532dc76198f8d2d6c729fef" target="_top" xlink:title="Processes command for constant declaration.">
<polygon fill="white" stroke="black" points="304,-190.5 304,-209.5 379,-209.5 379,-190.5 304,-190.5"/>
<text text-anchor="middle" x="341.5" y="-197.5" font-family="Helvetica,sans-Serif" font-size="10.00">CONST_DEF</text>
</a>
</g>
</g>
<!-- Node4&#45;&gt;Node9 -->
<g id="edge11" class="edge">
<title>Node4&#45;&gt;Node9</title>
<path fill="none" stroke="midnightblue" d="M268.13,-187.33C276.37,-188.77 285.24,-190.32 293.85,-191.83"/>
<polygon fill="midnightblue" stroke="midnightblue" points="293.33,-195.29 303.79,-193.57 294.54,-188.4 293.33,-195.29"/>
</g>
<!-- Node11 -->
<g id="node11" class="node">
<title>Node11</title>
<g id="a_node11"><a xlink:href="syntactic__analysis_8c.html#a047deda12297b3a39f2d50261fd7de70" target="_top" xlink:title="Processes else condition.">
<polygon fill="white" stroke="black" points="309,-38.5 309,-57.5 374,-57.5 374,-38.5 309,-38.5"/>
<text text-anchor="middle" x="341.5" y="-45.5" font-family="Helvetica,sans-Serif" font-size="10.00">ELSE_DEF</text>
</a>
</g>
</g>
<!-- Node4&#45;&gt;Node11 -->
<g id="edge14" class="edge">
<title>Node4&#45;&gt;Node11</title>
<path fill="none" stroke="midnightblue" d="M236.02,-171.25C245.23,-149.93 269.72,-98.54 304,-67 305.5,-65.62 307.12,-64.31 308.81,-63.08"/>
<polygon fill="midnightblue" stroke="midnightblue" points="311.06,-65.8 317.67,-57.52 307.34,-59.87 311.06,-65.8"/>
</g>
<!-- Node12 -->
<g id="node12" class="node">
<title>Node12</title>
<g id="a_node12"><a xlink:href="syntactic__analysis_8c.html#ac9b33c13aa831335429748838739aef7" target="_top" xlink:title="Processes if condition.">
<polygon fill="white" stroke="black" points="316.5,-228.5 316.5,-247.5 366.5,-247.5 366.5,-228.5 316.5,-228.5"/>
<text text-anchor="middle" x="341.5" y="-235.5" font-family="Helvetica,sans-Serif" font-size="10.00">IF_DEF</text>
</a>
</g>
</g>
<!-- Node4&#45;&gt;Node12 -->
<g id="edge16" class="edge">
<title>Node4&#45;&gt;Node12</title>
<path fill="none" stroke="midnightblue" d="M250.03,-190.55C264.59,-198.26 285.6,-209.35 304,-219 306.91,-220.53 309.95,-222.12 312.99,-223.7"/>
<polygon fill="midnightblue" stroke="midnightblue" points="311.44,-226.84 321.92,-228.35 314.67,-220.63 311.44,-226.84"/>
</g>
<!-- Node14 -->
<g id="node14" class="node">
<title>Node14</title>
<g id="a_node14"><a xlink:href="syntactic__analysis_8c.html#a1012bbb9f570627aabec5e3eda7c4993" target="_top" xlink:title="Processes return command.">
<polygon fill="white" stroke="black" points="545,-76.5 545,-95.5 605,-95.5 605,-76.5 545,-76.5"/>
<text text-anchor="middle" x="575" y="-83.5" font-family="Helvetica,sans-Serif" font-size="10.00">RET_DEF</text>
</a>
</g>
</g>
<!-- Node4&#45;&gt;Node14 -->
<g id="edge20" class="edge">
<title>Node4&#45;&gt;Node14</title>
<path fill="none" stroke="midnightblue" d="M247.16,-171.4C261.35,-162.81 283.4,-150.45 304,-143 383.41,-114.3 481.46,-98.1 534.84,-90.79"/>
<polygon fill="midnightblue" stroke="midnightblue" points="535.45,-94.24 544.9,-89.45 534.52,-87.3 535.45,-94.24"/>
</g>
<!-- Node15 -->
<g id="node15" class="node">
<title>Node15</title>
<g id="a_node15"><a xlink:href="syntactic__analysis_8c.html#a49c6186e8aee36246b52305756b7a017" target="_top" xlink:title="Processes command for variable declaration.">
<polygon fill="white" stroke="black" points="311,-152.5 311,-171.5 372,-171.5 372,-152.5 311,-152.5"/>
<text text-anchor="middle" x="341.5" y="-159.5" font-family="Helvetica,sans-Serif" font-size="10.00">VAR_DEF</text>
</a>
</g>
</g>
<!-- Node4&#45;&gt;Node15 -->
<g id="edge22" class="edge">
<title>Node4&#45;&gt;Node15</title>
<path fill="none" stroke="midnightblue" d="M268.13,-174.67C278.59,-172.84 290.07,-170.83 300.75,-168.96"/>
<polygon fill="midnightblue" stroke="midnightblue" points="301.43,-172.4 310.67,-167.22 300.22,-165.5 301.43,-172.4"/>
</g>
<!-- Node18 -->
<g id="node18" class="node">
<title>Node18</title>
<g id="a_node18"><a xlink:href="syntactic__analysis_8c.html#a13efec100d0c39c874c413765ded4d10" target="_top" xlink:title="Processes while loop.">
<polygon fill="white" stroke="black" points="305,-304.5 305,-323.5 378,-323.5 378,-304.5 305,-304.5"/>
<text text-anchor="middle" x="341.5" y="-311.5" font-family="Helvetica,sans-Serif" font-size="10.00">WHILE_DEF</text>
</a>
</g>
</g>
<!-- Node4&#45;&gt;Node18 -->
<g id="edge26" class="edge">
<title>Node4&#45;&gt;Node18</title>
<path fill="none" stroke="midnightblue" d="M239.8,-190.57C257.86,-212.7 302.74,-267.71 326,-296.23"/>
<polygon fill="midnightblue" stroke="midnightblue" points="323.44,-298.63 332.47,-304.16 328.87,-294.2 323.44,-298.63"/>
</g>
<!-- Node6 -->
<g id="node6" class="node">
<title>Node6</title>
<g id="a_node6"><a xlink:href="syntactic__analysis_8c.html#ade39708cf9c0a95b1e75a94b3982f1aa" target="_top" xlink:title="Extended function for CALL_DEF()">
<polygon fill="white" stroke="black" points="421.5,-38.5 421.5,-57.5 486.5,-57.5 486.5,-38.5 421.5,-38.5"/>
<text text-anchor="middle" x="454" y="-45.5" font-family="Helvetica,sans-Serif" font-size="10.00">CALL_EXT</text>
</a>
</g>
</g>
<!-- Node5&#45;&gt;Node6 -->
<g id="edge5" class="edge">
<title>Node5&#45;&gt;Node6</title>
<path fill="none" stroke="midnightblue" d="M370.38,-76.41C383.99,-71.73 400.57,-66.03 415.29,-60.97"/>
<polygon fill="midnightblue" stroke="midnightblue" points="416.81,-64.15 425.13,-57.59 414.53,-57.53 416.81,-64.15"/>
</g>
<!-- Node6&#45;&gt;Node2 -->
<g id="edge10" class="edge">
<title>Node6&#45;&gt;Node2</title>
<path fill="none" stroke="midnightblue" d="M486.56,-44.65C521.68,-42.44 579.01,-43.43 621,-67 652.14,-84.48 674.68,-120.94 686.22,-143.26"/>
<polygon fill="midnightblue" stroke="midnightblue" points="683.17,-144.99 690.74,-152.4 689.45,-141.89 683.17,-144.99"/>
</g>
<!-- Node7 -->
<g id="node7" class="node">
<title>Node7</title>
<g id="a_node7"><a xlink:href="syntactic__analysis_8c.html#a83f44b9d12d581ea924af4ba707819c3" target="_top" xlink:title="Function for processing argument of called function.">
<polygon fill="white" stroke="black" points="556,-0.5 556,-19.5 594,-19.5 594,-0.5 556,-0.5"/>
<text text-anchor="middle" x="575" y="-7.5" font-family="Helvetica,sans-Serif" font-size="10.00">ARG</text>
</a>
</g>
</g>
<!-- Node6&#45;&gt;Node7 -->
<g id="edge6" class="edge">
<title>Node6&#45;&gt;Node7</title>
<path fill="none" stroke="midnightblue" d="M485.03,-38.41C503.85,-32.4 527.94,-24.71 546.3,-18.84"/>
<polygon fill="midnightblue" stroke="midnightblue" points="547.38,-22.17 555.85,-15.8 545.25,-15.51 547.38,-22.17"/>
</g>
<!-- Node7&#45;&gt;Node2 -->
<g id="edge9" class="edge">
<title>Node7&#45;&gt;Node2</title>
<path fill="none" stroke="midnightblue" d="M594.14,-16.87C602.99,-20.88 613.36,-26.62 621,-34 654.08,-65.97 677.11,-115.9 687.95,-142.99"/>
<polygon fill="midnightblue" stroke="midnightblue" points="684.74,-144.4 691.62,-152.47 691.27,-141.88 684.74,-144.4"/>
</g>
<!-- Node8 -->
<g id="node8" class="node">
<title>Node8</title>
<g id="a_node8"><a xlink:href="syntactic__analysis_8c.html#a271ef1f0dc6a029b233bcb024b19b116" target="_top" xlink:title="Function for processing another argument which is in queue.">
<polygon fill="white" stroke="black" points="674,-0.5 674,-19.5 718,-19.5 718,-0.5 674,-0.5"/>
<text text-anchor="middle" x="696" y="-7.5" font-family="Helvetica,sans-Serif" font-size="10.00">ARGS</text>
</a>
</g>
</g>
<!-- Node7&#45;&gt;Node8 -->
<g id="edge7" class="edge">
<title>Node7&#45;&gt;Node8</title>
<path fill="none" stroke="midnightblue" d="M594.07,-4.99C612.51,-3.08 641.49,-2.74 663.67,-3.97"/>
<polygon fill="midnightblue" stroke="midnightblue" points="663.72,-7.49 673.94,-4.7 664.21,-0.5 663.72,-7.49"/>
</g>
<!-- Node8&#45;&gt;Node7 -->
<g id="edge8" class="edge">
<title>Node8&#45;&gt;Node7</title>
<path fill="none" stroke="midnightblue" d="M673.94,-15.3C654.53,-17.03 625.58,-17.21 604.19,-15.84"/>
<polygon fill="midnightblue" stroke="midnightblue" points="604.33,-12.34 594.07,-15.01 603.75,-19.32 604.33,-12.34"/>
</g>
<!-- Node10 -->
<g id="node10" class="node">
<title>Node10</title>
<g id="a_node10"><a xlink:href="syntactic__analysis_8c.html#aa1d8bc4c3095f3ba13e1fcc83038d948" target="_top" xlink:title="Processes assigning expresions to the constant.">
<polygon fill="white" stroke="black" points="529,-190.5 529,-209.5 621,-209.5 621,-190.5 529,-190.5"/>
<text text-anchor="middle" x="575" y="-197.5" font-family="Helvetica,sans-Serif" font-size="10.00">ASSIGN_CONST</text>
</a>
</g>
</g>
<!-- Node9&#45;&gt;Node10 -->
<g id="edge12" class="edge">
<title>Node9&#45;&gt;Node10</title>
<path fill="none" stroke="midnightblue" d="M379.18,-200C416.72,-200 475.5,-200 518.68,-200"/>
<polygon fill="midnightblue" stroke="midnightblue" points="518.75,-203.5 528.75,-200 518.75,-196.5 518.75,-203.5"/>
</g>
<!-- Node10&#45;&gt;Node2 -->
<g id="edge13" class="edge">
<title>Node10&#45;&gt;Node2</title>
<path fill="none" stroke="midnightblue" d="M606.03,-190.41C620.97,-185.64 639.22,-179.81 655.3,-174.68"/>
<polygon fill="midnightblue" stroke="midnightblue" points="656.52,-177.96 664.98,-171.59 654.39,-171.29 656.52,-177.96"/>
</g>
<!-- Node11&#45;&gt;Node3 -->
<g id="edge15" class="edge">
<title>Node11&#45;&gt;Node3</title>
<path fill="none" stroke="midnightblue" d="M319.94,-57.64C314.6,-60.43 308.97,-63.63 304,-67 250.55,-103.27 234.1,-111.36 194,-162 170.2,-192.05 151.56,-233.08 141.87,-256.83"/>
<polygon fill="midnightblue" stroke="midnightblue" points="138.49,-255.85 138.05,-266.43 145,-258.43 138.49,-255.85"/>
</g>
<!-- Node12&#45;&gt;Node2 -->
<g id="edge17" class="edge">
<title>Node12&#45;&gt;Node2</title>
<path fill="none" stroke="midnightblue" d="M366.59,-240.91C416.11,-245.92 532.18,-252.66 621,-219 643.56,-210.45 664.9,-192.58 678.81,-179.12"/>
<polygon fill="midnightblue" stroke="midnightblue" points="681.52,-181.36 686.09,-171.8 676.56,-176.42 681.52,-181.36"/>
</g>
<!-- Node13 -->
<g id="node13" class="node">
<title>Node13</title>
<g id="a_node13"><a xlink:href="syntactic__analysis_8c.html#af131918ae0d8a1cc29cb2c8d6dc13aff" target="_top" xlink:title="Extended function for CALL_DEF()">
<polygon fill="white" stroke="black" points="429,-266.5 429,-285.5 479,-285.5 479,-266.5 429,-266.5"/>
<text text-anchor="middle" x="454" y="-273.5" font-family="Helvetica,sans-Serif" font-size="10.00">IF_EXT</text>
</a>
</g>
</g>
<!-- Node12&#45;&gt;Node13 -->
<g id="edge18" class="edge">
<title>Node12&#45;&gt;Node13</title>
<path fill="none" stroke="midnightblue" d="M366.75,-246.34C382.15,-251.64 402.3,-258.57 419.26,-264.4"/>
<polygon fill="midnightblue" stroke="midnightblue" points="418.21,-267.74 428.81,-267.68 420.49,-261.12 418.21,-267.74"/>
</g>
<!-- Node13&#45;&gt;Node3 -->
<g id="edge19" class="edge">
<title>Node13&#45;&gt;Node3</title>
<path fill="none" stroke="midnightblue" d="M428.73,-276C372.42,-276 232.8,-276 168.24,-276"/>
<polygon fill="midnightblue" stroke="midnightblue" points="168.18,-272.5 158.18,-276 168.18,-279.5 168.18,-272.5"/>
</g>
<!-- Node14&#45;&gt;Node2 -->
<g id="edge21" class="edge">
<title>Node14&#45;&gt;Node2</title>
<path fill="none" stroke="midnightblue" d="M595.12,-95.54C603.23,-99.75 612.7,-104.9 621,-110 639.5,-121.37 659.61,-135.63 674.19,-146.34"/>
<polygon fill="midnightblue" stroke="midnightblue" points="672.37,-149.35 682.49,-152.49 676.54,-143.73 672.37,-149.35"/>
</g>
<!-- Node16 -->
<g id="node16" class="node">
<title>Node16</title>
<g id="a_node16"><a xlink:href="syntactic__analysis_8c.html#a76e0ba812902123b4ec0d43c59c13c04" target="_top" xlink:title="Processes assigning expresions to the variable.">
<polygon fill="white" stroke="black" points="415,-152.5 415,-171.5 493,-171.5 493,-152.5 415,-152.5"/>
<text text-anchor="middle" x="454" y="-159.5" font-family="Helvetica,sans-Serif" font-size="10.00">ASSIGN_VAR</text>
</a>
</g>
</g>
<!-- Node15&#45;&gt;Node16 -->
<g id="edge23" class="edge">
<title>Node15&#45;&gt;Node16</title>
<path fill="none" stroke="midnightblue" d="M372.11,-162C382.19,-162 393.74,-162 404.89,-162"/>
<polygon fill="midnightblue" stroke="midnightblue" points="404.97,-165.5 414.97,-162 404.97,-158.5 404.97,-165.5"/>
</g>
<!-- Node16&#45;&gt;Node2 -->
<g id="edge24" class="edge">
<title>Node16&#45;&gt;Node2</title>
<path fill="none" stroke="midnightblue" d="M484.91,-152.5C498.26,-148.73 514.26,-144.86 529,-143 569.57,-137.88 580.43,-137.88 621,-143 632.28,-144.43 644.31,-147.03 655.32,-149.86"/>
<polygon fill="midnightblue" stroke="midnightblue" points="654.52,-153.27 665.09,-152.5 656.35,-146.51 654.52,-153.27"/>
</g>
<!-- Node17 -->
<g id="node17" class="node">
<title>Node17</title>
<g id="a_node17"><a xlink:href="syntactic__analysis_8c.html#aaef2bee27144c07c175bb36e4c28af9d" target="_top" xlink:title="Function for verifaction enabled data types (DATA TYPES)">
<polygon fill="white" stroke="black" points="543,-152.5 543,-171.5 607,-171.5 607,-152.5 543,-152.5"/>
<text text-anchor="middle" x="575" y="-159.5" font-family="Helvetica,sans-Serif" font-size="10.00">VAL_TYPE</text>
</a>
</g>
</g>
<!-- Node16&#45;&gt;Node17 -->
<g id="edge25" class="edge">
<title>Node16&#45;&gt;Node17</title>
<path fill="none" stroke="midnightblue" d="M493.31,-162C505.83,-162 519.8,-162 532.55,-162"/>
<polygon fill="midnightblue" stroke="midnightblue" points="532.91,-165.5 542.91,-162 532.91,-158.5 532.91,-165.5"/>
</g>
<!-- Node18&#45;&gt;Node2 -->
<g id="edge27" class="edge">
<title>Node18&#45;&gt;Node2</title>
<path fill="none" stroke="midnightblue" d="M378.32,-312.76C434.74,-309.19 545.65,-295.46 621,-243 646.16,-225.48 668.93,-197.98 682.38,-179.96"/>
<polygon fill="midnightblue" stroke="midnightblue" points="685.47,-181.66 688.52,-171.51 679.81,-177.54 685.47,-181.66"/>
</g>
<!-- Node18&#45;&gt;Node3 -->
<g id="edge28" class="edge">
<title>Node18&#45;&gt;Node3</title>
<path fill="none" stroke="midnightblue" d="M304.85,-308.86C275.11,-304.41 231.66,-297.51 194,-290 185.57,-288.32 176.51,-286.3 168.07,-284.32"/>
<polygon fill="midnightblue" stroke="midnightblue" points="168.7,-280.88 158.16,-281.96 167.08,-287.69 168.7,-280.88"/>
</g>
</g>
</svg>
