<?xml version="1.0" encoding="UTF-8" standalone="no"?>
<!DOCTYPE svg PUBLIC "-//W3C//DTD SVG 1.1//EN"
 "http://www.w3.org/Graphics/SVG/1.1/DTD/svg11.dtd">
<!-- Generated by graphviz version 2.43.0 (0)
 -->
<!-- Title: IF_EXT Pages: 1 -->
<svg width="720pt" height="313pt"
 viewBox="0.00 0.00 720.00 313.00" xmlns="http://www.w3.org/2000/svg" xmlns:xlink="http://www.w3.org/1999/xlink">
<g id="graph0" class="graph" transform="scale(1 1) rotate(0) translate(4 309)">
<title>IF_EXT</title>
<polygon fill="white" stroke="transparent" points="-4,4 -4,-309 716,-309 716,4 -4,4"/>
<!-- Node1 -->
<g id="node1" class="node">
<title>Node1</title>
<g id="a_node1"><a xlink:title="Extended function for CALL_DEF()">
<polygon fill="#bfbfbf" stroke="black" points="0,-199.5 0,-218.5 50,-218.5 50,-199.5 0,-199.5"/>
<text text-anchor="middle" x="25" y="-206.5" font-family="Helvetica,sans-Serif" font-size="10.00">IF_EXT</text>
</a>
</g>
</g>
<!-- Node2 -->
<g id="node2" class="node">
<title>Node2</title>
<g id="a_node2"><a xlink:href="syntactic__analysis_8c.html#a7d21e9db61747d6734d9a7f27d33b4f4" target="_top" xlink:title="Function for determining the depth of infestation.">
<polygon fill="white" stroke="black" points="86,-199.5 86,-218.5 135,-218.5 135,-199.5 86,-199.5"/>
<text text-anchor="middle" x="110.5" y="-206.5" font-family="Helvetica,sans-Serif" font-size="10.00">SCOPE</text>
</a>
</g>
</g>
<!-- Node1&#45;&gt;Node2 -->
<g id="edge1" class="edge">
<title>Node1&#45;&gt;Node2</title>
<path fill="none" stroke="midnightblue" d="M50.15,-209C58.16,-209 67.24,-209 75.83,-209"/>
<polygon fill="midnightblue" stroke="midnightblue" points="75.98,-212.5 85.98,-209 75.98,-205.5 75.98,-212.5"/>
</g>
<!-- Node3 -->
<g id="node3" class="node">
<title>Node3</title>
<g id="a_node3"><a xlink:href="syntactic__analysis_8c.html#a7eac9e4351cf87fecd3e9a66cf5f28d8" target="_top" xlink:title="Processes the commands, coditions, ...">
<polygon fill="white" stroke="black" points="171,-176.5 171,-195.5 245,-195.5 245,-176.5 171,-176.5"/>
<text text-anchor="middle" x="208" y="-183.5" font-family="Helvetica,sans-Serif" font-size="10.00">STATEMENT</text>
</a>
</g>
</g>
<!-- Node2&#45;&gt;Node3 -->
<g id="edge2" class="edge">
<title>Node2&#45;&gt;Node3</title>
<path fill="none" stroke="midnightblue" d="M135.11,-203.31C142.89,-201.44 151.84,-199.28 160.72,-197.15"/>
<polygon fill="midnightblue" stroke="midnightblue" points="161.75,-200.5 170.65,-194.75 160.11,-193.69 161.75,-200.5"/>
</g>
<!-- Node4 -->
<g id="node4" class="node">
<title>Node4</title>
<g id="a_node4"><a xlink:href="syntactic__analysis_8c.html#a2999c303cc3fb4692b7e96d9a22e9c03" target="_top" xlink:title="Processes calling functions, variables.">
<polygon fill="white" stroke="black" points="286,-38.5 286,-57.5 351,-57.5 351,-38.5 286,-38.5"/>
<text text-anchor="middle" x="318.5" y="-45.5" font-family="Helvetica,sans-Serif" font-size="10.00">CALL_DEF</text>
</a>
</g>
</g>
<!-- Node3&#45;&gt;Node4 -->
<g id="edge3" class="edge">
<title>Node3&#45;&gt;Node4</title>
<path fill="none" stroke="midnightblue" d="M212.64,-176.48C221.4,-154.63 245.6,-100.2 281,-67 282.45,-65.64 284.01,-64.36 285.64,-63.14"/>
<polygon fill="midnightblue" stroke="midnightblue" points="287.68,-66 294.23,-57.67 283.92,-60.09 287.68,-66"/>
</g>
<!-- Node9 -->
<g id="node9" class="node">
<title>Node9</title>
<g id="a_node9"><a xlink:href="syntactic__analysis_8c.html#ab1c09d376532dc76198f8d2d6c729fef" target="_top" xlink:title="Processes command for constant declaration.">
<polygon fill="white" stroke="black" points="281,-171.5 281,-190.5 356,-190.5 356,-171.5 281,-171.5"/>
<text text-anchor="middle" x="318.5" y="-178.5" font-family="Helvetica,sans-Serif" font-size="10.00">CONST_DEF</text>
</a>
</g>
</g>
<!-- Node3&#45;&gt;Node9 -->
<g id="edge10" class="edge">
<title>Node3&#45;&gt;Node9</title>
<path fill="none" stroke="midnightblue" d="M245.13,-184.34C253.28,-183.96 262.05,-183.56 270.57,-183.16"/>
<polygon fill="midnightblue" stroke="midnightblue" points="270.96,-186.65 280.79,-182.69 270.64,-179.66 270.96,-186.65"/>
</g>
<!-- Node11 -->
<g id="node11" class="node">
<title>Node11</title>
<g id="a_node11"><a xlink:href="syntactic__analysis_8c.html#a047deda12297b3a39f2d50261fd7de70" target="_top" xlink:title="Processes else condition.">
<polygon fill="white" stroke="black" points="286,-285.5 286,-304.5 351,-304.5 351,-285.5 286,-285.5"/>
<text text-anchor="middle" x="318.5" y="-292.5" font-family="Helvetica,sans-Serif" font-size="10.00">ELSE_DEF</text>
</a>
</g>
</g>
<!-- Node3&#45;&gt;Node11 -->
<g id="edge13" class="edge">
<title>Node3&#45;&gt;Node11</title>
<path fill="none" stroke="midnightblue" d="M214.86,-195.77C225.93,-213.58 251.48,-251.73 281,-276 282.75,-277.44 284.62,-278.81 286.57,-280.11"/>
<polygon fill="midnightblue" stroke="midnightblue" points="284.96,-283.23 295.34,-285.35 288.55,-277.22 284.96,-283.23"/>
</g>
<!-- Node12 -->
<g id="node12" class="node">
<title>Node12</title>
<g id="a_node12"><a xlink:href="syntactic__analysis_8c.html#ac9b33c13aa831335429748838739aef7" target="_top" xlink:title="Processes if condition.">
<polygon fill="white" stroke="black" points="293.5,-76.5 293.5,-95.5 343.5,-95.5 343.5,-76.5 293.5,-76.5"/>
<text text-anchor="middle" x="318.5" y="-83.5" font-family="Helvetica,sans-Serif" font-size="10.00">IF_DEF</text>
</a>
</g>
</g>
<!-- Node3&#45;&gt;Node12 -->
<g id="edge15" class="edge">
<title>Node3&#45;&gt;Node12</title>
<path fill="none" stroke="midnightblue" d="M219.4,-176.41C237.91,-159.36 276.74,-123.57 299.61,-102.49"/>
<polygon fill="midnightblue" stroke="midnightblue" points="301.99,-105.06 306.97,-95.71 297.24,-99.91 301.99,-105.06"/>
</g>
<!-- Node14 -->
<g id="node14" class="node">
<title>Node14</title>
<g id="a_node14"><a xlink:href="syntactic__analysis_8c.html#a1012bbb9f570627aabec5e3eda7c4993" target="_top" xlink:title="Processes return command.">
<polygon fill="white" stroke="black" points="522,-228.5 522,-247.5 582,-247.5 582,-228.5 522,-228.5"/>
<text text-anchor="middle" x="552" y="-235.5" font-family="Helvetica,sans-Serif" font-size="10.00">RET_DEF</text>
</a>
</g>
</g>
<!-- Node3&#45;&gt;Node14 -->
<g id="edge19" class="edge">
<title>Node3&#45;&gt;Node14</title>
<path fill="none" stroke="midnightblue" d="M245.19,-193.42C256.62,-195.66 269.32,-198.04 281,-200 362.85,-213.71 459.22,-226.46 511.83,-233.14"/>
<polygon fill="midnightblue" stroke="midnightblue" points="511.4,-236.61 521.76,-234.39 512.27,-229.67 511.4,-236.61"/>
</g>
<!-- Node15 -->
<g id="node15" class="node">
<title>Node15</title>
<g id="a_node15"><a xlink:href="syntactic__analysis_8c.html#a49c6186e8aee36246b52305756b7a017" target="_top" xlink:title="Processes command for variable declaration.">
<polygon fill="white" stroke="black" points="288,-133.5 288,-152.5 349,-152.5 349,-133.5 288,-133.5"/>
<text text-anchor="middle" x="318.5" y="-140.5" font-family="Helvetica,sans-Serif" font-size="10.00">VAR_DEF</text>
</a>
</g>
</g>
<!-- Node3&#45;&gt;Node15 -->
<g id="edge21" class="edge">
<title>Node3&#45;&gt;Node15</title>
<path fill="none" stroke="midnightblue" d="M233.08,-176.46C248.11,-170.5 267.67,-162.75 284.18,-156.21"/>
<polygon fill="midnightblue" stroke="midnightblue" points="285.48,-159.45 293.49,-152.52 282.9,-152.95 285.48,-159.45"/>
</g>
<!-- Node18 -->
<g id="node18" class="node">
<title>Node18</title>
<g id="a_node18"><a xlink:href="syntactic__analysis_8c.html#a13efec100d0c39c874c413765ded4d10" target="_top" xlink:title="Processes while loop.">
<polygon fill="white" stroke="black" points="282,-247.5 282,-266.5 355,-266.5 355,-247.5 282,-247.5"/>
<text text-anchor="middle" x="318.5" y="-254.5" font-family="Helvetica,sans-Serif" font-size="10.00">WHILE_DEF</text>
</a>
</g>
</g>
<!-- Node3&#45;&gt;Node18 -->
<g id="edge25" class="edge">
<title>Node3&#45;&gt;Node18</title>
<path fill="none" stroke="midnightblue" d="M223.63,-195.58C241.75,-207.43 272.84,-227.77 294.24,-241.78"/>
<polygon fill="midnightblue" stroke="midnightblue" points="292.47,-244.8 302.75,-247.35 296.3,-238.95 292.47,-244.8"/>
</g>
<!-- Node5 -->
<g id="node5" class="node">
<title>Node5</title>
<g id="a_node5"><a xlink:href="syntactic__analysis_8c.html#ade39708cf9c0a95b1e75a94b3982f1aa" target="_top" xlink:title="Extended function for CALL_DEF()">
<polygon fill="white" stroke="black" points="398.5,-38.5 398.5,-57.5 463.5,-57.5 463.5,-38.5 398.5,-38.5"/>
<text text-anchor="middle" x="431" y="-45.5" font-family="Helvetica,sans-Serif" font-size="10.00">CALL_EXT</text>
</a>
</g>
</g>
<!-- Node4&#45;&gt;Node5 -->
<g id="edge4" class="edge">
<title>Node4&#45;&gt;Node5</title>
<path fill="none" stroke="midnightblue" d="M351.16,-48C362.72,-48 375.98,-48 388.28,-48"/>
<polygon fill="midnightblue" stroke="midnightblue" points="388.33,-51.5 398.33,-48 388.33,-44.5 388.33,-51.5"/>
</g>
<!-- Node6 -->
<g id="node6" class="node">
<title>Node6</title>
<g id="a_node6"><a xlink:href="syntactic__analysis_8c.html#a83f44b9d12d581ea924af4ba707819c3" target="_top" xlink:title="Function for processing argument of called function.">
<polygon fill="white" stroke="black" points="533,-0.5 533,-19.5 571,-19.5 571,-0.5 533,-0.5"/>
<text text-anchor="middle" x="552" y="-7.5" font-family="Helvetica,sans-Serif" font-size="10.00">ARG</text>
</a>
</g>
</g>
<!-- Node5&#45;&gt;Node6 -->
<g id="edge5" class="edge">
<title>Node5&#45;&gt;Node6</title>
<path fill="none" stroke="midnightblue" d="M462.03,-38.41C480.85,-32.4 504.94,-24.71 523.3,-18.84"/>
<polygon fill="midnightblue" stroke="midnightblue" points="524.38,-22.17 532.85,-15.8 522.25,-15.51 524.38,-22.17"/>
</g>
<!-- Node8 -->
<g id="node8" class="node">
<title>Node8</title>
<g id="a_node8"><a xlink:href="syntactic__analysis_8c.html#a38b7a13b9a5926c2c4b6af62cec86f85" target="_top" xlink:title="Function for processing another argument which is in queue.">
<polygon fill="white" stroke="black" points="634,-152.5 634,-171.5 712,-171.5 712,-152.5 634,-152.5"/>
<text text-anchor="middle" x="673" y="-159.5" font-family="Helvetica,sans-Serif" font-size="10.00">EXPRESSION</text>
</a>
</g>
</g>
<!-- Node5&#45;&gt;Node8 -->
<g id="edge9" class="edge">
<title>Node5&#45;&gt;Node8</title>
<path fill="none" stroke="midnightblue" d="M463.51,-46.01C498.59,-45.22 555.89,-48.27 598,-72 627.67,-88.72 650.32,-122.36 662.35,-143.45"/>
<polygon fill="midnightblue" stroke="midnightblue" points="659.38,-145.31 667.25,-152.4 665.52,-141.95 659.38,-145.31"/>
</g>
<!-- Node7 -->
<g id="node7" class="node">
<title>Node7</title>
<g id="a_node7"><a xlink:href="syntactic__analysis_8c.html#a271ef1f0dc6a029b233bcb024b19b116" target="_top" xlink:title="Function for processing another argument which is in queue.">
<polygon fill="white" stroke="black" points="651,-0.5 651,-19.5 695,-19.5 695,-0.5 651,-0.5"/>
<text text-anchor="middle" x="673" y="-7.5" font-family="Helvetica,sans-Serif" font-size="10.00">ARGS</text>
</a>
</g>
</g>
<!-- Node6&#45;&gt;Node7 -->
<g id="edge6" class="edge">
<title>Node6&#45;&gt;Node7</title>
<path fill="none" stroke="midnightblue" d="M571.07,-4.99C589.51,-3.08 618.49,-2.74 640.67,-3.97"/>
<polygon fill="midnightblue" stroke="midnightblue" points="640.72,-7.49 650.94,-4.7 641.21,-0.5 640.72,-7.49"/>
</g>
<!-- Node6&#45;&gt;Node8 -->
<g id="edge8" class="edge">
<title>Node6&#45;&gt;Node8</title>
<path fill="none" stroke="midnightblue" d="M571.14,-16.87C579.99,-20.88 590.36,-26.62 598,-34 631.08,-65.97 654.11,-115.9 664.95,-142.99"/>
<polygon fill="midnightblue" stroke="midnightblue" points="661.74,-144.4 668.62,-152.47 668.27,-141.88 661.74,-144.4"/>
</g>
<!-- Node7&#45;&gt;Node6 -->
<g id="edge7" class="edge">
<title>Node7&#45;&gt;Node6</title>
<path fill="none" stroke="midnightblue" d="M650.94,-15.3C631.53,-17.03 602.58,-17.21 581.19,-15.84"/>
<polygon fill="midnightblue" stroke="midnightblue" points="581.33,-12.34 571.07,-15.01 580.75,-19.32 581.33,-12.34"/>
</g>
<!-- Node10 -->
<g id="node10" class="node">
<title>Node10</title>
<g id="a_node10"><a xlink:href="syntactic__analysis_8c.html#aa1d8bc4c3095f3ba13e1fcc83038d948" target="_top" xlink:title="Processes assigning expresions to the constant.">
<polygon fill="white" stroke="black" points="506,-190.5 506,-209.5 598,-209.5 598,-190.5 506,-190.5"/>
<text text-anchor="middle" x="552" y="-197.5" font-family="Helvetica,sans-Serif" font-size="10.00">ASSIGN_CONST</text>
</a>
</g>
</g>
<!-- Node9&#45;&gt;Node10 -->
<g id="edge11" class="edge">
<title>Node9&#45;&gt;Node10</title>
<path fill="none" stroke="midnightblue" d="M356.18,-184.01C393.72,-187.09 452.5,-191.92 495.68,-195.46"/>
<polygon fill="midnightblue" stroke="midnightblue" points="495.5,-198.96 505.75,-196.29 496.07,-191.98 495.5,-198.96"/>
</g>
<!-- Node10&#45;&gt;Node8 -->
<g id="edge12" class="edge">
<title>Node10&#45;&gt;Node8</title>
<path fill="none" stroke="midnightblue" d="M583.03,-190.41C597.97,-185.64 616.22,-179.81 632.3,-174.68"/>
<polygon fill="midnightblue" stroke="midnightblue" points="633.52,-177.96 641.98,-171.59 631.39,-171.29 633.52,-177.96"/>
</g>
<!-- Node11&#45;&gt;Node2 -->
<g id="edge14" class="edge">
<title>Node11&#45;&gt;Node2</title>
<path fill="none" stroke="midnightblue" d="M285.87,-286.35C255.67,-277.6 209.24,-262.84 171,-245 158.35,-239.1 144.99,-231.18 134.14,-224.28"/>
<polygon fill="midnightblue" stroke="midnightblue" points="135.98,-221.3 125.69,-218.78 132.16,-227.17 135.98,-221.3"/>
</g>
<!-- Node12&#45;&gt;Node8 -->
<g id="edge16" class="edge">
<title>Node12&#45;&gt;Node8</title>
<path fill="none" stroke="midnightblue" d="M343.59,-83.09C393.11,-78.08 509.18,-71.34 598,-105 620.56,-113.55 641.9,-131.42 655.81,-144.88"/>
<polygon fill="midnightblue" stroke="midnightblue" points="653.56,-147.58 663.09,-152.2 658.52,-142.64 653.56,-147.58"/>
</g>
<!-- Node13 -->
<g id="node13" class="node">
<title>Node13</title>
<g id="a_node13"><a xlink:href="syntactic__analysis_8c.html#af131918ae0d8a1cc29cb2c8d6dc13aff" target="_top" xlink:title="Extended function for CALL_DEF()">
<polygon fill="white" stroke="black" points="406,-0.5 406,-19.5 456,-19.5 456,-0.5 406,-0.5"/>
<text text-anchor="middle" x="431" y="-7.5" font-family="Helvetica,sans-Serif" font-size="10.00">IF_EXT</text>
</a>
</g>
</g>
<!-- Node12&#45;&gt;Node13 -->
<g id="edge17" class="edge">
<title>Node12&#45;&gt;Node13</title>
<path fill="none" stroke="midnightblue" d="M340.68,-76.49C345.9,-73.74 351.32,-70.53 356,-67 374.57,-52.99 373.31,-42.86 392,-29 394.07,-27.46 396.29,-25.99 398.57,-24.59"/>
<polygon fill="midnightblue" stroke="midnightblue" points="400.5,-27.53 407.53,-19.61 397.09,-21.41 400.5,-27.53"/>
</g>
<!-- Node13&#45;&gt;Node2 -->
<g id="edge18" class="edge">
<title>Node13&#45;&gt;Node2</title>
<path fill="none" stroke="midnightblue" d="M405.85,-8.24C375.11,-7.04 321.2,-8.52 281,-29 205.86,-67.27 146.23,-152.8 122.55,-190.52"/>
<polygon fill="midnightblue" stroke="midnightblue" points="119.34,-189.07 117.08,-199.42 125.3,-192.74 119.34,-189.07"/>
</g>
<!-- Node14&#45;&gt;Node8 -->
<g id="edge20" class="edge">
<title>Node14&#45;&gt;Node8</title>
<path fill="none" stroke="midnightblue" d="M578.78,-228.45C585.22,-225.71 591.99,-222.5 598,-219 618.14,-207.25 639,-190.72 653.42,-178.49"/>
<polygon fill="midnightblue" stroke="midnightblue" points="655.83,-181.03 661.11,-171.85 651.25,-175.73 655.83,-181.03"/>
</g>
<!-- Node16 -->
<g id="node16" class="node">
<title>Node16</title>
<g id="a_node16"><a xlink:href="syntactic__analysis_8c.html#a76e0ba812902123b4ec0d43c59c13c04" target="_top" xlink:title="Processes assigning expresions to the variable.">
<polygon fill="white" stroke="black" points="392,-133.5 392,-152.5 470,-152.5 470,-133.5 392,-133.5"/>
<text text-anchor="middle" x="431" y="-140.5" font-family="Helvetica,sans-Serif" font-size="10.00">ASSIGN_VAR</text>
</a>
</g>
</g>
<!-- Node15&#45;&gt;Node16 -->
<g id="edge22" class="edge">
<title>Node15&#45;&gt;Node16</title>
<path fill="none" stroke="midnightblue" d="M349.11,-143C359.19,-143 370.74,-143 381.89,-143"/>
<polygon fill="midnightblue" stroke="midnightblue" points="381.97,-146.5 391.97,-143 381.97,-139.5 381.97,-146.5"/>
</g>
<!-- Node16&#45;&gt;Node8 -->
<g id="edge23" class="edge">
<title>Node16&#45;&gt;Node8</title>
<path fill="none" stroke="midnightblue" d="M470.03,-146.01C511.6,-149.3 578.31,-154.58 623.58,-158.17"/>
<polygon fill="midnightblue" stroke="midnightblue" points="623.51,-161.67 633.75,-158.97 624.06,-154.69 623.51,-161.67"/>
</g>
<!-- Node17 -->
<g id="node17" class="node">
<title>Node17</title>
<g id="a_node17"><a xlink:href="syntactic__analysis_8c.html#aaef2bee27144c07c175bb36e4c28af9d" target="_top" xlink:title="Function for verifaction enabled data types (DATA TYPES)">
<polygon fill="white" stroke="black" points="520,-114.5 520,-133.5 584,-133.5 584,-114.5 520,-114.5"/>
<text text-anchor="middle" x="552" y="-121.5" font-family="Helvetica,sans-Serif" font-size="10.00">VAL_TYPE</text>
</a>
</g>
</g>
<!-- Node16&#45;&gt;Node17 -->
<g id="edge24" class="edge">
<title>Node16&#45;&gt;Node17</title>
<path fill="none" stroke="midnightblue" d="M470.31,-136.88C482.96,-134.86 497.08,-132.61 509.93,-130.56"/>
<polygon fill="midnightblue" stroke="midnightblue" points="510.59,-134 519.91,-128.96 509.49,-127.08 510.59,-134"/>
</g>
<!-- Node18&#45;&gt;Node2 -->
<g id="edge27" class="edge">
<title>Node18&#45;&gt;Node2</title>
<path fill="none" stroke="midnightblue" d="M281.75,-248.67C243.31,-239.71 182.66,-225.58 145.08,-216.82"/>
<polygon fill="midnightblue" stroke="midnightblue" points="145.66,-213.37 135.13,-214.51 144.08,-220.18 145.66,-213.37"/>
</g>
<!-- Node18&#45;&gt;Node8 -->
<g id="edge26" class="edge">
<title>Node18&#45;&gt;Node8</title>
<path fill="none" stroke="midnightblue" d="M355.13,-266.48C410.35,-279.15 518.5,-295.85 598,-257 630.25,-241.24 652.53,-203.88 663.7,-180.99"/>
<polygon fill="midnightblue" stroke="midnightblue" points="667.02,-182.17 668.05,-171.62 660.67,-179.22 667.02,-182.17"/>
</g>
</g>
</svg>
