<?xml version="1.0" encoding="UTF-8" standalone="no"?>
<!DOCTYPE svg PUBLIC "-//W3C//DTD SVG 1.1//EN"
 "http://www.w3.org/Graphics/SVG/1.1/DTD/svg11.dtd">
<!-- Generated by graphviz version 2.43.0 (0)
 -->
<!-- Title: ELSE_DEF Pages: 1 -->
<svg width="735pt" height="313pt"
 viewBox="0.00 0.00 735.00 313.00" xmlns="http://www.w3.org/2000/svg" xmlns:xlink="http://www.w3.org/1999/xlink">
<g id="graph0" class="graph" transform="scale(1 1) rotate(0) translate(4 309)">
<title>ELSE_DEF</title>
<polygon fill="white" stroke="transparent" points="-4,4 -4,-309 731,-309 731,4 -4,4"/>
<!-- Node1 -->
<g id="node1" class="node">
<title>Node1</title>
<g id="a_node1"><a xlink:title="Processes else condition.">
<polygon fill="#bfbfbf" stroke="black" points="0,-199.5 0,-218.5 65,-218.5 65,-199.5 0,-199.5"/>
<text text-anchor="middle" x="32.5" y="-206.5" font-family="Helvetica,sans-Serif" font-size="10.00">ELSE_DEF</text>
</a>
</g>
</g>
<!-- Node2 -->
<g id="node2" class="node">
<title>Node2</title>
<g id="a_node2"><a xlink:href="syntactic__analysis_8c.html#a7d21e9db61747d6734d9a7f27d33b4f4" target="_top" xlink:title="Function for determining the depth of infestation.">
<polygon fill="white" stroke="black" points="101,-199.5 101,-218.5 150,-218.5 150,-199.5 101,-199.5"/>
<text text-anchor="middle" x="125.5" y="-206.5" font-family="Helvetica,sans-Serif" font-size="10.00">SCOPE</text>
</a>
</g>
</g>
<!-- Node1&#45;&gt;Node2 -->
<g id="edge1" class="edge">
<title>Node1&#45;&gt;Node2</title>
<path fill="none" stroke="midnightblue" d="M65.07,-209C73.3,-209 82.2,-209 90.55,-209"/>
<polygon fill="midnightblue" stroke="midnightblue" points="90.73,-212.5 100.73,-209 90.73,-205.5 90.73,-212.5"/>
</g>
<!-- Node3 -->
<g id="node3" class="node">
<title>Node3</title>
<g id="a_node3"><a xlink:href="syntactic__analysis_8c.html#a7eac9e4351cf87fecd3e9a66cf5f28d8" target="_top" xlink:title="Processes the commands, coditions, ...">
<polygon fill="white" stroke="black" points="186,-176.5 186,-195.5 260,-195.5 260,-176.5 186,-176.5"/>
<text text-anchor="middle" x="223" y="-183.5" font-family="Helvetica,sans-Serif" font-size="10.00">STATEMENT</text>
</a>
</g>
</g>
<!-- Node2&#45;&gt;Node3 -->
<g id="edge2" class="edge">
<title>Node2&#45;&gt;Node3</title>
<path fill="none" stroke="midnightblue" d="M150.11,-203.31C157.89,-201.44 166.84,-199.28 175.72,-197.15"/>
<polygon fill="midnightblue" stroke="midnightblue" points="176.75,-200.5 185.65,-194.75 175.11,-193.69 176.75,-200.5"/>
</g>
<!-- Node4 -->
<g id="node4" class="node">
<title>Node4</title>
<g id="a_node4"><a xlink:href="syntactic__analysis_8c.html#a2999c303cc3fb4692b7e96d9a22e9c03" target="_top" xlink:title="Processes calling functions, variables.">
<polygon fill="white" stroke="black" points="301,-38.5 301,-57.5 366,-57.5 366,-38.5 301,-38.5"/>
<text text-anchor="middle" x="333.5" y="-45.5" font-family="Helvetica,sans-Serif" font-size="10.00">CALL_DEF</text>
</a>
</g>
</g>
<!-- Node3&#45;&gt;Node4 -->
<g id="edge3" class="edge">
<title>Node3&#45;&gt;Node4</title>
<path fill="none" stroke="midnightblue" d="M227.64,-176.48C236.4,-154.63 260.6,-100.2 296,-67 297.45,-65.64 299.01,-64.36 300.64,-63.14"/>
<polygon fill="midnightblue" stroke="midnightblue" points="302.68,-66 309.23,-57.67 298.92,-60.09 302.68,-66"/>
</g>
<!-- Node9 -->
<g id="node9" class="node">
<title>Node9</title>
<g id="a_node9"><a xlink:href="syntactic__analysis_8c.html#ab1c09d376532dc76198f8d2d6c729fef" target="_top" xlink:title="Processes command for constant declaration.">
<polygon fill="white" stroke="black" points="296,-171.5 296,-190.5 371,-190.5 371,-171.5 296,-171.5"/>
<text text-anchor="middle" x="333.5" y="-178.5" font-family="Helvetica,sans-Serif" font-size="10.00">CONST_DEF</text>
</a>
</g>
</g>
<!-- Node3&#45;&gt;Node9 -->
<g id="edge10" class="edge">
<title>Node3&#45;&gt;Node9</title>
<path fill="none" stroke="midnightblue" d="M260.13,-184.34C268.28,-183.96 277.05,-183.56 285.57,-183.16"/>
<polygon fill="midnightblue" stroke="midnightblue" points="285.96,-186.65 295.79,-182.69 285.64,-179.66 285.96,-186.65"/>
</g>
<!-- Node11 -->
<g id="node11" class="node">
<title>Node11</title>
<g id="a_node11"><a xlink:href="syntactic__analysis_8c.html#a047deda12297b3a39f2d50261fd7de70" target="_top" xlink:title="Processes else condition.">
<polygon fill="white" stroke="black" points="301,-285.5 301,-304.5 366,-304.5 366,-285.5 301,-285.5"/>
<text text-anchor="middle" x="333.5" y="-292.5" font-family="Helvetica,sans-Serif" font-size="10.00">ELSE_DEF</text>
</a>
</g>
</g>
<!-- Node3&#45;&gt;Node11 -->
<g id="edge13" class="edge">
<title>Node3&#45;&gt;Node11</title>
<path fill="none" stroke="midnightblue" d="M229.86,-195.77C240.93,-213.58 266.48,-251.73 296,-276 297.75,-277.44 299.62,-278.81 301.57,-280.11"/>
<polygon fill="midnightblue" stroke="midnightblue" points="299.96,-283.23 310.34,-285.35 303.55,-277.22 299.96,-283.23"/>
</g>
<!-- Node12 -->
<g id="node12" class="node">
<title>Node12</title>
<g id="a_node12"><a xlink:href="syntactic__analysis_8c.html#ac9b33c13aa831335429748838739aef7" target="_top" xlink:title="Processes if condition.">
<polygon fill="white" stroke="black" points="308.5,-76.5 308.5,-95.5 358.5,-95.5 358.5,-76.5 308.5,-76.5"/>
<text text-anchor="middle" x="333.5" y="-83.5" font-family="Helvetica,sans-Serif" font-size="10.00">IF_DEF</text>
</a>
</g>
</g>
<!-- Node3&#45;&gt;Node12 -->
<g id="edge15" class="edge">
<title>Node3&#45;&gt;Node12</title>
<path fill="none" stroke="midnightblue" d="M234.4,-176.41C252.91,-159.36 291.74,-123.57 314.61,-102.49"/>
<polygon fill="midnightblue" stroke="midnightblue" points="316.99,-105.06 321.97,-95.71 312.24,-99.91 316.99,-105.06"/>
</g>
<!-- Node14 -->
<g id="node14" class="node">
<title>Node14</title>
<g id="a_node14"><a xlink:href="syntactic__analysis_8c.html#a1012bbb9f570627aabec5e3eda7c4993" target="_top" xlink:title="Processes return command.">
<polygon fill="white" stroke="black" points="537,-228.5 537,-247.5 597,-247.5 597,-228.5 537,-228.5"/>
<text text-anchor="middle" x="567" y="-235.5" font-family="Helvetica,sans-Serif" font-size="10.00">RET_DEF</text>
</a>
</g>
</g>
<!-- Node3&#45;&gt;Node14 -->
<g id="edge19" class="edge">
<title>Node3&#45;&gt;Node14</title>
<path fill="none" stroke="midnightblue" d="M260.19,-193.42C271.62,-195.66 284.32,-198.04 296,-200 377.85,-213.71 474.22,-226.46 526.83,-233.14"/>
<polygon fill="midnightblue" stroke="midnightblue" points="526.4,-236.61 536.76,-234.39 527.27,-229.67 526.4,-236.61"/>
</g>
<!-- Node15 -->
<g id="node15" class="node">
<title>Node15</title>
<g id="a_node15"><a xlink:href="syntactic__analysis_8c.html#a49c6186e8aee36246b52305756b7a017" target="_top" xlink:title="Processes command for variable declaration.">
<polygon fill="white" stroke="black" points="303,-133.5 303,-152.5 364,-152.5 364,-133.5 303,-133.5"/>
<text text-anchor="middle" x="333.5" y="-140.5" font-family="Helvetica,sans-Serif" font-size="10.00">VAR_DEF</text>
</a>
</g>
</g>
<!-- Node3&#45;&gt;Node15 -->
<g id="edge21" class="edge">
<title>Node3&#45;&gt;Node15</title>
<path fill="none" stroke="midnightblue" d="M248.08,-176.46C263.11,-170.5 282.67,-162.75 299.18,-156.21"/>
<polygon fill="midnightblue" stroke="midnightblue" points="300.48,-159.45 308.49,-152.52 297.9,-152.95 300.48,-159.45"/>
</g>
<!-- Node18 -->
<g id="node18" class="node">
<title>Node18</title>
<g id="a_node18"><a xlink:href="syntactic__analysis_8c.html#a13efec100d0c39c874c413765ded4d10" target="_top" xlink:title="Processes while loop.">
<polygon fill="white" stroke="black" points="297,-247.5 297,-266.5 370,-266.5 370,-247.5 297,-247.5"/>
<text text-anchor="middle" x="333.5" y="-254.5" font-family="Helvetica,sans-Serif" font-size="10.00">WHILE_DEF</text>
</a>
</g>
</g>
<!-- Node3&#45;&gt;Node18 -->
<g id="edge25" class="edge">
<title>Node3&#45;&gt;Node18</title>
<path fill="none" stroke="midnightblue" d="M238.63,-195.58C256.75,-207.43 287.84,-227.77 309.24,-241.78"/>
<polygon fill="midnightblue" stroke="midnightblue" points="307.47,-244.8 317.75,-247.35 311.3,-238.95 307.47,-244.8"/>
</g>
<!-- Node5 -->
<g id="node5" class="node">
<title>Node5</title>
<g id="a_node5"><a xlink:href="syntactic__analysis_8c.html#ade39708cf9c0a95b1e75a94b3982f1aa" target="_top" xlink:title="Extended function for CALL_DEF()">
<polygon fill="white" stroke="black" points="413.5,-38.5 413.5,-57.5 478.5,-57.5 478.5,-38.5 413.5,-38.5"/>
<text text-anchor="middle" x="446" y="-45.5" font-family="Helvetica,sans-Serif" font-size="10.00">CALL_EXT</text>
</a>
</g>
</g>
<!-- Node4&#45;&gt;Node5 -->
<g id="edge4" class="edge">
<title>Node4&#45;&gt;Node5</title>
<path fill="none" stroke="midnightblue" d="M366.16,-48C377.72,-48 390.98,-48 403.28,-48"/>
<polygon fill="midnightblue" stroke="midnightblue" points="403.33,-51.5 413.33,-48 403.33,-44.5 403.33,-51.5"/>
</g>
<!-- Node6 -->
<g id="node6" class="node">
<title>Node6</title>
<g id="a_node6"><a xlink:href="syntactic__analysis_8c.html#a83f44b9d12d581ea924af4ba707819c3" target="_top" xlink:title="Function for processing argument of called function.">
<polygon fill="white" stroke="black" points="548,-0.5 548,-19.5 586,-19.5 586,-0.5 548,-0.5"/>
<text text-anchor="middle" x="567" y="-7.5" font-family="Helvetica,sans-Serif" font-size="10.00">ARG</text>
</a>
</g>
</g>
<!-- Node5&#45;&gt;Node6 -->
<g id="edge5" class="edge">
<title>Node5&#45;&gt;Node6</title>
<path fill="none" stroke="midnightblue" d="M477.03,-38.41C495.85,-32.4 519.94,-24.71 538.3,-18.84"/>
<polygon fill="midnightblue" stroke="midnightblue" points="539.38,-22.17 547.85,-15.8 537.25,-15.51 539.38,-22.17"/>
</g>
<!-- Node8 -->
<g id="node8" class="node">
<title>Node8</title>
<g id="a_node8"><a xlink:href="syntactic__analysis_8c.html#a38b7a13b9a5926c2c4b6af62cec86f85" target="_top" xlink:title="Function for processing another argument which is in queue.">
<polygon fill="white" stroke="black" points="649,-152.5 649,-171.5 727,-171.5 727,-152.5 649,-152.5"/>
<text text-anchor="middle" x="688" y="-159.5" font-family="Helvetica,sans-Serif" font-size="10.00">EXPRESSION</text>
</a>
</g>
</g>
<!-- Node5&#45;&gt;Node8 -->
<g id="edge9" class="edge">
<title>Node5&#45;&gt;Node8</title>
<path fill="none" stroke="midnightblue" d="M478.51,-46.01C513.59,-45.22 570.89,-48.27 613,-72 642.67,-88.72 665.32,-122.36 677.35,-143.45"/>
<polygon fill="midnightblue" stroke="midnightblue" points="674.38,-145.31 682.25,-152.4 680.52,-141.95 674.38,-145.31"/>
</g>
<!-- Node7 -->
<g id="node7" class="node">
<title>Node7</title>
<g id="a_node7"><a xlink:href="syntactic__analysis_8c.html#a271ef1f0dc6a029b233bcb024b19b116" target="_top" xlink:title="Function for processing another argument which is in queue.">
<polygon fill="white" stroke="black" points="666,-0.5 666,-19.5 710,-19.5 710,-0.5 666,-0.5"/>
<text text-anchor="middle" x="688" y="-7.5" font-family="Helvetica,sans-Serif" font-size="10.00">ARGS</text>
</a>
</g>
</g>
<!-- Node6&#45;&gt;Node7 -->
<g id="edge6" class="edge">
<title>Node6&#45;&gt;Node7</title>
<path fill="none" stroke="midnightblue" d="M586.07,-4.99C604.51,-3.08 633.49,-2.74 655.67,-3.97"/>
<polygon fill="midnightblue" stroke="midnightblue" points="655.72,-7.49 665.94,-4.7 656.21,-0.5 655.72,-7.49"/>
</g>
<!-- Node6&#45;&gt;Node8 -->
<g id="edge8" class="edge">
<title>Node6&#45;&gt;Node8</title>
<path fill="none" stroke="midnightblue" d="M586.14,-16.87C594.99,-20.88 605.36,-26.62 613,-34 646.08,-65.97 669.11,-115.9 679.95,-142.99"/>
<polygon fill="midnightblue" stroke="midnightblue" points="676.74,-144.4 683.62,-152.47 683.27,-141.88 676.74,-144.4"/>
</g>
<!-- Node7&#45;&gt;Node6 -->
<g id="edge7" class="edge">
<title>Node7&#45;&gt;Node6</title>
<path fill="none" stroke="midnightblue" d="M665.94,-15.3C646.53,-17.03 617.58,-17.21 596.19,-15.84"/>
<polygon fill="midnightblue" stroke="midnightblue" points="596.33,-12.34 586.07,-15.01 595.75,-19.32 596.33,-12.34"/>
</g>
<!-- Node10 -->
<g id="node10" class="node">
<title>Node10</title>
<g id="a_node10"><a xlink:href="syntactic__analysis_8c.html#aa1d8bc4c3095f3ba13e1fcc83038d948" target="_top" xlink:title="Processes assigning expresions to the constant.">
<polygon fill="white" stroke="black" points="521,-190.5 521,-209.5 613,-209.5 613,-190.5 521,-190.5"/>
<text text-anchor="middle" x="567" y="-197.5" font-family="Helvetica,sans-Serif" font-size="10.00">ASSIGN_CONST</text>
</a>
</g>
</g>
<!-- Node9&#45;&gt;Node10 -->
<g id="edge11" class="edge">
<title>Node9&#45;&gt;Node10</title>
<path fill="none" stroke="midnightblue" d="M371.18,-184.01C408.72,-187.09 467.5,-191.92 510.68,-195.46"/>
<polygon fill="midnightblue" stroke="midnightblue" points="510.5,-198.96 520.75,-196.29 511.07,-191.98 510.5,-198.96"/>
</g>
<!-- Node10&#45;&gt;Node8 -->
<g id="edge12" class="edge">
<title>Node10&#45;&gt;Node8</title>
<path fill="none" stroke="midnightblue" d="M598.03,-190.41C612.97,-185.64 631.22,-179.81 647.3,-174.68"/>
<polygon fill="midnightblue" stroke="midnightblue" points="648.52,-177.96 656.98,-171.59 646.39,-171.29 648.52,-177.96"/>
</g>
<!-- Node11&#45;&gt;Node2 -->
<g id="edge14" class="edge">
<title>Node11&#45;&gt;Node2</title>
<path fill="none" stroke="midnightblue" d="M300.87,-286.35C270.67,-277.6 224.24,-262.84 186,-245 173.35,-239.1 159.99,-231.18 149.14,-224.28"/>
<polygon fill="midnightblue" stroke="midnightblue" points="150.98,-221.3 140.69,-218.78 147.16,-227.17 150.98,-221.3"/>
</g>
<!-- Node12&#45;&gt;Node8 -->
<g id="edge16" class="edge">
<title>Node12&#45;&gt;Node8</title>
<path fill="none" stroke="midnightblue" d="M358.59,-83.09C408.11,-78.08 524.18,-71.34 613,-105 635.56,-113.55 656.9,-131.42 670.81,-144.88"/>
<polygon fill="midnightblue" stroke="midnightblue" points="668.56,-147.58 678.09,-152.2 673.52,-142.64 668.56,-147.58"/>
</g>
<!-- Node13 -->
<g id="node13" class="node">
<title>Node13</title>
<g id="a_node13"><a xlink:href="syntactic__analysis_8c.html#af131918ae0d8a1cc29cb2c8d6dc13aff" target="_top" xlink:title="Extended function for CALL_DEF()">
<polygon fill="white" stroke="black" points="421,-0.5 421,-19.5 471,-19.5 471,-0.5 421,-0.5"/>
<text text-anchor="middle" x="446" y="-7.5" font-family="Helvetica,sans-Serif" font-size="10.00">IF_EXT</text>
</a>
</g>
</g>
<!-- Node12&#45;&gt;Node13 -->
<g id="edge17" class="edge">
<title>Node12&#45;&gt;Node13</title>
<path fill="none" stroke="midnightblue" d="M355.68,-76.49C360.9,-73.74 366.32,-70.53 371,-67 389.57,-52.99 388.31,-42.86 407,-29 409.07,-27.46 411.29,-25.99 413.57,-24.59"/>
<polygon fill="midnightblue" stroke="midnightblue" points="415.5,-27.53 422.53,-19.61 412.09,-21.41 415.5,-27.53"/>
</g>
<!-- Node13&#45;&gt;Node2 -->
<g id="edge18" class="edge">
<title>Node13&#45;&gt;Node2</title>
<path fill="none" stroke="midnightblue" d="M420.85,-8.24C390.11,-7.04 336.2,-8.52 296,-29 220.86,-67.27 161.23,-152.8 137.55,-190.52"/>
<polygon fill="midnightblue" stroke="midnightblue" points="134.34,-189.07 132.08,-199.42 140.3,-192.74 134.34,-189.07"/>
</g>
<!-- Node14&#45;&gt;Node8 -->
<g id="edge20" class="edge">
<title>Node14&#45;&gt;Node8</title>
<path fill="none" stroke="midnightblue" d="M593.78,-228.45C600.22,-225.71 606.99,-222.5 613,-219 633.14,-207.25 654,-190.72 668.42,-178.49"/>
<polygon fill="midnightblue" stroke="midnightblue" points="670.83,-181.03 676.11,-171.85 666.25,-175.73 670.83,-181.03"/>
</g>
<!-- Node16 -->
<g id="node16" class="node">
<title>Node16</title>
<g id="a_node16"><a xlink:href="syntactic__analysis_8c.html#a76e0ba812902123b4ec0d43c59c13c04" target="_top" xlink:title="Processes assigning expresions to the variable.">
<polygon fill="white" stroke="black" points="407,-133.5 407,-152.5 485,-152.5 485,-133.5 407,-133.5"/>
<text text-anchor="middle" x="446" y="-140.5" font-family="Helvetica,sans-Serif" font-size="10.00">ASSIGN_VAR</text>
</a>
</g>
</g>
<!-- Node15&#45;&gt;Node16 -->
<g id="edge22" class="edge">
<title>Node15&#45;&gt;Node16</title>
<path fill="none" stroke="midnightblue" d="M364.11,-143C374.19,-143 385.74,-143 396.89,-143"/>
<polygon fill="midnightblue" stroke="midnightblue" points="396.97,-146.5 406.97,-143 396.97,-139.5 396.97,-146.5"/>
</g>
<!-- Node16&#45;&gt;Node8 -->
<g id="edge23" class="edge">
<title>Node16&#45;&gt;Node8</title>
<path fill="none" stroke="midnightblue" d="M485.03,-146.01C526.6,-149.3 593.31,-154.58 638.58,-158.17"/>
<polygon fill="midnightblue" stroke="midnightblue" points="638.51,-161.67 648.75,-158.97 639.06,-154.69 638.51,-161.67"/>
</g>
<!-- Node17 -->
<g id="node17" class="node">
<title>Node17</title>
<g id="a_node17"><a xlink:href="syntactic__analysis_8c.html#aaef2bee27144c07c175bb36e4c28af9d" target="_top" xlink:title="Function for verifaction enabled data types (DATA TYPES)">
<polygon fill="white" stroke="black" points="535,-114.5 535,-133.5 599,-133.5 599,-114.5 535,-114.5"/>
<text text-anchor="middle" x="567" y="-121.5" font-family="Helvetica,sans-Serif" font-size="10.00">VAL_TYPE</text>
</a>
</g>
</g>
<!-- Node16&#45;&gt;Node17 -->
<g id="edge24" class="edge">
<title>Node16&#45;&gt;Node17</title>
<path fill="none" stroke="midnightblue" d="M485.31,-136.88C497.96,-134.86 512.08,-132.61 524.93,-130.56"/>
<polygon fill="midnightblue" stroke="midnightblue" points="525.59,-134 534.91,-128.96 524.49,-127.08 525.59,-134"/>
</g>
<!-- Node18&#45;&gt;Node2 -->
<g id="edge27" class="edge">
<title>Node18&#45;&gt;Node2</title>
<path fill="none" stroke="midnightblue" d="M296.75,-248.67C258.31,-239.71 197.66,-225.58 160.08,-216.82"/>
<polygon fill="midnightblue" stroke="midnightblue" points="160.66,-213.37 150.13,-214.51 159.08,-220.18 160.66,-213.37"/>
</g>
<!-- Node18&#45;&gt;Node8 -->
<g id="edge26" class="edge">
<title>Node18&#45;&gt;Node8</title>
<path fill="none" stroke="midnightblue" d="M370.13,-266.48C425.35,-279.15 533.5,-295.85 613,-257 645.25,-241.24 667.53,-203.88 678.7,-180.99"/>
<polygon fill="midnightblue" stroke="midnightblue" points="682.02,-182.17 683.05,-171.62 675.67,-179.22 682.02,-182.17"/>
</g>
</g>
</svg>
