<?xml version="1.0" encoding="UTF-8" standalone="no"?>
<!DOCTYPE svg PUBLIC "-//W3C//DTD SVG 1.1//EN"
 "http://www.w3.org/Graphics/SVG/1.1/DTD/svg11.dtd">
<!-- Generated by graphviz version 2.43.0 (0)
 -->
<!-- Title: SCOPE Pages: 1 -->
<svg width="377pt" height="180pt"
 viewBox="0.00 0.00 377.00 180.00" xmlns="http://www.w3.org/2000/svg" xmlns:xlink="http://www.w3.org/1999/xlink">
<g id="graph0" class="graph" transform="scale(1 1) rotate(0) translate(4 176)">
<title>SCOPE</title>
<polygon fill="white" stroke="transparent" points="-4,4 -4,-176 373,-176 373,4 -4,4"/>
<!-- Node1 -->
<g id="node1" class="node">
<title>Node1</title>
<g id="a_node1"><a xlink:title="Function for determining the depth of infestation.">
<polygon fill="#bfbfbf" stroke="black" points="320,-76.5 320,-95.5 369,-95.5 369,-76.5 320,-76.5"/>
<text text-anchor="middle" x="344.5" y="-83.5" font-family="Helvetica,sans-Serif" font-size="10.00">SCOPE</text>
</a>
</g>
</g>
<!-- Node2 -->
<g id="node2" class="node">
<title>Node2</title>
<g id="a_node2"><a xlink:href="syntactic__analysis_8c.html#a047deda12297b3a39f2d50261fd7de70" target="_top" xlink:title="Processes else condition.">
<polygon fill="white" stroke="black" points="110,-114.5 110,-133.5 175,-133.5 175,-114.5 110,-114.5"/>
<text text-anchor="middle" x="142.5" y="-121.5" font-family="Helvetica,sans-Serif" font-size="10.00">ELSE_DEF</text>
</a>
</g>
</g>
<!-- Node1&#45;&gt;Node2 -->
<g id="edge1" class="edge">
<title>Node1&#45;&gt;Node2</title>
<path fill="none" stroke="midnightblue" d="M309.93,-94.28C301.48,-96.26 292.43,-98.29 284,-100 246.77,-107.55 203.68,-114.68 175.13,-119.17"/>
<polygon fill="midnightblue" stroke="midnightblue" points="310.92,-97.65 319.83,-91.92 309.29,-90.84 310.92,-97.65"/>
</g>
<!-- Node4 -->
<g id="node4" class="node">
<title>Node4</title>
<g id="a_node4"><a xlink:href="syntactic__analysis_8c.html#afb9892407a0399d61e51261ff730599a" target="_top" xlink:title="Processes function declaration.">
<polygon fill="white" stroke="black" points="220,-152.5 220,-171.5 275,-171.5 275,-152.5 220,-152.5"/>
<text text-anchor="middle" x="247.5" y="-159.5" font-family="Helvetica,sans-Serif" font-size="10.00">FN_DEF</text>
</a>
</g>
</g>
<!-- Node1&#45;&gt;Node4 -->
<g id="edge4" class="edge">
<title>Node1&#45;&gt;Node4</title>
<path fill="none" stroke="midnightblue" d="M325.65,-102.63C314.08,-113.15 298.52,-126.82 284,-138 277.52,-142.99 270.05,-148.13 263.64,-152.36"/>
<polygon fill="midnightblue" stroke="midnightblue" points="328.3,-104.95 333.3,-95.61 323.57,-99.8 328.3,-104.95"/>
</g>
<!-- Node7 -->
<g id="node7" class="node">
<title>Node7</title>
<g id="a_node7"><a xlink:href="syntactic__analysis_8c.html#af131918ae0d8a1cc29cb2c8d6dc13aff" target="_top" xlink:title="Extended function for CALL_DEF()">
<polygon fill="white" stroke="black" points="222.5,-38.5 222.5,-57.5 272.5,-57.5 272.5,-38.5 222.5,-38.5"/>
<text text-anchor="middle" x="247.5" y="-45.5" font-family="Helvetica,sans-Serif" font-size="10.00">IF_EXT</text>
</a>
</g>
</g>
<!-- Node1&#45;&gt;Node7 -->
<g id="edge7" class="edge">
<title>Node1&#45;&gt;Node7</title>
<path fill="none" stroke="midnightblue" d="M309.97,-72.59C297.59,-67.64 283.83,-62.13 272.46,-57.59"/>
<polygon fill="midnightblue" stroke="midnightblue" points="308.94,-75.95 319.53,-76.41 311.54,-69.45 308.94,-75.95"/>
</g>
<!-- Node9 -->
<g id="node9" class="node">
<title>Node9</title>
<g id="a_node9"><a xlink:href="syntactic__analysis_8c.html#a13efec100d0c39c874c413765ded4d10" target="_top" xlink:title="Processes while loop.">
<polygon fill="white" stroke="black" points="211,-0.5 211,-19.5 284,-19.5 284,-0.5 211,-0.5"/>
<text text-anchor="middle" x="247.5" y="-7.5" font-family="Helvetica,sans-Serif" font-size="10.00">WHILE_DEF</text>
</a>
</g>
</g>
<!-- Node1&#45;&gt;Node9 -->
<g id="edge10" class="edge">
<title>Node1&#45;&gt;Node9</title>
<path fill="none" stroke="midnightblue" d="M327.84,-68.68C316.43,-56.65 300.18,-40.74 284,-29 279.25,-25.55 273.79,-22.32 268.61,-19.54"/>
<polygon fill="midnightblue" stroke="midnightblue" points="325.55,-71.34 334.92,-76.28 330.67,-66.58 325.55,-71.34"/>
</g>
<!-- Node3 -->
<g id="node3" class="node">
<title>Node3</title>
<g id="a_node3"><a xlink:href="syntactic__analysis_8c.html#a7eac9e4351cf87fecd3e9a66cf5f28d8" target="_top" xlink:title="Processes the commands, coditions, ...">
<polygon fill="white" stroke="black" points="0,-57.5 0,-76.5 74,-76.5 74,-57.5 0,-57.5"/>
<text text-anchor="middle" x="37" y="-64.5" font-family="Helvetica,sans-Serif" font-size="10.00">STATEMENT</text>
</a>
</g>
</g>
<!-- Node2&#45;&gt;Node3 -->
<g id="edge2" class="edge">
<title>Node2&#45;&gt;Node3</title>
<path fill="none" stroke="midnightblue" d="M115,-109.41C96.23,-99.07 71.59,-85.5 55.3,-76.53"/>
<polygon fill="midnightblue" stroke="midnightblue" points="113.49,-112.57 123.94,-114.33 116.87,-106.44 113.49,-112.57"/>
</g>
<!-- Node3&#45;&gt;Node1 -->
<g id="edge3" class="edge">
<title>Node3&#45;&gt;Node1</title>
<path fill="none" stroke="midnightblue" d="M84.29,-69.88C150.36,-73.99 269.28,-81.38 319.78,-84.52"/>
<polygon fill="midnightblue" stroke="midnightblue" points="84.36,-66.38 74.16,-69.25 83.92,-73.36 84.36,-66.38"/>
</g>
<!-- Node5 -->
<g id="node5" class="node">
<title>Node5</title>
<g id="a_node5"><a xlink:href="syntactic__analysis_8c.html#a607ec0964227a0c6c98fd79770e51c11" target="_top" xlink:title="Processes the FIRST rule in the syntactic analysis.">
<polygon fill="white" stroke="black" points="120.5,-152.5 120.5,-171.5 164.5,-171.5 164.5,-152.5 120.5,-152.5"/>
<text text-anchor="middle" x="142.5" y="-159.5" font-family="Helvetica,sans-Serif" font-size="10.00">FIRST</text>
</a>
</g>
</g>
<!-- Node4&#45;&gt;Node5 -->
<g id="edge5" class="edge">
<title>Node4&#45;&gt;Node5</title>
<path fill="none" stroke="midnightblue" d="M209.88,-162C194.75,-162 177.76,-162 164.75,-162"/>
<polygon fill="midnightblue" stroke="midnightblue" points="209.97,-165.5 219.97,-162 209.97,-158.5 209.97,-165.5"/>
</g>
<!-- Node6 -->
<g id="node6" class="node">
<title>Node6</title>
<g id="a_node6"><a xlink:href="main_8c.html#a3c04138a5bfe5d72780bb7e82a18e627" target="_top" xlink:title=" ">
<polygon fill="white" stroke="black" points="16.5,-152.5 16.5,-171.5 57.5,-171.5 57.5,-152.5 16.5,-152.5"/>
<text text-anchor="middle" x="37" y="-159.5" font-family="Helvetica,sans-Serif" font-size="10.00">main</text>
</a>
</g>
</g>
<!-- Node5&#45;&gt;Node6 -->
<g id="edge6" class="edge">
<title>Node5&#45;&gt;Node6</title>
<path fill="none" stroke="midnightblue" d="M110.23,-162C93.18,-162 72.59,-162 57.76,-162"/>
<polygon fill="midnightblue" stroke="midnightblue" points="110.31,-165.5 120.31,-162 110.31,-158.5 110.31,-165.5"/>
</g>
<!-- Node8 -->
<g id="node8" class="node">
<title>Node8</title>
<g id="a_node8"><a xlink:href="syntactic__analysis_8c.html#ac9b33c13aa831335429748838739aef7" target="_top" xlink:title="Processes if condition.">
<polygon fill="white" stroke="black" points="117.5,-38.5 117.5,-57.5 167.5,-57.5 167.5,-38.5 117.5,-38.5"/>
<text text-anchor="middle" x="142.5" y="-45.5" font-family="Helvetica,sans-Serif" font-size="10.00">IF_DEF</text>
</a>
</g>
</g>
<!-- Node7&#45;&gt;Node8 -->
<g id="edge8" class="edge">
<title>Node7&#45;&gt;Node8</title>
<path fill="none" stroke="midnightblue" d="M212.22,-48C197.69,-48 181.1,-48 167.85,-48"/>
<polygon fill="midnightblue" stroke="midnightblue" points="212.35,-51.5 222.35,-48 212.35,-44.5 212.35,-51.5"/>
</g>
<!-- Node8&#45;&gt;Node3 -->
<g id="edge9" class="edge">
<title>Node8&#45;&gt;Node3</title>
<path fill="none" stroke="midnightblue" d="M107.62,-54.22C96.87,-56.19 84.95,-58.38 74.05,-60.38"/>
<polygon fill="midnightblue" stroke="midnightblue" points="108.29,-57.65 117.49,-52.41 107.03,-50.77 108.29,-57.65"/>
</g>
<!-- Node9&#45;&gt;Node3 -->
<g id="edge11" class="edge">
<title>Node9&#45;&gt;Node3</title>
<path fill="none" stroke="midnightblue" d="M200.67,-12.4C173.75,-14.78 139.35,-19.53 110,-29 88.88,-35.81 66.59,-48.56 52.5,-57.4"/>
<polygon fill="midnightblue" stroke="midnightblue" points="201.28,-15.86 210.97,-11.57 200.72,-8.89 201.28,-15.86"/>
</g>
</g>
</svg>
