<?xml version="1.0" encoding="UTF-8" standalone="no"?>
<!DOCTYPE svg PUBLIC "-//W3C//DTD SVG 1.1//EN"
 "http://www.w3.org/Graphics/SVG/1.1/DTD/svg11.dtd">
<!-- Generated by graphviz version 2.43.0 (0)
 -->
<!-- Title: VAL_TYPE Pages: 1 -->
<svg width="750pt" height="233pt"
 viewBox="0.00 0.00 750.00 232.67" xmlns="http://www.w3.org/2000/svg" xmlns:xlink="http://www.w3.org/1999/xlink">
<g id="graph0" class="graph" transform="scale(1 1) rotate(0) translate(4 228.67)">
<title>VAL_TYPE</title>
<polygon fill="white" stroke="transparent" points="-4,4 -4,-228.67 746,-228.67 746,4 -4,4"/>
<!-- Node1 -->
<g id="node1" class="node">
<title>Node1</title>
<g id="a_node1"><a xlink:title="Function for verifaction enabled data types (DATA TYPES)">
<polygon fill="#bfbfbf" stroke="black" points="678,-167.17 678,-186.17 742,-186.17 742,-167.17 678,-167.17"/>
<text text-anchor="middle" x="710" y="-174.17" font-family="Helvetica,sans-Serif" font-size="10.00">VAL_TYPE</text>
</a>
</g>
</g>
<!-- Node2 -->
<g id="node2" class="node">
<title>Node2</title>
<g id="a_node2"><a xlink:href="syntactic__analysis_8c.html#a76e0ba812902123b4ec0d43c59c13c04" target="_top" xlink:title="Processes assigning expresions to the variable.">
<polygon fill="white" stroke="black" points="564,-167.17 564,-186.17 642,-186.17 642,-167.17 564,-167.17"/>
<text text-anchor="middle" x="603" y="-174.17" font-family="Helvetica,sans-Serif" font-size="10.00">ASSIGN_VAR</text>
</a>
</g>
</g>
<!-- Node1&#45;&gt;Node2 -->
<g id="edge1" class="edge">
<title>Node1&#45;&gt;Node2</title>
<path fill="none" stroke="midnightblue" d="M667.54,-176.67C659.23,-176.67 650.54,-176.67 642.35,-176.67"/>
<polygon fill="midnightblue" stroke="midnightblue" points="667.78,-180.17 677.78,-176.67 667.78,-173.17 667.78,-180.17"/>
</g>
<!-- Node13 -->
<g id="node13" class="node">
<title>Node13</title>
<g id="a_node13"><a xlink:href="syntactic__analysis_8c.html#aef5821c4ef2e8e26c864efa3564244f6" target="_top" xlink:title="Function for verifaction enabled data types (FUNCTIONS)">
<polygon fill="white" stroke="black" points="468,-129.17 468,-148.17 527,-148.17 527,-129.17 468,-129.17"/>
<text text-anchor="middle" x="497.5" y="-136.17" font-family="Helvetica,sans-Serif" font-size="10.00">FN_TYPE</text>
</a>
</g>
</g>
<!-- Node1&#45;&gt;Node13 -->
<g id="edge16" class="edge">
<title>Node1&#45;&gt;Node13</title>
<path fill="none" stroke="midnightblue" d="M669.14,-164.34C660.27,-161.88 650.86,-159.5 642,-157.67 602.5,-149.5 556.12,-144.1 527.02,-141.21"/>
<polygon fill="midnightblue" stroke="midnightblue" points="668.3,-167.74 678.88,-167.12 670.22,-161.01 668.3,-167.74"/>
</g>
<!-- Node14 -->
<g id="node14" class="node">
<title>Node14</title>
<g id="a_node14"><a xlink:href="syntactic__analysis_8c.html#acb21f12318c9d312a452616eb6c7262d" target="_top" xlink:title="Function for processing parameters of declaraced function.">
<polygon fill="white" stroke="black" points="368.5,-205.17 368.5,-224.17 419.5,-224.17 419.5,-205.17 368.5,-205.17"/>
<text text-anchor="middle" x="394" y="-212.17" font-family="Helvetica,sans-Serif" font-size="10.00">PARAM</text>
</a>
</g>
</g>
<!-- Node1&#45;&gt;Node14 -->
<g id="edge18" class="edge">
<title>Node1&#45;&gt;Node14</title>
<path fill="none" stroke="midnightblue" d="M670.54,-188.99C661.28,-191.56 651.35,-194 642,-195.67 561.55,-210.02 464.46,-213.53 419.75,-214.39"/>
<polygon fill="midnightblue" stroke="midnightblue" points="671.64,-192.32 680.27,-186.17 669.69,-185.59 671.64,-192.32"/>
</g>
<!-- Node3 -->
<g id="node3" class="node">
<title>Node3</title>
<g id="a_node3"><a xlink:href="syntactic__analysis_8c.html#a49c6186e8aee36246b52305756b7a017" target="_top" xlink:title="Processes command for variable declaration.">
<polygon fill="white" stroke="black" points="467,-167.17 467,-186.17 528,-186.17 528,-167.17 467,-167.17"/>
<text text-anchor="middle" x="497.5" y="-174.17" font-family="Helvetica,sans-Serif" font-size="10.00">VAR_DEF</text>
</a>
</g>
</g>
<!-- Node2&#45;&gt;Node3 -->
<g id="edge2" class="edge">
<title>Node2&#45;&gt;Node3</title>
<path fill="none" stroke="midnightblue" d="M553.67,-176.67C544.97,-176.67 536.14,-176.67 528.18,-176.67"/>
<polygon fill="midnightblue" stroke="midnightblue" points="553.75,-180.17 563.75,-176.67 553.75,-173.17 553.75,-180.17"/>
</g>
<!-- Node4 -->
<g id="node4" class="node">
<title>Node4</title>
<g id="a_node4"><a xlink:href="syntactic__analysis_8c.html#a607ec0964227a0c6c98fd79770e51c11" target="_top" xlink:title="Processes the FIRST rule in the syntactic analysis.">
<polygon fill="white" stroke="black" points="80,-148.17 80,-167.17 124,-167.17 124,-148.17 80,-148.17"/>
<text text-anchor="middle" x="102" y="-155.17" font-family="Helvetica,sans-Serif" font-size="10.00">FIRST</text>
</a>
</g>
</g>
<!-- Node3&#45;&gt;Node4 -->
<g id="edge3" class="edge">
<title>Node3&#45;&gt;Node4</title>
<path fill="none" stroke="midnightblue" d="M456.71,-174.74C374.35,-170.77 187.58,-161.75 124.37,-158.7"/>
<polygon fill="midnightblue" stroke="midnightblue" points="456.77,-178.25 466.92,-175.24 457.1,-171.26 456.77,-178.25"/>
</g>
<!-- Node6 -->
<g id="node6" class="node">
<title>Node6</title>
<g id="a_node6"><a xlink:href="syntactic__analysis_8c.html#a7eac9e4351cf87fecd3e9a66cf5f28d8" target="_top" xlink:title="Processes the commands, coditions, ...">
<polygon fill="white" stroke="black" points="357,-53.17 357,-72.17 431,-72.17 431,-53.17 357,-53.17"/>
<text text-anchor="middle" x="394" y="-60.17" font-family="Helvetica,sans-Serif" font-size="10.00">STATEMENT</text>
</a>
</g>
</g>
<!-- Node3&#45;&gt;Node6 -->
<g id="edge5" class="edge">
<title>Node3&#45;&gt;Node6</title>
<path fill="none" stroke="midnightblue" d="M470.99,-161.08C469.6,-159.97 468.26,-158.83 467,-157.67 437.85,-130.66 411.93,-90.73 400.78,-72.45"/>
<polygon fill="midnightblue" stroke="midnightblue" points="469.05,-164 479.22,-166.97 473.12,-158.3 469.05,-164"/>
</g>
<!-- Node5 -->
<g id="node5" class="node">
<title>Node5</title>
<g id="a_node5"><a xlink:href="main_8c.html#a3c04138a5bfe5d72780bb7e82a18e627" target="_top" xlink:title=" ">
<polygon fill="white" stroke="black" points="0,-148.17 0,-167.17 41,-167.17 41,-148.17 0,-148.17"/>
<text text-anchor="middle" x="20.5" y="-155.17" font-family="Helvetica,sans-Serif" font-size="10.00">main</text>
</a>
</g>
</g>
<!-- Node4&#45;&gt;Node5 -->
<g id="edge4" class="edge">
<title>Node4&#45;&gt;Node5</title>
<path fill="none" stroke="midnightblue" d="M69.67,-157.67C60.08,-157.67 49.81,-157.67 41.23,-157.67"/>
<polygon fill="midnightblue" stroke="midnightblue" points="69.7,-161.17 79.7,-157.67 69.7,-154.17 69.7,-161.17"/>
</g>
<!-- Node7 -->
<g id="node7" class="node">
<title>Node7</title>
<g id="a_node7"><a xlink:href="syntactic__analysis_8c.html#a7d21e9db61747d6734d9a7f27d33b4f4" target="_top" xlink:title="Function for determining the depth of infestation.">
<polygon fill="white" stroke="black" points="272,-91.17 272,-110.17 321,-110.17 321,-91.17 272,-91.17"/>
<text text-anchor="middle" x="296.5" y="-98.17" font-family="Helvetica,sans-Serif" font-size="10.00">SCOPE</text>
</a>
</g>
</g>
<!-- Node6&#45;&gt;Node7 -->
<g id="edge6" class="edge">
<title>Node6&#45;&gt;Node7</title>
<path fill="none" stroke="midnightblue" d="M359.59,-75.96C346.95,-80.99 332.84,-86.61 321.26,-91.21"/>
<polygon fill="midnightblue" stroke="midnightblue" points="360.9,-79.2 368.9,-72.25 358.32,-72.7 360.9,-79.2"/>
</g>
<!-- Node8 -->
<g id="node8" class="node">
<title>Node8</title>
<g id="a_node8"><a xlink:href="syntactic__analysis_8c.html#a047deda12297b3a39f2d50261fd7de70" target="_top" xlink:title="Processes else condition.">
<polygon fill="white" stroke="black" points="167,-15.17 167,-34.17 232,-34.17 232,-15.17 167,-15.17"/>
<text text-anchor="middle" x="199.5" y="-22.17" font-family="Helvetica,sans-Serif" font-size="10.00">ELSE_DEF</text>
</a>
</g>
</g>
<!-- Node7&#45;&gt;Node8 -->
<g id="edge7" class="edge">
<title>Node7&#45;&gt;Node8</title>
<path fill="none" stroke="midnightblue" d="M279.84,-83.34C268.43,-71.31 252.18,-55.41 236,-43.67 231.25,-40.22 225.79,-36.99 220.61,-34.2"/>
<polygon fill="midnightblue" stroke="midnightblue" points="277.55,-86.01 286.92,-90.95 282.67,-81.24 277.55,-86.01"/>
</g>
<!-- Node9 -->
<g id="node9" class="node">
<title>Node9</title>
<g id="a_node9"><a xlink:href="syntactic__analysis_8c.html#afb9892407a0399d61e51261ff730599a" target="_top" xlink:title="Processes function declaration.">
<polygon fill="white" stroke="black" points="172,-129.17 172,-148.17 227,-148.17 227,-129.17 172,-129.17"/>
<text text-anchor="middle" x="199.5" y="-136.17" font-family="Helvetica,sans-Serif" font-size="10.00">FN_DEF</text>
</a>
</g>
</g>
<!-- Node7&#45;&gt;Node9 -->
<g id="edge9" class="edge">
<title>Node7&#45;&gt;Node9</title>
<path fill="none" stroke="midnightblue" d="M261.97,-114.08C249.59,-119.03 235.83,-124.53 224.46,-129.08"/>
<polygon fill="midnightblue" stroke="midnightblue" points="263.54,-117.22 271.53,-110.25 260.94,-110.72 263.54,-117.22"/>
</g>
<!-- Node10 -->
<g id="node10" class="node">
<title>Node10</title>
<g id="a_node10"><a xlink:href="syntactic__analysis_8c.html#af131918ae0d8a1cc29cb2c8d6dc13aff" target="_top" xlink:title="Extended function for CALL_DEF()">
<polygon fill="white" stroke="black" points="174.5,-91.17 174.5,-110.17 224.5,-110.17 224.5,-91.17 174.5,-91.17"/>
<text text-anchor="middle" x="199.5" y="-98.17" font-family="Helvetica,sans-Serif" font-size="10.00">IF_EXT</text>
</a>
</g>
</g>
<!-- Node7&#45;&gt;Node10 -->
<g id="edge11" class="edge">
<title>Node7&#45;&gt;Node10</title>
<path fill="none" stroke="midnightblue" d="M261.32,-100.67C249.23,-100.67 235.89,-100.67 224.8,-100.67"/>
<polygon fill="midnightblue" stroke="midnightblue" points="261.53,-104.17 271.53,-100.67 261.53,-97.17 261.53,-104.17"/>
</g>
<!-- Node12 -->
<g id="node12" class="node">
<title>Node12</title>
<g id="a_node12"><a xlink:href="syntactic__analysis_8c.html#a13efec100d0c39c874c413765ded4d10" target="_top" xlink:title="Processes while loop.">
<polygon fill="white" stroke="black" points="163,-53.17 163,-72.17 236,-72.17 236,-53.17 163,-53.17"/>
<text text-anchor="middle" x="199.5" y="-60.17" font-family="Helvetica,sans-Serif" font-size="10.00">WHILE_DEF</text>
</a>
</g>
</g>
<!-- Node7&#45;&gt;Node12 -->
<g id="edge14" class="edge">
<title>Node7&#45;&gt;Node12</title>
<path fill="none" stroke="midnightblue" d="M261.97,-87.25C249.59,-82.3 235.83,-76.8 224.46,-72.25"/>
<polygon fill="midnightblue" stroke="midnightblue" points="260.94,-90.61 271.53,-91.08 263.54,-84.11 260.94,-90.61"/>
</g>
<!-- Node8&#45;&gt;Node6 -->
<g id="edge8" class="edge">
<title>Node8&#45;&gt;Node6</title>
<path fill="none" stroke="midnightblue" d="M242.21,-32.9C276.38,-39.64 324.22,-49.09 356.79,-55.52"/>
<polygon fill="midnightblue" stroke="midnightblue" points="242.57,-29.4 232.08,-30.9 241.21,-36.27 242.57,-29.4"/>
</g>
<!-- Node9&#45;&gt;Node4 -->
<g id="edge10" class="edge">
<title>Node9&#45;&gt;Node4</title>
<path fill="none" stroke="midnightblue" d="M161.93,-145.94C149.1,-148.49 135.14,-151.27 124.02,-153.48"/>
<polygon fill="midnightblue" stroke="midnightblue" points="162.77,-149.34 171.9,-143.96 161.41,-142.48 162.77,-149.34"/>
</g>
<!-- Node11 -->
<g id="node11" class="node">
<title>Node11</title>
<g id="a_node11"><a xlink:href="syntactic__analysis_8c.html#ac9b33c13aa831335429748838739aef7" target="_top" xlink:title="Processes if condition.">
<polygon fill="white" stroke="black" points="77,-34.17 77,-53.17 127,-53.17 127,-34.17 77,-34.17"/>
<text text-anchor="middle" x="102" y="-41.17" font-family="Helvetica,sans-Serif" font-size="10.00">IF_DEF</text>
</a>
</g>
</g>
<!-- Node10&#45;&gt;Node11 -->
<g id="edge12" class="edge">
<title>Node10&#45;&gt;Node11</title>
<path fill="none" stroke="midnightblue" d="M170.91,-86.15C168.22,-84.66 165.55,-83.15 163,-81.67 147.24,-72.47 129.65,-61.21 117.61,-53.34"/>
<polygon fill="midnightblue" stroke="midnightblue" points="169.48,-89.36 179.93,-91.06 172.82,-83.21 169.48,-89.36"/>
</g>
<!-- Node11&#45;&gt;Node6 -->
<g id="edge13" class="edge">
<title>Node11&#45;&gt;Node6</title>
<path fill="none" stroke="midnightblue" d="M122.09,-27.62C133.25,-19.3 148.05,-10 163,-5.67 194.16,3.37 204.02,-0.19 236,-5.67 287.73,-14.53 344.8,-39.35 373.79,-53.14"/>
<polygon fill="midnightblue" stroke="midnightblue" points="119.71,-25.04 113.99,-33.96 124.02,-30.55 119.71,-25.04"/>
</g>
<!-- Node12&#45;&gt;Node6 -->
<g id="edge15" class="edge">
<title>Node12&#45;&gt;Node6</title>
<path fill="none" stroke="midnightblue" d="M246.31,-62.67C280.12,-62.67 325.5,-62.67 356.79,-62.67"/>
<polygon fill="midnightblue" stroke="midnightblue" points="246.22,-59.17 236.22,-62.67 246.22,-66.17 246.22,-59.17"/>
</g>
<!-- Node13&#45;&gt;Node9 -->
<g id="edge17" class="edge">
<title>Node13&#45;&gt;Node9</title>
<path fill="none" stroke="midnightblue" d="M457.84,-138.67C396.76,-138.67 279.5,-138.67 227.02,-138.67"/>
<polygon fill="midnightblue" stroke="midnightblue" points="457.85,-142.17 467.85,-138.67 457.85,-135.17 457.85,-142.17"/>
</g>
<!-- Node14&#45;&gt;Node9 -->
<g id="edge19" class="edge">
<title>Node14&#45;&gt;Node9</title>
<path fill="none" stroke="midnightblue" d="M358.88,-201.19C320.33,-185.98 258.56,-161.59 224.68,-148.21"/>
<polygon fill="midnightblue" stroke="midnightblue" points="358.03,-204.62 368.62,-205.04 360.6,-198.11 358.03,-204.62"/>
</g>
</g>
</svg>
