<?xml version="1.0" encoding="UTF-8" standalone="no"?>
<!DOCTYPE svg PUBLIC "-//W3C//DTD SVG 1.1//EN"
 "http://www.w3.org/Graphics/SVG/1.1/DTD/svg11.dtd">
<!-- Generated by graphviz version 2.43.0 (0)
 -->
<!-- Title: EXPRESSION Pages: 1 -->
<svg width="893pt" height="351pt"
 viewBox="0.00 0.00 893.00 351.00" xmlns="http://www.w3.org/2000/svg" xmlns:xlink="http://www.w3.org/1999/xlink">
<g id="graph0" class="graph" transform="scale(1 1) rotate(0) translate(4 347)">
<title>EXPRESSION</title>
<polygon fill="white" stroke="transparent" points="-4,4 -4,-347 889,-347 889,4 -4,4"/>
<!-- Node1 -->
<g id="node1" class="node">
<title>Node1</title>
<g id="a_node1"><a xlink:title="Function for processing another argument which is in queue.">
<polygon fill="#bfbfbf" stroke="black" points="807,-190.5 807,-209.5 885,-209.5 885,-190.5 807,-190.5"/>
<text text-anchor="middle" x="846" y="-197.5" font-family="Helvetica,sans-Serif" font-size="10.00">EXPRESSION</text>
</a>
</g>
</g>
<!-- Node2 -->
<g id="node2" class="node">
<title>Node2</title>
<g id="a_node2"><a xlink:href="syntactic__analysis_8c.html#a83f44b9d12d581ea924af4ba707819c3" target="_top" xlink:title="Function for processing argument of called function.">
<polygon fill="white" stroke="black" points="706,-323.5 706,-342.5 744,-342.5 744,-323.5 706,-323.5"/>
<text text-anchor="middle" x="725" y="-330.5" font-family="Helvetica,sans-Serif" font-size="10.00">ARG</text>
</a>
</g>
</g>
<!-- Node1&#45;&gt;Node2 -->
<g id="edge1" class="edge">
<title>Node1&#45;&gt;Node2</title>
<path fill="none" stroke="midnightblue" d="M835.88,-218.82C823.74,-242.31 800.34,-282.63 771,-309 763.23,-315.98 753.06,-321.63 744.36,-325.69"/>
<polygon fill="midnightblue" stroke="midnightblue" points="839.15,-220.1 840.51,-209.59 832.9,-216.95 839.15,-220.1"/>
</g>
<!-- Node4 -->
<g id="node4" class="node">
<title>Node4</title>
<g id="a_node4"><a xlink:href="syntactic__analysis_8c.html#ade39708cf9c0a95b1e75a94b3982f1aa" target="_top" xlink:title="Extended function for CALL_DEF()">
<polygon fill="white" stroke="black" points="578,-285.5 578,-304.5 643,-304.5 643,-285.5 578,-285.5"/>
<text text-anchor="middle" x="610.5" y="-292.5" font-family="Helvetica,sans-Serif" font-size="10.00">CALL_EXT</text>
</a>
</g>
</g>
<!-- Node1&#45;&gt;Node4 -->
<g id="edge26" class="edge">
<title>Node1&#45;&gt;Node4</title>
<path fill="none" stroke="midnightblue" d="M831.97,-217.67C818.63,-234.33 796.31,-258.56 771,-271 730.04,-291.14 676.58,-295.36 643.14,-295.77"/>
<polygon fill="midnightblue" stroke="midnightblue" points="834.74,-219.8 838.09,-209.74 829.21,-215.51 834.74,-219.8"/>
</g>
<!-- Node13 -->
<g id="node13" class="node">
<title>Node13</title>
<g id="a_node13"><a xlink:href="syntactic__analysis_8c.html#ac9b33c13aa831335429748838739aef7" target="_top" xlink:title="Processes if condition.">
<polygon fill="white" stroke="black" points="77,-228.5 77,-247.5 127,-247.5 127,-228.5 77,-228.5"/>
<text text-anchor="middle" x="102" y="-235.5" font-family="Helvetica,sans-Serif" font-size="10.00">IF_DEF</text>
</a>
</g>
</g>
<!-- Node1&#45;&gt;Node13 -->
<g id="edge27" class="edge">
<title>Node1&#45;&gt;Node13</title>
<path fill="none" stroke="midnightblue" d="M804.06,-212.16C793.39,-214.87 781.84,-217.41 771,-219 535.55,-253.45 473.92,-235.33 236,-240 203.56,-240.64 195.44,-240.54 163,-240 151.22,-239.8 138.15,-239.39 127.23,-238.99"/>
<polygon fill="midnightblue" stroke="midnightblue" points="805.2,-215.48 813.97,-209.53 803.41,-208.71 805.2,-215.48"/>
</g>
<!-- Node14 -->
<g id="node14" class="node">
<title>Node14</title>
<g id="a_node14"><a xlink:href="syntactic__analysis_8c.html#a13efec100d0c39c874c413765ded4d10" target="_top" xlink:title="Processes while loop.">
<polygon fill="white" stroke="black" points="163,-76.5 163,-95.5 236,-95.5 236,-76.5 163,-76.5"/>
<text text-anchor="middle" x="199.5" y="-83.5" font-family="Helvetica,sans-Serif" font-size="10.00">WHILE_DEF</text>
</a>
</g>
</g>
<!-- Node1&#45;&gt;Node14 -->
<g id="edge30" class="edge">
<title>Node1&#45;&gt;Node14</title>
<path fill="none" stroke="midnightblue" d="M831.34,-182.66C798.25,-142.79 709.29,-48 611.5,-48 611.5,-48 611.5,-48 393,-48 334.41,-48 267.65,-65.15 230.15,-76.41"/>
<polygon fill="midnightblue" stroke="midnightblue" points="828.68,-184.94 837.7,-190.49 834.11,-180.52 828.68,-184.94"/>
</g>
<!-- Node15 -->
<g id="node15" class="node">
<title>Node15</title>
<g id="a_node15"><a xlink:href="syntactic__analysis_8c.html#aa1d8bc4c3095f3ba13e1fcc83038d948" target="_top" xlink:title="Processes assigning expresions to the constant.">
<polygon fill="white" stroke="black" points="679,-152.5 679,-171.5 771,-171.5 771,-152.5 679,-152.5"/>
<text text-anchor="middle" x="725" y="-159.5" font-family="Helvetica,sans-Serif" font-size="10.00">ASSIGN_CONST</text>
</a>
</g>
</g>
<!-- Node1&#45;&gt;Node15 -->
<g id="edge18" class="edge">
<title>Node1&#45;&gt;Node15</title>
<path fill="none" stroke="midnightblue" d="M805.29,-187.32C789.21,-182.19 770.96,-176.36 756.02,-171.59"/>
<polygon fill="midnightblue" stroke="midnightblue" points="804.38,-190.7 814.97,-190.41 806.51,-184.03 804.38,-190.7"/>
</g>
<!-- Node17 -->
<g id="node17" class="node">
<title>Node17</title>
<g id="a_node17"><a xlink:href="syntactic__analysis_8c.html#a76e0ba812902123b4ec0d43c59c13c04" target="_top" xlink:title="Processes assigning expresions to the variable.">
<polygon fill="white" stroke="black" points="686,-0.5 686,-19.5 764,-19.5 764,-0.5 686,-0.5"/>
<text text-anchor="middle" x="725" y="-7.5" font-family="Helvetica,sans-Serif" font-size="10.00">ASSIGN_VAR</text>
</a>
</g>
</g>
<!-- Node1&#45;&gt;Node17 -->
<g id="edge22" class="edge">
<title>Node1&#45;&gt;Node17</title>
<path fill="none" stroke="midnightblue" d="M840.64,-180.15C832.34,-146.41 811.39,-77.35 771,-34 765.45,-28.04 758.07,-23.26 750.9,-19.59"/>
<polygon fill="midnightblue" stroke="midnightblue" points="837.29,-181.21 842.98,-190.15 844.11,-179.61 837.29,-181.21"/>
</g>
<!-- Node19 -->
<g id="node19" class="node">
<title>Node19</title>
<g id="a_node19"><a xlink:href="syntactic__analysis_8c.html#a1012bbb9f570627aabec5e3eda7c4993" target="_top" xlink:title="Processes return command.">
<polygon fill="white" stroke="black" points="695,-190.5 695,-209.5 755,-209.5 755,-190.5 695,-190.5"/>
<text text-anchor="middle" x="725" y="-197.5" font-family="Helvetica,sans-Serif" font-size="10.00">RET_DEF</text>
</a>
</g>
</g>
<!-- Node1&#45;&gt;Node19 -->
<g id="edge28" class="edge">
<title>Node1&#45;&gt;Node19</title>
<path fill="none" stroke="midnightblue" d="M796.65,-200C782.59,-200 767.67,-200 755.17,-200"/>
<polygon fill="midnightblue" stroke="midnightblue" points="796.69,-203.5 806.69,-200 796.69,-196.5 796.69,-203.5"/>
</g>
<!-- Node3 -->
<g id="node3" class="node">
<title>Node3</title>
<g id="a_node3"><a xlink:href="syntactic__analysis_8c.html#a271ef1f0dc6a029b233bcb024b19b116" target="_top" xlink:title="Function for processing another argument which is in queue.">
<polygon fill="white" stroke="black" points="588.5,-323.5 588.5,-342.5 632.5,-342.5 632.5,-323.5 588.5,-323.5"/>
<text text-anchor="middle" x="610.5" y="-330.5" font-family="Helvetica,sans-Serif" font-size="10.00">ARGS</text>
</a>
</g>
</g>
<!-- Node2&#45;&gt;Node3 -->
<g id="edge2" class="edge">
<title>Node2&#45;&gt;Node3</title>
<path fill="none" stroke="midnightblue" d="M695.75,-327.06C676.14,-325.82 650.43,-326 632.6,-327.59"/>
<polygon fill="midnightblue" stroke="midnightblue" points="695.67,-330.56 705.92,-327.89 696.24,-323.58 695.67,-330.56"/>
</g>
<!-- Node2&#45;&gt;Node4 -->
<g id="edge4" class="edge">
<title>Node2&#45;&gt;Node4</title>
<path fill="none" stroke="midnightblue" d="M696.41,-323.68C679.15,-317.85 656.99,-310.37 639.63,-304.5"/>
<polygon fill="midnightblue" stroke="midnightblue" points="695.33,-327.01 705.92,-326.89 697.57,-320.38 695.33,-327.01"/>
</g>
<!-- Node3&#45;&gt;Node2 -->
<g id="edge3" class="edge">
<title>Node3&#45;&gt;Node2</title>
<path fill="none" stroke="midnightblue" d="M642.66,-339.11C663.02,-340.22 688.89,-339.88 705.92,-338.11"/>
<polygon fill="midnightblue" stroke="midnightblue" points="642.82,-335.62 632.6,-338.41 642.33,-342.6 642.82,-335.62"/>
</g>
<!-- Node5 -->
<g id="node5" class="node">
<title>Node5</title>
<g id="a_node5"><a xlink:href="syntactic__analysis_8c.html#a2999c303cc3fb4692b7e96d9a22e9c03" target="_top" xlink:title="Processes calling functions, variables.">
<polygon fill="white" stroke="black" points="472,-285.5 472,-304.5 537,-304.5 537,-285.5 472,-285.5"/>
<text text-anchor="middle" x="504.5" y="-292.5" font-family="Helvetica,sans-Serif" font-size="10.00">CALL_DEF</text>
</a>
</g>
</g>
<!-- Node4&#45;&gt;Node5 -->
<g id="edge5" class="edge">
<title>Node4&#45;&gt;Node5</title>
<path fill="none" stroke="midnightblue" d="M567.43,-295C557.29,-295 546.64,-295 537.07,-295"/>
<polygon fill="midnightblue" stroke="midnightblue" points="567.73,-298.5 577.73,-295 567.73,-291.5 567.73,-298.5"/>
</g>
<!-- Node6 -->
<g id="node6" class="node">
<title>Node6</title>
<g id="a_node6"><a xlink:href="syntactic__analysis_8c.html#a7eac9e4351cf87fecd3e9a66cf5f28d8" target="_top" xlink:title="Processes the commands, coditions, ...">
<polygon fill="white" stroke="black" points="357,-171.5 357,-190.5 431,-190.5 431,-171.5 357,-171.5"/>
<text text-anchor="middle" x="394" y="-178.5" font-family="Helvetica,sans-Serif" font-size="10.00">STATEMENT</text>
</a>
</g>
</g>
<!-- Node5&#45;&gt;Node6 -->
<g id="edge6" class="edge">
<title>Node5&#45;&gt;Node6</title>
<path fill="none" stroke="midnightblue" d="M487.18,-277.85C464.08,-253.58 422.62,-210.02 404.23,-190.69"/>
<polygon fill="midnightblue" stroke="midnightblue" points="484.82,-280.45 494.25,-285.28 489.89,-275.62 484.82,-280.45"/>
</g>
<!-- Node7 -->
<g id="node7" class="node">
<title>Node7</title>
<g id="a_node7"><a xlink:href="syntactic__analysis_8c.html#a7d21e9db61747d6734d9a7f27d33b4f4" target="_top" xlink:title="Function for determining the depth of infestation.">
<polygon fill="white" stroke="black" points="272,-152.5 272,-171.5 321,-171.5 321,-152.5 272,-152.5"/>
<text text-anchor="middle" x="296.5" y="-159.5" font-family="Helvetica,sans-Serif" font-size="10.00">SCOPE</text>
</a>
</g>
</g>
<!-- Node6&#45;&gt;Node7 -->
<g id="edge7" class="edge">
<title>Node6&#45;&gt;Node7</title>
<path fill="none" stroke="midnightblue" d="M346.94,-171.84C338.03,-170.06 329.04,-168.28 321.22,-166.72"/>
<polygon fill="midnightblue" stroke="midnightblue" points="346.4,-175.3 356.9,-173.82 347.77,-168.43 346.4,-175.3"/>
</g>
<!-- Node8 -->
<g id="node8" class="node">
<title>Node8</title>
<g id="a_node8"><a xlink:href="syntactic__analysis_8c.html#a047deda12297b3a39f2d50261fd7de70" target="_top" xlink:title="Processes else condition.">
<polygon fill="white" stroke="black" points="167,-190.5 167,-209.5 232,-209.5 232,-190.5 167,-190.5"/>
<text text-anchor="middle" x="199.5" y="-197.5" font-family="Helvetica,sans-Serif" font-size="10.00">ELSE_DEF</text>
</a>
</g>
</g>
<!-- Node7&#45;&gt;Node8 -->
<g id="edge8" class="edge">
<title>Node7&#45;&gt;Node8</title>
<path fill="none" stroke="midnightblue" d="M261.97,-175.41C249.59,-180.36 235.83,-185.87 224.46,-190.41"/>
<polygon fill="midnightblue" stroke="midnightblue" points="263.54,-178.55 271.53,-171.59 260.94,-172.05 263.54,-178.55"/>
</g>
<!-- Node9 -->
<g id="node9" class="node">
<title>Node9</title>
<g id="a_node9"><a xlink:href="syntactic__analysis_8c.html#afb9892407a0399d61e51261ff730599a" target="_top" xlink:title="Processes function declaration.">
<polygon fill="white" stroke="black" points="172,-114.5 172,-133.5 227,-133.5 227,-114.5 172,-114.5"/>
<text text-anchor="middle" x="199.5" y="-121.5" font-family="Helvetica,sans-Serif" font-size="10.00">FN_DEF</text>
</a>
</g>
</g>
<!-- Node7&#45;&gt;Node9 -->
<g id="edge10" class="edge">
<title>Node7&#45;&gt;Node9</title>
<path fill="none" stroke="midnightblue" d="M261.97,-148.59C249.59,-143.64 235.83,-138.13 224.46,-133.59"/>
<polygon fill="midnightblue" stroke="midnightblue" points="260.94,-151.95 271.53,-152.41 263.54,-145.45 260.94,-151.95"/>
</g>
<!-- Node12 -->
<g id="node12" class="node">
<title>Node12</title>
<g id="a_node12"><a xlink:href="syntactic__analysis_8c.html#af131918ae0d8a1cc29cb2c8d6dc13aff" target="_top" xlink:title="Extended function for CALL_DEF()">
<polygon fill="white" stroke="black" points="174.5,-152.5 174.5,-171.5 224.5,-171.5 224.5,-152.5 174.5,-152.5"/>
<text text-anchor="middle" x="199.5" y="-159.5" font-family="Helvetica,sans-Serif" font-size="10.00">IF_EXT</text>
</a>
</g>
</g>
<!-- Node7&#45;&gt;Node12 -->
<g id="edge13" class="edge">
<title>Node7&#45;&gt;Node12</title>
<path fill="none" stroke="midnightblue" d="M261.32,-162C249.23,-162 235.89,-162 224.8,-162"/>
<polygon fill="midnightblue" stroke="midnightblue" points="261.53,-165.5 271.53,-162 261.53,-158.5 261.53,-165.5"/>
</g>
<!-- Node7&#45;&gt;Node14 -->
<g id="edge16" class="edge">
<title>Node7&#45;&gt;Node14</title>
<path fill="none" stroke="midnightblue" d="M278.81,-145.02C264.52,-130.67 244.89,-111.45 236,-105 231.25,-101.55 225.79,-98.32 220.61,-95.54"/>
<polygon fill="midnightblue" stroke="midnightblue" points="276.58,-147.74 286.1,-152.38 281.55,-142.81 276.58,-147.74"/>
</g>
<!-- Node8&#45;&gt;Node6 -->
<g id="edge9" class="edge">
<title>Node8&#45;&gt;Node6</title>
<path fill="none" stroke="midnightblue" d="M242.21,-195.88C276.38,-192.51 324.22,-187.79 356.79,-184.57"/>
<polygon fill="midnightblue" stroke="midnightblue" points="241.69,-192.42 232.08,-196.88 242.38,-199.38 241.69,-192.42"/>
</g>
<!-- Node10 -->
<g id="node10" class="node">
<title>Node10</title>
<g id="a_node10"><a xlink:href="syntactic__analysis_8c.html#a607ec0964227a0c6c98fd79770e51c11" target="_top" xlink:title="Processes the FIRST rule in the syntactic analysis.">
<polygon fill="white" stroke="black" points="80,-38.5 80,-57.5 124,-57.5 124,-38.5 80,-38.5"/>
<text text-anchor="middle" x="102" y="-45.5" font-family="Helvetica,sans-Serif" font-size="10.00">FIRST</text>
</a>
</g>
</g>
<!-- Node9&#45;&gt;Node10 -->
<g id="edge11" class="edge">
<title>Node9&#45;&gt;Node10</title>
<path fill="none" stroke="midnightblue" d="M169.57,-109.37C167.3,-107.97 165.08,-106.5 163,-105 142.97,-90.53 122.77,-69.77 111.67,-57.71"/>
<polygon fill="midnightblue" stroke="midnightblue" points="167.99,-112.5 178.4,-114.45 171.48,-106.43 167.99,-112.5"/>
</g>
<!-- Node11 -->
<g id="node11" class="node">
<title>Node11</title>
<g id="a_node11"><a xlink:href="main_8c.html#a3c04138a5bfe5d72780bb7e82a18e627" target="_top" xlink:title=" ">
<polygon fill="white" stroke="black" points="0,-38.5 0,-57.5 41,-57.5 41,-38.5 0,-38.5"/>
<text text-anchor="middle" x="20.5" y="-45.5" font-family="Helvetica,sans-Serif" font-size="10.00">main</text>
</a>
</g>
</g>
<!-- Node10&#45;&gt;Node11 -->
<g id="edge12" class="edge">
<title>Node10&#45;&gt;Node11</title>
<path fill="none" stroke="midnightblue" d="M69.67,-48C60.08,-48 49.81,-48 41.23,-48"/>
<polygon fill="midnightblue" stroke="midnightblue" points="69.7,-51.5 79.7,-48 69.7,-44.5 69.7,-51.5"/>
</g>
<!-- Node12&#45;&gt;Node13 -->
<g id="edge14" class="edge">
<title>Node12&#45;&gt;Node13</title>
<path fill="none" stroke="midnightblue" d="M169.57,-176.63C167.3,-178.03 165.08,-179.5 163,-181 142.97,-195.47 122.77,-216.23 111.67,-228.29"/>
<polygon fill="midnightblue" stroke="midnightblue" points="171.48,-179.57 178.4,-171.55 167.99,-173.5 171.48,-179.57"/>
</g>
<!-- Node13&#45;&gt;Node6 -->
<g id="edge15" class="edge">
<title>Node13&#45;&gt;Node6</title>
<path fill="none" stroke="midnightblue" d="M137.13,-234.54C180.35,-229.74 256.93,-219.81 321,-204 336.03,-200.29 352.51,-195.11 365.9,-190.61"/>
<polygon fill="midnightblue" stroke="midnightblue" points="136.71,-231.07 127.14,-235.63 137.46,-238.03 136.71,-231.07"/>
</g>
<!-- Node14&#45;&gt;Node6 -->
<g id="edge17" class="edge">
<title>Node14&#45;&gt;Node6</title>
<path fill="none" stroke="midnightblue" d="M230.67,-99.83C255.15,-111.15 290.48,-127.74 321,-143 339.71,-152.36 360.85,-163.6 375.36,-171.41"/>
<polygon fill="midnightblue" stroke="midnightblue" points="232.08,-96.62 221.53,-95.61 229.15,-102.98 232.08,-96.62"/>
</g>
<!-- Node16 -->
<g id="node16" class="node">
<title>Node16</title>
<g id="a_node16"><a xlink:href="syntactic__analysis_8c.html#ab1c09d376532dc76198f8d2d6c729fef" target="_top" xlink:title="Processes command for constant declaration.">
<polygon fill="white" stroke="black" points="467,-152.5 467,-171.5 542,-171.5 542,-152.5 467,-152.5"/>
<text text-anchor="middle" x="504.5" y="-159.5" font-family="Helvetica,sans-Serif" font-size="10.00">CONST_DEF</text>
</a>
</g>
</g>
<!-- Node15&#45;&gt;Node16 -->
<g id="edge19" class="edge">
<title>Node15&#45;&gt;Node16</title>
<path fill="none" stroke="midnightblue" d="M668.94,-162C629.25,-162 576.78,-162 542.12,-162"/>
<polygon fill="midnightblue" stroke="midnightblue" points="668.99,-165.5 678.99,-162 668.99,-158.5 668.99,-165.5"/>
</g>
<!-- Node16&#45;&gt;Node6 -->
<g id="edge21" class="edge">
<title>Node16&#45;&gt;Node6</title>
<path fill="none" stroke="midnightblue" d="M456.9,-170.16C448.34,-171.66 439.53,-173.2 431.33,-174.64"/>
<polygon fill="midnightblue" stroke="midnightblue" points="457.52,-173.61 466.77,-168.43 456.31,-166.71 457.52,-173.61"/>
</g>
<!-- Node16&#45;&gt;Node10 -->
<g id="edge20" class="edge">
<title>Node16&#45;&gt;Node10</title>
<path fill="none" stroke="midnightblue" d="M471.93,-148.46C422.53,-127.81 323.52,-88.56 236,-67 197.27,-57.46 150.94,-52.19 124.44,-49.74"/>
<polygon fill="midnightblue" stroke="midnightblue" points="470.84,-151.8 481.42,-152.45 473.56,-145.35 470.84,-151.8"/>
</g>
<!-- Node18 -->
<g id="node18" class="node">
<title>Node18</title>
<g id="a_node18"><a xlink:href="syntactic__analysis_8c.html#a49c6186e8aee36246b52305756b7a017" target="_top" xlink:title="Processes command for variable declaration.">
<polygon fill="white" stroke="black" points="474,-0.5 474,-19.5 535,-19.5 535,-0.5 474,-0.5"/>
<text text-anchor="middle" x="504.5" y="-7.5" font-family="Helvetica,sans-Serif" font-size="10.00">VAR_DEF</text>
</a>
</g>
</g>
<!-- Node17&#45;&gt;Node18 -->
<g id="edge23" class="edge">
<title>Node17&#45;&gt;Node18</title>
<path fill="none" stroke="midnightblue" d="M675.71,-10C632.7,-10 571.17,-10 535.07,-10"/>
<polygon fill="midnightblue" stroke="midnightblue" points="675.94,-13.5 685.94,-10 675.94,-6.5 675.94,-13.5"/>
</g>
<!-- Node18&#45;&gt;Node6 -->
<g id="edge25" class="edge">
<title>Node18&#45;&gt;Node6</title>
<path fill="none" stroke="midnightblue" d="M491.91,-28.27C468.98,-64.41 418.52,-143.93 401.08,-171.42"/>
<polygon fill="midnightblue" stroke="midnightblue" points="494.95,-30 497.36,-19.68 489.04,-26.25 494.95,-30"/>
</g>
<!-- Node18&#45;&gt;Node10 -->
<g id="edge24" class="edge">
<title>Node18&#45;&gt;Node10</title>
<path fill="none" stroke="midnightblue" d="M463.69,-10.76C399.89,-12.43 270.96,-17.71 163,-34 149.99,-35.96 135.63,-39.27 124.22,-42.18"/>
<polygon fill="midnightblue" stroke="midnightblue" points="463.81,-14.26 473.72,-10.51 463.64,-7.26 463.81,-14.26"/>
</g>
<!-- Node19&#45;&gt;Node6 -->
<g id="edge29" class="edge">
<title>Node19&#45;&gt;Node6</title>
<path fill="none" stroke="midnightblue" d="M684.65,-197.73C620.23,-194.01 493.23,-186.67 431.03,-183.08"/>
<polygon fill="midnightblue" stroke="midnightblue" points="684.62,-201.23 694.8,-198.31 685.02,-194.24 684.62,-201.23"/>
</g>
</g>
</svg>
