<?xml version="1.0" encoding="UTF-8" standalone="no"?>
<!DOCTYPE svg PUBLIC "-//W3C//DTD SVG 1.1//EN"
 "http://www.w3.org/Graphics/SVG/1.1/DTD/svg11.dtd">
<!-- Generated by graphviz version 2.43.0 (0)
 -->
<!-- Title: SCOPE Pages: 1 -->
<svg width="634pt" height="313pt"
 viewBox="0.00 0.00 634.00 313.00" xmlns="http://www.w3.org/2000/svg" xmlns:xlink="http://www.w3.org/1999/xlink">
<g id="graph0" class="graph" transform="scale(1 1) rotate(0) translate(4 309)">
<title>SCOPE</title>
<polygon fill="white" stroke="transparent" points="-4,4 -4,-309 630,-309 630,4 -4,4"/>
<!-- Node1 -->
<g id="node1" class="node">
<title>Node1</title>
<g id="a_node1"><a xlink:title="Function for determining the depth of infestation.">
<polygon fill="#bfbfbf" stroke="black" points="0,-199.5 0,-218.5 49,-218.5 49,-199.5 0,-199.5"/>
<text text-anchor="middle" x="24.5" y="-206.5" font-family="Helvetica,sans-Serif" font-size="10.00">SCOPE</text>
</a>
</g>
</g>
<!-- Node2 -->
<g id="node2" class="node">
<title>Node2</title>
<g id="a_node2"><a xlink:href="syntactic__analysis_8c.html#a7eac9e4351cf87fecd3e9a66cf5f28d8" target="_top" xlink:title="Processes the commands, coditions, ...">
<polygon fill="white" stroke="black" points="85,-176.5 85,-195.5 159,-195.5 159,-176.5 85,-176.5"/>
<text text-anchor="middle" x="122" y="-183.5" font-family="Helvetica,sans-Serif" font-size="10.00">STATEMENT</text>
</a>
</g>
</g>
<!-- Node1&#45;&gt;Node2 -->
<g id="edge1" class="edge">
<title>Node1&#45;&gt;Node2</title>
<path fill="none" stroke="midnightblue" d="M49.11,-203.31C56.89,-201.44 65.84,-199.28 74.72,-197.15"/>
<polygon fill="midnightblue" stroke="midnightblue" points="75.75,-200.5 84.65,-194.75 74.11,-193.69 75.75,-200.5"/>
</g>
<!-- Node3 -->
<g id="node3" class="node">
<title>Node3</title>
<g id="a_node3"><a xlink:href="syntactic__analysis_8c.html#a2999c303cc3fb4692b7e96d9a22e9c03" target="_top" xlink:title="Processes calling functions, variables.">
<polygon fill="white" stroke="black" points="200,-38.5 200,-57.5 265,-57.5 265,-38.5 200,-38.5"/>
<text text-anchor="middle" x="232.5" y="-45.5" font-family="Helvetica,sans-Serif" font-size="10.00">CALL_DEF</text>
</a>
</g>
</g>
<!-- Node2&#45;&gt;Node3 -->
<g id="edge2" class="edge">
<title>Node2&#45;&gt;Node3</title>
<path fill="none" stroke="midnightblue" d="M126.64,-176.48C135.4,-154.63 159.6,-100.2 195,-67 196.45,-65.64 198.01,-64.36 199.64,-63.14"/>
<polygon fill="midnightblue" stroke="midnightblue" points="201.68,-66 208.23,-57.67 197.92,-60.09 201.68,-66"/>
</g>
<!-- Node8 -->
<g id="node8" class="node">
<title>Node8</title>
<g id="a_node8"><a xlink:href="syntactic__analysis_8c.html#ab1c09d376532dc76198f8d2d6c729fef" target="_top" xlink:title="Processes command for constant declaration.">
<polygon fill="white" stroke="black" points="195,-171.5 195,-190.5 270,-190.5 270,-171.5 195,-171.5"/>
<text text-anchor="middle" x="232.5" y="-178.5" font-family="Helvetica,sans-Serif" font-size="10.00">CONST_DEF</text>
</a>
</g>
</g>
<!-- Node2&#45;&gt;Node8 -->
<g id="edge9" class="edge">
<title>Node2&#45;&gt;Node8</title>
<path fill="none" stroke="midnightblue" d="M159.13,-184.34C167.28,-183.96 176.05,-183.56 184.57,-183.16"/>
<polygon fill="midnightblue" stroke="midnightblue" points="184.96,-186.65 194.79,-182.69 184.64,-179.66 184.96,-186.65"/>
</g>
<!-- Node10 -->
<g id="node10" class="node">
<title>Node10</title>
<g id="a_node10"><a xlink:href="syntactic__analysis_8c.html#a047deda12297b3a39f2d50261fd7de70" target="_top" xlink:title="Processes else condition.">
<polygon fill="white" stroke="black" points="200,-285.5 200,-304.5 265,-304.5 265,-285.5 200,-285.5"/>
<text text-anchor="middle" x="232.5" y="-292.5" font-family="Helvetica,sans-Serif" font-size="10.00">ELSE_DEF</text>
</a>
</g>
</g>
<!-- Node2&#45;&gt;Node10 -->
<g id="edge12" class="edge">
<title>Node2&#45;&gt;Node10</title>
<path fill="none" stroke="midnightblue" d="M128.86,-195.77C139.93,-213.58 165.48,-251.73 195,-276 196.75,-277.44 198.62,-278.81 200.57,-280.11"/>
<polygon fill="midnightblue" stroke="midnightblue" points="198.96,-283.23 209.34,-285.35 202.55,-277.22 198.96,-283.23"/>
</g>
<!-- Node11 -->
<g id="node11" class="node">
<title>Node11</title>
<g id="a_node11"><a xlink:href="syntactic__analysis_8c.html#ac9b33c13aa831335429748838739aef7" target="_top" xlink:title="Processes if condition.">
<polygon fill="white" stroke="black" points="207.5,-76.5 207.5,-95.5 257.5,-95.5 257.5,-76.5 207.5,-76.5"/>
<text text-anchor="middle" x="232.5" y="-83.5" font-family="Helvetica,sans-Serif" font-size="10.00">IF_DEF</text>
</a>
</g>
</g>
<!-- Node2&#45;&gt;Node11 -->
<g id="edge14" class="edge">
<title>Node2&#45;&gt;Node11</title>
<path fill="none" stroke="midnightblue" d="M133.4,-176.41C151.91,-159.36 190.74,-123.57 213.61,-102.49"/>
<polygon fill="midnightblue" stroke="midnightblue" points="215.99,-105.06 220.97,-95.71 211.24,-99.91 215.99,-105.06"/>
</g>
<!-- Node13 -->
<g id="node13" class="node">
<title>Node13</title>
<g id="a_node13"><a xlink:href="syntactic__analysis_8c.html#a1012bbb9f570627aabec5e3eda7c4993" target="_top" xlink:title="Processes return command.">
<polygon fill="white" stroke="black" points="436,-228.5 436,-247.5 496,-247.5 496,-228.5 436,-228.5"/>
<text text-anchor="middle" x="466" y="-235.5" font-family="Helvetica,sans-Serif" font-size="10.00">RET_DEF</text>
</a>
</g>
</g>
<!-- Node2&#45;&gt;Node13 -->
<g id="edge18" class="edge">
<title>Node2&#45;&gt;Node13</title>
<path fill="none" stroke="midnightblue" d="M159.19,-193.42C170.62,-195.66 183.32,-198.04 195,-200 276.85,-213.71 373.22,-226.46 425.83,-233.14"/>
<polygon fill="midnightblue" stroke="midnightblue" points="425.4,-236.61 435.76,-234.39 426.27,-229.67 425.4,-236.61"/>
</g>
<!-- Node14 -->
<g id="node14" class="node">
<title>Node14</title>
<g id="a_node14"><a xlink:href="syntactic__analysis_8c.html#a49c6186e8aee36246b52305756b7a017" target="_top" xlink:title="Processes command for variable declaration.">
<polygon fill="white" stroke="black" points="202,-133.5 202,-152.5 263,-152.5 263,-133.5 202,-133.5"/>
<text text-anchor="middle" x="232.5" y="-140.5" font-family="Helvetica,sans-Serif" font-size="10.00">VAR_DEF</text>
</a>
</g>
</g>
<!-- Node2&#45;&gt;Node14 -->
<g id="edge20" class="edge">
<title>Node2&#45;&gt;Node14</title>
<path fill="none" stroke="midnightblue" d="M147.08,-176.46C162.11,-170.5 181.67,-162.75 198.18,-156.21"/>
<polygon fill="midnightblue" stroke="midnightblue" points="199.48,-159.45 207.49,-152.52 196.9,-152.95 199.48,-159.45"/>
</g>
<!-- Node17 -->
<g id="node17" class="node">
<title>Node17</title>
<g id="a_node17"><a xlink:href="syntactic__analysis_8c.html#a13efec100d0c39c874c413765ded4d10" target="_top" xlink:title="Processes while loop.">
<polygon fill="white" stroke="black" points="196,-247.5 196,-266.5 269,-266.5 269,-247.5 196,-247.5"/>
<text text-anchor="middle" x="232.5" y="-254.5" font-family="Helvetica,sans-Serif" font-size="10.00">WHILE_DEF</text>
</a>
</g>
</g>
<!-- Node2&#45;&gt;Node17 -->
<g id="edge24" class="edge">
<title>Node2&#45;&gt;Node17</title>
<path fill="none" stroke="midnightblue" d="M137.63,-195.58C155.75,-207.43 186.84,-227.77 208.24,-241.78"/>
<polygon fill="midnightblue" stroke="midnightblue" points="206.47,-244.8 216.75,-247.35 210.3,-238.95 206.47,-244.8"/>
</g>
<!-- Node4 -->
<g id="node4" class="node">
<title>Node4</title>
<g id="a_node4"><a xlink:href="syntactic__analysis_8c.html#ade39708cf9c0a95b1e75a94b3982f1aa" target="_top" xlink:title="Extended function for CALL_DEF()">
<polygon fill="white" stroke="black" points="312.5,-38.5 312.5,-57.5 377.5,-57.5 377.5,-38.5 312.5,-38.5"/>
<text text-anchor="middle" x="345" y="-45.5" font-family="Helvetica,sans-Serif" font-size="10.00">CALL_EXT</text>
</a>
</g>
</g>
<!-- Node3&#45;&gt;Node4 -->
<g id="edge3" class="edge">
<title>Node3&#45;&gt;Node4</title>
<path fill="none" stroke="midnightblue" d="M265.16,-48C276.72,-48 289.98,-48 302.28,-48"/>
<polygon fill="midnightblue" stroke="midnightblue" points="302.33,-51.5 312.33,-48 302.33,-44.5 302.33,-51.5"/>
</g>
<!-- Node5 -->
<g id="node5" class="node">
<title>Node5</title>
<g id="a_node5"><a xlink:href="syntactic__analysis_8c.html#a83f44b9d12d581ea924af4ba707819c3" target="_top" xlink:title="Function for processing argument of called function.">
<polygon fill="white" stroke="black" points="447,-0.5 447,-19.5 485,-19.5 485,-0.5 447,-0.5"/>
<text text-anchor="middle" x="466" y="-7.5" font-family="Helvetica,sans-Serif" font-size="10.00">ARG</text>
</a>
</g>
</g>
<!-- Node4&#45;&gt;Node5 -->
<g id="edge4" class="edge">
<title>Node4&#45;&gt;Node5</title>
<path fill="none" stroke="midnightblue" d="M376.03,-38.41C394.85,-32.4 418.94,-24.71 437.3,-18.84"/>
<polygon fill="midnightblue" stroke="midnightblue" points="438.38,-22.17 446.85,-15.8 436.25,-15.51 438.38,-22.17"/>
</g>
<!-- Node7 -->
<g id="node7" class="node">
<title>Node7</title>
<g id="a_node7"><a xlink:href="syntactic__analysis_8c.html#a38b7a13b9a5926c2c4b6af62cec86f85" target="_top" xlink:title="Function for processing another argument which is in queue.">
<polygon fill="white" stroke="black" points="548,-152.5 548,-171.5 626,-171.5 626,-152.5 548,-152.5"/>
<text text-anchor="middle" x="587" y="-159.5" font-family="Helvetica,sans-Serif" font-size="10.00">EXPRESSION</text>
</a>
</g>
</g>
<!-- Node4&#45;&gt;Node7 -->
<g id="edge8" class="edge">
<title>Node4&#45;&gt;Node7</title>
<path fill="none" stroke="midnightblue" d="M377.51,-46.01C412.59,-45.22 469.89,-48.27 512,-72 541.67,-88.72 564.32,-122.36 576.35,-143.45"/>
<polygon fill="midnightblue" stroke="midnightblue" points="573.38,-145.31 581.25,-152.4 579.52,-141.95 573.38,-145.31"/>
</g>
<!-- Node6 -->
<g id="node6" class="node">
<title>Node6</title>
<g id="a_node6"><a xlink:href="syntactic__analysis_8c.html#a271ef1f0dc6a029b233bcb024b19b116" target="_top" xlink:title="Function for processing another argument which is in queue.">
<polygon fill="white" stroke="black" points="565,-0.5 565,-19.5 609,-19.5 609,-0.5 565,-0.5"/>
<text text-anchor="middle" x="587" y="-7.5" font-family="Helvetica,sans-Serif" font-size="10.00">ARGS</text>
</a>
</g>
</g>
<!-- Node5&#45;&gt;Node6 -->
<g id="edge5" class="edge">
<title>Node5&#45;&gt;Node6</title>
<path fill="none" stroke="midnightblue" d="M485.07,-4.99C503.51,-3.08 532.49,-2.74 554.67,-3.97"/>
<polygon fill="midnightblue" stroke="midnightblue" points="554.72,-7.49 564.94,-4.7 555.21,-0.5 554.72,-7.49"/>
</g>
<!-- Node5&#45;&gt;Node7 -->
<g id="edge7" class="edge">
<title>Node5&#45;&gt;Node7</title>
<path fill="none" stroke="midnightblue" d="M485.14,-16.87C493.99,-20.88 504.36,-26.62 512,-34 545.08,-65.97 568.11,-115.9 578.95,-142.99"/>
<polygon fill="midnightblue" stroke="midnightblue" points="575.74,-144.4 582.62,-152.47 582.27,-141.88 575.74,-144.4"/>
</g>
<!-- Node6&#45;&gt;Node5 -->
<g id="edge6" class="edge">
<title>Node6&#45;&gt;Node5</title>
<path fill="none" stroke="midnightblue" d="M564.94,-15.3C545.53,-17.03 516.58,-17.21 495.19,-15.84"/>
<polygon fill="midnightblue" stroke="midnightblue" points="495.33,-12.34 485.07,-15.01 494.75,-19.32 495.33,-12.34"/>
</g>
<!-- Node9 -->
<g id="node9" class="node">
<title>Node9</title>
<g id="a_node9"><a xlink:href="syntactic__analysis_8c.html#aa1d8bc4c3095f3ba13e1fcc83038d948" target="_top" xlink:title="Processes assigning expresions to the constant.">
<polygon fill="white" stroke="black" points="420,-190.5 420,-209.5 512,-209.5 512,-190.5 420,-190.5"/>
<text text-anchor="middle" x="466" y="-197.5" font-family="Helvetica,sans-Serif" font-size="10.00">ASSIGN_CONST</text>
</a>
</g>
</g>
<!-- Node8&#45;&gt;Node9 -->
<g id="edge10" class="edge">
<title>Node8&#45;&gt;Node9</title>
<path fill="none" stroke="midnightblue" d="M270.18,-184.01C307.72,-187.09 366.5,-191.92 409.68,-195.46"/>
<polygon fill="midnightblue" stroke="midnightblue" points="409.5,-198.96 419.75,-196.29 410.07,-191.98 409.5,-198.96"/>
</g>
<!-- Node9&#45;&gt;Node7 -->
<g id="edge11" class="edge">
<title>Node9&#45;&gt;Node7</title>
<path fill="none" stroke="midnightblue" d="M497.03,-190.41C511.97,-185.64 530.22,-179.81 546.3,-174.68"/>
<polygon fill="midnightblue" stroke="midnightblue" points="547.52,-177.96 555.98,-171.59 545.39,-171.29 547.52,-177.96"/>
</g>
<!-- Node10&#45;&gt;Node1 -->
<g id="edge13" class="edge">
<title>Node10&#45;&gt;Node1</title>
<path fill="none" stroke="midnightblue" d="M199.87,-286.35C169.67,-277.6 123.24,-262.84 85,-245 72.35,-239.1 58.99,-231.18 48.14,-224.28"/>
<polygon fill="midnightblue" stroke="midnightblue" points="49.98,-221.3 39.69,-218.78 46.16,-227.17 49.98,-221.3"/>
</g>
<!-- Node11&#45;&gt;Node7 -->
<g id="edge15" class="edge">
<title>Node11&#45;&gt;Node7</title>
<path fill="none" stroke="midnightblue" d="M257.59,-83.09C307.11,-78.08 423.18,-71.34 512,-105 534.56,-113.55 555.9,-131.42 569.81,-144.88"/>
<polygon fill="midnightblue" stroke="midnightblue" points="567.56,-147.58 577.09,-152.2 572.52,-142.64 567.56,-147.58"/>
</g>
<!-- Node12 -->
<g id="node12" class="node">
<title>Node12</title>
<g id="a_node12"><a xlink:href="syntactic__analysis_8c.html#af131918ae0d8a1cc29cb2c8d6dc13aff" target="_top" xlink:title="Extended function for CALL_DEF()">
<polygon fill="white" stroke="black" points="320,-0.5 320,-19.5 370,-19.5 370,-0.5 320,-0.5"/>
<text text-anchor="middle" x="345" y="-7.5" font-family="Helvetica,sans-Serif" font-size="10.00">IF_EXT</text>
</a>
</g>
</g>
<!-- Node11&#45;&gt;Node12 -->
<g id="edge16" class="edge">
<title>Node11&#45;&gt;Node12</title>
<path fill="none" stroke="midnightblue" d="M254.68,-76.49C259.9,-73.74 265.32,-70.53 270,-67 288.57,-52.99 287.31,-42.86 306,-29 308.07,-27.46 310.29,-25.99 312.57,-24.59"/>
<polygon fill="midnightblue" stroke="midnightblue" points="314.5,-27.53 321.53,-19.61 311.09,-21.41 314.5,-27.53"/>
</g>
<!-- Node12&#45;&gt;Node1 -->
<g id="edge17" class="edge">
<title>Node12&#45;&gt;Node1</title>
<path fill="none" stroke="midnightblue" d="M319.85,-8.24C289.11,-7.04 235.2,-8.52 195,-29 119.86,-67.27 60.23,-152.8 36.55,-190.52"/>
<polygon fill="midnightblue" stroke="midnightblue" points="33.34,-189.07 31.08,-199.42 39.3,-192.74 33.34,-189.07"/>
</g>
<!-- Node13&#45;&gt;Node7 -->
<g id="edge19" class="edge">
<title>Node13&#45;&gt;Node7</title>
<path fill="none" stroke="midnightblue" d="M492.78,-228.45C499.22,-225.71 505.99,-222.5 512,-219 532.14,-207.25 553,-190.72 567.42,-178.49"/>
<polygon fill="midnightblue" stroke="midnightblue" points="569.83,-181.03 575.11,-171.85 565.25,-175.73 569.83,-181.03"/>
</g>
<!-- Node15 -->
<g id="node15" class="node">
<title>Node15</title>
<g id="a_node15"><a xlink:href="syntactic__analysis_8c.html#a76e0ba812902123b4ec0d43c59c13c04" target="_top" xlink:title="Processes assigning expresions to the variable.">
<polygon fill="white" stroke="black" points="306,-133.5 306,-152.5 384,-152.5 384,-133.5 306,-133.5"/>
<text text-anchor="middle" x="345" y="-140.5" font-family="Helvetica,sans-Serif" font-size="10.00">ASSIGN_VAR</text>
</a>
</g>
</g>
<!-- Node14&#45;&gt;Node15 -->
<g id="edge21" class="edge">
<title>Node14&#45;&gt;Node15</title>
<path fill="none" stroke="midnightblue" d="M263.11,-143C273.19,-143 284.74,-143 295.89,-143"/>
<polygon fill="midnightblue" stroke="midnightblue" points="295.97,-146.5 305.97,-143 295.97,-139.5 295.97,-146.5"/>
</g>
<!-- Node15&#45;&gt;Node7 -->
<g id="edge22" class="edge">
<title>Node15&#45;&gt;Node7</title>
<path fill="none" stroke="midnightblue" d="M384.03,-146.01C425.6,-149.3 492.31,-154.58 537.58,-158.17"/>
<polygon fill="midnightblue" stroke="midnightblue" points="537.51,-161.67 547.75,-158.97 538.06,-154.69 537.51,-161.67"/>
</g>
<!-- Node16 -->
<g id="node16" class="node">
<title>Node16</title>
<g id="a_node16"><a xlink:href="syntactic__analysis_8c.html#aaef2bee27144c07c175bb36e4c28af9d" target="_top" xlink:title="Function for verifaction enabled data types (DATA TYPES)">
<polygon fill="white" stroke="black" points="434,-114.5 434,-133.5 498,-133.5 498,-114.5 434,-114.5"/>
<text text-anchor="middle" x="466" y="-121.5" font-family="Helvetica,sans-Serif" font-size="10.00">VAL_TYPE</text>
</a>
</g>
</g>
<!-- Node15&#45;&gt;Node16 -->
<g id="edge23" class="edge">
<title>Node15&#45;&gt;Node16</title>
<path fill="none" stroke="midnightblue" d="M384.31,-136.88C396.96,-134.86 411.08,-132.61 423.93,-130.56"/>
<polygon fill="midnightblue" stroke="midnightblue" points="424.59,-134 433.91,-128.96 423.49,-127.08 424.59,-134"/>
</g>
<!-- Node17&#45;&gt;Node1 -->
<g id="edge26" class="edge">
<title>Node17&#45;&gt;Node1</title>
<path fill="none" stroke="midnightblue" d="M195.75,-248.67C157.31,-239.71 96.66,-225.58 59.08,-216.82"/>
<polygon fill="midnightblue" stroke="midnightblue" points="59.66,-213.37 49.13,-214.51 58.08,-220.18 59.66,-213.37"/>
</g>
<!-- Node17&#45;&gt;Node7 -->
<g id="edge25" class="edge">
<title>Node17&#45;&gt;Node7</title>
<path fill="none" stroke="midnightblue" d="M269.13,-266.48C324.35,-279.15 432.5,-295.85 512,-257 544.25,-241.24 566.53,-203.88 577.7,-180.99"/>
<polygon fill="midnightblue" stroke="midnightblue" points="581.02,-182.17 582.05,-171.62 574.67,-179.22 581.02,-182.17"/>
</g>
</g>
</svg>
