<?xml version="1.0" encoding="UTF-8" standalone="no"?>
<!DOCTYPE svg PUBLIC "-//W3C//DTD SVG 1.1//EN"
 "http://www.w3.org/Graphics/SVG/1.1/DTD/svg11.dtd">
<!-- Generated by graphviz version 2.43.0 (0)
 -->
<!-- Title: IF_EXT Pages: 1 -->
<svg width="605pt" height="104pt"
 viewBox="0.00 0.00 605.00 104.00" xmlns="http://www.w3.org/2000/svg" xmlns:xlink="http://www.w3.org/1999/xlink">
<g id="graph0" class="graph" transform="scale(1 1) rotate(0) translate(4 100)">
<title>IF_EXT</title>
<polygon fill="white" stroke="transparent" points="-4,4 -4,-100 601,-100 601,4 -4,4"/>
<!-- Node1 -->
<g id="node1" class="node">
<title>Node1</title>
<g id="a_node1"><a xlink:title="Extended function for CALL_DEF()">
<polygon fill="#bfbfbf" stroke="black" points="547,-57.5 547,-76.5 597,-76.5 597,-57.5 547,-57.5"/>
<text text-anchor="middle" x="572" y="-64.5" font-family="Helvetica,sans-Serif" font-size="10.00">IF_EXT</text>
</a>
</g>
</g>
<!-- Node2 -->
<g id="node2" class="node">
<title>Node2</title>
<g id="a_node2"><a xlink:href="syntactic__analysis_8c.html#ac9b33c13aa831335429748838739aef7" target="_top" xlink:title="Processes if condition.">
<polygon fill="white" stroke="black" points="461,-38.5 461,-57.5 511,-57.5 511,-38.5 461,-38.5"/>
<text text-anchor="middle" x="486" y="-45.5" font-family="Helvetica,sans-Serif" font-size="10.00">IF_DEF</text>
</a>
</g>
</g>
<!-- Node1&#45;&gt;Node2 -->
<g id="edge1" class="edge">
<title>Node1&#45;&gt;Node2</title>
<path fill="none" stroke="midnightblue" d="M536.91,-59.29C528.31,-57.34 519.25,-55.29 511.24,-53.48"/>
<polygon fill="midnightblue" stroke="midnightblue" points="536.18,-62.71 546.7,-61.5 537.72,-55.88 536.18,-62.71"/>
</g>
<!-- Node3 -->
<g id="node3" class="node">
<title>Node3</title>
<g id="a_node3"><a xlink:href="syntactic__analysis_8c.html#a7eac9e4351cf87fecd3e9a66cf5f28d8" target="_top" xlink:title="Processes the commands, coditions, ...">
<polygon fill="white" stroke="black" points="351,-38.5 351,-57.5 425,-57.5 425,-38.5 351,-38.5"/>
<text text-anchor="middle" x="388" y="-45.5" font-family="Helvetica,sans-Serif" font-size="10.00">STATEMENT</text>
</a>
</g>
</g>
<!-- Node2&#45;&gt;Node3 -->
<g id="edge2" class="edge">
<title>Node2&#45;&gt;Node3</title>
<path fill="none" stroke="midnightblue" d="M450.7,-48C442.42,-48 433.56,-48 425.2,-48"/>
<polygon fill="midnightblue" stroke="midnightblue" points="450.78,-51.5 460.78,-48 450.78,-44.5 450.78,-51.5"/>
</g>
<!-- Node4 -->
<g id="node4" class="node">
<title>Node4</title>
<g id="a_node4"><a xlink:href="syntactic__analysis_8c.html#a7d21e9db61747d6734d9a7f27d33b4f4" target="_top" xlink:title="Function for determining the depth of infestation.">
<polygon fill="white" stroke="black" points="266,-76.5 266,-95.5 315,-95.5 315,-76.5 266,-76.5"/>
<text text-anchor="middle" x="290.5" y="-83.5" font-family="Helvetica,sans-Serif" font-size="10.00">SCOPE</text>
</a>
</g>
</g>
<!-- Node3&#45;&gt;Node4 -->
<g id="edge3" class="edge">
<title>Node3&#45;&gt;Node4</title>
<path fill="none" stroke="midnightblue" d="M353.59,-61.29C340.95,-66.32 326.84,-71.94 315.26,-76.55"/>
<polygon fill="midnightblue" stroke="midnightblue" points="354.9,-64.54 362.9,-57.59 352.32,-58.03 354.9,-64.54"/>
</g>
<!-- Node4&#45;&gt;Node1 -->
<g id="edge9" class="edge">
<title>Node4&#45;&gt;Node1</title>
<path fill="none" stroke="midnightblue" d="M325.48,-83.69C382.67,-79.8 496.78,-72.05 546.69,-68.65"/>
<polygon fill="midnightblue" stroke="midnightblue" points="324.9,-80.22 315.16,-84.39 325.38,-87.2 324.9,-80.22"/>
</g>
<!-- Node5 -->
<g id="node5" class="node">
<title>Node5</title>
<g id="a_node5"><a xlink:href="syntactic__analysis_8c.html#a047deda12297b3a39f2d50261fd7de70" target="_top" xlink:title="Processes else condition.">
<polygon fill="white" stroke="black" points="161,-38.5 161,-57.5 226,-57.5 226,-38.5 161,-38.5"/>
<text text-anchor="middle" x="193.5" y="-45.5" font-family="Helvetica,sans-Serif" font-size="10.00">ELSE_DEF</text>
</a>
</g>
</g>
<!-- Node4&#45;&gt;Node5 -->
<g id="edge4" class="edge">
<title>Node4&#45;&gt;Node5</title>
<path fill="none" stroke="midnightblue" d="M255.97,-72.59C243.59,-67.64 229.83,-62.13 218.46,-57.59"/>
<polygon fill="midnightblue" stroke="midnightblue" points="254.94,-75.95 265.53,-76.41 257.54,-69.45 254.94,-75.95"/>
</g>
<!-- Node6 -->
<g id="node6" class="node">
<title>Node6</title>
<g id="a_node6"><a xlink:href="syntactic__analysis_8c.html#afb9892407a0399d61e51261ff730599a" target="_top" xlink:title="Processes function declaration.">
<polygon fill="white" stroke="black" points="166,-76.5 166,-95.5 221,-95.5 221,-76.5 166,-76.5"/>
<text text-anchor="middle" x="193.5" y="-83.5" font-family="Helvetica,sans-Serif" font-size="10.00">FN_DEF</text>
</a>
</g>
</g>
<!-- Node4&#45;&gt;Node6 -->
<g id="edge6" class="edge">
<title>Node4&#45;&gt;Node6</title>
<path fill="none" stroke="midnightblue" d="M255.2,-86C243.98,-86 231.71,-86 221.14,-86"/>
<polygon fill="midnightblue" stroke="midnightblue" points="255.53,-89.5 265.53,-86 255.53,-82.5 255.53,-89.5"/>
</g>
<!-- Node9 -->
<g id="node9" class="node">
<title>Node9</title>
<g id="a_node9"><a xlink:href="syntactic__analysis_8c.html#a13efec100d0c39c874c413765ded4d10" target="_top" xlink:title="Processes while loop.">
<polygon fill="white" stroke="black" points="157,-0.5 157,-19.5 230,-19.5 230,-0.5 157,-0.5"/>
<text text-anchor="middle" x="193.5" y="-7.5" font-family="Helvetica,sans-Serif" font-size="10.00">WHILE_DEF</text>
</a>
</g>
</g>
<!-- Node4&#45;&gt;Node9 -->
<g id="edge10" class="edge">
<title>Node4&#45;&gt;Node9</title>
<path fill="none" stroke="midnightblue" d="M273.84,-68.68C262.43,-56.65 246.18,-40.74 230,-29 225.25,-25.55 219.79,-22.32 214.61,-19.54"/>
<polygon fill="midnightblue" stroke="midnightblue" points="271.55,-71.34 280.92,-76.28 276.67,-66.58 271.55,-71.34"/>
</g>
<!-- Node5&#45;&gt;Node3 -->
<g id="edge5" class="edge">
<title>Node5&#45;&gt;Node3</title>
<path fill="none" stroke="midnightblue" d="M236.21,-48C270.38,-48 318.22,-48 350.79,-48"/>
<polygon fill="midnightblue" stroke="midnightblue" points="236.08,-44.5 226.08,-48 236.08,-51.5 236.08,-44.5"/>
</g>
<!-- Node7 -->
<g id="node7" class="node">
<title>Node7</title>
<g id="a_node7"><a xlink:href="syntactic__analysis_8c.html#a607ec0964227a0c6c98fd79770e51c11" target="_top" xlink:title="Processes the FIRST rule in the syntactic analysis.">
<polygon fill="white" stroke="black" points="77,-76.5 77,-95.5 121,-95.5 121,-76.5 77,-76.5"/>
<text text-anchor="middle" x="99" y="-83.5" font-family="Helvetica,sans-Serif" font-size="10.00">FIRST</text>
</a>
</g>
</g>
<!-- Node6&#45;&gt;Node7 -->
<g id="edge7" class="edge">
<title>Node6&#45;&gt;Node7</title>
<path fill="none" stroke="midnightblue" d="M155.72,-86C143.97,-86 131.36,-86 121.12,-86"/>
<polygon fill="midnightblue" stroke="midnightblue" points="155.75,-89.5 165.75,-86 155.75,-82.5 155.75,-89.5"/>
</g>
<!-- Node8 -->
<g id="node8" class="node">
<title>Node8</title>
<g id="a_node8"><a xlink:href="main_8c.html#a3c04138a5bfe5d72780bb7e82a18e627" target="_top" xlink:title=" ">
<polygon fill="white" stroke="black" points="0,-76.5 0,-95.5 41,-95.5 41,-76.5 0,-76.5"/>
<text text-anchor="middle" x="20.5" y="-83.5" font-family="Helvetica,sans-Serif" font-size="10.00">main</text>
</a>
</g>
</g>
<!-- Node7&#45;&gt;Node8 -->
<g id="edge8" class="edge">
<title>Node7&#45;&gt;Node8</title>
<path fill="none" stroke="midnightblue" d="M66.55,-86C57.94,-86 48.86,-86 41.12,-86"/>
<polygon fill="midnightblue" stroke="midnightblue" points="66.69,-89.5 76.69,-86 66.69,-82.5 66.69,-89.5"/>
</g>
<!-- Node9&#45;&gt;Node3 -->
<g id="edge11" class="edge">
<title>Node9&#45;&gt;Node3</title>
<path fill="none" stroke="midnightblue" d="M240.31,-19.04C274.12,-25.72 319.5,-34.68 350.79,-40.85"/>
<polygon fill="midnightblue" stroke="midnightblue" points="240.71,-15.55 230.22,-17.05 239.35,-22.42 240.71,-15.55"/>
</g>
</g>
</svg>
