<?xml version="1.0" encoding="UTF-8" standalone="no"?>
<!DOCTYPE svg PUBLIC "-//W3C//DTD SVG 1.1//EN"
 "http://www.w3.org/Graphics/SVG/1.1/DTD/svg11.dtd">
<!-- Generated by graphviz version 2.43.0 (0)
 -->
<!-- Title: ASSIGN_VAR Pages: 1 -->
<svg width="200pt" height="66pt"
 viewBox="0.00 0.00 200.00 66.00" xmlns="http://www.w3.org/2000/svg" xmlns:xlink="http://www.w3.org/1999/xlink">
<g id="graph0" class="graph" transform="scale(1 1) rotate(0) translate(4 62)">
<title>ASSIGN_VAR</title>
<polygon fill="white" stroke="transparent" points="-4,4 -4,-62 196,-62 196,4 -4,4"/>
<!-- Node1 -->
<g id="node1" class="node">
<title>Node1</title>
<g id="a_node1"><a xlink:title="Processes assigning expresions to the variable.">
<polygon fill="#bfbfbf" stroke="black" points="0,-19.5 0,-38.5 78,-38.5 78,-19.5 0,-19.5"/>
<text text-anchor="middle" x="39" y="-26.5" font-family="Helvetica,sans-Serif" font-size="10.00">ASSIGN_VAR</text>
</a>
</g>
</g>
<!-- Node2 -->
<g id="node2" class="node">
<title>Node2</title>
<g id="a_node2"><a xlink:href="syntactic__analysis_8c.html#a38b7a13b9a5926c2c4b6af62cec86f85" target="_top" xlink:title="Function for processing another argument which is in queue.">
<polygon fill="white" stroke="black" points="114,-38.5 114,-57.5 192,-57.5 192,-38.5 114,-38.5"/>
<text text-anchor="middle" x="153" y="-45.5" font-family="Helvetica,sans-Serif" font-size="10.00">EXPRESSION</text>
</a>
</g>
</g>
<!-- Node1&#45;&gt;Node2 -->
<g id="edge1" class="edge">
<title>Node1&#45;&gt;Node2</title>
<path fill="none" stroke="midnightblue" d="M78.23,-35.49C86.52,-36.89 95.39,-38.4 104,-39.86"/>
<polygon fill="midnightblue" stroke="midnightblue" points="103.5,-43.32 113.94,-41.54 104.67,-36.42 103.5,-43.32"/>
</g>
<!-- Node3 -->
<g id="node3" class="node">
<title>Node3</title>
<g id="a_node3"><a xlink:href="syntactic__analysis_8c.html#aaef2bee27144c07c175bb36e4c28af9d" target="_top" xlink:title="Function for verifaction enabled data types (DATA TYPES)">
<polygon fill="white" stroke="black" points="121,-0.5 121,-19.5 185,-19.5 185,-0.5 121,-0.5"/>
<text text-anchor="middle" x="153" y="-7.5" font-family="Helvetica,sans-Serif" font-size="10.00">VAL_TYPE</text>
</a>
</g>
</g>
<!-- Node1&#45;&gt;Node3 -->
<g id="edge2" class="edge">
<title>Node1&#45;&gt;Node3</title>
<path fill="none" stroke="midnightblue" d="M78.23,-22.51C88.8,-20.72 100.3,-18.77 111.02,-16.95"/>
<polygon fill="midnightblue" stroke="midnightblue" points="111.72,-20.38 120.99,-15.26 110.55,-13.48 111.72,-20.38"/>
</g>
</g>
</svg>
