<?xml version="1.0" encoding="UTF-8" standalone="no"?>
<!DOCTYPE svg PUBLIC "-//W3C//DTD SVG 1.1//EN"
 "http://www.w3.org/Graphics/SVG/1.1/DTD/svg11.dtd">
<!-- Generated by graphviz version 2.43.0 (0)
 -->
<!-- Title: WHILE_DEF Pages: 1 -->
<svg width="540pt" height="117pt"
 viewBox="0.00 0.00 540.00 117.02" xmlns="http://www.w3.org/2000/svg" xmlns:xlink="http://www.w3.org/1999/xlink">
<g id="graph0" class="graph" transform="scale(1 1) rotate(0) translate(4 113.02)">
<title>WHILE_DEF</title>
<polygon fill="white" stroke="transparent" points="-4,4 -4,-113.02 536,-113.02 536,4 -4,4"/>
<!-- Node1 -->
<g id="node1" class="node">
<title>Node1</title>
<g id="a_node1"><a xlink:title="Processes while loop.">
<polygon fill="#bfbfbf" stroke="black" points="459,-32.52 459,-51.52 532,-51.52 532,-32.52 459,-32.52"/>
<text text-anchor="middle" x="495.5" y="-39.52" font-family="Helvetica,sans-Serif" font-size="10.00">WHILE_DEF</text>
</a>
</g>
</g>
<!-- Node2 -->
<g id="node2" class="node">
<title>Node2</title>
<g id="a_node2"><a xlink:href="syntactic__analysis_8c.html#a7eac9e4351cf87fecd3e9a66cf5f28d8" target="_top" xlink:title="Processes the commands, coditions, ...">
<polygon fill="white" stroke="black" points="349,-13.52 349,-32.52 423,-32.52 423,-13.52 349,-13.52"/>
<text text-anchor="middle" x="386" y="-20.52" font-family="Helvetica,sans-Serif" font-size="10.00">STATEMENT</text>
</a>
</g>
</g>
<!-- Node1&#45;&gt;Node2 -->
<g id="edge1" class="edge">
<title>Node1&#45;&gt;Node2</title>
<path fill="none" stroke="midnightblue" d="M448.78,-33.94C440.16,-32.42 431.27,-30.84 423.01,-29.38"/>
<polygon fill="midnightblue" stroke="midnightblue" points="448.25,-37.4 458.7,-35.69 449.47,-30.51 448.25,-37.4"/>
</g>
<!-- Node3 -->
<g id="node3" class="node">
<title>Node3</title>
<g id="a_node3"><a xlink:href="syntactic__analysis_8c.html#a7d21e9db61747d6734d9a7f27d33b4f4" target="_top" xlink:title="Function for determining the depth of infestation.">
<polygon fill="white" stroke="black" points="264,-51.52 264,-70.52 313,-70.52 313,-51.52 264,-51.52"/>
<text text-anchor="middle" x="288.5" y="-58.52" font-family="Helvetica,sans-Serif" font-size="10.00">SCOPE</text>
</a>
</g>
</g>
<!-- Node2&#45;&gt;Node3 -->
<g id="edge2" class="edge">
<title>Node2&#45;&gt;Node3</title>
<path fill="none" stroke="midnightblue" d="M351.59,-36.31C338.95,-41.34 324.84,-46.96 313.26,-51.57"/>
<polygon fill="midnightblue" stroke="midnightblue" points="352.9,-39.56 360.9,-32.61 350.32,-33.05 352.9,-39.56"/>
</g>
<!-- Node3&#45;&gt;Node1 -->
<g id="edge11" class="edge">
<title>Node3&#45;&gt;Node1</title>
<path fill="none" stroke="midnightblue" d="M323.68,-57.85C361.08,-54.39 420.79,-48.85 458.79,-45.33"/>
<polygon fill="midnightblue" stroke="midnightblue" points="322.93,-54.41 313.29,-58.82 323.57,-61.38 322.93,-54.41"/>
</g>
<!-- Node4 -->
<g id="node4" class="node">
<title>Node4</title>
<g id="a_node4"><a xlink:href="syntactic__analysis_8c.html#a047deda12297b3a39f2d50261fd7de70" target="_top" xlink:title="Processes else condition.">
<polygon fill="white" stroke="black" points="163,-13.52 163,-32.52 228,-32.52 228,-13.52 163,-13.52"/>
<text text-anchor="middle" x="195.5" y="-20.52" font-family="Helvetica,sans-Serif" font-size="10.00">ELSE_DEF</text>
</a>
</g>
</g>
<!-- Node3&#45;&gt;Node4 -->
<g id="edge3" class="edge">
<title>Node3&#45;&gt;Node4</title>
<path fill="none" stroke="midnightblue" d="M255.03,-47.46C243.27,-42.55 230.23,-37.11 219.46,-32.61"/>
<polygon fill="midnightblue" stroke="midnightblue" points="253.96,-50.81 264.54,-51.43 256.66,-44.35 253.96,-50.81"/>
</g>
<!-- Node5 -->
<g id="node5" class="node">
<title>Node5</title>
<g id="a_node5"><a xlink:href="syntactic__analysis_8c.html#afb9892407a0399d61e51261ff730599a" target="_top" xlink:title="Processes function declaration.">
<polygon fill="white" stroke="black" points="168,-89.52 168,-108.52 223,-108.52 223,-89.52 168,-89.52"/>
<text text-anchor="middle" x="195.5" y="-96.52" font-family="Helvetica,sans-Serif" font-size="10.00">FN_DEF</text>
</a>
</g>
</g>
<!-- Node3&#45;&gt;Node5 -->
<g id="edge5" class="edge">
<title>Node3&#45;&gt;Node5</title>
<path fill="none" stroke="midnightblue" d="M255.03,-74.58C243.27,-79.49 230.23,-84.93 219.46,-89.43"/>
<polygon fill="midnightblue" stroke="midnightblue" points="256.66,-77.69 264.54,-70.61 253.96,-71.23 256.66,-77.69"/>
</g>
<!-- Node8 -->
<g id="node8" class="node">
<title>Node8</title>
<g id="a_node8"><a xlink:href="syntactic__analysis_8c.html#af131918ae0d8a1cc29cb2c8d6dc13aff" target="_top" xlink:title="Extended function for CALL_DEF()">
<polygon fill="white" stroke="black" points="170.5,-51.52 170.5,-70.52 220.5,-70.52 220.5,-51.52 170.5,-51.52"/>
<text text-anchor="middle" x="195.5" y="-58.52" font-family="Helvetica,sans-Serif" font-size="10.00">IF_EXT</text>
</a>
</g>
</g>
<!-- Node3&#45;&gt;Node8 -->
<g id="edge8" class="edge">
<title>Node3&#45;&gt;Node8</title>
<path fill="none" stroke="midnightblue" d="M253.48,-61.02C242.53,-61.02 230.64,-61.02 220.57,-61.02"/>
<polygon fill="midnightblue" stroke="midnightblue" points="253.59,-64.52 263.59,-61.02 253.59,-57.52 253.59,-64.52"/>
</g>
<!-- Node4&#45;&gt;Node2 -->
<g id="edge4" class="edge">
<title>Node4&#45;&gt;Node2</title>
<path fill="none" stroke="midnightblue" d="M238.3,-23.02C271.37,-23.02 317.09,-23.02 348.66,-23.02"/>
<polygon fill="midnightblue" stroke="midnightblue" points="238.04,-19.52 228.04,-23.02 238.04,-26.52 238.04,-19.52"/>
</g>
<!-- Node6 -->
<g id="node6" class="node">
<title>Node6</title>
<g id="a_node6"><a xlink:href="syntactic__analysis_8c.html#a607ec0964227a0c6c98fd79770e51c11" target="_top" xlink:title="Processes the FIRST rule in the syntactic analysis.">
<polygon fill="white" stroke="black" points="80,-89.52 80,-108.52 124,-108.52 124,-89.52 80,-89.52"/>
<text text-anchor="middle" x="102" y="-96.52" font-family="Helvetica,sans-Serif" font-size="10.00">FIRST</text>
</a>
</g>
</g>
<!-- Node5&#45;&gt;Node6 -->
<g id="edge6" class="edge">
<title>Node5&#45;&gt;Node6</title>
<path fill="none" stroke="midnightblue" d="M157.46,-99.02C146.16,-99.02 134.13,-99.02 124.26,-99.02"/>
<polygon fill="midnightblue" stroke="midnightblue" points="157.54,-102.52 167.54,-99.02 157.54,-95.52 157.54,-102.52"/>
</g>
<!-- Node7 -->
<g id="node7" class="node">
<title>Node7</title>
<g id="a_node7"><a xlink:href="main_8c.html#a3c04138a5bfe5d72780bb7e82a18e627" target="_top" xlink:title=" ">
<polygon fill="white" stroke="black" points="0,-89.52 0,-108.52 41,-108.52 41,-89.52 0,-89.52"/>
<text text-anchor="middle" x="20.5" y="-96.52" font-family="Helvetica,sans-Serif" font-size="10.00">main</text>
</a>
</g>
</g>
<!-- Node6&#45;&gt;Node7 -->
<g id="edge7" class="edge">
<title>Node6&#45;&gt;Node7</title>
<path fill="none" stroke="midnightblue" d="M69.67,-99.02C60.08,-99.02 49.81,-99.02 41.23,-99.02"/>
<polygon fill="midnightblue" stroke="midnightblue" points="69.7,-102.52 79.7,-99.02 69.7,-95.52 69.7,-102.52"/>
</g>
<!-- Node9 -->
<g id="node9" class="node">
<title>Node9</title>
<g id="a_node9"><a xlink:href="syntactic__analysis_8c.html#ac9b33c13aa831335429748838739aef7" target="_top" xlink:title="Processes if condition.">
<polygon fill="white" stroke="black" points="77,-13.52 77,-32.52 127,-32.52 127,-13.52 77,-13.52"/>
<text text-anchor="middle" x="102" y="-20.52" font-family="Helvetica,sans-Serif" font-size="10.00">IF_DEF</text>
</a>
</g>
</g>
<!-- Node8&#45;&gt;Node9 -->
<g id="edge9" class="edge">
<title>Node8&#45;&gt;Node9</title>
<path fill="none" stroke="midnightblue" d="M161.85,-47.46C150.02,-42.55 136.92,-37.11 126.08,-32.61"/>
<polygon fill="midnightblue" stroke="midnightblue" points="160.83,-50.83 171.41,-51.43 163.52,-44.36 160.83,-50.83"/>
</g>
<!-- Node9&#45;&gt;Node2 -->
<g id="edge10" class="edge">
<title>Node9&#45;&gt;Node2</title>
<path fill="none" stroke="midnightblue" d="M136.68,-10.37C145.15,-7.74 154.31,-5.36 163,-4.02 227.99,6.02 304.56,-5.65 348.67,-14.63"/>
<polygon fill="midnightblue" stroke="midnightblue" points="135.52,-7.07 127.12,-13.52 137.71,-13.71 135.52,-7.07"/>
</g>
</g>
</svg>
