<?xml version="1.0" encoding="UTF-8" standalone="no"?>
<!DOCTYPE svg PUBLIC "-//W3C//DTD SVG 1.1//EN"
 "http://www.w3.org/Graphics/SVG/1.1/DTD/svg11.dtd">
<!-- Generated by graphviz version 2.43.0 (0)
 -->
<!-- Title: WHILE_DEF Pages: 1 -->
<svg width="743pt" height="290pt"
 viewBox="0.00 0.00 743.00 290.06" xmlns="http://www.w3.org/2000/svg" xmlns:xlink="http://www.w3.org/1999/xlink">
<g id="graph0" class="graph" transform="scale(1 1) rotate(0) translate(4 286.06)">
<title>WHILE_DEF</title>
<polygon fill="white" stroke="transparent" points="-4,4 -4,-286.06 739,-286.06 739,4 -4,4"/>
<!-- Node1 -->
<g id="node1" class="node">
<title>Node1</title>
<g id="a_node1"><a xlink:title="Processes while loop.">
<polygon fill="#bfbfbf" stroke="black" points="0,-114.5 0,-133.5 73,-133.5 73,-114.5 0,-114.5"/>
<text text-anchor="middle" x="36.5" y="-121.5" font-family="Helvetica,sans-Serif" font-size="10.00">WHILE_DEF</text>
</a>
</g>
</g>
<!-- Node2 -->
<g id="node2" class="node">
<title>Node2</title>
<g id="a_node2"><a xlink:href="syntactic__analysis_8c.html#a38b7a13b9a5926c2c4b6af62cec86f85" target="_top" xlink:title="Function for processing another argument which is in queue.">
<polygon fill="white" stroke="black" points="657,-114.5 657,-133.5 735,-133.5 735,-114.5 657,-114.5"/>
<text text-anchor="middle" x="696" y="-121.5" font-family="Helvetica,sans-Serif" font-size="10.00">EXPRESSION</text>
</a>
</g>
</g>
<!-- Node1&#45;&gt;Node2 -->
<g id="edge1" class="edge">
<title>Node1&#45;&gt;Node2</title>
<path fill="none" stroke="midnightblue" d="M43.11,-133.51C63.53,-166.78 137.6,-276 230,-276 230,-276 230,-276 455,-276 529.26,-276 559.23,-298.22 621,-257 661.32,-230.09 681.86,-173.44 690.26,-143.5"/>
<polygon fill="midnightblue" stroke="midnightblue" points="693.65,-144.34 692.82,-133.78 686.88,-142.56 693.65,-144.34"/>
</g>
<!-- Node3 -->
<g id="node3" class="node">
<title>Node3</title>
<g id="a_node3"><a xlink:href="syntactic__analysis_8c.html#a7d21e9db61747d6734d9a7f27d33b4f4" target="_top" xlink:title="Function for determining the depth of infestation.">
<polygon fill="white" stroke="black" points="109,-76.5 109,-95.5 158,-95.5 158,-76.5 109,-76.5"/>
<text text-anchor="middle" x="133.5" y="-83.5" font-family="Helvetica,sans-Serif" font-size="10.00">SCOPE</text>
</a>
</g>
</g>
<!-- Node1&#45;&gt;Node3 -->
<g id="edge2" class="edge">
<title>Node1&#45;&gt;Node3</title>
<path fill="none" stroke="midnightblue" d="M61.47,-114.41C72.92,-109.83 86.81,-104.27 99.26,-99.29"/>
<polygon fill="midnightblue" stroke="midnightblue" points="100.88,-102.42 108.86,-95.45 98.28,-95.92 100.88,-102.42"/>
</g>
<!-- Node4 -->
<g id="node4" class="node">
<title>Node4</title>
<g id="a_node4"><a xlink:href="syntactic__analysis_8c.html#a7eac9e4351cf87fecd3e9a66cf5f28d8" target="_top" xlink:title="Processes the commands, coditions, ...">
<polygon fill="white" stroke="black" points="194,-114.5 194,-133.5 268,-133.5 268,-114.5 194,-114.5"/>
<text text-anchor="middle" x="231" y="-121.5" font-family="Helvetica,sans-Serif" font-size="10.00">STATEMENT</text>
</a>
</g>
</g>
<!-- Node3&#45;&gt;Node4 -->
<g id="edge3" class="edge">
<title>Node3&#45;&gt;Node4</title>
<path fill="none" stroke="midnightblue" d="M158.11,-95.39C169.73,-100.02 183.94,-105.67 196.64,-110.73"/>
<polygon fill="midnightblue" stroke="midnightblue" points="195.42,-114.01 206,-114.45 198,-107.5 195.42,-114.01"/>
</g>
<!-- Node4&#45;&gt;Node1 -->
<g id="edge26" class="edge">
<title>Node4&#45;&gt;Node1</title>
<path fill="none" stroke="midnightblue" d="M193.78,-124C162.5,-124 117.15,-124 83.35,-124"/>
<polygon fill="midnightblue" stroke="midnightblue" points="83.26,-120.5 73.26,-124 83.26,-127.5 83.26,-120.5"/>
</g>
<!-- Node5 -->
<g id="node5" class="node">
<title>Node5</title>
<g id="a_node5"><a xlink:href="syntactic__analysis_8c.html#a2999c303cc3fb4692b7e96d9a22e9c03" target="_top" xlink:title="Processes calling functions, variables.">
<polygon fill="white" stroke="black" points="309,-114.5 309,-133.5 374,-133.5 374,-114.5 309,-114.5"/>
<text text-anchor="middle" x="341.5" y="-121.5" font-family="Helvetica,sans-Serif" font-size="10.00">CALL_DEF</text>
</a>
</g>
</g>
<!-- Node4&#45;&gt;Node5 -->
<g id="edge4" class="edge">
<title>Node4&#45;&gt;Node5</title>
<path fill="none" stroke="midnightblue" d="M268.13,-124C277.92,-124 288.6,-124 298.68,-124"/>
<polygon fill="midnightblue" stroke="midnightblue" points="298.9,-127.5 308.9,-124 298.9,-120.5 298.9,-127.5"/>
</g>
<!-- Node9 -->
<g id="node9" class="node">
<title>Node9</title>
<g id="a_node9"><a xlink:href="syntactic__analysis_8c.html#ab1c09d376532dc76198f8d2d6c729fef" target="_top" xlink:title="Processes command for constant declaration.">
<polygon fill="white" stroke="black" points="304,-190.5 304,-209.5 379,-209.5 379,-190.5 304,-190.5"/>
<text text-anchor="middle" x="341.5" y="-197.5" font-family="Helvetica,sans-Serif" font-size="10.00">CONST_DEF</text>
</a>
</g>
</g>
<!-- Node4&#45;&gt;Node9 -->
<g id="edge11" class="edge">
<title>Node4&#45;&gt;Node9</title>
<path fill="none" stroke="midnightblue" d="M242.73,-133.57C256.39,-145.49 280.98,-166.09 304,-181 306.42,-182.57 308.98,-184.11 311.58,-185.6"/>
<polygon fill="midnightblue" stroke="midnightblue" points="309.96,-188.7 320.41,-190.41 313.3,-182.55 309.96,-188.7"/>
</g>
<!-- Node11 -->
<g id="node11" class="node">
<title>Node11</title>
<g id="a_node11"><a xlink:href="syntactic__analysis_8c.html#a047deda12297b3a39f2d50261fd7de70" target="_top" xlink:title="Processes else condition.">
<polygon fill="white" stroke="black" points="309,-38.5 309,-57.5 374,-57.5 374,-38.5 309,-38.5"/>
<text text-anchor="middle" x="341.5" y="-45.5" font-family="Helvetica,sans-Serif" font-size="10.00">ELSE_DEF</text>
</a>
</g>
</g>
<!-- Node4&#45;&gt;Node11 -->
<g id="edge14" class="edge">
<title>Node4&#45;&gt;Node11</title>
<path fill="none" stroke="midnightblue" d="M242.73,-114.43C256.39,-102.51 280.98,-81.91 304,-67 306.42,-65.43 308.98,-63.89 311.58,-62.4"/>
<polygon fill="midnightblue" stroke="midnightblue" points="313.3,-65.45 320.41,-57.59 309.96,-59.3 313.3,-65.45"/>
</g>
<!-- Node12 -->
<g id="node12" class="node">
<title>Node12</title>
<g id="a_node12"><a xlink:href="syntactic__analysis_8c.html#ac9b33c13aa831335429748838739aef7" target="_top" xlink:title="Processes if condition.">
<polygon fill="white" stroke="black" points="316.5,-76.5 316.5,-95.5 366.5,-95.5 366.5,-76.5 316.5,-76.5"/>
<text text-anchor="middle" x="341.5" y="-83.5" font-family="Helvetica,sans-Serif" font-size="10.00">IF_DEF</text>
</a>
</g>
</g>
<!-- Node4&#45;&gt;Node12 -->
<g id="edge16" class="edge">
<title>Node4&#45;&gt;Node12</title>
<path fill="none" stroke="midnightblue" d="M259.38,-114.41C273.8,-109.36 291.61,-103.12 306.86,-97.78"/>
<polygon fill="midnightblue" stroke="midnightblue" points="308.17,-101.03 316.45,-94.42 305.86,-94.42 308.17,-101.03"/>
</g>
<!-- Node14 -->
<g id="node14" class="node">
<title>Node14</title>
<g id="a_node14"><a xlink:href="syntactic__analysis_8c.html#a1012bbb9f570627aabec5e3eda7c4993" target="_top" xlink:title="Processes return command.">
<polygon fill="white" stroke="black" points="545,-228.5 545,-247.5 605,-247.5 605,-228.5 545,-228.5"/>
<text text-anchor="middle" x="575" y="-235.5" font-family="Helvetica,sans-Serif" font-size="10.00">RET_DEF</text>
</a>
</g>
</g>
<!-- Node4&#45;&gt;Node14 -->
<g id="edge20" class="edge">
<title>Node4&#45;&gt;Node14</title>
<path fill="none" stroke="midnightblue" d="M236,-133.72C244.84,-153.8 268.15,-199.59 304,-219 377.56,-258.83 479.39,-252.45 534.59,-244.87"/>
<polygon fill="midnightblue" stroke="midnightblue" points="535.27,-248.31 544.66,-243.4 534.26,-241.38 535.27,-248.31"/>
</g>
<!-- Node15 -->
<g id="node15" class="node">
<title>Node15</title>
<g id="a_node15"><a xlink:href="syntactic__analysis_8c.html#a49c6186e8aee36246b52305756b7a017" target="_top" xlink:title="Processes command for variable declaration.">
<polygon fill="white" stroke="black" points="311,-152.5 311,-171.5 372,-171.5 372,-152.5 311,-152.5"/>
<text text-anchor="middle" x="341.5" y="-159.5" font-family="Helvetica,sans-Serif" font-size="10.00">VAR_DEF</text>
</a>
</g>
</g>
<!-- Node4&#45;&gt;Node15 -->
<g id="edge22" class="edge">
<title>Node4&#45;&gt;Node15</title>
<path fill="none" stroke="midnightblue" d="M259.38,-133.59C272.74,-138.27 289.02,-143.97 303.47,-149.03"/>
<polygon fill="midnightblue" stroke="midnightblue" points="302.53,-152.41 313.13,-152.41 304.85,-145.81 302.53,-152.41"/>
</g>
<!-- Node6 -->
<g id="node6" class="node">
<title>Node6</title>
<g id="a_node6"><a xlink:href="syntactic__analysis_8c.html#ade39708cf9c0a95b1e75a94b3982f1aa" target="_top" xlink:title="Extended function for CALL_DEF()">
<polygon fill="white" stroke="black" points="421.5,-76.5 421.5,-95.5 486.5,-95.5 486.5,-76.5 421.5,-76.5"/>
<text text-anchor="middle" x="454" y="-83.5" font-family="Helvetica,sans-Serif" font-size="10.00">CALL_EXT</text>
</a>
</g>
</g>
<!-- Node5&#45;&gt;Node6 -->
<g id="edge5" class="edge">
<title>Node5&#45;&gt;Node6</title>
<path fill="none" stroke="midnightblue" d="M370.38,-114.41C383.99,-109.73 400.57,-104.03 415.29,-98.97"/>
<polygon fill="midnightblue" stroke="midnightblue" points="416.81,-102.15 425.13,-95.59 414.53,-95.53 416.81,-102.15"/>
</g>
<!-- Node6&#45;&gt;Node2 -->
<g id="edge10" class="edge">
<title>Node6&#45;&gt;Node2</title>
<path fill="none" stroke="midnightblue" d="M486.58,-90.15C520.02,-94.64 574.33,-102.21 621,-110 629.34,-111.39 638.19,-112.97 646.76,-114.56"/>
<polygon fill="midnightblue" stroke="midnightblue" points="646.17,-118.01 656.65,-116.42 647.47,-111.13 646.17,-118.01"/>
</g>
<!-- Node7 -->
<g id="node7" class="node">
<title>Node7</title>
<g id="a_node7"><a xlink:href="syntactic__analysis_8c.html#a83f44b9d12d581ea924af4ba707819c3" target="_top" xlink:title="Function for processing argument of called function.">
<polygon fill="white" stroke="black" points="556,-0.5 556,-19.5 594,-19.5 594,-0.5 556,-0.5"/>
<text text-anchor="middle" x="575" y="-7.5" font-family="Helvetica,sans-Serif" font-size="10.00">ARG</text>
</a>
</g>
</g>
<!-- Node6&#45;&gt;Node7 -->
<g id="edge6" class="edge">
<title>Node6&#45;&gt;Node7</title>
<path fill="none" stroke="midnightblue" d="M470.07,-76.37C490.37,-63.41 526.69,-40.21 550.57,-24.96"/>
<polygon fill="midnightblue" stroke="midnightblue" points="552.51,-27.88 559.05,-19.55 548.74,-21.98 552.51,-27.88"/>
</g>
<!-- Node7&#45;&gt;Node2 -->
<g id="edge9" class="edge">
<title>Node7&#45;&gt;Node2</title>
<path fill="none" stroke="midnightblue" d="M594.09,-17.63C602.73,-21.76 612.92,-27.38 621,-34 646.8,-55.14 670.07,-86.38 683.36,-105.95"/>
<polygon fill="midnightblue" stroke="midnightblue" points="680.44,-107.88 688.89,-114.28 686.27,-104.01 680.44,-107.88"/>
</g>
<!-- Node8 -->
<g id="node8" class="node">
<title>Node8</title>
<g id="a_node8"><a xlink:href="syntactic__analysis_8c.html#a271ef1f0dc6a029b233bcb024b19b116" target="_top" xlink:title="Function for processing another argument which is in queue.">
<polygon fill="white" stroke="black" points="674,-0.5 674,-19.5 718,-19.5 718,-0.5 674,-0.5"/>
<text text-anchor="middle" x="696" y="-7.5" font-family="Helvetica,sans-Serif" font-size="10.00">ARGS</text>
</a>
</g>
</g>
<!-- Node7&#45;&gt;Node8 -->
<g id="edge7" class="edge">
<title>Node7&#45;&gt;Node8</title>
<path fill="none" stroke="midnightblue" d="M594.07,-4.99C612.51,-3.08 641.49,-2.74 663.67,-3.97"/>
<polygon fill="midnightblue" stroke="midnightblue" points="663.72,-7.49 673.94,-4.7 664.21,-0.5 663.72,-7.49"/>
</g>
<!-- Node8&#45;&gt;Node7 -->
<g id="edge8" class="edge">
<title>Node8&#45;&gt;Node7</title>
<path fill="none" stroke="midnightblue" d="M673.94,-15.3C654.53,-17.03 625.58,-17.21 604.19,-15.84"/>
<polygon fill="midnightblue" stroke="midnightblue" points="604.33,-12.34 594.07,-15.01 603.75,-19.32 604.33,-12.34"/>
</g>
<!-- Node10 -->
<g id="node10" class="node">
<title>Node10</title>
<g id="a_node10"><a xlink:href="syntactic__analysis_8c.html#aa1d8bc4c3095f3ba13e1fcc83038d948" target="_top" xlink:title="Processes assigning expresions to the constant.">
<polygon fill="white" stroke="black" points="529,-190.5 529,-209.5 621,-209.5 621,-190.5 529,-190.5"/>
<text text-anchor="middle" x="575" y="-197.5" font-family="Helvetica,sans-Serif" font-size="10.00">ASSIGN_CONST</text>
</a>
</g>
</g>
<!-- Node9&#45;&gt;Node10 -->
<g id="edge12" class="edge">
<title>Node9&#45;&gt;Node10</title>
<path fill="none" stroke="midnightblue" d="M379.18,-200C416.72,-200 475.5,-200 518.68,-200"/>
<polygon fill="midnightblue" stroke="midnightblue" points="518.75,-203.5 528.75,-200 518.75,-196.5 518.75,-203.5"/>
</g>
<!-- Node10&#45;&gt;Node2 -->
<g id="edge13" class="edge">
<title>Node10&#45;&gt;Node2</title>
<path fill="none" stroke="midnightblue" d="M601.78,-190.45C608.22,-187.71 614.99,-184.5 621,-181 641.14,-169.25 662,-152.72 676.42,-140.49"/>
<polygon fill="midnightblue" stroke="midnightblue" points="678.83,-143.03 684.11,-133.85 674.25,-137.73 678.83,-143.03"/>
</g>
<!-- Node11&#45;&gt;Node3 -->
<g id="edge15" class="edge">
<title>Node11&#45;&gt;Node3</title>
<path fill="none" stroke="midnightblue" d="M308.75,-53.86C270.74,-60.87 207.37,-72.56 168.42,-79.74"/>
<polygon fill="midnightblue" stroke="midnightblue" points="167.33,-76.38 158.13,-81.64 168.6,-83.27 167.33,-76.38"/>
</g>
<!-- Node12&#45;&gt;Node2 -->
<g id="edge17" class="edge">
<title>Node12&#45;&gt;Node2</title>
<path fill="none" stroke="midnightblue" d="M366.69,-78C380.64,-73.8 398.61,-69.11 415,-67 506.47,-55.21 532.91,-64.7 621,-92 636.49,-96.8 653.12,-103.81 666.68,-110.05"/>
<polygon fill="midnightblue" stroke="midnightblue" points="665.42,-113.32 675.96,-114.41 668.4,-106.99 665.42,-113.32"/>
</g>
<!-- Node13 -->
<g id="node13" class="node">
<title>Node13</title>
<g id="a_node13"><a xlink:href="syntactic__analysis_8c.html#af131918ae0d8a1cc29cb2c8d6dc13aff" target="_top" xlink:title="Extended function for CALL_DEF()">
<polygon fill="white" stroke="black" points="429,-0.5 429,-19.5 479,-19.5 479,-0.5 429,-0.5"/>
<text text-anchor="middle" x="454" y="-7.5" font-family="Helvetica,sans-Serif" font-size="10.00">IF_EXT</text>
</a>
</g>
</g>
<!-- Node12&#45;&gt;Node13 -->
<g id="edge18" class="edge">
<title>Node12&#45;&gt;Node13</title>
<path fill="none" stroke="midnightblue" d="M363.13,-76.46C368.47,-73.67 374.08,-70.44 379,-67 396.78,-54.55 397.76,-47.18 415,-34 418.98,-30.96 423.34,-27.94 427.66,-25.12"/>
<polygon fill="midnightblue" stroke="midnightblue" points="429.71,-27.96 436.3,-19.66 425.97,-22.04 429.71,-27.96"/>
</g>
<!-- Node13&#45;&gt;Node3 -->
<g id="edge19" class="edge">
<title>Node13&#45;&gt;Node3</title>
<path fill="none" stroke="midnightblue" d="M428.73,-11.81C382.03,-15.87 276.95,-27.83 194,-58 183.19,-61.93 171.66,-67.11 161.67,-71.94"/>
<polygon fill="midnightblue" stroke="midnightblue" points="160.04,-68.84 152.63,-76.41 163.14,-75.12 160.04,-68.84"/>
</g>
<!-- Node14&#45;&gt;Node2 -->
<g id="edge21" class="edge">
<title>Node14&#45;&gt;Node2</title>
<path fill="none" stroke="midnightblue" d="M604.81,-228.42C610.48,-225.84 616.16,-222.72 621,-219 648.78,-197.69 671.89,-163.6 684.54,-142.58"/>
<polygon fill="midnightblue" stroke="midnightblue" points="687.72,-144.07 689.74,-133.67 681.68,-140.54 687.72,-144.07"/>
</g>
<!-- Node16 -->
<g id="node16" class="node">
<title>Node16</title>
<g id="a_node16"><a xlink:href="syntactic__analysis_8c.html#a76e0ba812902123b4ec0d43c59c13c04" target="_top" xlink:title="Processes assigning expresions to the variable.">
<polygon fill="white" stroke="black" points="415,-152.5 415,-171.5 493,-171.5 493,-152.5 415,-152.5"/>
<text text-anchor="middle" x="454" y="-159.5" font-family="Helvetica,sans-Serif" font-size="10.00">ASSIGN_VAR</text>
</a>
</g>
</g>
<!-- Node15&#45;&gt;Node16 -->
<g id="edge23" class="edge">
<title>Node15&#45;&gt;Node16</title>
<path fill="none" stroke="midnightblue" d="M372.11,-162C382.19,-162 393.74,-162 404.89,-162"/>
<polygon fill="midnightblue" stroke="midnightblue" points="404.97,-165.5 414.97,-162 404.97,-158.5 404.97,-165.5"/>
</g>
<!-- Node16&#45;&gt;Node2 -->
<g id="edge24" class="edge">
<title>Node16&#45;&gt;Node2</title>
<path fill="none" stroke="midnightblue" d="M488.31,-152.41C500.96,-149.04 515.57,-145.48 529,-143 568.25,-135.75 613.27,-130.8 646.51,-127.78"/>
<polygon fill="midnightblue" stroke="midnightblue" points="647.22,-131.23 656.87,-126.87 646.6,-124.26 647.22,-131.23"/>
</g>
<!-- Node17 -->
<g id="node17" class="node">
<title>Node17</title>
<g id="a_node17"><a xlink:href="syntactic__analysis_8c.html#aaef2bee27144c07c175bb36e4c28af9d" target="_top" xlink:title="Function for verifaction enabled data types (DATA TYPES)">
<polygon fill="white" stroke="black" points="543,-152.5 543,-171.5 607,-171.5 607,-152.5 543,-152.5"/>
<text text-anchor="middle" x="575" y="-159.5" font-family="Helvetica,sans-Serif" font-size="10.00">VAL_TYPE</text>
</a>
</g>
</g>
<!-- Node16&#45;&gt;Node17 -->
<g id="edge25" class="edge">
<title>Node16&#45;&gt;Node17</title>
<path fill="none" stroke="midnightblue" d="M493.31,-162C505.83,-162 519.8,-162 532.55,-162"/>
<polygon fill="midnightblue" stroke="midnightblue" points="532.91,-165.5 542.91,-162 532.91,-158.5 532.91,-165.5"/>
</g>
</g>
</svg>
