<?xml version="1.0" encoding="UTF-8" standalone="no"?>
<!DOCTYPE svg PUBLIC "-//W3C//DTD SVG 1.1//EN"
 "http://www.w3.org/Graphics/SVG/1.1/DTD/svg11.dtd">
<!-- Generated by graphviz version 2.43.0 (0)
 -->
<!-- Title: ARGS Pages: 1 -->
<svg width="795pt" height="154pt"
 viewBox="0.00 0.00 795.00 154.06" xmlns="http://www.w3.org/2000/svg" xmlns:xlink="http://www.w3.org/1999/xlink">
<g id="graph0" class="graph" transform="scale(1 1) rotate(0) translate(4 150.06)">
<title>ARGS</title>
<polygon fill="white" stroke="transparent" points="-4,4 -4,-150.06 791,-150.06 791,4 -4,4"/>
<!-- Node1 -->
<g id="node1" class="node">
<title>Node1</title>
<g id="a_node1"><a xlink:title="Function for processing another argument which is in queue.">
<polygon fill="#bfbfbf" stroke="black" points="743,-31.56 743,-50.56 787,-50.56 787,-31.56 743,-31.56"/>
<text text-anchor="middle" x="765" y="-38.56" font-family="Helvetica,sans-Serif" font-size="10.00">ARGS</text>
</a>
</g>
</g>
<!-- Node2 -->
<g id="node2" class="node">
<title>Node2</title>
<g id="a_node2"><a xlink:href="syntactic__analysis_8c.html#a83f44b9d12d581ea924af4ba707819c3" target="_top" xlink:title="Function for processing argument of called function.">
<polygon fill="white" stroke="black" points="669,-31.56 669,-50.56 707,-50.56 707,-31.56 669,-31.56"/>
<text text-anchor="middle" x="688" y="-38.56" font-family="Helvetica,sans-Serif" font-size="10.00">ARG</text>
</a>
</g>
</g>
<!-- Node1&#45;&gt;Node2 -->
<g id="edge1" class="edge">
<title>Node1&#45;&gt;Node2</title>
<path fill="none" stroke="midnightblue" d="M732.47,-34.39C723.79,-34.16 714.67,-34.43 707.04,-35.19"/>
<polygon fill="midnightblue" stroke="midnightblue" points="732.54,-37.9 742.71,-34.91 732.9,-30.91 732.54,-37.9"/>
</g>
<!-- Node2&#45;&gt;Node1 -->
<g id="edge2" class="edge">
<title>Node2&#45;&gt;Node1</title>
<path fill="none" stroke="midnightblue" d="M717.24,-47.62C725.68,-47.97 734.79,-47.84 742.71,-47.22"/>
<polygon fill="midnightblue" stroke="midnightblue" points="717.26,-44.12 707.04,-46.93 716.78,-51.1 717.26,-44.12"/>
</g>
<!-- Node3 -->
<g id="node3" class="node">
<title>Node3</title>
<g id="a_node3"><a xlink:href="syntactic__analysis_8c.html#ade39708cf9c0a95b1e75a94b3982f1aa" target="_top" xlink:title="Extended function for CALL_DEF()">
<polygon fill="white" stroke="black" points="568,-31.56 568,-50.56 633,-50.56 633,-31.56 568,-31.56"/>
<text text-anchor="middle" x="600.5" y="-38.56" font-family="Helvetica,sans-Serif" font-size="10.00">CALL_EXT</text>
</a>
</g>
</g>
<!-- Node2&#45;&gt;Node3 -->
<g id="edge3" class="edge">
<title>Node2&#45;&gt;Node3</title>
<path fill="none" stroke="midnightblue" d="M658.67,-41.06C650.47,-41.06 641.46,-41.06 633.08,-41.06"/>
<polygon fill="midnightblue" stroke="midnightblue" points="658.87,-44.56 668.87,-41.06 658.87,-37.56 658.87,-44.56"/>
</g>
<!-- Node4 -->
<g id="node4" class="node">
<title>Node4</title>
<g id="a_node4"><a xlink:href="syntactic__analysis_8c.html#a2999c303cc3fb4692b7e96d9a22e9c03" target="_top" xlink:title="Processes calling functions, variables.">
<polygon fill="white" stroke="black" points="467,-31.56 467,-50.56 532,-50.56 532,-31.56 467,-31.56"/>
<text text-anchor="middle" x="499.5" y="-38.56" font-family="Helvetica,sans-Serif" font-size="10.00">CALL_DEF</text>
</a>
</g>
</g>
<!-- Node3&#45;&gt;Node4 -->
<g id="edge4" class="edge">
<title>Node3&#45;&gt;Node4</title>
<path fill="none" stroke="midnightblue" d="M557.69,-41.06C549.14,-41.06 540.26,-41.06 532.14,-41.06"/>
<polygon fill="midnightblue" stroke="midnightblue" points="557.9,-44.56 567.9,-41.06 557.9,-37.56 557.9,-44.56"/>
</g>
<!-- Node5 -->
<g id="node5" class="node">
<title>Node5</title>
<g id="a_node5"><a xlink:href="syntactic__analysis_8c.html#a7eac9e4351cf87fecd3e9a66cf5f28d8" target="_top" xlink:title="Processes the commands, coditions, ...">
<polygon fill="white" stroke="black" points="357,-31.56 357,-50.56 431,-50.56 431,-31.56 357,-31.56"/>
<text text-anchor="middle" x="394" y="-38.56" font-family="Helvetica,sans-Serif" font-size="10.00">STATEMENT</text>
</a>
</g>
</g>
<!-- Node4&#45;&gt;Node5 -->
<g id="edge5" class="edge">
<title>Node4&#45;&gt;Node5</title>
<path fill="none" stroke="midnightblue" d="M456.77,-41.06C448.28,-41.06 439.41,-41.06 431.13,-41.06"/>
<polygon fill="midnightblue" stroke="midnightblue" points="456.88,-44.56 466.88,-41.06 456.88,-37.56 456.88,-44.56"/>
</g>
<!-- Node6 -->
<g id="node6" class="node">
<title>Node6</title>
<g id="a_node6"><a xlink:href="syntactic__analysis_8c.html#a7d21e9db61747d6734d9a7f27d33b4f4" target="_top" xlink:title="Function for determining the depth of infestation.">
<polygon fill="white" stroke="black" points="272,-50.56 272,-69.56 321,-69.56 321,-50.56 272,-50.56"/>
<text text-anchor="middle" x="296.5" y="-57.56" font-family="Helvetica,sans-Serif" font-size="10.00">SCOPE</text>
</a>
</g>
</g>
<!-- Node5&#45;&gt;Node6 -->
<g id="edge6" class="edge">
<title>Node5&#45;&gt;Node6</title>
<path fill="none" stroke="midnightblue" d="M346.94,-50.23C338.03,-52 329.04,-53.79 321.22,-55.34"/>
<polygon fill="midnightblue" stroke="midnightblue" points="347.77,-53.63 356.9,-48.24 346.4,-46.76 347.77,-53.63"/>
</g>
<!-- Node7 -->
<g id="node7" class="node">
<title>Node7</title>
<g id="a_node7"><a xlink:href="syntactic__analysis_8c.html#a047deda12297b3a39f2d50261fd7de70" target="_top" xlink:title="Processes else condition.">
<polygon fill="white" stroke="black" points="167,-126.56 167,-145.56 232,-145.56 232,-126.56 167,-126.56"/>
<text text-anchor="middle" x="199.5" y="-133.56" font-family="Helvetica,sans-Serif" font-size="10.00">ELSE_DEF</text>
</a>
</g>
</g>
<!-- Node6&#45;&gt;Node7 -->
<g id="edge7" class="edge">
<title>Node6&#45;&gt;Node7</title>
<path fill="none" stroke="midnightblue" d="M279.84,-77.39C268.43,-89.41 252.18,-105.32 236,-117.06 231.25,-120.51 225.79,-123.74 220.61,-126.53"/>
<polygon fill="midnightblue" stroke="midnightblue" points="282.67,-79.48 286.92,-69.78 277.55,-74.72 282.67,-79.48"/>
</g>
<!-- Node8 -->
<g id="node8" class="node">
<title>Node8</title>
<g id="a_node8"><a xlink:href="syntactic__analysis_8c.html#afb9892407a0399d61e51261ff730599a" target="_top" xlink:title="Processes function declaration.">
<polygon fill="white" stroke="black" points="172,-88.56 172,-107.56 227,-107.56 227,-88.56 172,-88.56"/>
<text text-anchor="middle" x="199.5" y="-95.56" font-family="Helvetica,sans-Serif" font-size="10.00">FN_DEF</text>
</a>
</g>
</g>
<!-- Node6&#45;&gt;Node8 -->
<g id="edge9" class="edge">
<title>Node6&#45;&gt;Node8</title>
<path fill="none" stroke="midnightblue" d="M261.97,-73.47C249.59,-78.42 235.83,-83.93 224.46,-88.48"/>
<polygon fill="midnightblue" stroke="midnightblue" points="263.54,-76.61 271.53,-69.65 260.94,-70.11 263.54,-76.61"/>
</g>
<!-- Node11 -->
<g id="node11" class="node">
<title>Node11</title>
<g id="a_node11"><a xlink:href="syntactic__analysis_8c.html#af131918ae0d8a1cc29cb2c8d6dc13aff" target="_top" xlink:title="Extended function for CALL_DEF()">
<polygon fill="white" stroke="black" points="174.5,-50.56 174.5,-69.56 224.5,-69.56 224.5,-50.56 174.5,-50.56"/>
<text text-anchor="middle" x="199.5" y="-57.56" font-family="Helvetica,sans-Serif" font-size="10.00">IF_EXT</text>
</a>
</g>
</g>
<!-- Node6&#45;&gt;Node11 -->
<g id="edge12" class="edge">
<title>Node6&#45;&gt;Node11</title>
<path fill="none" stroke="midnightblue" d="M261.32,-60.06C249.23,-60.06 235.89,-60.06 224.8,-60.06"/>
<polygon fill="midnightblue" stroke="midnightblue" points="261.53,-63.56 271.53,-60.06 261.53,-56.56 261.53,-63.56"/>
</g>
<!-- Node13 -->
<g id="node13" class="node">
<title>Node13</title>
<g id="a_node13"><a xlink:href="syntactic__analysis_8c.html#a13efec100d0c39c874c413765ded4d10" target="_top" xlink:title="Processes while loop.">
<polygon fill="white" stroke="black" points="163,-12.56 163,-31.56 236,-31.56 236,-12.56 163,-12.56"/>
<text text-anchor="middle" x="199.5" y="-19.56" font-family="Helvetica,sans-Serif" font-size="10.00">WHILE_DEF</text>
</a>
</g>
</g>
<!-- Node6&#45;&gt;Node13 -->
<g id="edge15" class="edge">
<title>Node6&#45;&gt;Node13</title>
<path fill="none" stroke="midnightblue" d="M261.97,-46.65C249.59,-41.7 235.83,-36.19 224.46,-31.65"/>
<polygon fill="midnightblue" stroke="midnightblue" points="260.94,-50.01 271.53,-50.47 263.54,-43.51 260.94,-50.01"/>
</g>
<!-- Node7&#45;&gt;Node5 -->
<g id="edge8" class="edge">
<title>Node7&#45;&gt;Node5</title>
<path fill="none" stroke="midnightblue" d="M230.67,-122.24C255.15,-110.91 290.48,-94.32 321,-79.06 339.71,-69.7 360.85,-58.47 375.36,-50.65"/>
<polygon fill="midnightblue" stroke="midnightblue" points="229.15,-119.08 221.53,-126.45 232.08,-125.44 229.15,-119.08"/>
</g>
<!-- Node9 -->
<g id="node9" class="node">
<title>Node9</title>
<g id="a_node9"><a xlink:href="syntactic__analysis_8c.html#a607ec0964227a0c6c98fd79770e51c11" target="_top" xlink:title="Processes the FIRST rule in the syntactic analysis.">
<polygon fill="white" stroke="black" points="80,-88.56 80,-107.56 124,-107.56 124,-88.56 80,-88.56"/>
<text text-anchor="middle" x="102" y="-95.56" font-family="Helvetica,sans-Serif" font-size="10.00">FIRST</text>
</a>
</g>
</g>
<!-- Node8&#45;&gt;Node9 -->
<g id="edge10" class="edge">
<title>Node8&#45;&gt;Node9</title>
<path fill="none" stroke="midnightblue" d="M161.55,-98.06C148.83,-98.06 135.03,-98.06 124.02,-98.06"/>
<polygon fill="midnightblue" stroke="midnightblue" points="161.9,-101.56 171.9,-98.06 161.9,-94.56 161.9,-101.56"/>
</g>
<!-- Node10 -->
<g id="node10" class="node">
<title>Node10</title>
<g id="a_node10"><a xlink:href="main_8c.html#a3c04138a5bfe5d72780bb7e82a18e627" target="_top" xlink:title=" ">
<polygon fill="white" stroke="black" points="0,-88.56 0,-107.56 41,-107.56 41,-88.56 0,-88.56"/>
<text text-anchor="middle" x="20.5" y="-95.56" font-family="Helvetica,sans-Serif" font-size="10.00">main</text>
</a>
</g>
</g>
<!-- Node9&#45;&gt;Node10 -->
<g id="edge11" class="edge">
<title>Node9&#45;&gt;Node10</title>
<path fill="none" stroke="midnightblue" d="M69.67,-98.06C60.08,-98.06 49.81,-98.06 41.23,-98.06"/>
<polygon fill="midnightblue" stroke="midnightblue" points="69.7,-101.56 79.7,-98.06 69.7,-94.56 69.7,-101.56"/>
</g>
<!-- Node12 -->
<g id="node12" class="node">
<title>Node12</title>
<g id="a_node12"><a xlink:href="syntactic__analysis_8c.html#ac9b33c13aa831335429748838739aef7" target="_top" xlink:title="Processes if condition.">
<polygon fill="white" stroke="black" points="77,-12.56 77,-31.56 127,-31.56 127,-12.56 77,-12.56"/>
<text text-anchor="middle" x="102" y="-19.56" font-family="Helvetica,sans-Serif" font-size="10.00">IF_DEF</text>
</a>
</g>
</g>
<!-- Node11&#45;&gt;Node12 -->
<g id="edge13" class="edge">
<title>Node11&#45;&gt;Node12</title>
<path fill="none" stroke="midnightblue" d="M164.79,-46.65C152.35,-41.7 138.51,-36.19 127.09,-31.65"/>
<polygon fill="midnightblue" stroke="midnightblue" points="163.82,-50.03 174.4,-50.47 166.4,-43.52 163.82,-50.03"/>
</g>
<!-- Node12&#45;&gt;Node5 -->
<g id="edge14" class="edge">
<title>Node12&#45;&gt;Node5</title>
<path fill="none" stroke="midnightblue" d="M136.68,-9.41C145.15,-6.78 154.31,-4.4 163,-3.06 237.39,8.44 325.1,-16.83 367.5,-31.51"/>
<polygon fill="midnightblue" stroke="midnightblue" points="135.52,-6.11 127.12,-12.56 137.71,-12.76 135.52,-6.11"/>
</g>
<!-- Node13&#45;&gt;Node5 -->
<g id="edge16" class="edge">
<title>Node13&#45;&gt;Node5</title>
<path fill="none" stroke="midnightblue" d="M246.31,-26.58C280.12,-29.92 325.5,-34.4 356.79,-37.49"/>
<polygon fill="midnightblue" stroke="midnightblue" points="246.52,-23.09 236.22,-25.59 245.83,-30.05 246.52,-23.09"/>
</g>
</g>
</svg>
