<?xml version="1.0" encoding="UTF-8" standalone="no"?>
<!DOCTYPE svg PUBLIC "-//W3C//DTD SVG 1.1//EN"
 "http://www.w3.org/Graphics/SVG/1.1/DTD/svg11.dtd">
<!-- Generated by graphviz version 2.43.0 (0)
 -->
<!-- Title: ARG Pages: 1 -->
<svg width="314pt" height="47pt"
 viewBox="0.00 0.00 314.00 47.00" xmlns="http://www.w3.org/2000/svg" xmlns:xlink="http://www.w3.org/1999/xlink">
<g id="graph0" class="graph" transform="scale(1 1) rotate(0) translate(4 43)">
<title>ARG</title>
<polygon fill="white" stroke="transparent" points="-4,4 -4,-43 310,-43 310,4 -4,4"/>
<!-- Node1 -->
<g id="node1" class="node">
<title>Node1</title>
<g id="a_node1"><a xlink:title="Function for processing argument of called function.">
<polygon fill="#bfbfbf" stroke="black" points="0,-0.5 0,-19.5 38,-19.5 38,-0.5 0,-0.5"/>
<text text-anchor="middle" x="19" y="-7.5" font-family="Helvetica,sans-Serif" font-size="10.00">ARG</text>
</a>
</g>
</g>
<!-- Node2 -->
<g id="node2" class="node">
<title>Node2</title>
<g id="a_node2"><a xlink:href="syntactic__analysis_8c.html#a271ef1f0dc6a029b233bcb024b19b116" target="_top" xlink:title="Function for processing another argument which is in queue.">
<polygon fill="white" stroke="black" points="74,-19.5 74,-38.5 118,-38.5 118,-19.5 74,-19.5"/>
<text text-anchor="middle" x="96" y="-26.5" font-family="Helvetica,sans-Serif" font-size="10.00">ARGS</text>
</a>
</g>
</g>
<!-- Node1&#45;&gt;Node2 -->
<g id="edge1" class="edge">
<title>Node1&#45;&gt;Node2</title>
<path fill="none" stroke="midnightblue" d="M38.16,-14.6C45.88,-16.56 55.12,-18.9 63.88,-21.12"/>
<polygon fill="midnightblue" stroke="midnightblue" points="63.27,-24.57 73.82,-23.63 64.99,-17.79 63.27,-24.57"/>
</g>
<!-- Node4 -->
<g id="node4" class="node">
<title>Node4</title>
<g id="a_node4"><a xlink:href="syntactic__analysis_8c.html#a38b7a13b9a5926c2c4b6af62cec86f85" target="_top" xlink:title="Function for processing another argument which is in queue.">
<polygon fill="white" stroke="black" points="228,-0.5 228,-19.5 306,-19.5 306,-0.5 228,-0.5"/>
<text text-anchor="middle" x="267" y="-7.5" font-family="Helvetica,sans-Serif" font-size="10.00">EXPRESSION</text>
</a>
</g>
</g>
<!-- Node1&#45;&gt;Node4 -->
<g id="edge5" class="edge">
<title>Node1&#45;&gt;Node4</title>
<path fill="none" stroke="midnightblue" d="M38.09,-10C75.51,-10 162.52,-10 217.56,-10"/>
<polygon fill="midnightblue" stroke="midnightblue" points="217.78,-13.5 227.78,-10 217.78,-6.5 217.78,-13.5"/>
</g>
<!-- Node3 -->
<g id="node3" class="node">
<title>Node3</title>
<g id="a_node3"><a xlink:href="syntactic__analysis_8c.html#a83f44b9d12d581ea924af4ba707819c3" target="_top" xlink:title="Function for processing argument of called function.">
<polygon fill="white" stroke="black" points="154,-19.5 154,-38.5 192,-38.5 192,-19.5 154,-19.5"/>
<text text-anchor="middle" x="173" y="-26.5" font-family="Helvetica,sans-Serif" font-size="10.00">ARG</text>
</a>
</g>
</g>
<!-- Node2&#45;&gt;Node3 -->
<g id="edge2" class="edge">
<title>Node2&#45;&gt;Node3</title>
<path fill="none" stroke="midnightblue" d="M118.29,-22.84C126.21,-22.23 135.32,-22.09 143.76,-22.44"/>
<polygon fill="midnightblue" stroke="midnightblue" points="143.74,-25.94 153.96,-23.13 144.22,-18.96 143.74,-25.94"/>
</g>
<!-- Node3&#45;&gt;Node2 -->
<g id="edge3" class="edge">
<title>Node3&#45;&gt;Node2</title>
<path fill="none" stroke="midnightblue" d="M153.96,-34.87C146.33,-35.63 137.21,-35.9 128.53,-35.67"/>
<polygon fill="midnightblue" stroke="midnightblue" points="128.46,-32.17 118.29,-35.16 128.1,-39.16 128.46,-32.17"/>
</g>
<!-- Node3&#45;&gt;Node4 -->
<g id="edge4" class="edge">
<title>Node3&#45;&gt;Node4</title>
<path fill="none" stroke="midnightblue" d="M192.18,-25.25C199.64,-23.71 208.66,-21.84 217.8,-19.95"/>
<polygon fill="midnightblue" stroke="midnightblue" points="218.61,-23.36 227.7,-17.91 217.2,-16.51 218.61,-23.36"/>
</g>
</g>
</svg>
