<?xml version="1.0" encoding="UTF-8" standalone="no"?>
<!DOCTYPE svg PUBLIC "-//W3C//DTD SVG 1.1//EN"
 "http://www.w3.org/Graphics/SVG/1.1/DTD/svg11.dtd">
<!-- Generated by graphviz version 2.43.0 (0)
 -->
<!-- Title: IF_DEF Pages: 1 -->
<svg width="792pt" height="322pt"
 viewBox="0.00 0.00 792.00 322.00" xmlns="http://www.w3.org/2000/svg" xmlns:xlink="http://www.w3.org/1999/xlink">
<g id="graph0" class="graph" transform="scale(1 1) rotate(0) translate(4 318)">
<title>IF_DEF</title>
<polygon fill="white" stroke="transparent" points="-4,4 -4,-318 788,-318 788,4 -4,4"/>
<!-- Node1 -->
<g id="node1" class="node">
<title>Node1</title>
<g id="a_node1"><a xlink:title="Processes if condition.">
<polygon fill="#bfbfbf" stroke="black" points="0,-276.5 0,-295.5 50,-295.5 50,-276.5 0,-276.5"/>
<text text-anchor="middle" x="25" y="-283.5" font-family="Helvetica,sans-Serif" font-size="10.00">IF_DEF</text>
</a>
</g>
</g>
<!-- Node2 -->
<g id="node2" class="node">
<title>Node2</title>
<g id="a_node2"><a xlink:href="syntactic__analysis_8c.html#a38b7a13b9a5926c2c4b6af62cec86f85" target="_top" xlink:title="Function for processing another argument which is in queue.">
<polygon fill="white" stroke="black" points="706,-133.5 706,-152.5 784,-152.5 784,-133.5 706,-133.5"/>
<text text-anchor="middle" x="745" y="-140.5" font-family="Helvetica,sans-Serif" font-size="10.00">EXPRESSION</text>
</a>
</g>
</g>
<!-- Node1&#45;&gt;Node2 -->
<g id="edge1" class="edge">
<title>Node1&#45;&gt;Node2</title>
<path fill="none" stroke="midnightblue" d="M50.21,-292.56C82.92,-300.84 143.16,-314 195.5,-314 195.5,-314 195.5,-314 525,-314 592.88,-314 616.98,-308.39 670,-266 704.88,-238.11 727.19,-188.99 737.44,-162.03"/>
<polygon fill="midnightblue" stroke="midnightblue" points="740.75,-163.17 740.88,-152.57 734.17,-160.77 740.75,-163.17"/>
</g>
<!-- Node3 -->
<g id="node3" class="node">
<title>Node3</title>
<g id="a_node3"><a xlink:href="syntactic__analysis_8c.html#af131918ae0d8a1cc29cb2c8d6dc13aff" target="_top" xlink:title="Extended function for CALL_DEF()">
<polygon fill="white" stroke="black" points="86,-257.5 86,-276.5 136,-276.5 136,-257.5 86,-257.5"/>
<text text-anchor="middle" x="111" y="-264.5" font-family="Helvetica,sans-Serif" font-size="10.00">IF_EXT</text>
</a>
</g>
</g>
<!-- Node1&#45;&gt;Node3 -->
<g id="edge2" class="edge">
<title>Node1&#45;&gt;Node3</title>
<path fill="none" stroke="midnightblue" d="M50.3,-280.5C58.31,-278.69 67.37,-276.64 75.97,-274.7"/>
<polygon fill="midnightblue" stroke="midnightblue" points="76.78,-278.1 85.76,-272.48 75.23,-271.28 76.78,-278.1"/>
</g>
<!-- Node4 -->
<g id="node4" class="node">
<title>Node4</title>
<g id="a_node4"><a xlink:href="syntactic__analysis_8c.html#a7d21e9db61747d6734d9a7f27d33b4f4" target="_top" xlink:title="Function for determining the depth of infestation.">
<polygon fill="white" stroke="black" points="172,-166.5 172,-185.5 221,-185.5 221,-166.5 172,-166.5"/>
<text text-anchor="middle" x="196.5" y="-173.5" font-family="Helvetica,sans-Serif" font-size="10.00">SCOPE</text>
</a>
</g>
</g>
<!-- Node3&#45;&gt;Node4 -->
<g id="edge3" class="edge">
<title>Node3&#45;&gt;Node4</title>
<path fill="none" stroke="midnightblue" d="M120.94,-257.26C135,-241.94 162.48,-211.99 179.86,-193.04"/>
<polygon fill="midnightblue" stroke="midnightblue" points="182.45,-195.4 186.63,-185.67 177.29,-190.67 182.45,-195.4"/>
</g>
<!-- Node5 -->
<g id="node5" class="node">
<title>Node5</title>
<g id="a_node5"><a xlink:href="syntactic__analysis_8c.html#a7eac9e4351cf87fecd3e9a66cf5f28d8" target="_top" xlink:title="Processes the commands, coditions, ...">
<polygon fill="white" stroke="black" points="257,-142.5 257,-161.5 331,-161.5 331,-142.5 257,-142.5"/>
<text text-anchor="middle" x="294" y="-149.5" font-family="Helvetica,sans-Serif" font-size="10.00">STATEMENT</text>
</a>
</g>
</g>
<!-- Node4&#45;&gt;Node5 -->
<g id="edge4" class="edge">
<title>Node4&#45;&gt;Node5</title>
<path fill="none" stroke="midnightblue" d="M221.11,-170.07C228.89,-168.11 237.84,-165.86 246.72,-163.63"/>
<polygon fill="midnightblue" stroke="midnightblue" points="247.81,-166.97 256.65,-161.13 246.1,-160.18 247.81,-166.97"/>
</g>
<!-- Node6 -->
<g id="node6" class="node">
<title>Node6</title>
<g id="a_node6"><a xlink:href="syntactic__analysis_8c.html#a2999c303cc3fb4692b7e96d9a22e9c03" target="_top" xlink:title="Processes calling functions, variables.">
<polygon fill="white" stroke="black" points="372,-57.5 372,-76.5 437,-76.5 437,-57.5 372,-57.5"/>
<text text-anchor="middle" x="404.5" y="-64.5" font-family="Helvetica,sans-Serif" font-size="10.00">CALL_DEF</text>
</a>
</g>
</g>
<!-- Node5&#45;&gt;Node6 -->
<g id="edge5" class="edge">
<title>Node5&#45;&gt;Node6</title>
<path fill="none" stroke="midnightblue" d="M305.4,-142.49C319.11,-130.12 344.17,-108.08 367,-91 370.97,-88.03 375.28,-85.02 379.52,-82.17"/>
<polygon fill="midnightblue" stroke="midnightblue" points="381.51,-85.05 387.94,-76.64 377.66,-79.2 381.51,-85.05"/>
</g>
<!-- Node10 -->
<g id="node10" class="node">
<title>Node10</title>
<g id="a_node10"><a xlink:href="syntactic__analysis_8c.html#ab1c09d376532dc76198f8d2d6c729fef" target="_top" xlink:title="Processes command for constant declaration.">
<polygon fill="white" stroke="black" points="367,-133.5 367,-152.5 442,-152.5 442,-133.5 367,-133.5"/>
<text text-anchor="middle" x="404.5" y="-140.5" font-family="Helvetica,sans-Serif" font-size="10.00">CONST_DEF</text>
</a>
</g>
</g>
<!-- Node5&#45;&gt;Node10 -->
<g id="edge12" class="edge">
<title>Node5&#45;&gt;Node10</title>
<path fill="none" stroke="midnightblue" d="M331.13,-149C339.28,-148.33 348.05,-147.6 356.57,-146.89"/>
<polygon fill="midnightblue" stroke="midnightblue" points="357.11,-150.36 366.79,-146.05 356.53,-143.38 357.11,-150.36"/>
</g>
<!-- Node12 -->
<g id="node12" class="node">
<title>Node12</title>
<g id="a_node12"><a xlink:href="syntactic__analysis_8c.html#a047deda12297b3a39f2d50261fd7de70" target="_top" xlink:title="Processes else condition.">
<polygon fill="white" stroke="black" points="372,-19.5 372,-38.5 437,-38.5 437,-19.5 372,-19.5"/>
<text text-anchor="middle" x="404.5" y="-26.5" font-family="Helvetica,sans-Serif" font-size="10.00">ELSE_DEF</text>
</a>
</g>
</g>
<!-- Node5&#45;&gt;Node12 -->
<g id="edge15" class="edge">
<title>Node5&#45;&gt;Node12</title>
<path fill="none" stroke="midnightblue" d="M299.69,-142.23C309.66,-122.31 334.71,-76.47 367,-48 368.53,-46.65 370.17,-45.37 371.87,-44.16"/>
<polygon fill="midnightblue" stroke="midnightblue" points="374.12,-46.88 380.78,-38.65 370.44,-40.93 374.12,-46.88"/>
</g>
<!-- Node13 -->
<g id="node13" class="node">
<title>Node13</title>
<g id="a_node13"><a xlink:href="syntactic__analysis_8c.html#ac9b33c13aa831335429748838739aef7" target="_top" xlink:title="Processes if condition.">
<polygon fill="white" stroke="black" points="379.5,-257.5 379.5,-276.5 429.5,-276.5 429.5,-257.5 379.5,-257.5"/>
<text text-anchor="middle" x="404.5" y="-264.5" font-family="Helvetica,sans-Serif" font-size="10.00">IF_DEF</text>
</a>
</g>
</g>
<!-- Node5&#45;&gt;Node13 -->
<g id="edge17" class="edge">
<title>Node5&#45;&gt;Node13</title>
<path fill="none" stroke="midnightblue" d="M301.99,-161.57C314.24,-178.05 340.78,-212.45 367,-238 371.6,-242.49 376.87,-246.98 381.93,-251.05"/>
<polygon fill="midnightblue" stroke="midnightblue" points="380.08,-254.04 390.13,-257.41 384.37,-248.51 380.08,-254.04"/>
</g>
<!-- Node14 -->
<g id="node14" class="node">
<title>Node14</title>
<g id="a_node14"><a xlink:href="syntactic__analysis_8c.html#a1012bbb9f570627aabec5e3eda7c4993" target="_top" xlink:title="Processes return command.">
<polygon fill="white" stroke="black" points="608,-76.5 608,-95.5 668,-95.5 668,-76.5 608,-76.5"/>
<text text-anchor="middle" x="638" y="-83.5" font-family="Helvetica,sans-Serif" font-size="10.00">RET_DEF</text>
</a>
</g>
</g>
<!-- Node5&#45;&gt;Node14 -->
<g id="edge20" class="edge">
<title>Node5&#45;&gt;Node14</title>
<path fill="none" stroke="midnightblue" d="M315.68,-142.48C329.85,-136.33 349.22,-128.64 367,-124 447.51,-102.98 544.76,-92.91 597.8,-88.66"/>
<polygon fill="midnightblue" stroke="midnightblue" points="598.1,-92.15 607.8,-87.89 597.56,-85.17 598.1,-92.15"/>
</g>
<!-- Node15 -->
<g id="node15" class="node">
<title>Node15</title>
<g id="a_node15"><a xlink:href="syntactic__analysis_8c.html#a49c6186e8aee36246b52305756b7a017" target="_top" xlink:title="Processes command for variable declaration.">
<polygon fill="white" stroke="black" points="374,-171.5 374,-190.5 435,-190.5 435,-171.5 374,-171.5"/>
<text text-anchor="middle" x="404.5" y="-178.5" font-family="Helvetica,sans-Serif" font-size="10.00">VAR_DEF</text>
</a>
</g>
</g>
<!-- Node5&#45;&gt;Node15 -->
<g id="edge22" class="edge">
<title>Node5&#45;&gt;Node15</title>
<path fill="none" stroke="midnightblue" d="M330.83,-161.58C341.51,-164.43 353.27,-167.57 364.16,-170.49"/>
<polygon fill="midnightblue" stroke="midnightblue" points="363.3,-173.88 373.86,-173.08 365.11,-167.12 363.3,-173.88"/>
</g>
<!-- Node18 -->
<g id="node18" class="node">
<title>Node18</title>
<g id="a_node18"><a xlink:href="syntactic__analysis_8c.html#a13efec100d0c39c874c413765ded4d10" target="_top" xlink:title="Processes while loop.">
<polygon fill="white" stroke="black" points="368,-209.5 368,-228.5 441,-228.5 441,-209.5 368,-209.5"/>
<text text-anchor="middle" x="404.5" y="-216.5" font-family="Helvetica,sans-Serif" font-size="10.00">WHILE_DEF</text>
</a>
</g>
</g>
<!-- Node5&#45;&gt;Node18 -->
<g id="edge26" class="edge">
<title>Node5&#45;&gt;Node18</title>
<path fill="none" stroke="midnightblue" d="M308.52,-161.65C322.78,-171.68 346.05,-187.61 367,-200 369.54,-201.5 372.2,-203.01 374.89,-204.49"/>
<polygon fill="midnightblue" stroke="midnightblue" points="373.49,-207.71 383.97,-209.33 376.79,-201.53 373.49,-207.71"/>
</g>
<!-- Node7 -->
<g id="node7" class="node">
<title>Node7</title>
<g id="a_node7"><a xlink:href="syntactic__analysis_8c.html#ade39708cf9c0a95b1e75a94b3982f1aa" target="_top" xlink:title="Extended function for CALL_DEF()">
<polygon fill="white" stroke="black" points="491.5,-38.5 491.5,-57.5 556.5,-57.5 556.5,-38.5 491.5,-38.5"/>
<text text-anchor="middle" x="524" y="-45.5" font-family="Helvetica,sans-Serif" font-size="10.00">CALL_EXT</text>
</a>
</g>
</g>
<!-- Node6&#45;&gt;Node7 -->
<g id="edge6" class="edge">
<title>Node6&#45;&gt;Node7</title>
<path fill="none" stroke="midnightblue" d="M437.3,-61.86C450.75,-59.68 466.61,-57.12 481.01,-54.79"/>
<polygon fill="midnightblue" stroke="midnightblue" points="481.86,-58.2 491.18,-53.15 480.75,-51.29 481.86,-58.2"/>
</g>
<!-- Node7&#45;&gt;Node2 -->
<g id="edge11" class="edge">
<title>Node7&#45;&gt;Node2</title>
<path fill="none" stroke="midnightblue" d="M556.71,-46.32C587.31,-46 634.14,-49.03 670,-67 696.5,-80.28 718.93,-106.9 731.93,-124.84"/>
<polygon fill="midnightblue" stroke="midnightblue" points="729.25,-127.11 737.84,-133.31 734.99,-123.11 729.25,-127.11"/>
</g>
<!-- Node8 -->
<g id="node8" class="node">
<title>Node8</title>
<g id="a_node8"><a xlink:href="syntactic__analysis_8c.html#a83f44b9d12d581ea924af4ba707819c3" target="_top" xlink:title="Function for processing argument of called function.">
<polygon fill="white" stroke="black" points="619,-0.5 619,-19.5 657,-19.5 657,-0.5 619,-0.5"/>
<text text-anchor="middle" x="638" y="-7.5" font-family="Helvetica,sans-Serif" font-size="10.00">ARG</text>
</a>
</g>
</g>
<!-- Node7&#45;&gt;Node8 -->
<g id="edge7" class="edge">
<title>Node7&#45;&gt;Node8</title>
<path fill="none" stroke="midnightblue" d="M553.26,-38.41C570.33,-32.62 591.99,-25.27 609.01,-19.5"/>
<polygon fill="midnightblue" stroke="midnightblue" points="610.57,-22.66 618.92,-16.13 608.33,-16.03 610.57,-22.66"/>
</g>
<!-- Node8&#45;&gt;Node2 -->
<g id="edge10" class="edge">
<title>Node8&#45;&gt;Node2</title>
<path fill="none" stroke="midnightblue" d="M653.37,-19.65C658.9,-23.72 665.06,-28.74 670,-34 696.74,-62.46 720.73,-101.44 733.74,-124.25"/>
<polygon fill="midnightblue" stroke="midnightblue" points="730.83,-126.21 738.77,-133.23 736.93,-122.79 730.83,-126.21"/>
</g>
<!-- Node9 -->
<g id="node9" class="node">
<title>Node9</title>
<g id="a_node9"><a xlink:href="syntactic__analysis_8c.html#a271ef1f0dc6a029b233bcb024b19b116" target="_top" xlink:title="Function for processing another argument which is in queue.">
<polygon fill="white" stroke="black" points="723,-0.5 723,-19.5 767,-19.5 767,-0.5 723,-0.5"/>
<text text-anchor="middle" x="745" y="-7.5" font-family="Helvetica,sans-Serif" font-size="10.00">ARGS</text>
</a>
</g>
</g>
<!-- Node8&#45;&gt;Node9 -->
<g id="edge8" class="edge">
<title>Node8&#45;&gt;Node9</title>
<path fill="none" stroke="midnightblue" d="M657.29,-4.73C672.52,-3.17 694.54,-2.84 712.58,-3.76"/>
<polygon fill="midnightblue" stroke="midnightblue" points="712.45,-7.26 722.66,-4.44 712.92,-0.27 712.45,-7.26"/>
</g>
<!-- Node9&#45;&gt;Node8 -->
<g id="edge9" class="edge">
<title>Node9&#45;&gt;Node8</title>
<path fill="none" stroke="midnightblue" d="M722.66,-15.56C706.75,-16.95 684.85,-17.12 667.45,-16.08"/>
<polygon fill="midnightblue" stroke="midnightblue" points="667.54,-12.57 657.29,-15.27 666.98,-19.55 667.54,-12.57"/>
</g>
<!-- Node11 -->
<g id="node11" class="node">
<title>Node11</title>
<g id="a_node11"><a xlink:href="syntactic__analysis_8c.html#aa1d8bc4c3095f3ba13e1fcc83038d948" target="_top" xlink:title="Processes assigning expresions to the constant.">
<polygon fill="white" stroke="black" points="478,-133.5 478,-152.5 570,-152.5 570,-133.5 478,-133.5"/>
<text text-anchor="middle" x="524" y="-140.5" font-family="Helvetica,sans-Serif" font-size="10.00">ASSIGN_CONST</text>
</a>
</g>
</g>
<!-- Node10&#45;&gt;Node11 -->
<g id="edge13" class="edge">
<title>Node10&#45;&gt;Node11</title>
<path fill="none" stroke="midnightblue" d="M442.03,-143C450.17,-143 458.97,-143 467.67,-143"/>
<polygon fill="midnightblue" stroke="midnightblue" points="467.79,-146.5 477.79,-143 467.79,-139.5 467.79,-146.5"/>
</g>
<!-- Node11&#45;&gt;Node2 -->
<g id="edge14" class="edge">
<title>Node11&#45;&gt;Node2</title>
<path fill="none" stroke="midnightblue" d="M570.11,-143C606.74,-143 658.27,-143 695.72,-143"/>
<polygon fill="midnightblue" stroke="midnightblue" points="695.88,-146.5 705.88,-143 695.88,-139.5 695.88,-146.5"/>
</g>
<!-- Node12&#45;&gt;Node4 -->
<g id="edge16" class="edge">
<title>Node12&#45;&gt;Node4</title>
<path fill="none" stroke="midnightblue" d="M383.46,-38.67C378.02,-41.5 372.19,-44.72 367,-48 309.72,-84.18 247.35,-134.36 216.71,-159.81"/>
<polygon fill="midnightblue" stroke="midnightblue" points="214.37,-157.2 208.93,-166.3 218.85,-162.57 214.37,-157.2"/>
</g>
<!-- Node13&#45;&gt;Node2 -->
<g id="edge18" class="edge">
<title>Node13&#45;&gt;Node2</title>
<path fill="none" stroke="midnightblue" d="M429.65,-270.72C478.56,-277.01 591.32,-285.12 670,-241 702.07,-223.02 724.52,-184.78 735.75,-161.75"/>
<polygon fill="midnightblue" stroke="midnightblue" points="738.95,-163.18 740,-152.63 732.6,-160.22 738.95,-163.18"/>
</g>
<!-- Node13&#45;&gt;Node3 -->
<g id="edge19" class="edge">
<title>Node13&#45;&gt;Node3</title>
<path fill="none" stroke="midnightblue" d="M379.42,-267C327.78,-267 206.21,-267 146.42,-267"/>
<polygon fill="midnightblue" stroke="midnightblue" points="146.35,-263.5 136.35,-267 146.35,-270.5 146.35,-263.5"/>
</g>
<!-- Node14&#45;&gt;Node2 -->
<g id="edge21" class="edge">
<title>Node14&#45;&gt;Node2</title>
<path fill="none" stroke="midnightblue" d="M656.81,-95.67C673.43,-104.69 698.44,-118.27 717.42,-128.57"/>
<polygon fill="midnightblue" stroke="midnightblue" points="715.99,-131.78 726.45,-133.47 719.33,-125.63 715.99,-131.78"/>
</g>
<!-- Node16 -->
<g id="node16" class="node">
<title>Node16</title>
<g id="a_node16"><a xlink:href="syntactic__analysis_8c.html#a76e0ba812902123b4ec0d43c59c13c04" target="_top" xlink:title="Processes assigning expresions to the variable.">
<polygon fill="white" stroke="black" points="485,-171.5 485,-190.5 563,-190.5 563,-171.5 485,-171.5"/>
<text text-anchor="middle" x="524" y="-178.5" font-family="Helvetica,sans-Serif" font-size="10.00">ASSIGN_VAR</text>
</a>
</g>
</g>
<!-- Node15&#45;&gt;Node16 -->
<g id="edge23" class="edge">
<title>Node15&#45;&gt;Node16</title>
<path fill="none" stroke="midnightblue" d="M435.15,-181C447.18,-181 461.38,-181 474.82,-181"/>
<polygon fill="midnightblue" stroke="midnightblue" points="474.9,-184.5 484.9,-181 474.9,-177.5 474.9,-184.5"/>
</g>
<!-- Node16&#45;&gt;Node2 -->
<g id="edge24" class="edge">
<title>Node16&#45;&gt;Node2</title>
<path fill="none" stroke="midnightblue" d="M563.15,-174.38C600.01,-167.98 655.99,-158.27 695.89,-151.35"/>
<polygon fill="midnightblue" stroke="midnightblue" points="696.67,-154.77 705.92,-149.61 695.47,-147.87 696.67,-154.77"/>
</g>
<!-- Node17 -->
<g id="node17" class="node">
<title>Node17</title>
<g id="a_node17"><a xlink:href="syntactic__analysis_8c.html#aaef2bee27144c07c175bb36e4c28af9d" target="_top" xlink:title="Function for verifaction enabled data types (DATA TYPES)">
<polygon fill="white" stroke="black" points="606,-190.5 606,-209.5 670,-209.5 670,-190.5 606,-190.5"/>
<text text-anchor="middle" x="638" y="-197.5" font-family="Helvetica,sans-Serif" font-size="10.00">VAL_TYPE</text>
</a>
</g>
</g>
<!-- Node16&#45;&gt;Node17 -->
<g id="edge25" class="edge">
<title>Node16&#45;&gt;Node17</title>
<path fill="none" stroke="midnightblue" d="M563.23,-187.49C573.8,-189.28 585.3,-191.23 596.02,-193.05"/>
<polygon fill="midnightblue" stroke="midnightblue" points="595.55,-196.52 605.99,-194.74 596.72,-189.62 595.55,-196.52"/>
</g>
<!-- Node18&#45;&gt;Node2 -->
<g id="edge27" class="edge">
<title>Node18&#45;&gt;Node2</title>
<path fill="none" stroke="midnightblue" d="M441.02,-227.41C493.47,-238.01 593.64,-251.23 670,-219 697.72,-207.3 720.2,-179.57 732.84,-161.05"/>
<polygon fill="midnightblue" stroke="midnightblue" points="735.84,-162.85 738.38,-152.57 729.98,-159.02 735.84,-162.85"/>
</g>
<!-- Node18&#45;&gt;Node4 -->
<g id="edge28" class="edge">
<title>Node18&#45;&gt;Node4</title>
<path fill="none" stroke="midnightblue" d="M367.75,-211.54C329.31,-203.51 268.66,-190.85 231.08,-183.01"/>
<polygon fill="midnightblue" stroke="midnightblue" points="231.64,-179.55 221.13,-180.93 230.2,-186.4 231.64,-179.55"/>
</g>
</g>
</svg>
